<?xml version="1.0" standalone="no"?>
<!DOCTYPE svg PUBLIC "-//W3C//DTD SVG 1.1//EN" "http://www.w3.org/Graphics/SVG/1.1/DTD/svg11.dtd" >
<svg xmlns="http://www.w3.org/2000/svg" xmlns:xlink="http://www.w3.org/1999/xlink" version="1.1">
<metadata>
Created by FontForge 20170910 at Tue Jul 12 21:23:41 2016
 By Jimmy Wärting
Copyright (c) 2009-13 by Village Type &#38; Design LLC. All rights reserved.
</metadata>
<defs>
<font id="Copernicus-Book" horiz-adv-x="700" >
  <font-face 
    font-family="Copernicus Book"
    font-weight="711"
    font-stretch="normal"
    units-per-em="1000"
    panose-1="2 0 0 0 0 0 0 0 0 0"
    ascent="800"
    descent="-200"
    x-height="523"
    cap-height="780"
    bbox="-148 -307 1422 1050"
    underline-thickness="30"
    underline-position="-100"
    unicode-range="U+000D-F614"
  />
<missing-glyph horiz-adv-x="960" 
d="M90 780h780v-780h-780v780zM201 66h558l-279 279zM480 435l279 279h-558zM160 665v-550l275 275zM800 115v550l-275 -275z" />
    <glyph glyph-name="fi" unicode="fi" horiz-adv-x="704" 
d="M576 424v-338q0 -17 7 -27.5t18.5 -16t27 -8.5t32.5 -5v-29h-246v29q17 2 32.5 5t27 8.5t18.5 16t7 27.5v394h-286v-388q0 -19 5.5 -30.5t18 -17.5t32.5 -9t49 -6v-29h-266v29q17 2 32.5 5t27 8.5t18.5 16t7 27.5v394h-77v23l77 30v28q0 57 17 103t48.5 78.5t75 50
t95.5 17.5q31 0 58 -6.5t46.5 -18.5t30.5 -28.5t11 -36.5q0 -17 -8.5 -31.5t-19.5 -19.5h-57v18q0 38 -22 59t-65 21q-68 0 -101 -52t-33 -143v-49h367z" />
    <glyph glyph-name="fl" unicode="fl" horiz-adv-x="704" 
d="M548 810h33l-5 -86v-638q0 -17 7 -27.5t18.5 -16t27 -8.5t32.5 -5v-29h-246v29q17 2 32.5 5t27 8.5t18.5 16t7 27.5v587q-9 19 -24 36.5t-35.5 31t-46 21.5t-55.5 8q-69 0 -97 -45t-28 -125v-77h142v-43h-142v-388q0 -19 5.5 -30.5t18 -17.5t32.5 -9t49 -6v-29h-266v29
q17 2 32.5 5t27 8.5t18.5 16t7 27.5v394h-77v23l77 30v40q0 113 57 175t153 62q48 0 86 -14t58 -30z" />
    <glyph glyph-name=".notdef" horiz-adv-x="960" 
d="M90 780h780v-780h-780v780zM201 66h558l-279 279zM480 435l279 279h-558zM160 665v-550l275 275zM800 115v550l-275 -275z" />
    <glyph glyph-name=".null" horiz-adv-x="0" 
 />
    <glyph glyph-name=".null" horiz-adv-x="0" 
 />
    <glyph glyph-name="nonmarkingreturn" unicode="&#xd;" horiz-adv-x="250" 
 />
    <glyph glyph-name="space" unicode=" " horiz-adv-x="265" 
 />
    <glyph glyph-name="exclam" unicode="!" horiz-adv-x="315" 
d="M94 53q0 26 18.5 45t44.5 19t45 -19t19 -45t-19 -44.5t-45 -18.5t-44.5 18.5t-18.5 44.5zM211 734l-20 -292q-5 -69 -9 -133t-5 -112h-38q-1 48 -5 112t-9 133l-20 292v46h106v-46z" />
    <glyph glyph-name="quotedbl" unicode="&#x22;" horiz-adv-x="333" 
d="M69 524l-26 256h95l-26 -256h-43zM221 524l-26 256h95l-26 -256h-43z" />
    <glyph glyph-name="numbersign" unicode="#" horiz-adv-x="640" 
d="M487 545h113v-42h-122l-46 -220h123v-42h-132l-51 -241h-44l51 241h-185l-51 -241h-44l51 241h-110v42h119l46 220h-120v42h129l50 235h44l-50 -235h185l50 235h44zM203 283h185l46 220h-185z" />
    <glyph glyph-name="dollar" unicode="$" horiz-adv-x="635" 
d="M219 -4q-48 7 -89 22t-67 38l-7 187h27q33 -156 146 -196l60 323l-54 20q-34 12 -64.5 28.5t-53.5 40t-37 56t-14 75.5t16 79.5t46.5 63.5t76 42t104.5 15q14 0 28.5 -1t28.5 -3l22 119h44l-24 -126q38 -8 71 -23t58 -35v-167h-28q-15 71 -41.5 112.5t-68.5 60.5
l-55 -294l45 -16q41 -15 74.5 -33.5t57.5 -44t37.5 -59t13.5 -77.5q0 -49 -19.5 -88.5t-55.5 -67.5t-86.5 -42.5t-112.5 -14.5h-18t-18 1l-21 -116h-44zM330 355l-59 -318q8 -2 16.5 -2h17.5q91 0 141 41.5t50 113.5q0 65 -38.5 99.5t-109.5 59.5zM140 609q0 -33 8.5 -55.5
t24 -39t38.5 -28t52 -22.5l40 -15l54 291q-13 2 -27.5 3.5t-30.5 1.5q-75 0 -117 -38t-42 -98z" />
    <glyph glyph-name="percent" unicode="%" horiz-adv-x="956" 
d="M50 583q0 104 51.5 155.5t133.5 51.5t133.5 -51.5t51.5 -155.5q0 -103 -51.5 -155t-133.5 -52t-133.5 52t-51.5 155zM348 583q0 76 -26.5 120.5t-86.5 44.5t-86.5 -44.5t-26.5 -120.5t26.5 -120.5t86.5 -44.5t86.5 44.5t26.5 120.5zM247 0h-55l517 780h55zM906 197
q0 -103 -51.5 -155t-133.5 -52t-133.5 52t-51.5 155q0 104 51.5 155.5t133.5 51.5t133.5 -51.5t51.5 -155.5zM608 197q0 -76 26.5 -120.5t86.5 -44.5t86.5 44.5t26.5 120.5t-26.5 120.5t-86.5 44.5t-86.5 -44.5t-26.5 -120.5z" />
    <glyph glyph-name="ampersand" unicode="&#x26;" horiz-adv-x="801" 
d="M649 334q-7 -40 -20.5 -81t-33.5 -79l88 -82q15 -15 27.5 -26t25 -18.5t27 -12t33.5 -6.5v-29h-119q-14 8 -27 17t-27.5 21.5t-31.5 29.5t-39 40q-43 -52 -106.5 -85t-148.5 -33q-46 0 -93 11t-85 36.5t-62.5 67t-24.5 102.5q0 42 14 74.5t38.5 58.5t58.5 46.5t74 38.5
q-16 15 -32.5 33.5t-30 40.5t-22 47.5t-8.5 54.5q0 46 16 81.5t43 59.5t63.5 36t78.5 12q49 0 86 -12.5t62 -34.5t38 -52t13 -64q0 -41 -16 -70.5t-43.5 -52t-64 -40.5t-77.5 -36l237 -222q31 65 31 134q0 24 -8.5 38t-24.5 22.5t-38.5 11.5t-50.5 4v35h301v-35
q-28 -1 -49 -4.5t-35.5 -12t-23.5 -24t-13 -41.5zM313 44q38 0 67 6t53 17.5t45 29t41 40.5l-277 262q-64 -33 -92.5 -77t-28.5 -110q0 -38 15 -69t41.5 -53t61.5 -34t74 -12zM202 621q0 -30 9 -54.5t23 -44.5t30.5 -37t31.5 -31q74 30 110.5 69.5t36.5 107.5q0 56 -32 87
t-85 31q-59 0 -91.5 -37.5t-32.5 -90.5z" />
    <glyph glyph-name="quotesingle" unicode="'" horiz-adv-x="181" 
d="M69 524l-26 256h95l-26 -256h-43z" />
    <glyph glyph-name="parenleft" unicode="(" horiz-adv-x="385" 
d="M83 350q0 151 53 267t163 213l35 -27q-48 -47 -85.5 -93t-63.5 -99t-39.5 -116.5t-13.5 -144.5t13.5 -144.5t39.5 -116.5t63.5 -99t85.5 -93l-35 -27q-110 97 -163 213t-53 267z" />
    <glyph glyph-name="parenright" unicode=")" horiz-adv-x="385" 
d="M302 350q0 -151 -53 -267t-163 -213l-35 27q48 47 85.5 93t63.5 99t39.5 116.5t13.5 144.5t-13.5 144.5t-39.5 116.5t-63.5 99t-85.5 93l35 27q110 -97 163 -213t53 -267z" />
    <glyph glyph-name="asterisk" unicode="*" horiz-adv-x="373" 
d="M25 685l136 -40l6 145h38l6 -145l136 40l12 -31l-134 -48l80 -121l-31 -18l-87 115l-88 -116l-31 19l80 120l-134 48z" />
    <glyph glyph-name="plus" unicode="+" 
d="M322 260h-242v51h242v244h56v-244h242v-51h-242v-245h-56v245z" />
    <glyph glyph-name="comma" unicode="," horiz-adv-x="315" 
d="M139 -4q-20 5 -32.5 20.5t-12.5 38.5q0 28 18 45t46 17q20 0 34 -8.5t23 -22.5t13 -31.5t4 -34.5q0 -28 -9.5 -56.5t-30.5 -53t-53 -42t-77 -21.5v35q64 15 89 46.5t25 67.5h-37z" />
    <glyph glyph-name="hyphen" unicode="-" horiz-adv-x="348" 
d="M50 309v58h248v-58h-248z" />
    <glyph glyph-name="period" unicode="." horiz-adv-x="315" 
d="M94 53q0 26 18.5 45t44.5 19t45 -19t19 -45t-19 -44.5t-45 -18.5t-44.5 18.5t-18.5 44.5z" />
    <glyph glyph-name="slash" unicode="/" horiz-adv-x="375" 
d="M61 -121h-56l290 951h56z" />
    <glyph glyph-name="zero" unicode="0" 
d="M350 790q74 0 129.5 -33t92 -88t54.5 -127.5t18 -151.5t-18 -151.5t-54.5 -127.5t-92 -88t-129.5 -33t-129.5 33t-92 88t-55 127.5t-18.5 151.5t18.5 151.5t55 127.5t92 88t129.5 33zM350 745q-59 0 -98.5 -33t-63 -84.5t-33.5 -114.5t-10 -123t10 -123t33.5 -114.5
t63 -84.5t98.5 -33t98 33t62.5 84.5t33.5 114.5t10 123t-10 123t-33.5 114.5t-62.5 84.5t-98 33z" />
    <glyph glyph-name="one" unicode="1" 
d="M412 790v-675q0 -25 14 -39.5t40 -22.5t62.5 -11t81.5 -6v-36h-481v36q45 3 81.5 6t62.5 11t40 22.5t14 39.5v551h-198v22l57 8q44 6 74 11t53.5 14t43.5 25t44 44h11z" />
    <glyph glyph-name="two" unicode="2" 
d="M368 66q37 0 68 3.5t57.5 16t49 36t42.5 62.5h27l-51 -184h-510v10l188 201q61 65 102 112.5t66 86.5t36 72.5t11 69.5q0 80 -42 123t-122 43q-34 0 -62.5 -9.5t-53.5 -25t-46 -35.5t-40 -42l-22 18q17 30 40.5 60t55 53.5t70.5 38t85 14.5q57 0 100 -16.5t72 -45.5
t43.5 -67.5t14.5 -83.5q0 -64 -35 -125.5t-90.5 -124t-124 -127t-134.5 -134.5h205z" />
    <glyph glyph-name="three" unicode="3" 
d="M366 431q55 -4 99.5 -20.5t76 -43.5t48.5 -62.5t17 -77.5q0 -55 -21.5 -99t-58.5 -74.5t-87 -47t-108 -16.5q-65 0 -115 13t-83.5 34.5t-51 48.5t-17.5 55q0 54 48 71h45v-30q0 -74 47.5 -112.5t128.5 -38.5q88 0 135.5 45t47.5 129q0 46 -19.5 79.5t-52.5 55.5t-78 32.5
t-96 10.5h-61l-6 30q49 11 95 25t82 36t57.5 54.5t21.5 80.5q0 60 -39 88.5t-99 28.5q-59 0 -101 -23t-74 -58l-23 17q30 62 89.5 95t132.5 33q96 0 151.5 -45.5t55.5 -124.5q0 -38 -18 -69.5t-45.5 -55.5t-60.5 -40.5t-63 -23.5z" />
    <glyph glyph-name="four" unicode="4" 
d="M428 246v389l-323 -389h323zM428 200h-391v33l449 547h23v-534h138v-46h-138v-84q0 -26 8.5 -42t24 -24.5t38 -12t50.5 -4.5v-33h-324v33q28 1 50.5 4.5t38.5 12t24.5 24.5t8.5 42v84z" />
    <glyph glyph-name="five" unicode="5" 
d="M334 -10q-64 0 -112.5 13t-80.5 34.5t-48.5 48.5t-16.5 55t13 45.5t36 25.5h44v-30q0 -74 44 -112.5t123 -38.5q85 0 131 48t46 130q0 62 -30 105t-80.5 70t-117 39t-138.5 13l56 344h226q42 0 65.5 11.5t40.5 46.5h36l-42 -133h-294l-32 -199q78 -5 148.5 -22.5
t124.5 -50.5t85.5 -82t31.5 -117q0 -52 -18.5 -96.5t-52 -77.5t-81.5 -51.5t-107 -18.5z" />
    <glyph glyph-name="six" unicode="6" 
d="M521 759q-138 -51 -224.5 -144.5t-108.5 -218.5q13 17 34 34t48 30t59 21t65 8q49 0 90.5 -16t71.5 -46t46.5 -72t16.5 -94q0 -60 -18.5 -110t-52 -85.5t-80 -55.5t-103.5 -20q-65 0 -115.5 26t-85.5 70t-53 101.5t-18 120.5q0 88 30.5 165.5t84 139.5t127 107.5
t160.5 69.5zM361 424q-57 0 -103.5 -19t-73.5 -46q-2 -12 -2.5 -31.5t-0.5 -33.5q0 -62 15 -110t40 -80.5t58.5 -49.5t70.5 -17q83 0 127.5 51.5t44.5 141.5q0 88 -44.5 141t-131.5 53z" />
    <glyph glyph-name="seven" unicode="7" 
d="M220 704q-39 0 -60 -15t-41 -56h-35l47 147h506v-24l-334 -756h-82l355 704h-356z" />
    <glyph glyph-name="eight" unicode="8" 
d="M573 602q0 -35 -13.5 -65t-35 -54t-48.5 -41.5t-54 -27.5l43 -24q28 -16 53 -34.5t43.5 -42t29.5 -52t11 -63.5q0 -39 -14 -76.5t-44 -66.5t-78 -47t-117 -18q-55 0 -101 16t-79.5 44.5t-52 68t-18.5 85.5q0 38 13 69t36.5 56.5t55.5 45t70 33.5l-18 9q-27 14 -50 31
t-40.5 39.5t-27 52.5t-9.5 69q0 34 14 66.5t42 58t69.5 41t96.5 15.5q51 0 92 -13.5t70 -38.5t45 -59.5t16 -76.5zM305 392q-37 -25 -61 -46.5t-37.5 -44t-19 -47t-5.5 -56.5q0 -36 11.5 -66.5t33 -52.5t52.5 -34.5t70 -12.5t71 12t55 33t35.5 50t12.5 63q0 30 -8.5 52
t-23.5 38.5t-35.5 29.5t-43.5 25zM392 430q30 20 50 39t31.5 40t16.5 44.5t5 53.5q0 32 -11 58t-30.5 44t-46 27.5t-57.5 9.5q-69 0 -107 -35.5t-38 -95.5q0 -55 28 -86t80 -58z" />
    <glyph glyph-name="nine" unicode="9" 
d="M165 21q138 51 224.5 144.5t108.5 218.5q-13 -17 -34 -34t-48 -30t-59 -21t-65 -8q-49 0 -90.5 16t-71.5 46t-46.5 72t-16.5 94q0 60 18.5 110t52 85.5t80 55.5t103.5 20q65 0 115.5 -26t85.5 -70t53 -101.5t18 -120.5q0 -88 -30.5 -165t-84 -139.5t-127 -108
t-160.5 -69.5zM325 356q57 0 103.5 19t73.5 46q2 12 2.5 31.5t0.5 33.5q0 62 -15 110t-40 80.5t-58.5 49.5t-70.5 17q-83 0 -127.5 -51.5t-44.5 -141.5q0 -88 44.5 -141t131.5 -53z" />
    <glyph glyph-name="colon" unicode=":" horiz-adv-x="315" 
d="M94 53q0 26 18.5 45t44.5 19t45 -19t19 -45t-19 -44.5t-45 -18.5t-44.5 18.5t-18.5 44.5zM94 375q0 26 18.5 45t44.5 19t45 -19t19 -45t-19 -44.5t-45 -18.5t-44.5 18.5t-18.5 44.5z" />
    <glyph glyph-name="semicolon" unicode=";" horiz-adv-x="315" 
d="M138 -4q-20 5 -32.5 20.5t-12.5 38.5q0 28 18 44t46 16q20 0 34 -8.5t23 -22t13 -30.5t4 -34q0 -28 -9.5 -56.5t-30.5 -53t-53 -42t-77 -21.5v35q64 15 89 46.5t25 67.5h-37zM94 375q0 26 18.5 45t44.5 19t45 -19t19 -45t-19 -44.5t-45 -18.5t-44.5 18.5t-18.5 44.5z" />
    <glyph glyph-name="less" unicode="&#x3c;" 
d="M114 285l157 -67l349 -153v-55l-540 244v63l540 244v-55l-349 -153z" />
    <glyph glyph-name="equal" unicode="=" 
d="M80 318v50h540v-50h-540zM80 172v50h540v-50h-540z" />
    <glyph glyph-name="greater" unicode="&#x3e;" 
d="M586 285l-157 68l-349 153v55l540 -244v-63l-540 -244v55l349 153z" />
    <glyph glyph-name="question" unicode="?" horiz-adv-x="475" 
d="M361 626q0 55 -34.5 88t-93.5 33q-55 0 -84.5 -33.5t-29.5 -84.5v-31h-65q-20 20 -20 53q0 30 15.5 55.5t42 44t61.5 29t75 10.5q47 0 86 -11.5t67.5 -35t44.5 -59.5t16 -84q0 -35 -9.5 -62.5t-27 -51.5t-42.5 -47.5t-57 -49.5q-43 -35 -63.5 -65.5t-20.5 -73.5v-53h-24
q-9 15 -19.5 38t-10.5 54q0 50 24 86t75 79q20 17 37 34t29.5 37t20 44.5t7.5 56.5zM147 53q0 26 18.5 45t44.5 19t45 -19t19 -45t-19 -44.5t-45 -18.5t-44.5 18.5t-18.5 44.5z" />
    <glyph glyph-name="at" unicode="@" horiz-adv-x="1108" 
d="M450 98q28 0 57.5 20.5t72.5 77.5q25 32 45.5 70t36 75.5t24 71t9.5 57.5q-19 47 -73 47q-48 0 -89 -26.5t-70.5 -70t-46.5 -100t-17 -116.5q0 -45 10.5 -75.5t40.5 -30.5zM738 92q51 0 94.5 23t75.5 64.5t50.5 98.5t18.5 125q0 85 -24 154.5t-71.5 119.5t-119 77.5
t-166.5 27.5q-101 0 -185.5 -40t-146 -109.5t-95.5 -162.5t-34 -198q0 -97 30.5 -177.5t86 -138.5t132.5 -90.5t170 -32.5q100 0 181.5 22t161.5 73l16 -32q-30 -24 -70 -44t-87 -35t-98.5 -23t-103.5 -8q-112 0 -203.5 35.5t-156 99.5t-99.5 153.5t-35 197.5
q0 113 41.5 214t113.5 176.5t170 119.5t211 44q104 0 187.5 -30t142.5 -85.5t90.5 -133.5t31.5 -174q0 -78 -23.5 -142.5t-67 -110.5t-103.5 -71.5t-134 -25.5q-41 0 -61.5 15t-20.5 42q0 11 4.5 34.5t11 51t13 56t10.5 48.5h-4q-6 -13 -11 -26t-11.5 -27t-15.5 -29.5
t-23 -34.5q-28 -38 -51.5 -63t-45 -40t-42 -21t-42.5 -6q-58 0 -83 42.5t-25 108.5q0 69 23.5 133.5t64.5 114t95.5 79t115.5 29.5q43 0 66.5 -17.5t30.5 -35.5l66 60h25l-34 -102q-11 -43 -22 -95.5t-19.5 -101.5t-14 -89t-5.5 -59q0 -28 23 -28z" />
    <glyph glyph-name="A" unicode="A" horiz-adv-x="818" 
d="M568 260h-353l-56 -133q-5 -13 -8.5 -24t-3.5 -21q0 -26 26 -36.5t88 -12.5v-33h-251v33q24 4 42 11t28 30l282 655l-30 64h95l311 -719q10 -23 28 -30t42 -11v-33h-283v33q62 2 87.5 12t25.5 36q0 10 -3.5 21t-8.5 24zM234 305h315l-158 370z" />
    <glyph glyph-name="B" unicode="B" horiz-adv-x="787" 
d="M46 33q28 1 51 4.5t39 12t25 24.5t9 42v548q0 26 -9 42t-25 24.5t-39 12t-51 4.5v33h354q275 0 275 -195q0 -42 -15 -74t-41.5 -54.5t-61.5 -35.5t-74 -18q58 -3 101.5 -19t73 -41.5t44.5 -59.5t15 -73q0 -46 -19 -84.5t-55 -66.5t-89 -43.5t-121 -15.5h-387v33zM251 378
v-260q0 -45 27 -60t92 -15h54q108 0 156 37.5t48 128.5q0 76 -51 122.5t-163 46.5h-163zM251 736v-314h134q105 0 154 37.5t49 118.5q0 73 -47.5 115.5t-154.5 42.5h-135z" />
    <glyph glyph-name="C" unicode="C" horiz-adv-x="818" 
d="M486 37q58 0 99.5 12t73 36t55.5 61t46 86h24l-23 -184q-60 -27 -130 -42.5t-155 -15.5q-102 0 -180.5 31.5t-132 84.5t-80.5 122.5t-27 146.5q0 96 32 172.5t88 130.5t131.5 83t162.5 29t154.5 -16.5t118.5 -45.5l7 -164h-22q-35 95 -100.5 133.5t-160.5 38.5
q-79 0 -140 -23.5t-102.5 -67.5t-63 -106t-21.5 -139q0 -66 22.5 -131t66.5 -116.5t108.5 -83.5t148.5 -32z" />
    <glyph glyph-name="D" unicode="D" horiz-adv-x="920" 
d="M251 736v-614q0 -49 29.5 -63.5t93.5 -14.5h94q61 0 116.5 21t97.5 62.5t67 104t25 144.5q0 74 -18.5 139t-59.5 114.5t-107.5 78t-162.5 28.5h-175zM447 780q110 0 188.5 -31t129.5 -82t75 -117.5t24 -137.5q0 -100 -32 -177t-86.5 -129t-126 -79t-150.5 -27h-423v33
q28 1 51 4.5t39 12t25 24.5t9 42v548q0 26 -9 42t-25 24.5t-39 12t-51 4.5v33h401z" />
    <glyph glyph-name="E" unicode="E" horiz-adv-x="811" 
d="M581 271q-9 51 -26.5 77.5t-55.5 26.5h-248v-256q0 -45 28.5 -60t94.5 -15h155q39 0 64 6t44 22t38 44.5t46 72.5h24l-35 -189h-664v33q28 1 51 4.5t39 12t25 24.5t9 42v548q0 26 -9 42t-25 24.5t-39 12t-51 4.5v33h659l3 -176h-19q-16 37 -31 62.5t-33.5 41t-43 22
t-58.5 6.5h-272v-317h248q38 0 55.5 27t26.5 78h28v-253h-28z" />
    <glyph glyph-name="F" unicode="F" horiz-adv-x="749" 
d="M46 0v33q28 1 51 4.5t39 12t25 24.5t9 42v548q0 26 -9 42t-25 24.5t-39 12t-51 4.5v33h650l3 -176h-19q-16 37 -31 62.5t-33.5 41t-43 22t-58.5 6.5h-263v-341h228q38 0 55.5 27t26.5 78h28v-253h-28q-9 51 -26.5 77.5t-55.5 26.5h-228v-235q0 -26 11 -41.5t31.5 -24
t48 -12t60.5 -5.5v-33h-356z" />
    <glyph glyph-name="G" unicode="G" horiz-adv-x="905" 
d="M56 375q0 96 32 172.5t88 130.5t131.5 83t162.5 29t154.5 -16.5t118.5 -45.5l7 -164h-22q-35 95 -100.5 133.5t-160.5 38.5q-79 0 -140 -23.5t-102.5 -67.5t-63 -106t-21.5 -139q0 -68 23 -133t67 -116t107.5 -82.5t144.5 -31.5q84 0 135.5 20.5t78.5 55.5v150
q0 26 -8.5 41.5t-24.5 23.5t-38.5 11t-50.5 4v32h319v-32q-28 -1 -50.5 -4t-38.5 -11t-24.5 -23.5t-8.5 -41.5v-193q-57 -39 -130.5 -59.5t-167.5 -20.5q-102 0 -180 32t-130.5 85.5t-79.5 123t-27 144.5z" />
    <glyph glyph-name="H" unicode="H" horiz-adv-x="983" 
d="M732 374h-481v-258q0 -26 9 -42t25 -24.5t39 -12t51 -4.5v-33h-329v33q28 1 51 4.5t39 12t25 24.5t9 42v548q0 26 -9 42t-25 24.5t-39 12t-51 4.5v33h329v-33q-28 -1 -51 -4.5t-39 -12t-25 -24.5t-9 -42v-245h481v245q0 26 -9 42t-25 24.5t-39 12t-51 4.5v33h329v-33
q-28 -1 -51 -4.5t-39 -12t-25 -24.5t-9 -42v-548q0 -26 9 -42t25 -24.5t39 -12t51 -4.5v-33h-329v33q28 1 51 4.5t39 12t25 24.5t9 42v258z" />
    <glyph glyph-name="I" unicode="I" horiz-adv-x="421" 
d="M170 664q0 26 -9 42t-25 24.5t-39 12t-51 4.5v33h329v-33q-28 -1 -51 -4.5t-39 -12t-25 -24.5t-9 -42v-548q0 -26 9 -42t25 -24.5t39 -12t51 -4.5v-33h-329v33q28 1 51 4.5t39 12t25 24.5t9 42v548z" />
    <glyph glyph-name="J" unicode="J" horiz-adv-x="553" 
d="M410 217q0 -118 -56 -172.5t-159 -54.5q-44 0 -80.5 8t-62.5 23.5t-40.5 39t-14.5 53.5q0 20 7 34.5t18 22.5h67v-31q0 -61 31 -86.5t85 -25.5q27 0 50 9t39.5 29.5t25.5 53.5t9 80v464q0 26 -9 42t-25 24.5t-39 12t-51 4.5v33h329v-33q-28 -1 -51 -4.5t-39 -12
t-25 -24.5t-9 -42v-447z" />
    <glyph glyph-name="K" unicode="K" horiz-adv-x="822" 
d="M678 101q35 -34 68 -49t71 -19v-33h-128q-29 14 -56 35t-61 55l-312 307l334 281q11 9 18 17.5t7 19.5q0 9 -3.5 14t-14 8t-29.5 5t-51 5v33h281v-33q-21 0 -37.5 -4.5t-31.5 -12.5t-30.5 -20.5t-33.5 -27.5l-317 -266zM170 664q0 26 -9 42t-25 24.5t-39 12t-51 4.5v33
h329v-33q-28 -1 -51 -4.5t-39 -12t-25 -24.5t-9 -42v-548q0 -26 9 -42t25 -24.5t39 -12t51 -4.5v-33h-329v33q28 1 51 4.5t39 12t25 24.5t9 42v548z" />
    <glyph glyph-name="L" unicode="L" horiz-adv-x="757" 
d="M251 119q0 -45 28.5 -60t94.5 -15h136q40 0 66.5 10.5t46.5 30.5t36.5 49.5t37.5 68.5h23l-36 -203h-638v33q28 1 51 4.5t39 12t25 24.5t9 42v548q0 26 -9 42t-25 24.5t-39 12t-51 4.5v33h329v-33q-28 -1 -51 -4.5t-39 -12t-25 -24.5t-9 -42v-545z" />
    <glyph glyph-name="M" unicode="M" horiz-adv-x="1089" 
d="M814 630l-263 -630h-24l-283 635l-61 -504q-1 -6 -1.5 -15t-0.5 -12q0 -41 24 -54.5t84 -16.5v-33h-257v33q48 2 69 15t26 52l71 566q0 44 -19.5 61.5t-75.5 19.5v33h179q2 -19 5.5 -31.5t10.5 -27.5l259 -586l241 586q6 15 9.5 27.5t5.5 31.5h173v-33
q-56 -2 -75.5 -19.5t-19.5 -61.5l71 -566q5 -39 26 -52t69 -15v-33h-287v33q60 3 84 16.5t24 54.5q0 3 -0.5 12t-1.5 15z" />
    <glyph glyph-name="N" unicode="N" horiz-adv-x="976" 
d="M169 681q-18 21 -31 34t-26 20t-28.5 9.5t-37.5 2.5v33h162l557 -644v528q0 26 -8 42t-23.5 24.5t-37.5 12t-50 4.5v33h294v-33q-28 -1 -50.5 -4.5t-38.5 -12t-24.5 -24.5t-8.5 -42v-664h-37l-559 640v-524q0 -26 8 -42t23.5 -24.5t37.5 -12t50 -4.5v-33h-295v33
q28 1 51 4.5t39 12t24.5 24.5t8.5 42v565z" />
    <glyph glyph-name="O" unicode="O" horiz-adv-x="904" 
d="M476 50q69 0 123 24.5t90.5 67.5t56 100t19.5 121q0 76 -21 143t-63 116.5t-105 78.5t-148 29q-69 0 -123 -24.5t-90.5 -67.5t-56 -99.5t-19.5 -121.5q0 -76 21 -143t63 -116.5t105 -78.5t148 -29zM441 -10q-88 0 -159.5 32t-121.5 85t-77 122.5t-27 145.5
q0 96 31.5 172.5t86.5 130.5t129.5 83t159.5 29q89 0 160 -31.5t121 -85t77 -123t27 -145.5q0 -96 -31.5 -172.5t-86.5 -130.5t-129.5 -83t-159.5 -29z" />
    <glyph glyph-name="P" unicode="P" horiz-adv-x="729" 
d="M251 336v-220q0 -26 11 -41.5t31.5 -24t48 -12t60.5 -5.5v-33h-356v33q28 1 51 4.5t39 12t25 24.5t9 42v548q0 26 -9 42t-25 24.5t-39 12t-51 4.5v33h361q81 0 137 -18.5t90.5 -49t49.5 -69t15 -79.5q0 -46 -15.5 -87t-48.5 -72.5t-83.5 -50t-120.5 -18.5h-180zM251 380
h146q112 0 162 41t50 137q0 83 -50 130.5t-160 47.5h-148v-356z" />
    <glyph glyph-name="Q" unicode="Q" horiz-adv-x="904" 
d="M431 -9q-86 2 -155.5 34t-118 85t-75 121.5t-26.5 143.5q0 96 31.5 172.5t86.5 130.5t129.5 83t159.5 29q89 0 160 -31.5t121 -85t77 -123t27 -145.5q0 -84 -25 -154t-69 -122.5t-104 -86t-131 -45.5l187 -126q32 -22 63 -30.5t66 -8.5h29v-22q-14 -9 -40 -20t-59 -11
q-45 0 -82.5 15t-71.5 44zM476 50q69 0 123 24.5t90.5 67.5t56 100t19.5 121q0 76 -21 143t-63 116.5t-105 78.5t-148 29q-69 0 -123 -24.5t-90.5 -67.5t-56 -99.5t-19.5 -121.5q0 -76 21 -143t63 -116.5t105 -78.5t148 -29z" />
    <glyph glyph-name="R" unicode="R" horiz-adv-x="845" 
d="M251 736v-334h133q60 0 101.5 10t66.5 30.5t36 51t11 71.5q0 38 -11.5 69.5t-37 54t-66.5 35t-100 12.5h-133zM396 780q88 0 144.5 -19t89.5 -49.5t46 -68.5t13 -75q0 -48 -21 -85.5t-56.5 -64t-82.5 -40t-100 -13.5q26 -8 54.5 -28t55.5 -50l178 -197q26 -29 55.5 -42
t67.5 -15v-33h-125q-29 13 -50.5 32t-49.5 49l-193 212q-20 21 -36.5 34t-32.5 20t-31.5 9.5t-33.5 2.5h-37v-243q0 -26 9 -42t25 -24.5t39 -12t51 -4.5v-33h-329v33q28 1 51 4.5t39 12t25 24.5t9 42v548q0 26 -9 42t-25 24.5t-39 12t-51 4.5v33h350z" />
    <glyph glyph-name="S" unicode="S" horiz-adv-x="635" 
d="M298 -10q-69 0 -133.5 17.5t-101.5 48.5l-7 187h27q22 -102 78.5 -154.5t143.5 -52.5q91 0 141 41t50 113q0 65 -38.5 99.5t-109.5 59.5l-113 41q-34 12 -64.5 28.5t-53.5 40t-37 56t-14 75.5t16 79.5t46.5 63.5t76 42t104.5 15q69 0 128.5 -18.5t99.5 -50.5v-167h-28
q-11 53 -28.5 89t-43 58.5t-59.5 32.5t-79 10q-75 0 -117 -38t-42 -100q0 -31 8.5 -53.5t24 -38.5t38.5 -27.5t52 -22.5l126 -47q41 -15 74.5 -33.5t57.5 -44t37.5 -59t13.5 -77.5q0 -49 -19.5 -88.5t-55.5 -67.5t-86.5 -42.5t-112.5 -14.5z" />
    <glyph glyph-name="T" unicode="T" horiz-adv-x="815" 
d="M756 780l18 -196h-24q-22 45 -37.5 74.5t-34.5 47t-45.5 24.5t-69.5 7h-116v-621q0 -26 9 -42t25.5 -24.5t39.5 -12t51 -4.5v-33h-330v33q28 1 51 4.5t39.5 12t25.5 24.5t9 42v621h-115q-43 0 -69.5 -7t-45.5 -24.5t-34.5 -47t-37.5 -74.5h-24l17 196h698z" />
    <glyph glyph-name="U" unicode="U" horiz-adv-x="876" 
d="M215 285q0 -59 16.5 -103.5t46 -74t70.5 -44.5t91 -15q125 0 188.5 59.5t63.5 180.5v376q0 26 -8 42t-23.5 24.5t-37.5 12t-50 4.5v33h294v-33q-28 -1 -50.5 -4.5t-38.5 -12t-24.5 -24.5t-8.5 -42v-399q0 -67 -24.5 -118.5t-66 -86.5t-97 -52.5t-117.5 -17.5
q-68 0 -124 17t-96.5 51.5t-62.5 86.5t-22 122v397q0 26 -9 42t-25 24.5t-39 12t-51 4.5v33h329v-33q-28 -1 -51 -4.5t-39 -12t-25 -24.5t-9 -42v-379z" />
    <glyph glyph-name="V" unicode="V" horiz-adv-x="808" 
d="M650 653q5 13 8.5 24t3.5 21q0 26 -26 36.5t-88 12.5v33h250v-33q-24 -4 -42 -11t-28 -30l-300 -718h-26l-322 718q-11 23 -28.5 30t-41.5 11v33h279v-33q-62 -2 -87 -12t-25 -36q0 -18 12 -45l242 -538z" />
    <glyph glyph-name="W" unicode="W" horiz-adv-x="1148" 
d="M992 650q5 16 9 27t4 21q0 26 -26 36.5t-88 12.5v33h247v-33q-24 -4 -43 -11t-27 -30l-260 -718h-20l-208 518l-207 -518h-20l-273 718q-9 23 -27.5 30t-42.5 11v33h276v-33q-62 -2 -87.5 -12t-25.5 -36q0 -10 3.5 -20t9.5 -27l198 -521l170 431l-55 144
q-8 22 -26.5 29.5t-42.5 11.5v33h275v-33q-62 -2 -87.5 -12t-25.5 -36q0 -10 4 -22t9 -26l205 -521z" />
    <glyph glyph-name="X" unicode="X" horiz-adv-x="859" 
d="M473 416l262 -321q15 -19 28 -31t25.5 -19t27 -9.5t33.5 -2.5v-33h-318v33q35 0 56.5 2t33 6.5t15.5 11.5t4 16q0 17 -10 30.5t-23 29.5l-191 238l-199 -238q-14 -17 -23.5 -32t-9.5 -30q0 -9 4 -15t15 -10.5t30.5 -6.5t50.5 -2v-33h-274v33q18 0 32.5 2.5t28 9.5t27 19
t29.5 31l259 309l-228 281q-16 20 -29.5 32t-26.5 19t-27.5 9t-32.5 2v33h317v-33q-33 0 -54 -2t-32.5 -6.5t-16 -11t-4.5 -15.5q0 -14 9.5 -29t23.5 -32l158 -199l166 201q12 15 21.5 29.5t9.5 28.5q0 19 -21 27.5t-86 8.5v33h275v-33q-18 0 -32 -2.5t-26 -9t-24.5 -18.5
t-28.5 -32z" />
    <glyph glyph-name="Y" unicode="Y" horiz-adv-x="736" 
d="M568 656q17 26 17 47q0 11 -4.5 19t-16.5 13t-32.5 8t-52.5 4v33h247v-33q-24 -4 -40 -12t-30 -29l-246 -377v-213q0 -26 8 -42t23.5 -24.5t38 -12t50.5 -4.5v-33h-319v33q28 1 50.5 4.5t38 12t23.5 24.5t8 42v209l-251 381q-14 21 -30 29t-40 12v33h280v-33
q-63 -2 -85 -12t-22 -33q0 -10 4 -20.5t10 -20.5l190 -287z" />
    <glyph glyph-name="Z" unicode="Z" horiz-adv-x="743" 
d="M485 44q39 0 65.5 10t46 30t36 50t36.5 69h26l-36 -203h-623v19l532 717h-311q-34 0 -56.5 -6t-40 -23t-33 -47t-36.5 -78h-22l3 198h608v-20l-530 -716h335z" />
    <glyph glyph-name="bracketleft" unicode="[" horiz-adv-x="331" 
d="M150 -91h111v-39h-161v960h161v-39h-111v-882z" />
    <glyph glyph-name="backslash" unicode="\" horiz-adv-x="375" 
d="M24 830h56l290 -951h-56z" />
    <glyph glyph-name="bracketright" unicode="]" horiz-adv-x="331" 
d="M182 791h-112v39h161v-960h-161v39h112v882z" />
    <glyph glyph-name="asciicircum" unicode="^" horiz-adv-x="470" 
d="M450 400h-59l-156 338l-156 -338h-59l185 390h60z" />
    <glyph glyph-name="underscore" unicode="_" horiz-adv-x="300" 
d="M20 -200v50h260v-50h-260z" />
    <glyph glyph-name="grave" unicode="`" horiz-adv-x="600" 
d="M307 800l84 -208h-33l-149 208h98z" />
    <glyph glyph-name="a" unicode="a" horiz-adv-x="607" 
d="M239 43q50 0 88.5 24t76.5 58v151l-196 -60q-29 -9 -46 -28t-17 -51q0 -48 26 -71t68 -23zM480 113q0 -33 13 -51.5t38 -18.5q22 0 44 9l10 -19q-22 -20 -44 -31.5t-47 -11.5q-36 0 -60.5 25.5t-26.5 72.5q-14 -15 -31.5 -32.5t-40.5 -32.5t-52.5 -24.5t-66.5 -9.5
q-38 0 -67 10.5t-48.5 29t-29 43t-9.5 52.5q0 36 12.5 58.5t32.5 37t46 23.5t54 17l197 57v24q0 29 -8 55.5t-24.5 46.5t-43 32t-62.5 12q-47 0 -70.5 -19t-23.5 -61q0 -9 1 -19t5 -21l-66 -7q-10 7 -15.5 20.5t-5.5 27.5q0 29 15.5 52t42 39.5t61.5 25t75 8.5
q44 0 79.5 -10.5t61.5 -32.5t40 -56.5t14 -82.5v-238z" />
    <glyph glyph-name="b" unicode="b" horiz-adv-x="635" 
d="M7 737v19l127 54h34l-5 -86v-289q32 42 81.5 70t109.5 28q57 0 101.5 -19.5t74.5 -52.5t46 -77t16 -92q0 -70 -23.5 -126t-63 -95t-91.5 -60t-109 -21q-76 0 -131.5 22.5t-86.5 52.5v656zM315 38q89 0 144 56t55 159q0 46 -11.5 86t-34.5 69.5t-58 46.5t-83 17
q-52 0 -93.5 -23t-70.5 -55v-232q0 -39 13 -63t34.5 -37.5t49 -18.5t55.5 -5z" />
    <glyph glyph-name="c" unicode="c" horiz-adv-x="550" 
d="M113 278q0 -48 13 -89t38 -71t63 -47t87 -17q33 0 57.5 6t45 17.5t37.5 28.5t33 38l26 -9q-10 -29 -28.5 -55t-45 -46t-62.5 -32t-82 -12q-61 0 -108.5 21t-79 56.5t-48 82.5t-16.5 99q0 65 20 117.5t57 89.5t88 57t112 20q89 0 134 -35.5t45 -85.5q0 -21 -9 -36t-24 -23
h-40v20q0 56 -34 84t-99 28q-37 0 -70 -14.5t-57.5 -41.5t-38.5 -65t-14 -86z" />
    <glyph glyph-name="d" unicode="d" horiz-adv-x="667" 
d="M308 485q-84 0 -135 -57t-51 -163q0 -44 11.5 -83t35 -68.5t58.5 -46.5t81 -17q50 0 92.5 21t70.5 53v212q0 75 -43 112t-120 37zM473 -10h-7l5 91q-36 -41 -83 -66t-102 -25q-59 0 -104.5 20t-76 54t-46.5 78.5t-16 93.5q0 69 22.5 124t60.5 93.5t88 59t106 20.5
q53 0 90 -13.5t61 -33.5v235l-80 16v19l126 54h34l-5 -86v-621q0 -13 2.5 -20t9.5 -11.5t19.5 -6.5t31.5 -5l28 -4v-30z" />
    <glyph glyph-name="e" unicode="e" horiz-adv-x="559" 
d="M300 533q54 0 94.5 -16t67.5 -44t41 -66t14 -83v-24h-404q-4 -56 9.5 -101.5t40.5 -77.5t66.5 -49.5t87.5 -17.5q65 0 104 23.5t73 66.5l25 -9q-10 -29 -28.5 -55t-45.5 -46t-63.5 -32t-83.5 -12q-62 0 -109.5 21t-80 56t-49 81t-16.5 96q0 64 18.5 117t52.5 91.5
t81 59.5t105 21zM280 482q-62 0 -104.5 -38.5t-55.5 -100.5h314q0 60 -39.5 99.5t-114.5 39.5z" />
    <glyph glyph-name="f" unicode="f" horiz-adv-x="391" 
d="M214 92q0 -19 5.5 -30.5t18 -17.5t32.5 -9t49 -6v-29h-266v29q17 2 32.5 5t27 8.5t18.5 16t7 27.5v394h-77v23l77 30v40q0 113 53 175t153 62q57 0 89.5 -22t32.5 -63q0 -17 -8.5 -29.5t-19.5 -17.5h-45v18q0 38 -19 54.5t-56 16.5q-104 0 -104 -158v-86h142v-43h-142
v-388z" />
    <glyph glyph-name="g" unicode="g" horiz-adv-x="591" 
d="M295 533q25 0 46.5 -4t38.5 -10l183 4v-60h-38l-114 15v-2q37 -16 61.5 -53.5t24.5 -85.5q0 -45 -16 -79t-44.5 -57.5t-67 -35.5t-83.5 -12q-32 0 -62.5 6t-46.5 13q-19 -15 -32 -29.5t-13 -36.5q0 -45 50 -45h231q72 0 114.5 -33t42.5 -99q0 -38 -20 -70.5t-58.5 -56.5
t-94 -38t-126.5 -14q-63 0 -107.5 11.5t-73 30.5t-42 44t-13.5 52q0 45 26.5 69.5t67.5 43.5q-32 11 -46.5 32.5t-14.5 48.5q0 41 24.5 63.5t60.5 39.5q-80 54 -80 148q0 47 16.5 84t46 63t70 39.5t89.5 13.5zM153 -7q-22 -19 -32 -39.5t-10 -48.5t14 -49t38 -35.5t57 -21.5
t71 -7q98 0 155.5 33t57.5 93q0 42 -28.5 58.5t-74.5 16.5h-248zM300 193q57 0 86 37.5t29 91.5q0 74 -37.5 119.5t-110.5 45.5q-57 0 -86 -37.5t-29 -91.5q0 -74 37.5 -119.5t110.5 -45.5z" />
    <glyph glyph-name="h" unicode="h" horiz-adv-x="695" 
d="M47 737v19l127 54h34l-5 -86v-294q17 18 39 36.5t48.5 33t56.5 24t62 9.5q36 0 67 -9t53 -28.5t34.5 -50.5t12.5 -76v-283q0 -17 7 -27.5t18.5 -16t27 -8.5t32.5 -5v-29h-246v29q17 2 32.5 5t27 8.5t18.5 16t7 27.5v272q0 62 -31 86.5t-85 24.5q-23 0 -47.5 -6.5
t-48.5 -17.5t-46 -25t-39 -30v-304q0 -17 6.5 -27.5t18 -16t27 -8.5t32.5 -5v-29h-245v29q17 2 32.5 5t27 8.5t18.5 16t7 27.5v635z" />
    <glyph glyph-name="i" unicode="i" horiz-adv-x="348" 
d="M220 86q0 -17 7 -27.5t18.5 -16t27 -8.5t32.5 -5v-29h-246v29q17 2 32.5 5t27 8.5t18.5 16t7 27.5v351l-80 26v20l128 48h33l-5 -107v-338zM116 693q0 25 16.5 42t41.5 17t42 -17t17 -42t-17 -41.5t-42 -16.5t-41.5 16.5t-16.5 41.5z" />
    <glyph glyph-name="j" unicode="j" horiz-adv-x="279" 
d="M35 463v20l128 48h33l-5 -107v-375q0 -30 -0.5 -50.5t-2.5 -36.5t-5.5 -29.5t-10.5 -29.5q-7 -18 -21 -38t-31.5 -40t-36 -39t-35.5 -36l-21 19l50 79q25 38 31.5 82t6.5 103v404zM87 693q0 25 16.5 42t41.5 17t42 -17t17 -42t-17 -41.5t-42 -16.5t-41.5 16.5t-16.5 41.5
z" />
    <glyph glyph-name="k" unicode="k" horiz-adv-x="605" 
d="M400 436q6 6 10 11.5t4 12.5q0 17 -15 23t-55 11v29h223v-29q-31 -8 -46 -13t-31 -19l-196 -177l307 -263v-22h-84l-308 263zM203 86q0 -17 6.5 -27.5t18 -16t27 -8.5t32.5 -5v-29h-245v29q17 2 32.5 5t27 8.5t18.5 16t7 27.5v635l-80 16v19l127 54h34l-5 -86v-638z" />
    <glyph glyph-name="l" unicode="l" horiz-adv-x="331" 
d="M203 86q0 -17 7 -27.5t18.5 -16t27 -8.5t32.5 -5v-29h-246v29q17 2 32.5 5t27 8.5t18.5 16t7 27.5v635l-80 16v19l128 54h33l-5 -86v-638z" />
    <glyph glyph-name="m" unicode="m" horiz-adv-x="1035" 
d="M563 427q17 18 38 37t47 34t56 25t64 10q72 0 110 -40t38 -118v-289q0 -17 7 -27.5t18.5 -16t27 -8.5t32.5 -5v-29h-246v29q17 2 32.5 5t27 8.5t18.5 16t7 27.5v272q0 59 -24.5 85t-78.5 26q-46 0 -90 -23.5t-79 -55.5v-304q0 -17 7 -27.5t18.5 -16t27 -8.5t32.5 -5v-29
h-246v29q17 2 32.5 5t27 8.5t18.5 16t7 27.5v272q0 59 -24.5 85t-78.5 26q-46 0 -90 -23.5t-79 -55.5v-304q0 -17 7 -27.5t18.5 -16t27 -8.5t32.5 -5v-29h-246v29q17 2 32.5 5t27 8.5t18.5 16t7 27.5v351l-80 26v20l128 48h33l-5 -101q17 18 37.5 36.5t45 33t54 24t63.5 9.5
q118 0 143 -106z" />
    <glyph glyph-name="n" unicode="n" horiz-adv-x="712" 
d="M517 358q0 62 -31 86.5t-85 24.5q-23 0 -47.5 -6.5t-48.5 -17.5t-46 -25t-39 -30v-304q0 -17 7 -27.5t18.5 -16t27 -8.5t32.5 -5v-29h-246v29q17 2 32.5 5t27 8.5t18.5 16t7 27.5v351l-80 26v20l128 48h33l-5 -101q17 18 39 36.5t48.5 33t56.5 24t62 9.5q36 0 67 -9
t53 -28.5t34.5 -50.5t12.5 -76v-283q0 -17 7 -27.5t18.5 -16t27 -8.5t32.5 -5v-29h-246v29q17 2 32.5 5t27 8.5t18.5 16t7 27.5v272z" />
    <glyph glyph-name="o" unicode="o" horiz-adv-x="621" 
d="M328 43q42 0 74 16t53 43.5t32 64t11 77.5q0 112 -53.5 174t-151.5 62q-42 0 -74 -16t-53 -43.5t-32 -64t-11 -77.5q0 -112 53.5 -174t151.5 -62zM302 -10q-57 0 -105 19.5t-82 54t-53 82.5t-19 105q0 65 23 117t61 89t88 56.5t104 19.5q57 0 105 -19.5t82 -54t53 -82.5
t19 -105q0 -65 -23 -117t-61 -89t-88 -56.5t-104 -19.5z" />
    <glyph glyph-name="p" unicode="p" horiz-adv-x="663" 
d="M333 -10q-47 0 -83 10.5t-59 27.5v-182q0 -17 7 -27.5t18.5 -16t27 -8.5t32.5 -5v-29h-246v29q17 2 32.5 5t27 8.5t18.5 16t7 27.5v591l-80 26v20l127 48h34l-5 -96q32 42 81.5 70t109.5 28q57 0 101.5 -19.5t74.5 -52.5t46 -77t16 -92q0 -70 -23.5 -126t-63 -95
t-91.5 -60t-109 -21zM343 38q89 0 144 56t55 159q0 46 -11.5 86t-34.5 69.5t-58 46.5t-83 17q-52 0 -93.5 -23t-70.5 -55v-232q0 -39 13 -63t34.5 -37.5t49 -18.5t55.5 -5z" />
    <glyph glyph-name="q" unicode="q" horiz-adv-x="631" 
d="M308 485q-84 0 -135 -57t-51 -163q0 -44 11.5 -83t35 -68.5t58.5 -46.5t81 -17q50 0 92 21t70 53v212q0 75 -42.5 112t-119.5 37zM320 533q48 0 92 -16t67 -36l58 63h14l-5 -108v-590q0 -17 7 -27.5t18.5 -16t27 -8.5t32.5 -5v-29h-246v29q17 2 32.5 5t27 8.5t18.5 16
t7 27.5v235q-36 -41 -82.5 -66t-101.5 -25q-59 0 -104.5 20t-76 54t-46.5 78.5t-16 93.5q0 69 22.5 124t60.5 93.5t88 59t106 20.5z" />
    <glyph glyph-name="r" unicode="r" horiz-adv-x="448" 
d="M220 387q15 24 32 50t36.5 47.5t42 35t49.5 13.5q17 0 27.5 -4t16.5 -10v-64h-31q-27 0 -48.5 -5t-41 -17.5t-39 -33t-44.5 -51.5v-256q0 -19 5.5 -30.5t18 -17.5t32.5 -9t49 -6v-29h-266v29q17 2 32.5 5t27 8.5t18.5 16t7 27.5v351l-80 26v20l127 48h34z" />
    <glyph glyph-name="s" unicode="s" horiz-adv-x="495" 
d="M242 -10q-59 0 -105 14.5t-75 36.5l-6 135h30q17 -69 56.5 -105.5t104.5 -36.5q52 0 87 22t35 73q0 22 -8 37.5t-22 26.5t-33.5 19.5t-42.5 15.5l-68 21q-61 19 -95.5 50t-34.5 95q0 63 47.5 101t127.5 38q51 0 92.5 -11.5t76.5 -31.5v-129h-33q-11 68 -46.5 98t-94.5 30
q-44 0 -73 -20t-29 -65q0 -37 21.5 -55t64.5 -31l76 -23q71 -21 106.5 -56.5t35.5 -102.5q0 -66 -53 -106t-142 -40z" />
    <glyph glyph-name="t" unicode="t" horiz-adv-x="398" 
d="M185 523h161v-43h-161v-331q0 -105 99 -105q20 0 38.5 4t39.5 14l9 -19q-17 -19 -48 -36t-75 -17q-29 0 -54.5 7.5t-44 24t-29 41.5t-10.5 61v356h-77v23q18 13 34 25.5t32 27.5t32 33.5t34 42.5h20v-109z" />
    <glyph glyph-name="u" unicode="u" horiz-adv-x="670" 
d="M466 91q-16 -18 -35.5 -36t-42.5 -32.5t-51 -23.5t-61 -9q-35 0 -65 9t-52.5 29t-35 51.5t-12.5 77.5v283q0 29 -16 36.5t-58 12.5l-18 1v33l151 10h22l-5 -106v-262q0 -62 31.5 -89.5t81.5 -27.5t91 27t75 58v307q0 29 -16 36.5t-58 12.5l-19 1v33l152 10h22l-5 -106
v-324q0 -13 2.5 -20t9.5 -11.5t19.5 -6.5t31.5 -5l28 -4v-30l-164 -36h-8z" />
    <glyph glyph-name="v" unicode="v" horiz-adv-x="590" 
d="M580 494q-29 -10 -41.5 -16.5t-20.5 -23.5l-208 -466h-14l-224 466q-8 17 -20.5 23t-41.5 17v29h223v-29q-40 -5 -57.5 -11.5t-17.5 -24.5q0 -6 1 -11.5t6 -15.5l151 -323l139 323q3 10 5 15.5t2 11.5q0 18 -18 24.5t-58 11.5v29h194v-29z" />
    <glyph glyph-name="w" unicode="w" horiz-adv-x="856" 
d="M721 422q6 17 8 23.5t2 12.5q0 18 -18 24.5t-58 11.5v29h191v-29q-19 -6 -30 -10t-17 -8t-9 -9t-6 -13l-186 -466h-13l-154 362l-147 -362h-13l-199 466q-3 8 -6.5 13t-9.5 9t-17 8t-29 10v29h225v-29q-42 -7 -60.5 -12.5t-18.5 -23.5q0 -6 2 -13.5t8 -22.5l128 -306
l112 284l-21 54q-3 8 -6.5 13t-9.5 9t-17 8t-30 10v29h226v-29q-41 -6 -59.5 -12t-18.5 -24q0 -6 1 -13t8 -23l127 -304z" />
    <glyph glyph-name="x" unicode="x" horiz-adv-x="584" 
d="M254 261l-155 193q-24 31 -73 40v29h225v-29q-40 -9 -50.5 -14.5t-10.5 -17.5q0 -10 19 -33l95 -120l105 121q11 13 15.5 19.5t4.5 12.5q0 7 -2 11t-8.5 7t-18.5 6.5t-33 7.5v29h192v-29q-48 -9 -74 -39l-155 -178l167 -208q12 -15 33 -24t44 -16v-29h-225v29q38 5 49 10
t11 18q0 8 -5 15.5t-14 19.5l-110 136l-118 -136q-9 -11 -14.5 -19t-5.5 -16q0 -13 11.5 -18t48.5 -10v-29h-192v29q23 7 41 14.5t34 25.5z" />
    <glyph glyph-name="y" unicode="y" horiz-adv-x="589" 
d="M74 450q-4 9 -7.5 14t-10 9.5t-17 9t-29.5 11.5v29h225v-29q-40 -5 -58 -11.5t-18 -24.5q0 -6 1 -11.5t6 -15.5l154 -347l134 347q4 10 5.5 15.5t1.5 11.5q0 18 -18 24.5t-58 11.5v29h194v-29q-18 -7 -29 -11t-17.5 -8.5t-10 -10t-7.5 -14.5l-232 -579
q-15 -38 -31.5 -61.5t-34 -37t-35.5 -18.5t-37 -5q-26 0 -45.5 10t-26.5 25v44h63q40 0 66.5 16t44.5 63l36 92z" />
    <glyph glyph-name="z" unicode="z" horiz-adv-x="525" 
d="M45 17l323 465h-174q-19 0 -35 -4t-29 -15.5t-23 -31.5t-18 -53h-33l14 170h33l12 -25h353v-18l-317 -464h180q19 0 37 5t34 18t28.5 36t19.5 58h30l-13 -158h-422v17z" />
    <glyph glyph-name="braceleft" unicode="{" horiz-adv-x="419" 
d="M116 350q56 -17 81.5 -56t25.5 -87q0 -20 -4 -40.5t-8.5 -42.5t-8.5 -45t-4 -48q0 -59 32.5 -89t118.5 -30v-42q-60 0 -98.5 13t-61 35.5t-31.5 51.5t-9 61q0 25 3.5 48.5t8 45t8 42t3.5 40.5q0 24 -6.5 46t-23 38.5t-44.5 26.5t-71 10v44q43 0 71 10t44.5 26.5t23 38.5
t6.5 46q0 20 -3.5 40.5t-8 42.5t-8 45t-3.5 48q0 32 9 61t31.5 51.5t61 35.5t98.5 13v-42q-86 0 -118.5 -30t-32.5 -89q0 -25 4 -48t8.5 -45t8.5 -42.5t4 -40.5q0 -48 -25.5 -87t-81.5 -56z" />
    <glyph glyph-name="bar" unicode="|" horiz-adv-x="254" 
d="M154 -121h-54v951h54v-951z" />
    <glyph glyph-name="braceright" unicode="}" horiz-adv-x="419" 
d="M303 350q-56 17 -81.5 56t-25.5 87q0 20 4 40.5t8.5 42.5t8.5 45t4 48q0 59 -32.5 89t-118.5 30v42q60 0 98.5 -13t61 -35.5t31.5 -51.5t9 -61q0 -25 -3.5 -48t-8 -45t-8 -42.5t-3.5 -40.5q0 -24 6.5 -46t23 -38.5t44.5 -26.5t71 -10v-44q-43 0 -71 -10t-44.5 -26.5
t-23 -38.5t-6.5 -46q0 -20 3.5 -40.5t8 -42t8 -45t3.5 -48.5q0 -32 -9 -61t-31.5 -51.5t-61 -35.5t-98.5 -13v42q86 0 118.5 30t32.5 89q0 25 -4 48t-8.5 45t-8.5 42.5t-4 40.5q0 48 25.5 87t81.5 56z" />
    <glyph glyph-name="asciitilde" unicode="~" horiz-adv-x="517" 
d="M41 292q20 47 45.5 71t69.5 24q33 0 63 -9t57.5 -20t53.5 -20t51 -9t37.5 9t28.5 41l29 -9q-19 -46 -45 -70t-70 -24q-33 0 -63 9t-57.5 20t-53 20t-50.5 9t-37.5 -9t-29.5 -41z" />
    <glyph glyph-name="nonbreakingspace" unicode="&#xa0;" horiz-adv-x="240" 
 />
    <glyph glyph-name="exclamdown" unicode="&#xa1;" horiz-adv-x="315" 
d="M94 470q0 26 18.5 44.5t44.5 18.5t45 -18.5t19 -44.5t-19 -45t-45 -19t-44.5 19t-18.5 45zM211 -257h-106v46l20 292q5 69 9 133t5 112h38q1 -48 5 -112t9 -133l20 -292v-46z" />
    <glyph glyph-name="cent" unicode="&#xa2;" horiz-adv-x="590" 
d="M229 102q-43 14 -76.5 39.5t-56 60t-34 76t-11.5 86.5q0 69 21.5 125t60.5 95.5t93 60.5t119 21h8l27 120h43l-27 -124q69 -10 104.5 -45t35.5 -80q0 -22 -9.5 -38t-26.5 -24h-42v21q0 85 -75 109l-97 -445q13 -3 26 -4t27 -1q35 0 61 6.5t47.5 19.5t39.5 31t36 41
l27 -10q-11 -31 -30 -59t-47.5 -49t-66.5 -33.5t-87 -12.5q-25 0 -48 3l-21 -98h-44zM124 394q0 -77 30.5 -135.5t90.5 -85.5l97 441q-6 0 -12.5 0.5t-12.5 0.5q-40 0 -75.5 -15.5t-61.5 -44t-41 -69.5t-15 -92z" />
    <glyph glyph-name="sterling" unicode="&#xa3;" horiz-adv-x="768" 
d="M123 420h136l22 113q14 71 40 120t61 79.5t79 44t94 13.5q74 0 112 -26.5t38 -68.5q0 -22 -11.5 -39t-29.5 -25h-52v34q0 34 -18 57t-64 23q-37 0 -64 -17.5t-46.5 -48.5t-33 -73t-23.5 -91l-19 -95h213v-42h-221l-19 -95q-8 -42 -17 -75.5t-14 -50.5q53 -36 119.5 -61
t132.5 -25q31 0 56 5t43 19t27.5 38.5t9.5 63.5h23q8 -8 18 -26.5t10 -53.5q0 -65 -47 -96t-128 -31q-37 0 -76.5 11t-77 28.5t-70.5 39t-57 42.5q-10 -26 -22 -48t-28 -38.5t-38 -25.5t-52 -9q-55 0 -80.5 29t-25.5 72q0 48 34.5 80t89.5 32q19 0 36 -3t31 -10l36 188h-127
v42zM127 37q29 0 47.5 27.5t29.5 81.5q-17 6 -28 8.5t-28 2.5q-35 0 -54 -19t-19 -48q0 -26 14.5 -39.5t37.5 -13.5z" />
    <glyph glyph-name="currency" unicode="&#xa4;" horiz-adv-x="624" 
d="M161 308q0 -37 9 -70t27.5 -58t47 -39.5t67.5 -14.5t68 14.5t47.5 39.5t27.5 58t9 70t-9 69.5t-27.5 57t-47.5 39t-68 14.5t-67.5 -14.5t-47 -39t-27.5 -57t-9 -69.5zM85 308q0 85 46 143l-61 61l38 38l61 -61q29 22 64.5 34t78.5 12t78 -12t64 -34l62 61l38 -38l-61 -59
q23 -30 35.5 -66.5t12.5 -78.5q0 -43 -12.5 -79t-35.5 -65l61 -59l-39 -39l-61 59q-58 -46 -142 -46q-83 0 -143 46l-60 -59l-39 39l61 60q-46 58 -46 143z" />
    <glyph glyph-name="yen" unicode="&#xa5;" horiz-adv-x="696" 
d="M84 414h173l-177 292q-13 21 -29.5 29t-40.5 12v33h280v-33q-63 -2 -85 -12t-22 -33q0 -10 4 -20.5t10 -20.5l169 -286l163 281q17 26 17 47q0 11 -4.5 19t-16.5 13t-32.5 8t-52.5 4v33h246v-33q-24 -4 -40.5 -11.5t-29.5 -29.5l-175 -292h175v-41h-200l-26 -44v-20h226
v-40h-226v-153q0 -26 8 -42t23.5 -24.5t38 -12t50.5 -4.5v-33h-319v33q28 1 50.5 4.5t38 12t23.5 24.5t8 42v153h-227v40h227v16l-29 48h-198v41z" />
    <glyph glyph-name="brokenbar" unicode="&#xa6;" horiz-adv-x="254" 
d="M154 424h-54v406h54v-406zM154 -121h-54v406h54v-406z" />
    <glyph glyph-name="section" unicode="&#xa7;" horiz-adv-x="514" 
d="M131 696q-12 -22 -22 -63.5t-10 -93.5q0 -80 32 -164.5t87 -169.5q26 -40 55 -83t53.5 -86.5t40.5 -85.5t16 -78q12 22 22 63.5t10 93.5q0 80 -32.5 164.5t-87.5 169.5q-26 40 -55 83t-53 86.5t-40 85.5t-16 78zM220 -250q-69 0 -107 27t-38 68q0 23 11 36t25 20h54v-9
q0 -45 24.5 -68.5t62.5 -23.5q42 0 64.5 23.5t22.5 59.5q0 33 -15.5 68t-39.5 71.5t-52.5 75.5t-54.5 81q-53 85 -87.5 172t-34.5 188q0 64 17.5 115.5t49 88t75.5 56t97 19.5q69 0 107 -27t38 -68q0 -23 -11 -36t-25 -20h-54v9q0 45 -24.5 68.5t-62.5 23.5
q-42 0 -64.5 -23.5t-22.5 -59.5q0 -33 15.5 -68t39.5 -71.5t52.5 -75.5t54.5 -81q53 -85 87.5 -172t34.5 -188q0 -64 -17.5 -115.5t-49 -88t-75.5 -56t-97 -19.5z" />
    <glyph glyph-name="dieresis" unicode="&#xa8;" horiz-adv-x="600" 
d="M144 691q0 23 16.5 40t39.5 17t40 -17t17 -40t-17 -39.5t-40 -16.5t-39.5 16.5t-16.5 39.5zM343 691q0 23 16.5 40t39.5 17t40 -17t17 -40t-17 -39.5t-40 -16.5t-39.5 16.5t-16.5 39.5z" />
    <glyph glyph-name="copyright" unicode="&#xa9;" horiz-adv-x="890" 
d="M45 390q0 83 31.5 156t85.5 127t127 85.5t156 31.5t156 -31.5t127 -85.5t85.5 -127t31.5 -156t-31.5 -156t-85.5 -127t-127 -85.5t-156 -31.5t-156 31.5t-127 85.5t-85.5 127t-31.5 156zM75 390q0 -76 29 -143.5t79.5 -118t118 -79.5t143.5 -29q77 0 144 29t117.5 79.5
t79.5 118t29 143.5q0 77 -29 144t-79.5 117.5t-117.5 79.5t-144 29q-76 0 -143.5 -29t-118 -79.5t-79.5 -117.5t-29 -144zM460 178q39 0 65.5 8.5t45.5 24t32 37.5t23 49h22l-14 -119q-42 -17 -85 -27.5t-100 -10.5q-63 0 -111.5 20.5t-81.5 54.5t-50 78t-17 90
q0 60 20.5 108t55.5 82.5t82.5 53t102.5 18.5q59 0 102.5 -12t69.5 -26l5 -114h-20q-23 63 -61.5 87.5t-94.5 24.5q-46 0 -81.5 -16t-58.5 -43t-35 -63t-12 -77q0 -44 12.5 -85t37 -73t61.5 -51t85 -19z" />
    <glyph glyph-name="ordfeminine" unicode="&#xaa;" horiz-adv-x="430" 
d="M176 396q29 0 49 12t44 30v102l-118 -38q-18 -6 -28 -17t-10 -30q0 -29 17 -44t46 -15zM340 443q0 -47 33 -47q4 0 13 1.5t16 3.5l7 -23q-34 -33 -72 -33q-27 0 -41.5 17t-23.5 46q-19 -21 -50 -42t-78 -21q-52 0 -78.5 27t-26.5 68q0 24 7.5 39.5t21 26t31 16.5t37.5 12
l133 39v15q0 43 -20 72t-64 29q-60 0 -60 -51q0 -5 1 -14t3 -19l-59 -7q-7 7 -11 15.5t-4 21.5q0 21 11.5 37.5t31 28.5t45.5 18t55 6q65 0 103.5 -29.5t38.5 -103.5v-149z" />
    <glyph glyph-name="guillemotleft" unicode="&#xab;" horiz-adv-x="458" 
d="M41 279l169 190h37l-128 -195l128 -195h-37l-169 190v10zM199 279l168 190h37l-128 -195l128 -195h-37l-168 190v10z" />
    <glyph glyph-name="logicalnot" unicode="&#xac;" 
d="M568 525h-488v47h540v-364h-52v317z" />
    <glyph glyph-name="uni00AD" unicode="&#xad;" horiz-adv-x="348" 
d="M50 309v58h248v-58h-248z" />
    <glyph glyph-name="registered" unicode="&#xae;" horiz-adv-x="471" 
d="M200 694v-80h27q29 0 38.5 10t9.5 32q0 20 -11 29t-37 9h-27zM233 714q48 0 64.5 -17.5t16.5 -40.5q0 -29 -19 -43.5t-50 -16.5q17 -2 34 -19l37 -41q9 -11 14.5 -13.5t17.5 -4.5v-16h-41q-8 5 -16 11t-16 17l-42 51q-8 10 -16.5 13.5t-16.5 3.5v-58q0 -13 7.5 -17.5
t21.5 -4.5v-16h-93v16q16 0 22.5 4.5t6.5 17.5v136q0 14 -6.5 17t-22.5 5v16h97zM50 603q0 39 14.5 73t39.5 59.5t58.5 40t71.5 14.5q39 0 73 -14.5t59.5 -40t40 -59.5t14.5 -73q0 -38 -14.5 -71.5t-40 -58.5t-59.5 -39.5t-73 -14.5q-38 0 -71.5 14.5t-58.5 39.5t-39.5 58.5
t-14.5 71.5zM76 603q0 -33 12.5 -62t34 -51t50 -35t61.5 -13t62.5 13t51 35t34 51t12.5 62t-12.5 63t-34 52t-51 35t-62.5 13t-61.5 -13t-50 -35t-34 -52t-12.5 -63z" />
    <glyph glyph-name="macron" unicode="&#xaf;" horiz-adv-x="600" 
d="M168 704h264v-52h-264v52z" />
    <glyph glyph-name="degree" unicode="&#xb0;" horiz-adv-x="485" 
d="M60 605q0 38 12.5 72t36 59t57.5 39.5t77 14.5q42 0 75.5 -14.5t57.5 -39.5t36.5 -59t12.5 -72q0 -39 -12.5 -72.5t-36.5 -59t-57.5 -40t-75.5 -14.5q-43 0 -77 14.5t-57.5 40t-36 59t-12.5 72.5zM363 605q0 29 -8 54.5t-24 44t-38 29.5t-51 11q-28 0 -50.5 -11
t-38 -29.5t-24 -44t-8.5 -54.5t8.5 -55t24 -45t38 -30t50.5 -11q29 0 51 11t38 30t24 45t8 55z" />
    <glyph glyph-name="plusminus" unicode="&#xb1;" 
d="M322 328h-242v51h242v176h56v-176h242v-51h-242v-176h-56v176zM80 58v48h540v-48h-540z" />
    <glyph glyph-name="twosuperior" unicode="&#xb2;" horiz-adv-x="415" 
d="M237 356q23 0 38 2t27 9t22.5 21.5t23.5 38.5h20l-18 -131h-326v18l128 131q35 36 57.5 61.5t36 46t19 38.5t5.5 39q0 48 -26.5 72t-73.5 24q-42 0 -69.5 -20t-50.5 -43l-15 17q11 20 26 39t35 34t45.5 24t55.5 9q70 0 107 -37.5t37 -100.5q0 -36 -18.5 -70t-50 -69
t-73.5 -72t-88 -81h126z" />
    <glyph glyph-name="threesuperior" unicode="&#xb3;" horiz-adv-x="433" 
d="M237 565q65 -8 102.5 -45.5t37.5 -92.5q0 -36 -14 -61.5t-38 -42.5t-55 -25t-64 -8q-38 0 -67 9t-49 23t-30.5 32.5t-10.5 37.5q0 18 9 30.5t20 18.5h41v-24q0 -43 23 -68.5t72 -25.5q43 0 68 23t25 72q0 31 -10 51.5t-28 33t-42.5 18t-53.5 5.5h-30v22q30 10 56 21
t44.5 24.5t29.5 31t11 39.5q0 33 -19.5 51t-61.5 18t-70.5 -20.5t-48.5 -41.5l-16 17q22 42 58.5 70t96.5 28q32 0 56 -8.5t40 -23t24 -33t8 -38.5q0 -25 -11 -43.5t-28 -32.5t-37 -24t-38 -18z" />
    <glyph glyph-name="acute" unicode="&#xb4;" horiz-adv-x="600" 
d="M391 800l-149 -208h-33l81 208h101z" />
    <glyph glyph-name="paragraph" unicode="&#xb6;" horiz-adv-x="712" 
d="M337 372q-134 0 -208.5 52.5t-74.5 151.5t74.5 151.5t208.5 52.5h301v-33q-28 -1 -49.5 -4.5t-36 -12t-22 -24t-7.5 -40.5v-906h-45v980h-96v-980h-45v612z" />
    <glyph glyph-name="periodcentered" unicode="&#xb7;" horiz-adv-x="315" 
d="M94 329q0 26 18.5 45t44.5 19t45 -19t19 -45t-19 -44.5t-45 -18.5t-44.5 18.5t-18.5 44.5z" />
    <glyph glyph-name="cedilla" unicode="&#xb8;" horiz-adv-x="600" 
d="M299 6l-10 -48q50 -14 83 -38t33 -69t-35.5 -73t-88.5 -28q-31 0 -52 7t-35 16l8 27q18 -7 36.5 -9t34.5 -2q35 0 55.5 14.5t20.5 38.5q0 29 -27.5 44.5t-69.5 23.5l22 96h25z" />
    <glyph glyph-name="onesuperior" unicode="&#xb9;" horiz-adv-x="411" 
d="M239 786v-412q0 -31 33 -38.5t90 -10.5v-29h-316v29q28 2 51 3.5t39.5 6.5t25.5 14t9 25v303h-125v23l25 3q45 7 84 27.5t70 55.5h14z" />
    <glyph glyph-name="ordmasculine" unicode="&#xba;" horiz-adv-x="437" 
d="M233 389q51 0 76 36t25 93q0 33 -8.5 63t-25 52.5t-41 35.5t-55.5 13q-51 0 -76.5 -36.5t-25.5 -93.5q0 -33 9 -62.5t25.5 -52t41 -35.5t55.5 -13zM211 345q-41 0 -74.5 13.5t-57.5 38t-37.5 58t-13.5 73.5q0 45 16 81.5t43 62t62.5 39.5t75.5 14q41 0 75 -13.5t58 -38
t37.5 -58t13.5 -73.5q0 -45 -16 -81.5t-43 -62t-63 -39.5t-76 -14z" />
    <glyph glyph-name="guillemotright" unicode="&#xbb;" horiz-adv-x="458" 
d="M260 269l-169 -190h-37l128 195l-128 195h37l169 -190v-10zM417 269l-169 -190h-36l128 195l-128 195h36l169 -190v-10z" />
    <glyph glyph-name="onequarter" unicode="&#xbc;" horiz-adv-x="1006" 
d="M239 786v-412q0 -31 33 -38.5t90 -10.5v-29h-316v29q28 2 51 3.5t39.5 6.5t25.5 14t9 25v303h-125v23l25 3q45 7 84 27.5t70 55.5h14zM785 780h57l-522 -780h-57zM837 166v217l-196 -217h196zM837 0v126h-257v30l293 328h35v-318h77v-40h-77v-126h-71z" />
    <glyph glyph-name="onehalf" unicode="&#xbd;" horiz-adv-x="1069" 
d="M239 786v-412q0 -31 33 -38.5t90 -10.5v-29h-316v29q28 2 51 3.5t39.5 6.5t25.5 14t9 25v303h-125v23l25 3q45 7 84 27.5t70 55.5h14zM785 780h57l-522 -780h-57zM891 60q23 0 38 2t27 9t22.5 21.5t23.5 38.5h20l-18 -131h-326v18l128 131q35 36 57.5 61.5t36 46t19 38.5
t5.5 39q0 48 -26.5 72t-73.5 24q-42 0 -69.5 -20t-50.5 -43l-15 17q11 20 26 39t35 34t45.5 24t55.5 9q70 0 107 -37.5t37 -100.5q0 -36 -18.5 -70t-50 -69t-73.5 -72t-88 -81h126z" />
    <glyph glyph-name="threequarters" unicode="&#xbe;" horiz-adv-x="968" 
d="M237 565q65 -8 102.5 -45.5t37.5 -92.5q0 -36 -14 -61.5t-38 -42.5t-55 -25t-64 -8q-38 0 -67 9t-49 23t-30.5 32.5t-10.5 37.5q0 18 9 30.5t20 18.5h41v-24q0 -43 23 -68.5t72 -25.5q43 0 68 23t25 72q0 31 -10 51.5t-28 33t-42.5 18t-53.5 5.5h-30v22q30 10 56 21
t44.5 24.5t29.5 31t11 39.5q0 33 -19.5 51t-61.5 18t-70.5 -20.5t-48.5 -41.5l-16 17q22 42 58.5 70t96.5 28q32 0 56 -8.5t40 -23t24 -33t8 -38.5q0 -25 -11 -43.5t-28 -32.5t-37 -24t-38 -18zM747 780h57l-522 -780h-57zM799 166v217l-196 -217h196zM799 0v126h-257v30
l293 328h35v-318h77v-40h-77v-126h-71z" />
    <glyph glyph-name="questiondown" unicode="&#xbf;" horiz-adv-x="475" 
d="M114 -103q0 -55 34.5 -88t93.5 -33q55 0 84.5 33.5t29.5 84.5v31h65q20 -20 20 -53q0 -30 -15.5 -55.5t-42 -44t-61.5 -29t-75 -10.5q-47 0 -86 11.5t-67.5 35t-44.5 59.5t-16 84q0 35 9.5 62.5t27 51.5t42.5 47.5t57 49.5q43 35 63.5 65.5t20.5 73.5v53h24
q9 -15 19.5 -38t10.5 -54q0 -50 -24 -86t-75 -79q-19 -17 -36.5 -34t-30 -37t-20 -44.5t-7.5 -56.5zM328 470q0 -26 -18.5 -45t-44.5 -19t-45 19t-19 45t19 44.5t45 18.5t44.5 -18.5t18.5 -44.5z" />
    <glyph glyph-name="Agrave" unicode="&#xc0;" horiz-adv-x="818" 
d="M568 260h-353l-56 -133q-5 -13 -8.5 -24t-3.5 -21q0 -26 26 -36.5t88 -12.5v-33h-251v33q24 4 42 11t28 30l282 655l-30 64h95l311 -719q10 -23 28 -30t42 -11v-33h-283v33q62 2 87.5 12t25.5 36q0 10 -3.5 21t-8.5 24zM234 305h315l-158 370zM321 1030l84 -208h-33
l-149 208h98z" />
    <glyph glyph-name="Aacute" unicode="&#xc1;" horiz-adv-x="818" 
d="M568 260h-353l-56 -133q-5 -13 -8.5 -24t-3.5 -21q0 -26 26 -36.5t88 -12.5v-33h-251v33q24 4 42 11t28 30l282 655l-30 64h95l311 -719q10 -23 28 -30t42 -11v-33h-283v33q62 2 87.5 12t25.5 36q0 10 -3.5 21t-8.5 24zM234 305h315l-158 370zM542 1030l-149 -208h-33
l81 208h101z" />
    <glyph glyph-name="Acircumflex" unicode="&#xc2;" horiz-adv-x="818" 
d="M568 260h-353l-56 -133q-5 -13 -8.5 -24t-3.5 -21q0 -26 26 -36.5t88 -12.5v-33h-251v33q24 4 42 11t28 30l282 655l-30 64h95l311 -719q10 -23 28 -30t42 -11v-33h-283v33q62 2 87.5 12t25.5 36q0 10 -3.5 21t-8.5 24zM234 305h315l-158 370zM568 822h-34l-142 134
l-142 -134h-34l148 208h56z" />
    <glyph glyph-name="Atilde" unicode="&#xc3;" horiz-adv-x="818" 
d="M568 260h-353l-56 -133q-5 -13 -8.5 -24t-3.5 -21q0 -26 26 -36.5t88 -12.5v-33h-251v33q24 4 42 11t28 30l282 655l-30 64h95l311 -719q10 -23 28 -30t42 -11v-33h-283v33q62 2 87.5 12t25.5 36q0 10 -3.5 21t-8.5 24zM234 305h315l-158 370zM460 850q-24 0 -45 9.5
t-39.5 20.5t-35.5 20.5t-34 9.5q-25 0 -38.5 -9.5t-31.5 -42.5l-33 4q18 49 48 77t76 28q24 0 45 -9.5t39.5 -20.5t35.5 -20.5t34 -9.5q26 0 39 9.5t31 42.5l33 -4q-18 -50 -48 -77.5t-76 -27.5z" />
    <glyph glyph-name="Adieresis" unicode="&#xc4;" horiz-adv-x="818" 
d="M568 260h-353l-56 -133q-5 -13 -8.5 -24t-3.5 -21q0 -26 26 -36.5t88 -12.5v-33h-251v33q24 4 42 11t28 30l282 655l-30 64h95l311 -719q10 -23 28 -30t42 -11v-33h-283v33q62 2 87.5 12t25.5 36q0 10 -3.5 21t-8.5 24zM234 305h315l-158 370zM234 909q0 23 16.5 40
t39.5 17t40 -17t17 -40t-17 -39.5t-40 -16.5t-39.5 16.5t-16.5 39.5zM433 909q0 23 16.5 40t39.5 17t40 -17t17 -40t-17 -39.5t-40 -16.5t-39.5 16.5t-16.5 39.5z" />
    <glyph glyph-name="Aring" unicode="&#xc5;" horiz-adv-x="818" 
d="M568 260h-353l-56 -133q-5 -13 -8.5 -24t-3.5 -21q0 -26 26 -36.5t88 -12.5v-33h-251v33q24 4 42 11t28 30l282 655l-30 64h95l311 -719q10 -23 28 -30t42 -11v-33h-283v33q62 2 87.5 12t25.5 36q0 10 -3.5 21t-8.5 24zM234 305h315l-158 370zM270 936q0 48 30.5 81
t81.5 33t81.5 -33t30.5 -81t-30.5 -81t-81.5 -33t-81.5 33t-30.5 81zM446 936q0 32 -15.5 53t-48.5 21t-48 -21t-15 -53t15 -53t48 -21t48.5 21t15.5 53z" />
    <glyph glyph-name="AE" unicode="&#xc6;" horiz-adv-x="1154" 
d="M546 259h-310l-65 -124q-10 -18 -13 -30.5t-3 -22.5q0 -26 26 -36.5t88 -12.5v-33h-259v33q24 3 43 10.5t31 30.5l350 660q-18 6 -46 9.5t-54 3.5v33h714l3 -176h-19q-16 37 -31 62.5t-33.5 41t-43 22t-58.5 6.5h-325l60 -317h241q38 0 55.5 27t26.5 78h28v-255h-28
q-9 51 -26.5 77.5t-55.5 26.5h-232l50 -254q9 -46 41.5 -60.5t98.5 -14.5h72q39 0 64 6t44 22t38 44.5t46 72.5h24l-35 -189h-596v33q26 1 47.5 3.5t37 9t24.5 18t9 29.5q0 17 -4 37zM260 303h278l-73 383h-2z" />
    <glyph glyph-name="Ccedilla" unicode="&#xc7;" horiz-adv-x="818" 
d="M486 37q58 0 99.5 12t73 36t55.5 61t46 86h24l-23 -184q-60 -27 -130 -42.5t-155 -15.5h-1l-6 -32q50 -14 83 -38t33 -69t-35.5 -73t-88.5 -28q-31 0 -52 7t-35 16l8 27q18 -7 36.5 -9t34.5 -2q35 0 55.5 14.5t20.5 38.5q0 29 -27.5 44.5t-69.5 23.5l18 81
q-96 4 -169.5 36.5t-123.5 85t-75.5 120t-25.5 142.5q0 96 32 172.5t88 130.5t131.5 83t162.5 29t154.5 -16.5t118.5 -45.5l7 -164h-22q-35 95 -100.5 133.5t-160.5 38.5q-79 0 -140 -23.5t-102.5 -67.5t-63 -106t-21.5 -139q0 -66 22.5 -131t66.5 -116.5t108.5 -83.5
t148.5 -32z" />
    <glyph glyph-name="Egrave" unicode="&#xc8;" horiz-adv-x="811" 
d="M366 1030l84 -208h-33l-149 208h98zM581 271q-9 51 -26.5 77.5t-55.5 26.5h-248v-256q0 -45 28.5 -60t94.5 -15h155q39 0 64 6t44 22t38 44.5t46 72.5h24l-35 -189h-664v33q28 1 51 4.5t39 12t25 24.5t9 42v548q0 26 -9 42t-25 24.5t-39 12t-51 4.5v33h659l3 -176h-19
q-16 37 -31 62.5t-33.5 41t-43 22t-58.5 6.5h-272v-317h248q38 0 55.5 27t26.5 78h28v-253h-28z" />
    <glyph glyph-name="Eacute" unicode="&#xc9;" horiz-adv-x="811" 
d="M558 1030l-149 -208h-33l81 208h101zM581 271q-9 51 -26.5 77.5t-55.5 26.5h-248v-256q0 -45 28.5 -60t94.5 -15h155q39 0 64 6t44 22t38 44.5t46 72.5h24l-35 -189h-664v33q28 1 51 4.5t39 12t25 24.5t9 42v548q0 26 -9 42t-25 24.5t-39 12t-51 4.5v33h659l3 -176h-19
q-16 37 -31 62.5t-33.5 41t-43 22t-58.5 6.5h-272v-317h248q38 0 55.5 27t26.5 78h28v-253h-28z" />
    <glyph glyph-name="Ecircumflex" unicode="&#xca;" horiz-adv-x="811" 
d="M581 271q-9 51 -26.5 77.5t-55.5 26.5h-248v-256q0 -45 28.5 -60t94.5 -15h155q39 0 64 6t44 22t38 44.5t46 72.5h24l-35 -189h-664v33q28 1 51 4.5t39 12t25 24.5t9 42v548q0 26 -9 42t-25 24.5t-39 12t-51 4.5v33h659l3 -176h-19q-16 37 -31 62.5t-33.5 41t-43 22
t-58.5 6.5h-272v-317h248q38 0 55.5 27t26.5 78h28v-253h-28zM575 822h-34l-142 134l-142 -134h-34l148 208h56z" />
    <glyph glyph-name="Edieresis" unicode="&#xcb;" horiz-adv-x="811" 
d="M257 909q0 23 16.5 40t39.5 17t40 -17t17 -40t-17 -39.5t-40 -16.5t-39.5 16.5t-16.5 39.5zM456 909q0 23 16.5 40t39.5 17t40 -17t17 -40t-17 -39.5t-40 -16.5t-39.5 16.5t-16.5 39.5zM581 271q-9 51 -26.5 77.5t-55.5 26.5h-248v-256q0 -45 28.5 -60t94.5 -15h155
q39 0 64 6t44 22t38 44.5t46 72.5h24l-35 -189h-664v33q28 1 51 4.5t39 12t25 24.5t9 42v548q0 26 -9 42t-25 24.5t-39 12t-51 4.5v33h659l3 -176h-19q-16 37 -31 62.5t-33.5 41t-43 22t-58.5 6.5h-272v-317h248q38 0 55.5 27t26.5 78h28v-253h-28z" />
    <glyph glyph-name="Igrave" unicode="&#xcc;" horiz-adv-x="421" 
d="M170 664q0 26 -9 42t-25 24.5t-39 12t-51 4.5v33h329v-33q-28 -1 -51 -4.5t-39 -12t-25 -24.5t-9 -42v-548q0 -26 9 -42t25 -24.5t39 -12t51 -4.5v-33h-329v33q28 1 51 4.5t39 12t25 24.5t9 42v548zM150 1030l84 -208h-33l-149 208h98z" />
    <glyph glyph-name="Iacute" unicode="&#xcd;" horiz-adv-x="421" 
d="M170 664q0 26 -9 42t-25 24.5t-39 12t-51 4.5v33h329v-33q-28 -1 -51 -4.5t-39 -12t-25 -24.5t-9 -42v-548q0 -26 9 -42t25 -24.5t39 -12t51 -4.5v-33h-329v33q28 1 51 4.5t39 12t25 24.5t9 42v548zM371 1030l-149 -208h-33l81 208h101z" />
    <glyph glyph-name="Icircumflex" unicode="&#xce;" horiz-adv-x="421" 
d="M170 664q0 26 -9 42t-25 24.5t-39 12t-51 4.5v33h329v-33q-28 -1 -51 -4.5t-39 -12t-25 -24.5t-9 -42v-548q0 -26 9 -42t25 -24.5t39 -12t51 -4.5v-33h-329v33q28 1 51 4.5t39 12t25 24.5t9 42v548zM387 822h-34l-142 134l-142 -134h-34l148 208h56z" />
    <glyph glyph-name="Idieresis" unicode="&#xcf;" horiz-adv-x="421" 
d="M170 664q0 26 -9 42t-25 24.5t-39 12t-51 4.5v33h329v-33q-28 -1 -51 -4.5t-39 -12t-25 -24.5t-9 -42v-548q0 -26 9 -42t25 -24.5t39 -12t51 -4.5v-33h-329v33q28 1 51 4.5t39 12t25 24.5t9 42v548zM52 909q0 23 16.5 40t39.5 17t40 -17t17 -40t-17 -39.5t-40 -16.5
t-39.5 16.5t-16.5 39.5zM251 909q0 23 16.5 40t39.5 17t40 -17t17 -40t-17 -39.5t-40 -16.5t-39.5 16.5t-16.5 39.5z" />
    <glyph glyph-name="Eth" unicode="&#xd0;" horiz-adv-x="920" 
d="M46 419h124v245q0 26 -9 42t-25 24.5t-39 12t-51 4.5v33h401q110 0 188.5 -31t129.5 -82t75 -117.5t24 -137.5q0 -100 -32 -177t-86.5 -129t-126 -79t-150.5 -27h-423v33q28 1 51 4.5t39 12t25 24.5t9 42v259h-124v44zM251 736v-317h246v-44h-246v-253q0 -49 29.5 -63.5
t93.5 -14.5h94q61 0 116.5 21t97.5 62.5t67 104t25 144.5q0 74 -18.5 139t-59.5 114.5t-107.5 78t-162.5 28.5h-175z" />
    <glyph glyph-name="Ntilde" unicode="&#xd1;" horiz-adv-x="976" 
d="M564 850q-24 0 -45 9.5t-39.5 20.5t-35.5 20.5t-34 9.5q-25 0 -38.5 -9.5t-31.5 -42.5l-33 4q18 49 48 77t76 28q24 0 45 -9.5t39.5 -20.5t35.5 -20.5t34 -9.5q26 0 39 9.5t31 42.5l33 -4q-18 -50 -48 -77.5t-76 -27.5zM169 681q-18 21 -31 34t-26 20t-28.5 9.5
t-37.5 2.5v33h162l557 -644v528q0 26 -8 42t-23.5 24.5t-37.5 12t-50 4.5v33h294v-33q-28 -1 -50.5 -4.5t-38.5 -12t-24.5 -24.5t-8.5 -42v-664h-37l-559 640v-524q0 -26 8 -42t23.5 -24.5t37.5 -12t50 -4.5v-33h-295v33q28 1 51 4.5t39 12t24.5 24.5t8.5 42v565z" />
    <glyph glyph-name="Ograve" unicode="&#xd2;" horiz-adv-x="904" 
d="M390 1030l84 -208h-33l-149 208h98zM476 50q69 0 123 24.5t90.5 67.5t56 100t19.5 121q0 76 -21 143t-63 116.5t-105 78.5t-148 29q-69 0 -123 -24.5t-90.5 -67.5t-56 -99.5t-19.5 -121.5q0 -76 21 -143t63 -116.5t105 -78.5t148 -29zM441 -10q-88 0 -159.5 32t-121.5 85
t-77 122.5t-27 145.5q0 96 31.5 172.5t86.5 130.5t129.5 83t159.5 29q89 0 160 -31.5t121 -85t77 -123t27 -145.5q0 -96 -31.5 -172.5t-86.5 -130.5t-129.5 -83t-159.5 -29z" />
    <glyph glyph-name="Oacute" unicode="&#xd3;" horiz-adv-x="904" 
d="M612 1030l-149 -208h-33l81 208h101zM476 50q69 0 123 24.5t90.5 67.5t56 100t19.5 121q0 76 -21 143t-63 116.5t-105 78.5t-148 29q-69 0 -123 -24.5t-90.5 -67.5t-56 -99.5t-19.5 -121.5q0 -76 21 -143t63 -116.5t105 -78.5t148 -29zM441 -10q-88 0 -159.5 32
t-121.5 85t-77 122.5t-27 145.5q0 96 31.5 172.5t86.5 130.5t129.5 83t159.5 29q89 0 160 -31.5t121 -85t77 -123t27 -145.5q0 -96 -31.5 -172.5t-86.5 -130.5t-129.5 -83t-159.5 -29z" />
    <glyph glyph-name="Ocircumflex" unicode="&#xd4;" horiz-adv-x="904" 
d="M476 50q69 0 123 24.5t90.5 67.5t56 100t19.5 121q0 76 -21 143t-63 116.5t-105 78.5t-148 29q-69 0 -123 -24.5t-90.5 -67.5t-56 -99.5t-19.5 -121.5q0 -76 21 -143t63 -116.5t105 -78.5t148 -29zM441 -10q-88 0 -159.5 32t-121.5 85t-77 122.5t-27 145.5
q0 96 31.5 172.5t86.5 130.5t129.5 83t159.5 29q89 0 160 -31.5t121 -85t77 -123t27 -145.5q0 -96 -31.5 -172.5t-86.5 -130.5t-129.5 -83t-159.5 -29zM628 822h-34l-142 134l-142 -134h-34l148 208h56z" />
    <glyph glyph-name="Otilde" unicode="&#xd5;" horiz-adv-x="904" 
d="M516 850q-24 0 -45 9.5t-39.5 20.5t-35.5 20.5t-34 9.5q-25 0 -38.5 -9.5t-31.5 -42.5l-33 4q18 49 48 77t76 28q24 0 45 -9.5t39.5 -20.5t35.5 -20.5t34 -9.5q26 0 39 9.5t31 42.5l33 -4q-18 -50 -48 -77.5t-76 -27.5zM476 50q69 0 123 24.5t90.5 67.5t56 100t19.5 121
q0 76 -21 143t-63 116.5t-105 78.5t-148 29q-69 0 -123 -24.5t-90.5 -67.5t-56 -99.5t-19.5 -121.5q0 -76 21 -143t63 -116.5t105 -78.5t148 -29zM441 -10q-88 0 -159.5 32t-121.5 85t-77 122.5t-27 145.5q0 96 31.5 172.5t86.5 130.5t129.5 83t159.5 29q89 0 160 -31.5
t121 -85t77 -123t27 -145.5q0 -96 -31.5 -172.5t-86.5 -130.5t-129.5 -83t-159.5 -29z" />
    <glyph glyph-name="Odieresis" unicode="&#xd6;" horiz-adv-x="904" 
d="M293 909q0 23 16.5 40t39.5 17t40 -17t17 -40t-17 -39.5t-40 -16.5t-39.5 16.5t-16.5 39.5zM492 909q0 23 16.5 40t39.5 17t40 -17t17 -40t-17 -39.5t-40 -16.5t-39.5 16.5t-16.5 39.5zM476 50q69 0 123 24.5t90.5 67.5t56 100t19.5 121q0 76 -21 143t-63 116.5
t-105 78.5t-148 29q-69 0 -123 -24.5t-90.5 -67.5t-56 -99.5t-19.5 -121.5q0 -76 21 -143t63 -116.5t105 -78.5t148 -29zM441 -10q-88 0 -159.5 32t-121.5 85t-77 122.5t-27 145.5q0 96 31.5 172.5t86.5 130.5t129.5 83t159.5 29q89 0 160 -31.5t121 -85t77 -123t27 -145.5
q0 -96 -31.5 -172.5t-86.5 -130.5t-129.5 -83t-159.5 -29z" />
    <glyph glyph-name="multiply" unicode="&#xd7;" 
d="M386 286l214 -215l-37 -35l-213 216l-213 -216l-37 34l214 215l-214 214l37 35l213 -216l213 216l37 -34z" />
    <glyph glyph-name="Oslash" unicode="&#xd8;" horiz-adv-x="905" 
d="M442 -10q-79 0 -144 25t-114 69l-89 -94l-34 26l93 98q-48 53 -72.5 120t-24.5 141q0 96 31.5 172.5t86.5 130.5t129.5 83t159.5 29q75 0 136.5 -22.5t109.5 -62.5l80 85l37 -27l-84 -88q51 -54 78.5 -123.5t27.5 -146.5q0 -96 -31.5 -172.5t-86.5 -130.5t-129.5 -83
t-159.5 -29zM477 50q69 0 123 24.5t90.5 67.5t56 100t19.5 121q0 74 -19.5 138.5t-59.5 114.5l-449 -475q42 -43 101.5 -67t137.5 -24zM140 417q0 -70 17.5 -132t52.5 -111l447 475q-42 38 -98.5 59.5t-129.5 21.5q-69 0 -123 -24.5t-90.5 -67.5t-56 -99.5t-19.5 -121.5z
" />
    <glyph glyph-name="Ugrave" unicode="&#xd9;" horiz-adv-x="876" 
d="M396 1030l84 -208h-33l-149 208h98zM215 285q0 -59 16.5 -103.5t46 -74t70.5 -44.5t91 -15q125 0 188.5 59.5t63.5 180.5v376q0 26 -8 42t-23.5 24.5t-37.5 12t-50 4.5v33h294v-33q-28 -1 -50.5 -4.5t-38.5 -12t-24.5 -24.5t-8.5 -42v-399q0 -67 -24.5 -118.5t-66 -86.5
t-97 -52.5t-117.5 -17.5q-68 0 -124 17t-96.5 51.5t-62.5 86.5t-22 122v397q0 26 -9 42t-25 24.5t-39 12t-51 4.5v33h329v-33q-28 -1 -51 -4.5t-39 -12t-25 -24.5t-9 -42v-379z" />
    <glyph glyph-name="Uacute" unicode="&#xda;" horiz-adv-x="876" 
d="M617 1030l-149 -208h-33l81 208h101zM215 285q0 -59 16.5 -103.5t46 -74t70.5 -44.5t91 -15q125 0 188.5 59.5t63.5 180.5v376q0 26 -8 42t-23.5 24.5t-37.5 12t-50 4.5v33h294v-33q-28 -1 -50.5 -4.5t-38.5 -12t-24.5 -24.5t-8.5 -42v-399q0 -67 -24.5 -118.5t-66 -86.5
t-97 -52.5t-117.5 -17.5q-68 0 -124 17t-96.5 51.5t-62.5 86.5t-22 122v397q0 26 -9 42t-25 24.5t-39 12t-51 4.5v33h329v-33q-28 -1 -51 -4.5t-39 -12t-25 -24.5t-9 -42v-379z" />
    <glyph glyph-name="Ucircumflex" unicode="&#xdb;" horiz-adv-x="876" 
d="M215 285q0 -59 16.5 -103.5t46 -74t70.5 -44.5t91 -15q125 0 188.5 59.5t63.5 180.5v376q0 26 -8 42t-23.5 24.5t-37.5 12t-50 4.5v33h294v-33q-28 -1 -50.5 -4.5t-38.5 -12t-24.5 -24.5t-8.5 -42v-399q0 -67 -24.5 -118.5t-66 -86.5t-97 -52.5t-117.5 -17.5
q-68 0 -124 17t-96.5 51.5t-62.5 86.5t-22 122v397q0 26 -9 42t-25 24.5t-39 12t-51 4.5v33h329v-33q-28 -1 -51 -4.5t-39 -12t-25 -24.5t-9 -42v-379zM633 822h-34l-142 134l-142 -134h-34l148 208h56z" />
    <glyph glyph-name="Udieresis" unicode="&#xdc;" horiz-adv-x="876" 
d="M298 909q0 23 16.5 40t39.5 17t40 -17t17 -40t-17 -39.5t-40 -16.5t-39.5 16.5t-16.5 39.5zM497 909q0 23 16.5 40t39.5 17t40 -17t17 -40t-17 -39.5t-40 -16.5t-39.5 16.5t-16.5 39.5zM215 285q0 -59 16.5 -103.5t46 -74t70.5 -44.5t91 -15q125 0 188.5 59.5t63.5 180.5
v376q0 26 -8 42t-23.5 24.5t-37.5 12t-50 4.5v33h294v-33q-28 -1 -50.5 -4.5t-38.5 -12t-24.5 -24.5t-8.5 -42v-399q0 -67 -24.5 -118.5t-66 -86.5t-97 -52.5t-117.5 -17.5q-68 0 -124 17t-96.5 51.5t-62.5 86.5t-22 122v397q0 26 -9 42t-25 24.5t-39 12t-51 4.5v33h329v-33
q-28 -1 -51 -4.5t-39 -12t-25 -24.5t-9 -42v-379z" />
    <glyph glyph-name="Yacute" unicode="&#xdd;" horiz-adv-x="736" 
d="M568 656q17 26 17 47q0 11 -4.5 19t-16.5 13t-32.5 8t-52.5 4v33h247v-33q-24 -4 -40 -12t-30 -29l-246 -377v-213q0 -26 8 -42t23.5 -24.5t38 -12t50.5 -4.5v-33h-319v33q28 1 50.5 4.5t38 12t23.5 24.5t8 42v209l-251 381q-14 21 -30 29t-40 12v33h280v-33
q-63 -2 -85 -12t-22 -33q0 -10 4 -20.5t10 -20.5l190 -287zM544 1030l-149 -208h-33l81 208h101z" />
    <glyph glyph-name="Thorn" unicode="&#xde;" horiz-adv-x="729" 
d="M251 217h143q112 0 161 42.5t49 137.5q0 42 -11.5 75.5t-36.5 57.5t-64.5 37t-95.5 13h-145v-363zM251 624h156q81 0 137 -19t90.5 -50.5t49.5 -71t15 -80.5q0 -46 -15.5 -88t-48.5 -74t-83.5 -51t-120.5 -19h-180v-55q0 -26 11 -41.5t31.5 -24t48 -12t60.5 -5.5v-33
h-356v33q28 1 51 4.5t39 12t25 24.5t9 42v548q0 26 -9 42t-25 24.5t-39 12t-51 4.5v33h329v-33q-28 -1 -51 -4.5t-39 -12t-25 -24.5t-9 -42v-40z" />
    <glyph glyph-name="germandbls" unicode="&#xdf;" horiz-adv-x="696" 
d="M58 0v29q17 2 32.5 5t27 8.5t18.5 16t7 27.5v389h-77v28l77 30v33q0 54 13.5 99t41.5 77.5t70 51t99 18.5q45 0 80 -12.5t59 -34t36.5 -51.5t12.5 -66q0 -68 -41 -122.5t-112 -83.5q43 -14 87.5 -38t80.5 -57t59 -74.5t23 -91.5q0 -85 -47.5 -138t-143.5 -53
q-80 0 -123.5 31.5t-43.5 76.5q0 15 7.5 29.5t22.5 22.5h54v-23q0 -42 21 -70.5t72 -28.5q54 0 84 32t30 98q0 46 -24 84t-63 69.5t-88.5 56.5t-101.5 44v22q52 19 85 40t51.5 44.5t25.5 50t7 56.5q0 68 -35 106t-102 38q-32 0 -55 -12.5t-37.5 -35t-21.5 -54t-7 -68.5v-599
h-161z" />
    <glyph glyph-name="agrave" unicode="&#xe0;" horiz-adv-x="607" 
d="M239 43q50 0 88.5 24t76.5 58v151l-196 -60q-29 -9 -46 -28t-17 -51q0 -48 26 -71t68 -23zM480 113q0 -33 13 -51.5t38 -18.5q22 0 44 9l10 -19q-22 -20 -44 -31.5t-47 -11.5q-36 0 -60.5 25.5t-26.5 72.5q-14 -15 -31.5 -32.5t-40.5 -32.5t-52.5 -24.5t-66.5 -9.5
q-38 0 -67 10.5t-48.5 29t-29 43t-9.5 52.5q0 36 12.5 58.5t32.5 37t46 23.5t54 17l197 57v24q0 29 -8 55.5t-24.5 46.5t-43 32t-62.5 12q-47 0 -70.5 -19t-23.5 -61q0 -9 1 -19t5 -21l-66 -7q-10 7 -15.5 20.5t-5.5 27.5q0 29 15.5 52t42 39.5t61.5 25t75 8.5
q44 0 79.5 -10.5t61.5 -32.5t40 -56.5t14 -82.5v-238zM217 800l84 -208h-33l-149 208h98z" />
    <glyph glyph-name="aacute" unicode="&#xe1;" horiz-adv-x="607" 
d="M239 43q50 0 88.5 24t76.5 58v151l-196 -60q-29 -9 -46 -28t-17 -51q0 -48 26 -71t68 -23zM480 113q0 -33 13 -51.5t38 -18.5q22 0 44 9l10 -19q-22 -20 -44 -31.5t-47 -11.5q-36 0 -60.5 25.5t-26.5 72.5q-14 -15 -31.5 -32.5t-40.5 -32.5t-52.5 -24.5t-66.5 -9.5
q-38 0 -67 10.5t-48.5 29t-29 43t-9.5 52.5q0 36 12.5 58.5t32.5 37t46 23.5t54 17l197 57v24q0 29 -8 55.5t-24.5 46.5t-43 32t-62.5 12q-47 0 -70.5 -19t-23.5 -61q0 -9 1 -19t5 -21l-66 -7q-10 7 -15.5 20.5t-5.5 27.5q0 29 15.5 52t42 39.5t61.5 25t75 8.5
q44 0 79.5 -10.5t61.5 -32.5t40 -56.5t14 -82.5v-238zM445 800l-149 -208h-33l81 208h101z" />
    <glyph glyph-name="acircumflex" unicode="&#xe2;" horiz-adv-x="607" 
d="M239 43q50 0 88.5 24t76.5 58v151l-196 -60q-29 -9 -46 -28t-17 -51q0 -48 26 -71t68 -23zM480 113q0 -33 13 -51.5t38 -18.5q22 0 44 9l10 -19q-22 -20 -44 -31.5t-47 -11.5q-36 0 -60.5 25.5t-26.5 72.5q-14 -15 -31.5 -32.5t-40.5 -32.5t-52.5 -24.5t-66.5 -9.5
q-38 0 -67 10.5t-48.5 29t-29 43t-9.5 52.5q0 36 12.5 58.5t32.5 37t46 23.5t54 17l197 57v24q0 29 -8 55.5t-24.5 46.5t-43 32t-62.5 12q-47 0 -70.5 -19t-23.5 -61q0 -9 1 -19t5 -21l-66 -7q-10 7 -15.5 20.5t-5.5 27.5q0 29 15.5 52t42 39.5t61.5 25t75 8.5
q44 0 79.5 -10.5t61.5 -32.5t40 -56.5t14 -82.5v-238zM455 592h-34l-142 134l-142 -134h-34l148 208h56z" />
    <glyph glyph-name="atilde" unicode="&#xe3;" horiz-adv-x="607" 
d="M239 43q50 0 88.5 24t76.5 58v151l-196 -60q-29 -9 -46 -28t-17 -51q0 -48 26 -71t68 -23zM480 113q0 -33 13 -51.5t38 -18.5q22 0 44 9l10 -19q-22 -20 -44 -31.5t-47 -11.5q-36 0 -60.5 25.5t-26.5 72.5q-14 -15 -31.5 -32.5t-40.5 -32.5t-52.5 -24.5t-66.5 -9.5
q-38 0 -67 10.5t-48.5 29t-29 43t-9.5 52.5q0 36 12.5 58.5t32.5 37t46 23.5t54 17l197 57v24q0 29 -8 55.5t-24.5 46.5t-43 32t-62.5 12q-47 0 -70.5 -19t-23.5 -61q0 -9 1 -19t5 -21l-66 -7q-10 7 -15.5 20.5t-5.5 27.5q0 29 15.5 52t42 39.5t61.5 25t75 8.5
q44 0 79.5 -10.5t61.5 -32.5t40 -56.5t14 -82.5v-238zM359 610q-24 0 -45 9t-39.5 20.5t-35.5 20.5t-34 9q-13 0 -22 -2t-16.5 -7.5t-15 -15.5t-16.5 -27l-33 5q18 49 48 77t76 28q24 0 45 -9.5t39.5 -20.5t35.5 -20.5t34 -9.5q26 0 39 9.5t31 42.5l33 -4q-18 -50 -48 -77.5
t-76 -27.5z" />
    <glyph glyph-name="adieresis" unicode="&#xe4;" horiz-adv-x="607" 
d="M239 43q50 0 88.5 24t76.5 58v151l-196 -60q-29 -9 -46 -28t-17 -51q0 -48 26 -71t68 -23zM480 113q0 -33 13 -51.5t38 -18.5q22 0 44 9l10 -19q-22 -20 -44 -31.5t-47 -11.5q-36 0 -60.5 25.5t-26.5 72.5q-14 -15 -31.5 -32.5t-40.5 -32.5t-52.5 -24.5t-66.5 -9.5
q-38 0 -67 10.5t-48.5 29t-29 43t-9.5 52.5q0 36 12.5 58.5t32.5 37t46 23.5t54 17l197 57v24q0 29 -8 55.5t-24.5 46.5t-43 32t-62.5 12q-47 0 -70.5 -19t-23.5 -61q0 -9 1 -19t5 -21l-66 -7q-10 7 -15.5 20.5t-5.5 27.5q0 29 15.5 52t42 39.5t61.5 25t75 8.5
q44 0 79.5 -10.5t61.5 -32.5t40 -56.5t14 -82.5v-238zM124 691q0 23 16.5 40t39.5 17t40 -17t17 -40t-17 -39.5t-40 -16.5t-39.5 16.5t-16.5 39.5zM323 691q0 23 16.5 40t39.5 17t40 -17t17 -40t-17 -39.5t-40 -16.5t-39.5 16.5t-16.5 39.5z" />
    <glyph glyph-name="aring" unicode="&#xe5;" horiz-adv-x="607" 
d="M239 43q50 0 88.5 24t76.5 58v151l-196 -60q-29 -9 -46 -28t-17 -51q0 -48 26 -71t68 -23zM480 113q0 -33 13 -51.5t38 -18.5q22 0 44 9l10 -19q-22 -20 -44 -31.5t-47 -11.5q-36 0 -60.5 25.5t-26.5 72.5q-14 -15 -31.5 -32.5t-40.5 -32.5t-52.5 -24.5t-66.5 -9.5
q-38 0 -67 10.5t-48.5 29t-29 43t-9.5 52.5q0 36 12.5 58.5t32.5 37t46 23.5t54 17l197 57v24q0 29 -8 55.5t-24.5 46.5t-43 32t-62.5 12q-47 0 -70.5 -19t-23.5 -61q0 -9 1 -19t5 -21l-66 -7q-10 7 -15.5 20.5t-5.5 27.5q0 29 15.5 52t42 39.5t61.5 25t75 8.5
q44 0 79.5 -10.5t61.5 -32.5t40 -56.5t14 -82.5v-238zM167 693q0 48 30.5 81t81.5 33t81.5 -33t30.5 -81t-30.5 -81t-81.5 -33t-81.5 33t-30.5 81zM343 693q0 32 -15.5 53.5t-48.5 21.5t-48 -21.5t-15 -53.5q0 -31 15 -52.5t48 -21.5t48.5 21.5t15.5 52.5z" />
    <glyph glyph-name="ae" unicode="&#xe6;" horiz-adv-x="921" 
d="M661 533q54 0 94.5 -16t67.5 -44t41 -66t14 -83v-28l-404 -43q7 -93 62 -146t142 -53q65 0 104 23.5t73 66.5l25 -9q-10 -29 -28.5 -55t-45.5 -46t-63.5 -32t-83.5 -12q-79 0 -134 32.5t-86 84.5q-18 -22 -41.5 -43.5t-52 -38t-61 -26.5t-68.5 -10q-38 0 -67 10.5
t-48.5 29t-29 43t-9.5 52.5q0 71 46.5 104.5t122.5 40.5l173 17v55q0 29 -8 55.5t-24.5 46.5t-43 32t-62.5 12q-47 0 -70.5 -19t-23.5 -61q0 -9 1 -19t5 -21l-66 -7q-10 7 -15.5 20.5t-5.5 27.5q0 29 15.5 52t42 39.5t61.5 25t75 8.5q64 0 110 -22.5t68 -72.5q34 45 84.5 70
t113.5 25zM641 482q-31 0 -60 -11.5t-52 -35t-38 -59t-18 -83.5l322 32q2 75 -38.5 116t-115.5 41zM239 43q49 0 94.5 25.5t88.5 74.5q-18 47 -18 101v2l-172 -18q-48 -5 -67.5 -32t-19.5 -59q0 -48 26 -71t68 -23z" />
    <glyph glyph-name="ccedilla" unicode="&#xe7;" horiz-adv-x="550" 
d="M113 278q0 -48 13 -89t38 -71t63 -47t87 -17q33 0 57.5 6t45 17.5t37.5 28.5t33 38l26 -9q-10 -29 -28.5 -55t-45 -46t-62.5 -32t-82 -12h-1l-6 -32q50 -14 83 -38t33 -69t-35.5 -73t-88.5 -28q-31 0 -52 7t-35 16l8 27q18 -7 36.5 -9t34.5 -2q35 0 55.5 14.5t20.5 38.5
q0 29 -27.5 44.5t-69.5 23.5l18 81q-55 4 -97.5 26.5t-71 57.5t-43 80t-14.5 94q0 65 20 117.5t57 89.5t88 57t112 20q89 0 134 -35.5t45 -85.5q0 -21 -9 -36t-24 -23h-40v20q0 56 -34 84t-99 28q-37 0 -70 -14.5t-57.5 -41.5t-38.5 -65t-14 -86z" />
    <glyph glyph-name="egrave" unicode="&#xe8;" horiz-adv-x="559" 
d="M300 533q54 0 94.5 -16t67.5 -44t41 -66t14 -83v-24h-404q-4 -56 9.5 -101.5t40.5 -77.5t66.5 -49.5t87.5 -17.5q65 0 104 23.5t73 66.5l25 -9q-10 -29 -28.5 -55t-45.5 -46t-63.5 -32t-83.5 -12q-62 0 -109.5 21t-80 56t-49 81t-16.5 96q0 64 18.5 117t52.5 91.5
t81 59.5t105 21zM280 482q-62 0 -104.5 -38.5t-55.5 -100.5h314q0 60 -39.5 99.5t-114.5 39.5zM235 800l84 -208h-33l-149 208h98z" />
    <glyph glyph-name="eacute" unicode="&#xe9;" horiz-adv-x="559" 
d="M463 800l-149 -208h-33l81 208h101zM300 533q54 0 94.5 -16t67.5 -44t41 -66t14 -83v-24h-404q-4 -56 9.5 -101.5t40.5 -77.5t66.5 -49.5t87.5 -17.5q65 0 104 23.5t73 66.5l25 -9q-10 -29 -28.5 -55t-45.5 -46t-63.5 -32t-83.5 -12q-62 0 -109.5 21t-80 56t-49 81
t-16.5 96q0 64 18.5 117t52.5 91.5t81 59.5t105 21zM280 482q-62 0 -104.5 -38.5t-55.5 -100.5h314q0 60 -39.5 99.5t-114.5 39.5z" />
    <glyph glyph-name="ecircumflex" unicode="&#xea;" horiz-adv-x="559" 
d="M474 592h-34l-142 134l-142 -134h-34l148 208h56zM300 533q54 0 94.5 -16t67.5 -44t41 -66t14 -83v-24h-404q-4 -56 9.5 -101.5t40.5 -77.5t66.5 -49.5t87.5 -17.5q65 0 104 23.5t73 66.5l25 -9q-10 -29 -28.5 -55t-45.5 -46t-63.5 -32t-83.5 -12q-62 0 -109.5 21t-80 56
t-49 81t-16.5 96q0 64 18.5 117t52.5 91.5t81 59.5t105 21zM280 482q-62 0 -104.5 -38.5t-55.5 -100.5h314q0 60 -39.5 99.5t-114.5 39.5z" />
    <glyph glyph-name="edieresis" unicode="&#xeb;" horiz-adv-x="559" 
d="M139 691q0 23 16.5 40t39.5 17t40 -17t17 -40t-17 -39.5t-40 -16.5t-39.5 16.5t-16.5 39.5zM338 691q0 23 16.5 40t39.5 17t40 -17t17 -40t-17 -39.5t-40 -16.5t-39.5 16.5t-16.5 39.5zM300 533q54 0 94.5 -16t67.5 -44t41 -66t14 -83v-24h-404q-4 -56 9.5 -101.5
t40.5 -77.5t66.5 -49.5t87.5 -17.5q65 0 104 23.5t73 66.5l25 -9q-10 -29 -28.5 -55t-45.5 -46t-63.5 -32t-83.5 -12q-62 0 -109.5 21t-80 56t-49 81t-16.5 96q0 64 18.5 117t52.5 91.5t81 59.5t105 21zM280 482q-62 0 -104.5 -38.5t-55.5 -100.5h314q0 60 -39.5 99.5
t-114.5 39.5z" />
    <glyph glyph-name="igrave" unicode="&#xec;" horiz-adv-x="348" 
d="M220 86q0 -17 7 -27.5t18.5 -16t27 -8.5t32.5 -5v-29h-246v29q17 2 32.5 5t27 8.5t18.5 16t7 27.5v351l-80 26v20l128 48h33l-5 -107v-338zM120 800l84 -208h-33l-149 208h98z" />
    <glyph glyph-name="iacute" unicode="&#xed;" horiz-adv-x="348" 
d="M348 800l-149 -208h-33l81 208h101zM220 86q0 -17 7 -27.5t18.5 -16t27 -8.5t32.5 -5v-29h-246v29q17 2 32.5 5t27 8.5t18.5 16t7 27.5v351l-80 26v20l128 48h33l-5 -107v-338z" />
    <glyph glyph-name="icircumflex" unicode="&#xee;" horiz-adv-x="348" 
d="M358 592h-34l-142 134l-142 -134h-34l148 208h56zM220 86q0 -17 7 -27.5t18.5 -16t27 -8.5t32.5 -5v-29h-246v29q17 2 32.5 5t27 8.5t18.5 16t7 27.5v351l-80 26v20l128 48h33l-5 -107v-338z" />
    <glyph glyph-name="idieresis" unicode="&#xef;" horiz-adv-x="348" 
d="M23 691q0 23 16.5 40t39.5 17t40 -17t17 -40t-17 -39.5t-40 -16.5t-39.5 16.5t-16.5 39.5zM222 691q0 23 16.5 40t39.5 17t40 -17t17 -40t-17 -39.5t-40 -16.5t-39.5 16.5t-16.5 39.5zM220 86q0 -17 7 -27.5t18.5 -16t27 -8.5t32.5 -5v-29h-246v29q17 2 32.5 5t27 8.5
t18.5 16t7 27.5v351l-80 26v20l128 48h33l-5 -107v-338z" />
    <glyph glyph-name="eth" unicode="&#xf0;" horiz-adv-x="618" 
d="M188 612l139 65q-38 36 -79 64.5t-83 48.5v7l42 16q99 -40 178 -109l98 46l17 -35l-84 -40q72 -73 115.5 -170t43.5 -214q0 -72 -20.5 -128.5t-56.5 -94.5t-85.5 -58t-108.5 -20q-61 0 -109.5 21.5t-82 57.5t-51.5 83.5t-18 98.5q0 65 22 117t59.5 89t87.5 56.5t105 19.5
q45 0 82.5 -14t65.5 -37q-17 44 -44.5 86t-63.5 80l-152 -72zM123 279q0 -112 54.5 -174t154.5 -62q42 0 74.5 16t54 43.5t32.5 64t11 77.5q0 112 -54.5 174t-154.5 62q-42 0 -74.5 -16t-54 -43.5t-32.5 -64t-11 -77.5z" />
    <glyph glyph-name="ntilde" unicode="&#xf1;" horiz-adv-x="712" 
d="M517 358q0 62 -31 86.5t-85 24.5q-23 0 -47.5 -6.5t-48.5 -17.5t-46 -25t-39 -30v-304q0 -17 7 -27.5t18.5 -16t27 -8.5t32.5 -5v-29h-246v29q17 2 32.5 5t27 8.5t18.5 16t7 27.5v351l-80 26v20l128 48h33l-5 -101q17 18 39 36.5t48.5 33t56.5 24t62 9.5q36 0 67 -9
t53 -28.5t34.5 -50.5t12.5 -76v-283q0 -17 7 -27.5t18.5 -16t27 -8.5t32.5 -5v-29h-246v29q17 2 32.5 5t27 8.5t18.5 16t7 27.5v272zM436 610q-24 0 -45 9t-39.5 20.5t-35.5 20.5t-34 9q-13 0 -22 -2t-16.5 -7.5t-15 -15.5t-16.5 -27l-33 5q18 49 48 77t76 28q24 0 45 -9.5
t39.5 -20.5t35.5 -20.5t34 -9.5q26 0 39 9.5t31 42.5l33 -4q-18 -50 -48 -77.5t-76 -27.5z" />
    <glyph glyph-name="ograve" unicode="&#xf2;" horiz-adv-x="621" 
d="M328 43q42 0 74 16t53 43.5t32 64t11 77.5q0 112 -53.5 174t-151.5 62q-42 0 -74 -16t-53 -43.5t-32 -64t-11 -77.5q0 -112 53.5 -174t151.5 -62zM302 -10q-57 0 -105 19.5t-82 54t-53 82.5t-19 105q0 65 23 117t61 89t88 56.5t104 19.5q57 0 105 -19.5t82 -54t53 -82.5
t19 -105q0 -65 -23 -117t-61 -89t-88 -56.5t-104 -19.5zM251 800l84 -208h-33l-149 208h98z" />
    <glyph glyph-name="oacute" unicode="&#xf3;" horiz-adv-x="621" 
d="M479 800l-149 -208h-33l81 208h101zM328 43q42 0 74 16t53 43.5t32 64t11 77.5q0 112 -53.5 174t-151.5 62q-42 0 -74 -16t-53 -43.5t-32 -64t-11 -77.5q0 -112 53.5 -174t151.5 -62zM302 -10q-57 0 -105 19.5t-82 54t-53 82.5t-19 105q0 65 23 117t61 89t88 56.5
t104 19.5q57 0 105 -19.5t82 -54t53 -82.5t19 -105q0 -65 -23 -117t-61 -89t-88 -56.5t-104 -19.5z" />
    <glyph glyph-name="ocircumflex" unicode="&#xf4;" horiz-adv-x="621" 
d="M490 592h-34l-142 134l-142 -134h-34l148 208h56zM328 43q42 0 74 16t53 43.5t32 64t11 77.5q0 112 -53.5 174t-151.5 62q-42 0 -74 -16t-53 -43.5t-32 -64t-11 -77.5q0 -112 53.5 -174t151.5 -62zM302 -10q-57 0 -105 19.5t-82 54t-53 82.5t-19 105q0 65 23 117t61 89
t88 56.5t104 19.5q57 0 105 -19.5t82 -54t53 -82.5t19 -105q0 -65 -23 -117t-61 -89t-88 -56.5t-104 -19.5z" />
    <glyph glyph-name="otilde" unicode="&#xf5;" horiz-adv-x="621" 
d="M328 43q42 0 74 16t53 43.5t32 64t11 77.5q0 112 -53.5 174t-151.5 62q-42 0 -74 -16t-53 -43.5t-32 -64t-11 -77.5q0 -112 53.5 -174t151.5 -62zM302 -10q-57 0 -105 19.5t-82 54t-53 82.5t-19 105q0 65 23 117t61 89t88 56.5t104 19.5q57 0 105 -19.5t82 -54t53 -82.5
t19 -105q0 -65 -23 -117t-61 -89t-88 -56.5t-104 -19.5zM381 610q-24 0 -45 9t-39.5 20.5t-35.5 20.5t-34 9q-13 0 -22 -2t-16.5 -7.5t-15 -15.5t-16.5 -27l-33 5q18 49 48 77t76 28q24 0 45 -9.5t39.5 -20.5t35.5 -20.5t34 -9.5q26 0 39 9.5t31 42.5l33 -4
q-18 -50 -48 -77.5t-76 -27.5z" />
    <glyph glyph-name="odieresis" unicode="&#xf6;" horiz-adv-x="621" 
d="M155 691q0 23 16.5 40t39.5 17t40 -17t17 -40t-17 -39.5t-40 -16.5t-39.5 16.5t-16.5 39.5zM354 691q0 23 16.5 40t39.5 17t40 -17t17 -40t-17 -39.5t-40 -16.5t-39.5 16.5t-16.5 39.5zM328 43q42 0 74 16t53 43.5t32 64t11 77.5q0 112 -53.5 174t-151.5 62
q-42 0 -74 -16t-53 -43.5t-32 -64t-11 -77.5q0 -112 53.5 -174t151.5 -62zM302 -10q-57 0 -105 19.5t-82 54t-53 82.5t-19 105q0 65 23 117t61 89t88 56.5t104 19.5q57 0 105 -19.5t82 -54t53 -82.5t19 -105q0 -65 -23 -117t-61 -89t-88 -56.5t-104 -19.5z" />
    <glyph glyph-name="divide" unicode="&#xf7;" 
d="M80 260v51h540v-51h-540zM293 507q0 23 17 39.5t41 16.5t41.5 -16.5t17.5 -39.5t-17.5 -39.5t-41.5 -16.5t-41 16.5t-17 39.5zM293 64q0 23 17 39.5t41 16.5t41.5 -16.5t17.5 -39.5t-17.5 -39.5t-41.5 -16.5t-41 16.5t-17 39.5z" />
    <glyph glyph-name="oslash" unicode="&#xf8;" horiz-adv-x="621" 
d="M302 -10q-86 0 -148 41l-53 -64l-32 27l52 63q-37 35 -57.5 84.5t-20.5 109.5q0 65 23 117t61 89t88 56.5t104 19.5q46 0 85.5 -12.5t71.5 -35.5l56 67l35 -27l-58 -69q33 -35 51 -81.5t18 -102.5q0 -65 -23 -117t-61 -89t-88 -56.5t-104 -19.5zM123 279q0 -104 46 -165
l262 317q-52 49 -138 49q-42 0 -74 -16t-53 -43.5t-32 -64t-11 -77.5zM328 43q42 0 74 16t53 43.5t32 64t11 77.5q0 94 -38 153l-262 -313q52 -41 130 -41z" />
    <glyph glyph-name="ugrave" unicode="&#xf9;" horiz-adv-x="670" 
d="M466 91q-16 -18 -35.5 -36t-42.5 -32.5t-51 -23.5t-61 -9q-35 0 -65 9t-52.5 29t-35 51.5t-12.5 77.5v283q0 29 -16 36.5t-58 12.5l-18 1v33l151 10h22l-5 -106v-262q0 -62 31.5 -89.5t81.5 -27.5t91 27t75 58v307q0 29 -16 36.5t-58 12.5l-19 1v33l152 10h22l-5 -106
v-324q0 -13 2.5 -20t9.5 -11.5t19.5 -6.5t31.5 -5l28 -4v-30l-164 -36h-8zM257 800l84 -208h-33l-149 208h98z" />
    <glyph glyph-name="uacute" unicode="&#xfa;" horiz-adv-x="670" 
d="M491 800l-149 -208h-33l81 208h101zM466 91q-16 -18 -35.5 -36t-42.5 -32.5t-51 -23.5t-61 -9q-35 0 -65 9t-52.5 29t-35 51.5t-12.5 77.5v283q0 29 -16 36.5t-58 12.5l-18 1v33l151 10h22l-5 -106v-262q0 -62 31.5 -89.5t81.5 -27.5t91 27t75 58v307q0 29 -16 36.5
t-58 12.5l-19 1v33l152 10h22l-5 -106v-324q0 -13 2.5 -20t9.5 -11.5t19.5 -6.5t31.5 -5l28 -4v-30l-164 -36h-8z" />
    <glyph glyph-name="ucircumflex" unicode="&#xfb;" horiz-adv-x="670" 
d="M502 592h-34l-142 134l-142 -134h-34l148 208h56zM466 91q-16 -18 -35.5 -36t-42.5 -32.5t-51 -23.5t-61 -9q-35 0 -65 9t-52.5 29t-35 51.5t-12.5 77.5v283q0 29 -16 36.5t-58 12.5l-18 1v33l151 10h22l-5 -106v-262q0 -62 31.5 -89.5t81.5 -27.5t91 27t75 58v307
q0 29 -16 36.5t-58 12.5l-19 1v33l152 10h22l-5 -106v-324q0 -13 2.5 -20t9.5 -11.5t19.5 -6.5t31.5 -5l28 -4v-30l-164 -36h-8z" />
    <glyph glyph-name="udieresis" unicode="&#xfc;" horiz-adv-x="670" 
d="M167 691q0 23 16.5 40t39.5 17t40 -17t17 -40t-17 -39.5t-40 -16.5t-39.5 16.5t-16.5 39.5zM366 691q0 23 16.5 40t39.5 17t40 -17t17 -40t-17 -39.5t-40 -16.5t-39.5 16.5t-16.5 39.5zM466 91q-16 -18 -35.5 -36t-42.5 -32.5t-51 -23.5t-61 -9q-35 0 -65 9t-52.5 29
t-35 51.5t-12.5 77.5v283q0 29 -16 36.5t-58 12.5l-18 1v33l151 10h22l-5 -106v-262q0 -62 31.5 -89.5t81.5 -27.5t91 27t75 58v307q0 29 -16 36.5t-58 12.5l-19 1v33l152 10h22l-5 -106v-324q0 -13 2.5 -20t9.5 -11.5t19.5 -6.5t31.5 -5l28 -4v-30l-164 -36h-8z" />
    <glyph glyph-name="yacute" unicode="&#xfd;" horiz-adv-x="589" 
d="M74 450q-4 9 -7.5 14t-10 9.5t-17 9t-29.5 11.5v29h225v-29q-40 -5 -58 -11.5t-18 -24.5q0 -6 1 -11.5t6 -15.5l154 -347l134 347q4 10 5.5 15.5t1.5 11.5q0 18 -18 24.5t-58 11.5v29h194v-29q-18 -7 -29 -11t-17.5 -8.5t-10 -10t-7.5 -14.5l-232 -579
q-15 -38 -31.5 -61.5t-34 -37t-35.5 -18.5t-37 -5q-26 0 -45.5 10t-26.5 25v44h63q40 0 66.5 16t44.5 63l36 92zM457 800l-149 -208h-33l81 208h101z" />
    <glyph glyph-name="thorn" unicode="&#xfe;" horiz-adv-x="635" 
d="M163 -154q0 -17 7 -27.5t18.5 -16t27 -8.5t32.5 -5v-29h-246v29q17 2 32.5 5t27 8.5t18.5 16t7 27.5v875l-80 16v19l127 54h34l-5 -86v-289q32 42 81.5 70t109.5 28q57 0 101.5 -19.5t74.5 -52.5t46 -77t16 -92q0 -70 -23.5 -126t-63 -95t-91.5 -60t-109 -21
q-47 0 -83 10.5t-59 27.5v-182zM315 38q89 0 144 56t55 159q0 46 -11.5 86t-34.5 69.5t-58 46.5t-83 17q-52 0 -93.5 -23t-70.5 -55v-232q0 -39 13 -63t34.5 -37.5t49 -18.5t55.5 -5z" />
    <glyph glyph-name="ydieresis" unicode="&#xff;" horiz-adv-x="589" 
d="M74 450q-4 9 -7.5 14t-10 9.5t-17 9t-29.5 11.5v29h225v-29q-40 -5 -58 -11.5t-18 -24.5q0 -6 1 -11.5t6 -15.5l154 -347l134 347q4 10 5.5 15.5t1.5 11.5q0 18 -18 24.5t-58 11.5v29h194v-29q-18 -7 -29 -11t-17.5 -8.5t-10 -10t-7.5 -14.5l-232 -579
q-15 -38 -31.5 -61.5t-34 -37t-35.5 -18.5t-37 -5q-26 0 -45.5 10t-26.5 25v44h63q40 0 66.5 16t44.5 63l36 92zM132 691q0 23 16.5 40t39.5 17t40 -17t17 -40t-17 -39.5t-40 -16.5t-39.5 16.5t-16.5 39.5zM331 691q0 23 16.5 40t39.5 17t40 -17t17 -40t-17 -39.5t-40 -16.5
t-39.5 16.5t-16.5 39.5z" />
    <glyph glyph-name="Amacron" unicode="&#x100;" horiz-adv-x="818" 
d="M568 260h-353l-56 -133q-5 -13 -8.5 -24t-3.5 -21q0 -26 26 -36.5t88 -12.5v-33h-251v33q24 4 42 11t28 30l282 655l-30 64h95l311 -719q10 -23 28 -30t42 -11v-33h-283v33q62 2 87.5 12t25.5 36q0 10 -3.5 21t-8.5 24zM234 305h315l-158 370zM260 932h264v-52h-264v52z
" />
    <glyph glyph-name="amacron" unicode="&#x101;" horiz-adv-x="607" 
d="M239 43q50 0 88.5 24t76.5 58v151l-196 -60q-29 -9 -46 -28t-17 -51q0 -48 26 -71t68 -23zM480 113q0 -33 13 -51.5t38 -18.5q22 0 44 9l10 -19q-22 -20 -44 -31.5t-47 -11.5q-36 0 -60.5 25.5t-26.5 72.5q-14 -15 -31.5 -32.5t-40.5 -32.5t-52.5 -24.5t-66.5 -9.5
q-38 0 -67 10.5t-48.5 29t-29 43t-9.5 52.5q0 36 12.5 58.5t32.5 37t46 23.5t54 17l197 57v24q0 29 -8 55.5t-24.5 46.5t-43 32t-62.5 12q-47 0 -70.5 -19t-23.5 -61q0 -9 1 -19t5 -21l-66 -7q-10 7 -15.5 20.5t-5.5 27.5q0 29 15.5 52t42 39.5t61.5 25t75 8.5
q44 0 79.5 -10.5t61.5 -32.5t40 -56.5t14 -82.5v-238zM147 704h264v-52h-264v52z" />
    <glyph glyph-name="Abreve" unicode="&#x102;" horiz-adv-x="818" 
d="M568 260h-353l-56 -133q-5 -13 -8.5 -24t-3.5 -21q0 -26 26 -36.5t88 -12.5v-33h-251v33q24 4 42 11t28 30l282 655l-30 64h95l311 -719q10 -23 28 -30t42 -11v-33h-283v33q62 2 87.5 12t25.5 36q0 10 -3.5 21t-8.5 24zM234 305h315l-158 370zM392 833q-93 0 -133 52.5
t-40 146.5h36q5 -39 17.5 -66t31 -43.5t41 -23.5t47.5 -7t47.5 7t41 23.5t31.5 43.5t17 66h36q0 -94 -40 -146.5t-133 -52.5z" />
    <glyph glyph-name="abreve" unicode="&#x103;" horiz-adv-x="607" 
d="M239 43q50 0 88.5 24t76.5 58v151l-196 -60q-29 -9 -46 -28t-17 -51q0 -48 26 -71t68 -23zM480 113q0 -33 13 -51.5t38 -18.5q22 0 44 9l10 -19q-22 -20 -44 -31.5t-47 -11.5q-36 0 -60.5 25.5t-26.5 72.5q-14 -15 -31.5 -32.5t-40.5 -32.5t-52.5 -24.5t-66.5 -9.5
q-38 0 -67 10.5t-48.5 29t-29 43t-9.5 52.5q0 36 12.5 58.5t32.5 37t46 23.5t54 17l197 57v24q0 29 -8 55.5t-24.5 46.5t-43 32t-62.5 12q-47 0 -70.5 -19t-23.5 -61q0 -9 1 -19t5 -21l-66 -7q-10 7 -15.5 20.5t-5.5 27.5q0 29 15.5 52t42 39.5t61.5 25t75 8.5
q44 0 79.5 -10.5t61.5 -32.5t40 -56.5t14 -82.5v-238zM279 601q-93 0 -133 52.5t-40 146.5h36q5 -39 17.5 -66t31 -43.5t41 -23.5t47.5 -7t47.5 7t41 23.5t31.5 43.5t17 66h36q0 -94 -40 -146.5t-133 -52.5z" />
    <glyph glyph-name="Aogonek" unicode="&#x104;" horiz-adv-x="818" 
d="M525 0v33q62 2 87.5 12t25.5 36q0 10 -3.5 21t-8.5 24l-58 134h-353l-56 -133q-5 -13 -8.5 -24t-3.5 -21q0 -26 26 -36.5t88 -12.5v-33h-251v33q24 4 42 11t28 30l282 655l-30 64h95l311 -719q10 -23 28 -30t42 -11v-33q-25 -8 -48 -19t-41 -27t-28.5 -36.5t-10.5 -46.5
q0 -35 21.5 -54.5t58.5 -19.5q21 0 36 4.5t29 10.5l11 -22q-20 -20 -44 -30t-59 -10q-23 0 -44 6t-36.5 19.5t-25 35t-9.5 51.5q0 49 32.5 83t81.5 55h-207zM234 305h315l-158 370z" />
    <glyph glyph-name="aogonek" unicode="&#x105;" horiz-adv-x="607" 
d="M240 43q50 0 88 24t76 58v151l-195 -60q-29 -9 -46 -28t-17 -51q0 -48 26 -71t68 -23zM477 -6q-24 8 -46 32t-24 62q-14 -15 -31.5 -32.5t-40.5 -32.5t-52.5 -24.5t-66.5 -9.5q-38 0 -67 10.5t-48.5 29t-29 43t-9.5 52.5q0 36 12.5 58.5t32.5 37t46 23.5t54 17l197 57v24
q0 29 -8 55.5t-24.5 46.5t-43 32t-62.5 12q-47 0 -73.5 -19t-26.5 -61q0 -9 1 -19t5 -21l-66 -7q-10 7 -15.5 20.5t-5.5 27.5q0 29 16.5 52t44 39.5t63.5 25t76 8.5q44 0 79.5 -10.5t61.5 -32.5t40 -56.5t14 -82.5v-238q0 -33 13 -51.5t38 -18.5q22 0 44 9l10 -19
q-19 -14 -41 -29.5t-40.5 -34.5t-30.5 -43.5t-12 -56.5q0 -36 20.5 -56.5t48.5 -20.5q44 0 76 20l11 -21q-20 -20 -44.5 -30.5t-60.5 -10.5q-20 0 -40 5.5t-36.5 18t-26.5 33.5t-10 52q0 22 7 41t18 35.5t25 31t28 27.5z" />
    <glyph glyph-name="Cacute" unicode="&#x106;" horiz-adv-x="818" 
d="M486 37q58 0 99.5 12t73 36t55.5 61t46 86h24l-23 -184q-60 -27 -130 -42.5t-155 -15.5q-102 0 -180.5 31.5t-132 84.5t-80.5 122.5t-27 146.5q0 96 32 172.5t88 130.5t131.5 83t162.5 29t154.5 -16.5t118.5 -45.5l7 -164h-22q-35 95 -100.5 133.5t-160.5 38.5
q-79 0 -140 -23.5t-102.5 -67.5t-63 -106t-21.5 -139q0 -66 22.5 -131t66.5 -116.5t108.5 -83.5t148.5 -32zM625 1030l-149 -208h-33l81 208h101z" />
    <glyph glyph-name="cacute" unicode="&#x107;" horiz-adv-x="550" 
d="M458 800l-149 -208h-33l81 208h101zM113 278q0 -48 13 -89t38 -71t63 -47t87 -17q33 0 57.5 6t45 17.5t37.5 28.5t33 38l26 -9q-10 -29 -28.5 -55t-45 -46t-62.5 -32t-82 -12q-61 0 -108.5 21t-79 56.5t-48 82.5t-16.5 99q0 65 20 117.5t57 89.5t88 57t112 20
q89 0 134 -35.5t45 -85.5q0 -21 -9 -36t-24 -23h-40v20q0 56 -34 84t-99 28q-37 0 -70 -14.5t-57.5 -41.5t-38.5 -65t-14 -86z" />
    <glyph glyph-name="Ccircumflex" unicode="&#x108;" horiz-adv-x="818" 
d="M486 37q58 0 99.5 12t73 36t55.5 61t46 86h24l-23 -184q-60 -27 -130 -42.5t-155 -15.5q-102 0 -180.5 31.5t-132 84.5t-80.5 122.5t-27 146.5q0 96 32 172.5t88 130.5t131.5 83t162.5 29t154.5 -16.5t118.5 -45.5l7 -164h-22q-35 95 -100.5 133.5t-160.5 38.5
q-79 0 -140 -23.5t-102.5 -67.5t-63 -106t-21.5 -139q0 -66 22.5 -131t66.5 -116.5t108.5 -83.5t148.5 -32zM641 822h-34l-142 134l-142 -134h-34l148 208h56z" />
    <glyph glyph-name="ccircumflex" unicode="&#x109;" horiz-adv-x="550" 
d="M468 592h-34l-142 134l-142 -134h-34l148 208h56zM113 278q0 -48 13 -89t38 -71t63 -47t87 -17q33 0 57.5 6t45 17.5t37.5 28.5t33 38l26 -9q-10 -29 -28.5 -55t-45 -46t-62.5 -32t-82 -12q-61 0 -108.5 21t-79 56.5t-48 82.5t-16.5 99q0 65 20 117.5t57 89.5t88 57
t112 20q89 0 134 -35.5t45 -85.5q0 -21 -9 -36t-24 -23h-40v20q0 56 -34 84t-99 28q-37 0 -70 -14.5t-57.5 -41.5t-38.5 -65t-14 -86z" />
    <glyph glyph-name="Cdotaccent" unicode="&#x10a;" horiz-adv-x="818" 
d="M407 909q0 25 16.5 42t41.5 17t42 -17t17 -42t-17 -41.5t-42 -16.5t-41.5 16.5t-16.5 41.5zM486 37q58 0 99.5 12t73 36t55.5 61t46 86h24l-23 -184q-60 -27 -130 -42.5t-155 -15.5q-102 0 -180.5 31.5t-132 84.5t-80.5 122.5t-27 146.5q0 96 32 172.5t88 130.5t131.5 83
t162.5 29t154.5 -16.5t118.5 -45.5l7 -164h-22q-35 95 -100.5 133.5t-160.5 38.5q-79 0 -140 -23.5t-102.5 -67.5t-63 -106t-21.5 -139q0 -66 22.5 -131t66.5 -116.5t108.5 -83.5t148.5 -32z" />
    <glyph glyph-name="cdotaccent" unicode="&#x10b;" horiz-adv-x="550" 
d="M113 278q0 -48 13 -89t38 -71t63 -47t87 -17q33 0 57.5 6t45 17.5t37.5 28.5t33 38l26 -9q-10 -29 -28.5 -55t-45 -46t-62.5 -32t-82 -12q-61 0 -108.5 21t-79 56.5t-48 82.5t-16.5 99q0 65 20 117.5t57 89.5t88 57t112 20q89 0 134 -35.5t45 -85.5q0 -21 -9 -36t-24 -23
h-40v20q0 56 -34 84t-99 28q-37 0 -70 -14.5t-57.5 -41.5t-38.5 -65t-14 -86zM234 693q0 25 16.5 42t41.5 17t42 -17t17 -42t-17 -41.5t-42 -16.5t-41.5 16.5t-16.5 41.5z" />
    <glyph glyph-name="Ccaron" unicode="&#x10c;" horiz-adv-x="818" 
d="M486 37q58 0 99.5 12t73 36t55.5 61t46 86h24l-23 -184q-60 -27 -130 -42.5t-155 -15.5q-102 0 -180.5 31.5t-132 84.5t-80.5 122.5t-27 146.5q0 96 32 172.5t88 130.5t131.5 83t162.5 29t154.5 -16.5t118.5 -45.5l7 -164h-22q-35 95 -100.5 133.5t-160.5 38.5
q-79 0 -140 -23.5t-102.5 -67.5t-63 -106t-21.5 -139q0 -66 22.5 -131t66.5 -116.5t108.5 -83.5t148.5 -32zM289 1030h34l142 -134l142 134h34l-148 -208h-56z" />
    <glyph glyph-name="ccaron" unicode="&#x10d;" horiz-adv-x="550" 
d="M116 800h34l142 -134l142 134h34l-148 -208h-56zM113 278q0 -48 13 -89t38 -71t63 -47t87 -17q33 0 57.5 6t45 17.5t37.5 28.5t33 38l26 -9q-10 -29 -28.5 -55t-45 -46t-62.5 -32t-82 -12q-61 0 -108.5 21t-79 56.5t-48 82.5t-16.5 99q0 65 20 117.5t57 89.5t88 57
t112 20q89 0 134 -35.5t45 -85.5q0 -21 -9 -36t-24 -23h-40v20q0 56 -34 84t-99 28q-37 0 -70 -14.5t-57.5 -41.5t-38.5 -65t-14 -86z" />
    <glyph glyph-name="Dcaron" unicode="&#x10e;" horiz-adv-x="920" 
d="M265 1030h34l142 -134l142 134h34l-148 -208h-56zM251 736v-614q0 -49 29.5 -63.5t93.5 -14.5h94q61 0 116.5 21t97.5 62.5t67 104t25 144.5q0 74 -18.5 139t-59.5 114.5t-107.5 78t-162.5 28.5h-175zM447 780q110 0 188.5 -31t129.5 -82t75 -117.5t24 -137.5
q0 -100 -32 -177t-86.5 -129t-126 -79t-150.5 -27h-423v33q28 1 51 4.5t39 12t25 24.5t9 42v548q0 26 -9 42t-25 24.5t-39 12t-51 4.5v33h401z" />
    <glyph glyph-name="dcaron" unicode="&#x10f;" horiz-adv-x="667" 
d="M682 800l-56 -208h-32l13 208h75zM308 485q-84 0 -135 -57t-51 -163q0 -44 11.5 -83t35 -68.5t58.5 -46.5t81 -17q50 0 92.5 21t70.5 53v212q0 75 -43 112t-120 37zM473 -10h-7l5 91q-36 -41 -83 -66t-102 -25q-59 0 -104.5 20t-76 54t-46.5 78.5t-16 93.5q0 69 22.5 124
t60.5 93.5t88 59t106 20.5q53 0 90 -13.5t61 -33.5v235l-80 16v19l126 54h34l-5 -86v-621q0 -13 2.5 -20t9.5 -11.5t19.5 -6.5t31.5 -5l28 -4v-30z" />
    <glyph glyph-name="Dcroat" unicode="&#x110;" horiz-adv-x="920" 
d="M46 419h124v245q0 26 -9 42t-25 24.5t-39 12t-51 4.5v33h401q110 0 188.5 -31t129.5 -82t75 -117.5t24 -137.5q0 -100 -32 -177t-86.5 -129t-126 -79t-150.5 -27h-423v33q28 1 51 4.5t39 12t25 24.5t9 42v259h-124v44zM251 736v-317h246v-44h-246v-253q0 -49 29.5 -63.5
t93.5 -14.5h94q61 0 116.5 21t97.5 62.5t67 104t25 144.5q0 74 -18.5 139t-59.5 114.5t-107.5 78t-162.5 28.5h-175z" />
    <glyph glyph-name="dcroat" unicode="&#x111;" horiz-adv-x="667" 
d="M292 643h179v78l-80 16v19l126 54h34l-5 -86v-81h91v-38h-91v-502q0 -13 2.5 -20t9.5 -11.5t19.5 -6.5t31.5 -5l28 -4v-30l-164 -36h-7l5 91q-36 -41 -83 -66t-102 -25q-59 0 -104.5 20t-76 54t-46.5 78.5t-16 93.5q0 69 22.5 124t60.5 93.5t88 59t106 20.5
q53 0 90 -13.5t61 -33.5v119h-179v38zM308 485q-84 0 -135 -57t-51 -163q0 -44 11.5 -83t35 -68.5t58.5 -46.5t81 -17q50 0 92.5 21t70.5 53v212q0 75 -43 112t-120 37z" />
    <glyph glyph-name="Emacron" unicode="&#x112;" horiz-adv-x="811" 
d="M272 932h264v-52h-264v52zM581 271q-9 51 -26.5 77.5t-55.5 26.5h-248v-256q0 -45 28.5 -60t94.5 -15h155q39 0 64 6t44 22t38 44.5t46 72.5h24l-35 -189h-664v33q28 1 51 4.5t39 12t25 24.5t9 42v548q0 26 -9 42t-25 24.5t-39 12t-51 4.5v33h659l3 -176h-19
q-16 37 -31 62.5t-33.5 41t-43 22t-58.5 6.5h-272v-317h248q38 0 55.5 27t26.5 78h28v-253h-28z" />
    <glyph glyph-name="emacron" unicode="&#x113;" horiz-adv-x="559" 
d="M300 533q54 0 94.5 -16t67.5 -44t41 -66t14 -83v-24h-404q-4 -56 9.5 -101.5t40.5 -77.5t66.5 -49.5t87.5 -17.5q65 0 104 23.5t73 66.5l25 -9q-10 -29 -28.5 -55t-45.5 -46t-63.5 -32t-83.5 -12q-62 0 -109.5 21t-80 56t-49 81t-16.5 96q0 64 18.5 117t52.5 91.5
t81 59.5t105 21zM280 482q-62 0 -104.5 -38.5t-55.5 -100.5h314q0 60 -39.5 99.5t-114.5 39.5zM166 704h264v-52h-264v52z" />
    <glyph glyph-name="Ebreve" unicode="&#x114;" horiz-adv-x="811" 
d="M414 833q-93 0 -133 52.5t-40 146.5h36q5 -39 17.5 -66t31 -43.5t41 -23.5t47.5 -7t47.5 7t41 23.5t31.5 43.5t17 66h36q0 -94 -40 -146.5t-133 -52.5zM581 271q-9 51 -26.5 77.5t-55.5 26.5h-248v-256q0 -45 28.5 -60t94.5 -15h155q39 0 64 6t44 22t38 44.5t46 72.5h24
l-35 -189h-664v33q28 1 51 4.5t39 12t25 24.5t9 42v548q0 26 -9 42t-25 24.5t-39 12t-51 4.5v33h659l3 -176h-19q-16 37 -31 62.5t-33.5 41t-43 22t-58.5 6.5h-272v-317h248q38 0 55.5 27t26.5 78h28v-253h-28z" />
    <glyph glyph-name="ebreve" unicode="&#x115;" horiz-adv-x="559" 
d="M300 533q54 0 94.5 -16t67.5 -44t41 -66t14 -83v-24h-404q-4 -56 9.5 -101.5t40.5 -77.5t66.5 -49.5t87.5 -17.5q65 0 104 23.5t73 66.5l25 -9q-10 -29 -28.5 -55t-45.5 -46t-63.5 -32t-83.5 -12q-62 0 -109.5 21t-80 56t-49 81t-16.5 96q0 64 18.5 117t52.5 91.5
t81 59.5t105 21zM280 482q-62 0 -104.5 -38.5t-55.5 -100.5h314q0 60 -39.5 99.5t-114.5 39.5zM298 601q-93 0 -133 52.5t-40 146.5h36q5 -39 17.5 -66t31 -43.5t41 -23.5t47.5 -7t47.5 7t41 23.5t31.5 43.5t17 66h36q0 -94 -40 -146.5t-133 -52.5z" />
    <glyph glyph-name="Edotaccent" unicode="&#x116;" horiz-adv-x="811" 
d="M344 909q0 25 16.5 42t41.5 17t42 -17t17 -42t-17 -41.5t-42 -16.5t-41.5 16.5t-16.5 41.5zM581 271q-9 51 -26.5 77.5t-55.5 26.5h-248v-256q0 -45 28.5 -60t94.5 -15h155q39 0 64 6t44 22t38 44.5t46 72.5h24l-35 -189h-664v33q28 1 51 4.5t39 12t25 24.5t9 42v548
q0 26 -9 42t-25 24.5t-39 12t-51 4.5v33h659l3 -176h-19q-16 37 -31 62.5t-33.5 41t-43 22t-58.5 6.5h-272v-317h248q38 0 55.5 27t26.5 78h28v-253h-28z" />
    <glyph glyph-name="edotaccent" unicode="&#x117;" horiz-adv-x="559" 
d="M300 533q54 0 94.5 -16t67.5 -44t41 -66t14 -83v-24h-404q-4 -56 9.5 -101.5t40.5 -77.5t66.5 -49.5t87.5 -17.5q65 0 104 23.5t73 66.5l25 -9q-10 -29 -28.5 -55t-45.5 -46t-63.5 -32t-83.5 -12q-62 0 -109.5 21t-80 56t-49 81t-16.5 96q0 64 18.5 117t52.5 91.5
t81 59.5t105 21zM280 482q-62 0 -104.5 -38.5t-55.5 -100.5h314q0 60 -39.5 99.5t-114.5 39.5zM240 693q0 25 16.5 42t41.5 17t42 -17t17 -42t-17 -41.5t-42 -16.5t-41.5 16.5t-16.5 41.5z" />
    <glyph glyph-name="Eogonek" unicode="&#x118;" horiz-adv-x="811" 
d="M46 0v33q28 1 51 4.5t39 12t25 24.5t9 42v548q0 26 -9 42t-25 24.5t-39 12t-51 4.5v33h659l3 -176h-19q-16 37 -31 62.5t-33.5 41t-43 22t-58.5 6.5h-272v-317h248q38 0 55.5 27t26.5 78h28v-253h-28q-9 51 -26.5 77.5t-55.5 26.5h-248v-256q0 -45 28.5 -60t94.5 -15h155
q39 0 64 6t44 22t38 44.5t46 72.5h24l-35 -189q-25 -8 -48 -19t-41 -27t-28.5 -36.5t-10.5 -46.5q0 -35 21.5 -54.5t58.5 -19.5q21 0 36 4.5t29 10.5l11 -22q-20 -20 -44 -30t-59 -10q-23 0 -44 6t-36.5 19.5t-25 35t-9.5 51.5q0 49 32.5 83t81.5 55h-588z" />
    <glyph glyph-name="eogonek" unicode="&#x119;" horiz-adv-x="559" 
d="M406 11q-22 -10 -42.5 -23t-37 -30.5t-26.5 -39t-10 -47.5q0 -35 21.5 -54.5t58.5 -19.5q21 0 36 4.5t29 10.5l11 -22q-20 -20 -44 -30t-59 -10q-23 0 -44 6t-36.5 19.5t-25 35t-9.5 51.5q0 45 26.5 76.5t68.5 52.5q-4 0 -12.5 -0.5t-12.5 -0.5q-62 0 -109.5 21t-80 56
t-49 81t-16.5 96q0 64 18.5 117t52.5 91.5t81 59.5t105 21q54 0 94.5 -16t67.5 -44t41 -66t14 -83v-24h-404q-4 -56 9.5 -101.5t40.5 -77.5t66.5 -49.5t87.5 -17.5q65 0 104 23.5t73 66.5l25 -9q-14 -38 -41.5 -71t-71.5 -53zM280 482q-62 0 -104.5 -38.5t-55.5 -100.5h314
q0 60 -39.5 99.5t-114.5 39.5z" />
    <glyph glyph-name="Ecaron" unicode="&#x11a;" horiz-adv-x="811" 
d="M239 1030h34l142 -134l142 134h34l-148 -208h-56zM581 271q-9 51 -26.5 77.5t-55.5 26.5h-248v-256q0 -45 28.5 -60t94.5 -15h155q39 0 64 6t44 22t38 44.5t46 72.5h24l-35 -189h-664v33q28 1 51 4.5t39 12t25 24.5t9 42v548q0 26 -9 42t-25 24.5t-39 12t-51 4.5v33h659
l3 -176h-19q-16 37 -31 62.5t-33.5 41t-43 22t-58.5 6.5h-272v-317h248q38 0 55.5 27t26.5 78h28v-253h-28z" />
    <glyph glyph-name="ecaron" unicode="&#x11b;" horiz-adv-x="559" 
d="M122 800h34l142 -134l142 134h34l-148 -208h-56zM300 533q54 0 94.5 -16t67.5 -44t41 -66t14 -83v-24h-404q-4 -56 9.5 -101.5t40.5 -77.5t66.5 -49.5t87.5 -17.5q65 0 104 23.5t73 66.5l25 -9q-10 -29 -28.5 -55t-45.5 -46t-63.5 -32t-83.5 -12q-62 0 -109.5 21t-80 56
t-49 81t-16.5 96q0 64 18.5 117t52.5 91.5t81 59.5t105 21zM280 482q-62 0 -104.5 -38.5t-55.5 -100.5h314q0 60 -39.5 99.5t-114.5 39.5z" />
    <glyph glyph-name="Gcircumflex" unicode="&#x11c;" horiz-adv-x="905" 
d="M56 375q0 96 32 172.5t88 130.5t131.5 83t162.5 29t154.5 -16.5t118.5 -45.5l7 -164h-22q-35 95 -100.5 133.5t-160.5 38.5q-79 0 -140 -23.5t-102.5 -67.5t-63 -106t-21.5 -139q0 -68 23 -133t67 -116t107.5 -82.5t144.5 -31.5q84 0 135.5 20.5t78.5 55.5v150
q0 26 -8.5 41.5t-24.5 23.5t-38.5 11t-50.5 4v32h319v-32q-28 -1 -50.5 -4t-38.5 -11t-24.5 -23.5t-8.5 -41.5v-193q-57 -39 -130.5 -59.5t-167.5 -20.5q-102 0 -180 32t-130.5 85.5t-79.5 123t-27 144.5zM644 822h-34l-142 134l-142 -134h-34l148 208h56z" />
    <glyph glyph-name="gcircumflex" unicode="&#x11d;" horiz-adv-x="591" 
d="M459 592h-34l-142 134l-142 -134h-34l148 208h56zM295 533q25 0 46.5 -4t38.5 -10l183 4v-60h-38l-114 15v-2q37 -16 61.5 -53.5t24.5 -85.5q0 -45 -16 -79t-44.5 -57.5t-67 -35.5t-83.5 -12q-32 0 -62.5 6t-46.5 13q-19 -15 -32 -29.5t-13 -36.5q0 -45 50 -45h231
q72 0 114.5 -33t42.5 -99q0 -38 -20 -70.5t-58.5 -56.5t-94 -38t-126.5 -14q-63 0 -107.5 11.5t-73 30.5t-42 44t-13.5 52q0 45 26.5 69.5t67.5 43.5q-32 11 -46.5 32.5t-14.5 48.5q0 41 24.5 63.5t60.5 39.5q-80 54 -80 148q0 47 16.5 84t46 63t70 39.5t89.5 13.5zM153 -7
q-22 -19 -32 -39.5t-10 -48.5t14 -49t38 -35.5t57 -21.5t71 -7q98 0 155.5 33t57.5 93q0 42 -28.5 58.5t-74.5 16.5h-248zM300 193q57 0 86 37.5t29 91.5q0 74 -37.5 119.5t-110.5 45.5q-57 0 -86 -37.5t-29 -91.5q0 -74 37.5 -119.5t110.5 -45.5z" />
    <glyph glyph-name="Gbreve" unicode="&#x11e;" horiz-adv-x="905" 
d="M468 833q-93 0 -133 52.5t-40 146.5h36q5 -39 17.5 -66t31 -43.5t41 -23.5t47.5 -7t47.5 7t41 23.5t31.5 43.5t17 66h36q0 -94 -40 -146.5t-133 -52.5zM56 375q0 96 32 172.5t88 130.5t131.5 83t162.5 29t154.5 -16.5t118.5 -45.5l7 -164h-22q-35 95 -100.5 133.5
t-160.5 38.5q-79 0 -140 -23.5t-102.5 -67.5t-63 -106t-21.5 -139q0 -68 23 -133t67 -116t107.5 -82.5t144.5 -31.5q84 0 135.5 20.5t78.5 55.5v150q0 26 -8.5 41.5t-24.5 23.5t-38.5 11t-50.5 4v32h319v-32q-28 -1 -50.5 -4t-38.5 -11t-24.5 -23.5t-8.5 -41.5v-193
q-57 -39 -130.5 -59.5t-167.5 -20.5q-102 0 -180 32t-130.5 85.5t-79.5 123t-27 144.5z" />
    <glyph glyph-name="gbreve" unicode="&#x11f;" horiz-adv-x="591" 
d="M295 533q25 0 46.5 -4t38.5 -10l183 4v-60h-38l-114 15v-2q37 -16 61.5 -53.5t24.5 -85.5q0 -45 -16 -79t-44.5 -57.5t-67 -35.5t-83.5 -12q-32 0 -62.5 6t-46.5 13q-19 -15 -32 -29.5t-13 -36.5q0 -45 50 -45h231q72 0 114.5 -33t42.5 -99q0 -38 -20 -70.5t-58.5 -56.5
t-94 -38t-126.5 -14q-63 0 -107.5 11.5t-73 30.5t-42 44t-13.5 52q0 45 26.5 69.5t67.5 43.5q-32 11 -46.5 32.5t-14.5 48.5q0 41 24.5 63.5t60.5 39.5q-80 54 -80 148q0 47 16.5 84t46 63t70 39.5t89.5 13.5zM153 -7q-22 -19 -32 -39.5t-10 -48.5t14 -49t38 -35.5t57 -21.5
t71 -7q98 0 155.5 33t57.5 93q0 42 -28.5 58.5t-74.5 16.5h-248zM300 193q57 0 86 37.5t29 91.5q0 74 -37.5 119.5t-110.5 45.5q-57 0 -86 -37.5t-29 -91.5q0 -74 37.5 -119.5t110.5 -45.5zM280 601q-93 0 -133 52.5t-40 146.5h36q5 -39 17.5 -66t31 -43.5t41 -23.5t47.5 -7
t47.5 7t41 23.5t31.5 43.5t17 66h36q0 -94 -40 -146.5t-133 -52.5z" />
    <glyph glyph-name="Gdotaccent" unicode="&#x120;" horiz-adv-x="905" 
d="M410 909q0 25 16.5 42t41.5 17t42 -17t17 -42t-17 -41.5t-42 -16.5t-41.5 16.5t-16.5 41.5zM56 375q0 96 32 172.5t88 130.5t131.5 83t162.5 29t154.5 -16.5t118.5 -45.5l7 -164h-22q-35 95 -100.5 133.5t-160.5 38.5q-79 0 -140 -23.5t-102.5 -67.5t-63 -106t-21.5 -139
q0 -68 23 -133t67 -116t107.5 -82.5t144.5 -31.5q84 0 135.5 20.5t78.5 55.5v150q0 26 -8.5 41.5t-24.5 23.5t-38.5 11t-50.5 4v32h319v-32q-28 -1 -50.5 -4t-38.5 -11t-24.5 -23.5t-8.5 -41.5v-193q-57 -39 -130.5 -59.5t-167.5 -20.5q-102 0 -180 32t-130.5 85.5
t-79.5 123t-27 144.5z" />
    <glyph glyph-name="gdotaccent" unicode="&#x121;" horiz-adv-x="591" 
d="M295 533q25 0 46.5 -4t38.5 -10l183 4v-60h-38l-114 15v-2q37 -16 61.5 -53.5t24.5 -85.5q0 -45 -16 -79t-44.5 -57.5t-67 -35.5t-83.5 -12q-32 0 -62.5 6t-46.5 13q-19 -15 -32 -29.5t-13 -36.5q0 -45 50 -45h231q72 0 114.5 -33t42.5 -99q0 -38 -20 -70.5t-58.5 -56.5
t-94 -38t-126.5 -14q-63 0 -107.5 11.5t-73 30.5t-42 44t-13.5 52q0 45 26.5 69.5t67.5 43.5q-32 11 -46.5 32.5t-14.5 48.5q0 41 24.5 63.5t60.5 39.5q-80 54 -80 148q0 47 16.5 84t46 63t70 39.5t89.5 13.5zM153 -7q-22 -19 -32 -39.5t-10 -48.5t14 -49t38 -35.5t57 -21.5
t71 -7q98 0 155.5 33t57.5 93q0 42 -28.5 58.5t-74.5 16.5h-248zM300 193q57 0 86 37.5t29 91.5q0 74 -37.5 119.5t-110.5 45.5q-57 0 -86 -37.5t-29 -91.5q0 -74 37.5 -119.5t110.5 -45.5zM225 693q0 25 16.5 42t41.5 17t42 -17t17 -42t-17 -41.5t-42 -16.5t-41.5 16.5
t-16.5 41.5z" />
    <glyph glyph-name="Gcommaaccent" unicode="&#x122;" horiz-adv-x="905" 
d="M459 -164q-44 11 -44 52q0 24 16 40t43 16q35 0 51 -23.5t16 -52.5q0 -21 -5.5 -41.5t-19.5 -37t-37 -27.5t-59 -12v34q37 4 52 18.5t21 33.5h-34zM56 375q0 96 32 172.5t88 130.5t131.5 83t162.5 29t154.5 -16.5t118.5 -45.5l7 -164h-22q-35 95 -100.5 133.5
t-160.5 38.5q-79 0 -140 -23.5t-102.5 -67.5t-63 -106t-21.5 -139q0 -68 23 -133t67 -116t107.5 -82.5t144.5 -31.5q84 0 135.5 20.5t78.5 55.5v150q0 26 -8.5 41.5t-24.5 23.5t-38.5 11t-50.5 4v32h319v-32q-28 -1 -50.5 -4t-38.5 -11t-24.5 -23.5t-8.5 -41.5v-193
q-57 -39 -130.5 -59.5t-167.5 -20.5q-102 0 -180 32t-130.5 85.5t-79.5 123t-27 144.5z" />
    <glyph glyph-name="gcommaaccent" unicode="&#x123;" horiz-adv-x="591" 
d="M295 533q25 0 46.5 -4t38.5 -10l183 4v-60h-38l-114 15v-2q37 -16 61.5 -53.5t24.5 -85.5q0 -45 -16 -79t-44.5 -57.5t-67 -35.5t-83.5 -12q-32 0 -62.5 6t-46.5 13q-19 -15 -32 -29.5t-13 -36.5q0 -45 50 -45h231q72 0 114.5 -33t42.5 -99q0 -38 -20 -70.5t-58.5 -56.5
t-94 -38t-126.5 -14q-63 0 -107.5 11.5t-73 30.5t-42 44t-13.5 52q0 45 26.5 69.5t67.5 43.5q-32 11 -46.5 32.5t-14.5 48.5q0 41 24.5 63.5t60.5 39.5q-80 54 -80 148q0 47 16.5 84t46 63t70 39.5t89.5 13.5zM153 -7q-22 -19 -32 -39.5t-10 -48.5t14 -49t38 -35.5t57 -21.5
t71 -7q98 0 155.5 33t57.5 93q0 42 -28.5 58.5t-74.5 16.5h-248zM300 193q57 0 86 37.5t29 91.5q0 74 -37.5 119.5t-110.5 45.5q-57 0 -86 -37.5t-29 -91.5q0 -74 37.5 -119.5t110.5 -45.5zM298 706q44 -11 44 -52q0 -24 -16 -40t-43 -16q-35 0 -51 23.5t-16 52.5
q0 21 5.5 41.5t19.5 37t37 27.5t59 12v-34q-37 -4 -52 -18.5t-21 -33.5h34z" />
    <glyph glyph-name="Hcircumflex" unicode="&#x124;" horiz-adv-x="983" 
d="M732 374h-481v-258q0 -26 9 -42t25 -24.5t39 -12t51 -4.5v-33h-329v33q28 1 51 4.5t39 12t25 24.5t9 42v548q0 26 -9 42t-25 24.5t-39 12t-51 4.5v33h329v-33q-28 -1 -51 -4.5t-39 -12t-25 -24.5t-9 -42v-245h481v245q0 26 -9 42t-25 24.5t-39 12t-51 4.5v33h329v-33
q-28 -1 -51 -4.5t-39 -12t-25 -24.5t-9 -42v-548q0 -26 9 -42t25 -24.5t39 -12t51 -4.5v-33h-329v33q28 1 51 4.5t39 12t25 24.5t9 42v258zM667 822h-34l-142 134l-142 -134h-34l148 208h56z" />
    <glyph glyph-name="hcircumflex" unicode="&#x125;" horiz-adv-x="695" 
d="M47 737v19l127 54h34l-5 -86v-294q17 18 39 36.5t48.5 33t56.5 24t62 9.5q36 0 67 -9t53 -28.5t34.5 -50.5t12.5 -76v-283q0 -17 7 -27.5t18.5 -16t27 -8.5t32.5 -5v-29h-246v29q17 2 32.5 5t27 8.5t18.5 16t7 27.5v272q0 62 -31 86.5t-85 24.5q-23 0 -47.5 -6.5
t-48.5 -17.5t-46 -25t-39 -30v-304q0 -17 6.5 -27.5t18 -16t27 -8.5t32.5 -5v-29h-245v29q17 2 32.5 5t27 8.5t18.5 16t7 27.5v635zM347 822h-34l-142 134l-142 -134h-34l148 208h56z" />
    <glyph glyph-name="Hbar" unicode="&#x126;" horiz-adv-x="983" 
d="M61 602h109v62q0 26 -9 42t-25 24.5t-39 12t-51 4.5v33h329v-33q-28 -1 -51 -4.5t-39 -12t-25 -24.5t-9 -42v-62h481v62q0 26 -9 42t-25 24.5t-39 12t-51 4.5v33h329v-33q-28 -1 -51 -4.5t-39 -12t-25 -24.5t-9 -42v-62h109v-43h-109v-443q0 -26 9 -42t25 -24.5t39 -12
t51 -4.5v-33h-329v33q28 1 51 4.5t39 12t25 24.5t9 42v258h-481v-258q0 -26 9 -42t25 -24.5t39 -12t51 -4.5v-33h-329v33q28 1 51 4.5t39 12t25 24.5t9 42v443h-109v43zM732 419v140h-481v-140h481z" />
    <glyph glyph-name="hbar" unicode="&#x127;" horiz-adv-x="695" 
d="M47 737v19l127 54h34l-5 -86v-81h189v-38h-189v-175q17 18 39 36.5t48.5 33t56.5 24t62 9.5q36 0 67 -9t53 -28.5t34.5 -50.5t12.5 -76v-283q0 -17 7 -27.5t18.5 -16t27 -8.5t32.5 -5v-29h-246v29q17 2 32.5 5t27 8.5t18.5 16t7 27.5v272q0 62 -31 86.5t-85 24.5
q-23 0 -47.5 -6.5t-48.5 -17.5t-46 -25t-39 -30v-304q0 -17 6.5 -27.5t18 -16t27 -8.5t32.5 -5v-29h-245v29q17 2 32.5 5t27 8.5t18.5 16t7 27.5v519h-80v38h80v78z" />
    <glyph glyph-name="Itilde" unicode="&#x128;" horiz-adv-x="421" 
d="M170 664q0 26 -9 42t-25 24.5t-39 12t-51 4.5v33h329v-33q-28 -1 -51 -4.5t-39 -12t-25 -24.5t-9 -42v-548q0 -26 9 -42t25 -24.5t39 -12t51 -4.5v-33h-329v33q28 1 51 4.5t39 12t25 24.5t9 42v548zM278 850q-24 0 -45 9.5t-39.5 20.5t-35.5 20.5t-34 9.5
q-25 0 -38.5 -9.5t-31.5 -42.5l-33 4q18 49 48 77t76 28q24 0 45 -9.5t39.5 -20.5t35.5 -20.5t34 -9.5q26 0 39 9.5t31 42.5l33 -4q-18 -50 -48 -77.5t-76 -27.5z" />
    <glyph glyph-name="itilde" unicode="&#x129;" horiz-adv-x="348" 
d="M220 86q0 -17 7 -27.5t18.5 -16t27 -8.5t32.5 -5v-29h-246v29q17 2 32.5 5t27 8.5t18.5 16t7 27.5v351l-80 26v20l128 48h33l-5 -107v-338zM249 610q-24 0 -45 9t-39.5 20.5t-35.5 20.5t-34 9q-13 0 -22 -2t-16.5 -7.5t-15 -15.5t-16.5 -27l-33 5q18 49 48 77t76 28
q24 0 45 -9.5t39.5 -20.5t35.5 -20.5t34 -9.5q26 0 39 9.5t31 42.5l33 -4q-18 -50 -48 -77.5t-76 -27.5z" />
    <glyph glyph-name="Imacron" unicode="&#x12a;" horiz-adv-x="421" 
d="M170 664q0 26 -9 42t-25 24.5t-39 12t-51 4.5v33h329v-33q-28 -1 -51 -4.5t-39 -12t-25 -24.5t-9 -42v-548q0 -26 9 -42t25 -24.5t39 -12t51 -4.5v-33h-329v33q28 1 51 4.5t39 12t25 24.5t9 42v548zM79 932h264v-52h-264v52z" />
    <glyph glyph-name="imacron" unicode="&#x12b;" horiz-adv-x="348" 
d="M220 86q0 -17 7 -27.5t18.5 -16t27 -8.5t32.5 -5v-29h-246v29q17 2 32.5 5t27 8.5t18.5 16t7 27.5v351l-80 26v20l128 48h33l-5 -107v-338zM47 704h244v-52h-244v52z" />
    <glyph glyph-name="Ibreve" unicode="&#x12c;" horiz-adv-x="421" 
d="M170 664q0 26 -9 42t-25 24.5t-39 12t-51 4.5v33h329v-33q-28 -1 -51 -4.5t-39 -12t-25 -24.5t-9 -42v-548q0 -26 9 -42t25 -24.5t39 -12t51 -4.5v-33h-329v33q28 1 51 4.5t39 12t25 24.5t9 42v548zM211 833q-93 0 -133 52.5t-40 146.5h36q5 -39 17.5 -66t31 -43.5
t41 -23.5t47.5 -7t47.5 7t41 23.5t31.5 43.5t17 66h36q0 -94 -40 -146.5t-133 -52.5z" />
    <glyph glyph-name="ibreve" unicode="&#x12d;" horiz-adv-x="348" 
d="M220 86q0 -17 7 -27.5t18.5 -16t27 -8.5t32.5 -5v-29h-246v29q17 2 32.5 5t27 8.5t18.5 16t7 27.5v351l-80 26v20l128 48h33l-5 -107v-338zM182 601q-93 0 -133 52.5t-40 146.5h36q5 -39 17.5 -66t31 -43.5t41 -23.5t47.5 -7t47.5 7t41 23.5t31.5 43.5t17 66h36
q0 -94 -40 -146.5t-133 -52.5z" />
    <glyph glyph-name="Iogonek" unicode="&#x12e;" horiz-adv-x="421" 
d="M46 0v33q28 1 51 4.5t39 12t25 24.5t9 42v548q0 26 -9 42t-25 24.5t-39 12t-51 4.5v33h329v-33q-28 -1 -51 -4.5t-39 -12t-25 -24.5t-9 -42v-548q0 -26 9 -42t25 -24.5t39 -12t51 -4.5v-33q-25 -8 -48 -19t-41 -27t-28.5 -36.5t-10.5 -46.5q0 -35 21.5 -54.5t58.5 -19.5
q21 0 36 4.5t29 10.5l11 -22q-20 -20 -44 -30t-59 -10q-23 0 -44 6t-36.5 19.5t-25 35t-9.5 51.5q0 49 32.5 83t81.5 55h-253z" />
    <glyph glyph-name="iogonek" unicode="&#x12f;" horiz-adv-x="348" 
d="M59 0v29q17 2 32.5 5t27 8.5t18.5 16t7 27.5v351l-80 26v20l128 48h33l-5 -107v-338q0 -17 7 -27.5t18.5 -16t27 -8.5t32.5 -5v-29q-25 -8 -48 -19t-41 -27t-28.5 -36.5t-10.5 -46.5q0 -35 21.5 -54.5t58.5 -19.5q21 0 36 4.5t29 10.5l11 -22q-20 -20 -44 -30t-59 -10
q-23 0 -44 6t-36.5 19.5t-25 35t-9.5 51.5q0 49 32.5 83t81.5 55h-170zM116 693q0 25 16.5 42t41.5 17t42 -17t17 -42t-17 -41.5t-42 -16.5t-41.5 16.5t-16.5 41.5z" />
    <glyph glyph-name="Idotaccent" unicode="&#x130;" horiz-adv-x="421" 
d="M170 664q0 26 -9 42t-25 24.5t-39 12t-51 4.5v33h329v-33q-28 -1 -51 -4.5t-39 -12t-25 -24.5t-9 -42v-548q0 -26 9 -42t25 -24.5t39 -12t51 -4.5v-33h-329v33q28 1 51 4.5t39 12t25 24.5t9 42v548zM153 909q0 25 16.5 42t41.5 17t42 -17t17 -42t-17 -41.5t-42 -16.5
t-41.5 16.5t-16.5 41.5z" />
    <glyph glyph-name="dotlessi" unicode="&#x131;" horiz-adv-x="348" 
d="M220 86q0 -17 7 -27.5t18.5 -16t27 -8.5t32.5 -5v-29h-246v29q17 2 32.5 5t27 8.5t18.5 16t7 27.5v351l-80 26v20l128 48h33l-5 -107v-338z" />
    <glyph glyph-name="IJ" unicode="&#x132;" horiz-adv-x="896" 
d="M168 664q0 26 -8.5 42t-24.5 24.5t-38.5 12t-50.5 4.5v33h329v-33q-28 -1 -50.5 -4.5t-38 -12t-24 -24.5t-8.5 -42v-548q0 -26 8.5 -42t24 -24.5t38 -12t50.5 -4.5v-33h-329v33q28 1 50.5 4.5t38.5 12t24.5 24.5t8.5 42v548zM755 210q0 -118 -49 -169t-138 -51
q-81 0 -128.5 32.5t-47.5 89.5q0 16 6 36.5t17 28.5h66v-59q0 -25 7 -42.5t18.5 -28t26 -15t29.5 -4.5q25 0 45 5.5t34 22.5t21.5 48t7.5 82v478q0 26 -8.5 42t-24.5 24.5t-38.5 12t-50.5 4.5v33h329v-33q-28 -1 -50.5 -4.5t-38.5 -12t-24.5 -24.5t-8.5 -42v-454z" />
    <glyph glyph-name="ij" unicode="&#x133;" horiz-adv-x="559" 
d="M64 463v20l128 48h33l-5 -107v-338q0 -17 7 -27.5t18.5 -16t27 -8.5t32.5 -5v-29h-246v29q17 2 32.5 5t27 8.5t18.5 16t7 27.5v351zM116 693q0 25 16.5 42t41.5 17t42 -17t17 -42t-17 -41.5t-42 -16.5t-41.5 16.5t-16.5 41.5zM315 463v20l128 48h33l-5 -107v-375
q0 -30 -0.5 -50.5t-2.5 -36.5t-5.5 -29.5t-10.5 -29.5q-7 -18 -21 -38t-31.5 -40t-36 -39t-35.5 -36l-21 19l50 79q25 38 31.5 82t6.5 103v404zM367 693q0 25 16.5 42t41.5 17t42 -17t17 -42t-17 -41.5t-42 -16.5t-41.5 16.5t-16.5 41.5z" />
    <glyph glyph-name="Jcircumflex" unicode="&#x134;" horiz-adv-x="553" 
d="M410 217q0 -118 -56 -172.5t-159 -54.5q-44 0 -80.5 8t-62.5 23.5t-40.5 39t-14.5 53.5q0 20 7 34.5t18 22.5h67v-31q0 -61 31 -86.5t85 -25.5q27 0 50 9t39.5 29.5t25.5 53.5t9 80v464q0 26 -9 42t-25 24.5t-39 12t-51 4.5v33h329v-33q-28 -1 -51 -4.5t-39 -12
t-25 -24.5t-9 -42v-447zM541 822h-34l-142 134l-142 -134h-34l148 208h56z" />
    <glyph glyph-name="jcircumflex" unicode="&#x135;" horiz-adv-x="279" 
d="M35 463v20l127 48h34l-5 -107v-375q0 -30 -0.5 -50.5t-2.5 -36.5t-5.5 -29.5t-10.5 -29.5q-7 -18 -21 -38t-31.5 -40t-36 -39t-35.5 -36l-21 19l50 79q25 38 31.5 82t6.5 103v404zM327 592h-34l-142 134l-142 -134h-34l148 208h56z" />
    <glyph glyph-name="Kcommaaccent" unicode="&#x136;" horiz-adv-x="822" 
d="M418 -164q-44 11 -44 52q0 24 16 40t43 16q35 0 51 -23.5t16 -52.5q0 -21 -5.5 -41.5t-19.5 -37t-37 -27.5t-59 -12v34q37 4 52 18.5t21 33.5h-34zM678 101q35 -34 68 -49t71 -19v-33h-128q-29 14 -56 35t-61 55l-312 307l334 281q11 9 18 17.5t7 19.5q0 9 -3.5 14t-14 8
t-29.5 5t-51 5v33h281v-33q-21 0 -37.5 -4.5t-31.5 -12.5t-30.5 -20.5t-33.5 -27.5l-317 -266zM170 664q0 26 -9 42t-25 24.5t-39 12t-51 4.5v33h329v-33q-28 -1 -51 -4.5t-39 -12t-25 -24.5t-9 -42v-548q0 -26 9 -42t25 -24.5t39 -12t51 -4.5v-33h-329v33q28 1 51 4.5
t39 12t25 24.5t9 42v548z" />
    <glyph glyph-name="kcommaaccent" unicode="&#x137;" horiz-adv-x="605" 
d="M329 -164q-44 11 -44 52q0 24 16 40t43 16q35 0 51 -23.5t16 -52.5q0 -21 -5.5 -41.5t-19.5 -37t-37 -27.5t-59 -12v34q37 4 52 18.5t21 33.5h-34zM400 436q6 6 10 11.5t4 12.5q0 17 -15 23t-55 11v29h223v-29q-31 -8 -46 -13t-31 -19l-196 -177l307 -263v-22h-84
l-308 263zM203 86q0 -17 6.5 -27.5t18 -16t27 -8.5t32.5 -5v-29h-245v29q17 2 32.5 5t27 8.5t18.5 16t7 27.5v635l-80 16v19l127 54h34l-5 -86v-638z" />
    <glyph glyph-name="kgreenlandic" unicode="&#x138;" horiz-adv-x="624" 
d="M64 463v20l128 48h33l-5 -107v-338q0 -17 7 -27.5t18.5 -16t27 -8.5t32.5 -5v-29h-246v29q17 2 32.5 5t27 8.5t18.5 16t7 27.5v351zM419 436q6 6 10 11.5t4 12.5q0 17 -15 23t-55 11v29h223v-29q-31 -8 -46 -13t-31 -19l-196 -177l307 -263v-22h-84l-308 263z" />
    <glyph glyph-name="Lacute" unicode="&#x139;" horiz-adv-x="757" 
d="M387 1030l-149 -208h-33l81 208h101zM251 119q0 -45 28.5 -60t94.5 -15h136q40 0 66.5 10.5t46.5 30.5t36.5 49.5t37.5 68.5h23l-36 -203h-638v33q28 1 51 4.5t39 12t25 24.5t9 42v548q0 26 -9 42t-25 24.5t-39 12t-51 4.5v33h329v-33q-28 -1 -51 -4.5t-39 -12t-25 -24.5
t-9 -42v-545z" />
    <glyph glyph-name="lacute" unicode="&#x13a;" horiz-adv-x="338" 
d="M319 1030l-149 -208h-33l81 208h101zM210 86q0 -17 7 -27.5t18.5 -16t27 -8.5t32.5 -5v-29h-246v29q17 2 32.5 5t27 8.5t18.5 16t7 27.5v635l-80 16v19l128 54h33l-5 -86v-638z" />
    <glyph glyph-name="Lcommaaccent" unicode="&#x13b;" horiz-adv-x="757" 
d="M369 -164q-44 11 -44 52q0 24 16 40t43 16q35 0 51 -23.5t16 -52.5q0 -21 -5.5 -41.5t-19.5 -37t-37 -27.5t-59 -12v34q37 4 52 18.5t21 33.5h-34zM251 119q0 -45 28.5 -60t94.5 -15h136q40 0 66.5 10.5t46.5 30.5t36.5 49.5t37.5 68.5h23l-36 -203h-638v33q28 1 51 4.5
t39 12t25 24.5t9 42v548q0 26 -9 42t-25 24.5t-39 12t-51 4.5v33h329v-33q-28 -1 -51 -4.5t-39 -12t-25 -24.5t-9 -42v-545z" />
    <glyph glyph-name="lcommaaccent" unicode="&#x13c;" horiz-adv-x="338" 
d="M159 -164q-44 11 -44 52q0 24 16 40t43 16q35 0 51 -23.5t16 -52.5q0 -21 -5.5 -41.5t-19.5 -37t-37 -27.5t-59 -12v34q37 4 52 18.5t21 33.5h-34zM210 86q0 -17 7 -27.5t18.5 -16t27 -8.5t32.5 -5v-29h-246v29q17 2 32.5 5t27 8.5t18.5 16t7 27.5v635l-80 16v19l128 54
h33l-5 -86v-638z" />
    <glyph glyph-name="Lcaron" unicode="&#x13d;" horiz-adv-x="757" 
d="M560 780l-56 -208h-32l13 208h75zM251 119q0 -45 28.5 -60t94.5 -15h136q40 0 66.5 10.5t46.5 30.5t36.5 49.5t37.5 68.5h23l-36 -203h-638v33q28 1 51 4.5t39 12t25 24.5t9 42v548q0 26 -9 42t-25 24.5t-39 12t-51 4.5v33h329v-33q-28 -1 -51 -4.5t-39 -12t-25 -24.5
t-9 -42v-545z" />
    <glyph glyph-name="lcaron" unicode="&#x13e;" horiz-adv-x="338" 
d="M347 800l-56 -208h-32l13 208h75zM210 86q0 -17 7 -27.5t18.5 -16t27 -8.5t32.5 -5v-29h-246v29q17 2 32.5 5t27 8.5t18.5 16t7 27.5v635l-80 16v19l128 54h33l-5 -86v-638z" />
    <glyph glyph-name="Ldot" unicode="&#x13f;" horiz-adv-x="757" 
d="M251 119q0 -45 28.5 -60t94.5 -15h136q40 0 66.5 10.5t46.5 30.5t36.5 49.5t37.5 68.5h23l-36 -203h-638v33q28 1 51 4.5t39 12t25 24.5t9 42v548q0 26 -9 42t-25 24.5t-39 12t-51 4.5v33h329v-33q-28 -1 -51 -4.5t-39 -12t-25 -24.5t-9 -42v-545zM525 400q0 26 18.5 45
t44.5 19t45 -19t19 -45t-19 -44.5t-45 -18.5t-44.5 18.5t-18.5 44.5z" />
    <glyph glyph-name="ldot" unicode="&#x140;" horiz-adv-x="368" 
d="M293 390q0 26 18.5 45t44.5 19t45 -19t19 -45t-19 -44.5t-45 -18.5t-44.5 18.5t-18.5 44.5zM210 86q0 -17 7 -27.5t18.5 -16t27 -8.5t32.5 -5v-29h-246v29q17 2 32.5 5t27 8.5t18.5 16t7 27.5v635l-80 16v19l128 54h33l-5 -86v-638z" />
    <glyph glyph-name="Lslash" unicode="&#x141;" horiz-adv-x="757" 
d="M46 313l124 53v298q0 26 -9 42t-25 24.5t-39 12t-51 4.5v33h329v-33q-28 -1 -51 -4.5t-39 -12t-25 -24.5t-9 -42v-263l199 87v-50l-199 -87v-230q0 -45 28.5 -60t94.5 -15h136q40 0 66.5 10t46.5 30t36.5 49t37.5 68h23l-36 -203h-638v33q28 1 51 4.5t39 12t25 24.5t9 42
v200l-124 -53v50z" />
    <glyph glyph-name="lslash" unicode="&#x142;" horiz-adv-x="343" 
d="M207 471l89 58v-45l-89 -59v-339q0 -17 7 -27.5t18.5 -16t27 -8.5t32.5 -5v-29h-246v29q17 2 32.5 5t27 8.5t18.5 16t7 27.5v304l-83 -53v46l83 53v285l-80 16v19l127 54h34l-5 -86v-253z" />
    <glyph glyph-name="Nacute" unicode="&#x143;" horiz-adv-x="976" 
d="M657 1030l-149 -208h-33l81 208h101zM169 681q-18 21 -31 34t-26 20t-28.5 9.5t-37.5 2.5v33h162l557 -644v528q0 26 -8 42t-23.5 24.5t-37.5 12t-50 4.5v33h294v-33q-28 -1 -50.5 -4.5t-38.5 -12t-24.5 -24.5t-8.5 -42v-664h-37l-559 640v-524q0 -26 8 -42t23.5 -24.5
t37.5 -12t50 -4.5v-33h-295v33q28 1 51 4.5t39 12t24.5 24.5t8.5 42v565z" />
    <glyph glyph-name="nacute" unicode="&#x144;" horiz-adv-x="712" 
d="M534 800l-149 -208h-33l81 208h101zM517 358q0 62 -31 86.5t-85 24.5q-23 0 -47.5 -6.5t-48.5 -17.5t-46 -25t-39 -30v-304q0 -17 7 -27.5t18.5 -16t27 -8.5t32.5 -5v-29h-246v29q17 2 32.5 5t27 8.5t18.5 16t7 27.5v351l-80 26v20l128 48h33l-5 -101q17 18 39 36.5
t48.5 33t56.5 24t62 9.5q36 0 67 -9t53 -28.5t34.5 -50.5t12.5 -76v-283q0 -17 7 -27.5t18.5 -16t27 -8.5t32.5 -5v-29h-246v29q17 2 32.5 5t27 8.5t18.5 16t7 27.5v272z" />
    <glyph glyph-name="Ncommaaccent" unicode="&#x145;" horiz-adv-x="976" 
d="M483 -164q-44 11 -44 52q0 24 16 40t43 16q35 0 51 -23.5t16 -52.5q0 -21 -5.5 -41.5t-19.5 -37t-37 -27.5t-59 -12v34q37 4 52 18.5t21 33.5h-34zM169 681q-18 21 -31 34t-26 20t-28.5 9.5t-37.5 2.5v33h162l557 -644v528q0 26 -8 42t-23.5 24.5t-37.5 12t-50 4.5v33
h294v-33q-28 -1 -50.5 -4.5t-38.5 -12t-24.5 -24.5t-8.5 -42v-664h-37l-559 640v-524q0 -26 8 -42t23.5 -24.5t37.5 -12t50 -4.5v-33h-295v33q28 1 51 4.5t39 12t24.5 24.5t8.5 42v565z" />
    <glyph glyph-name="ncommaaccent" unicode="&#x146;" horiz-adv-x="712" 
d="M355 -164q-44 11 -44 52q0 24 16 40t43 16q35 0 51 -23.5t16 -52.5q0 -21 -5.5 -41.5t-19.5 -37t-37 -27.5t-59 -12v34q37 4 52 18.5t21 33.5h-34zM517 358q0 62 -31 86.5t-85 24.5q-23 0 -47.5 -6.5t-48.5 -17.5t-46 -25t-39 -30v-304q0 -17 7 -27.5t18.5 -16t27 -8.5
t32.5 -5v-29h-246v29q17 2 32.5 5t27 8.5t18.5 16t7 27.5v351l-80 26v20l128 48h33l-5 -101q17 18 39 36.5t48.5 33t56.5 24t62 9.5q36 0 67 -9t53 -28.5t34.5 -50.5t12.5 -76v-283q0 -17 7 -27.5t18.5 -16t27 -8.5t32.5 -5v-29h-246v29q17 2 32.5 5t27 8.5t18.5 16t7 27.5
v272z" />
    <glyph glyph-name="Ncaron" unicode="&#x147;" horiz-adv-x="976" 
d="M321 1030h34l142 -134l142 134h34l-148 -208h-56zM169 681q-18 21 -31 34t-26 20t-28.5 9.5t-37.5 2.5v33h162l557 -644v528q0 26 -8 42t-23.5 24.5t-37.5 12t-50 4.5v33h294v-33q-28 -1 -50.5 -4.5t-38.5 -12t-24.5 -24.5t-8.5 -42v-664h-37l-559 640v-524q0 -26 8 -42
t23.5 -24.5t37.5 -12t50 -4.5v-33h-295v33q28 1 51 4.5t39 12t24.5 24.5t8.5 42v565z" />
    <glyph glyph-name="ncaron" unicode="&#x148;" horiz-adv-x="712" 
d="M193 800h34l142 -134l142 134h34l-148 -208h-56zM517 358q0 62 -31 86.5t-85 24.5q-23 0 -47.5 -6.5t-48.5 -17.5t-46 -25t-39 -30v-304q0 -17 7 -27.5t18.5 -16t27 -8.5t32.5 -5v-29h-246v29q17 2 32.5 5t27 8.5t18.5 16t7 27.5v351l-80 26v20l128 48h33l-5 -101
q17 18 39 36.5t48.5 33t56.5 24t62 9.5q36 0 67 -9t53 -28.5t34.5 -50.5t12.5 -76v-283q0 -17 7 -27.5t18.5 -16t27 -8.5t32.5 -5v-29h-246v29q17 2 32.5 5t27 8.5t18.5 16t7 27.5v272z" />
    <glyph glyph-name="Eng" unicode="&#x14a;" horiz-adv-x="976" 
d="M222 640v-524q0 -26 8 -42t23.5 -24.5t37.5 -12t50 -4.5v-33h-295v33q28 1 51 4.5t39 12t24.5 24.5t8.5 42v565q-18 21 -31 34t-26 20t-28.5 9.5t-37.5 2.5v33h162l557 -644v528q0 26 -8 42t-23.5 24.5t-37.5 12t-50 4.5v33h294v-33q-28 -1 -50.5 -4.5t-38.5 -12
t-24.5 -24.5t-8.5 -42v-733q0 -37 -6.5 -70t-25.5 -57.5t-52 -39t-86 -14.5q-27 0 -53 5.5t-46 17.5t-32.5 30t-12.5 42q0 19 10.5 34t22.5 23h48v-26q0 -37 19.5 -60.5t62.5 -23.5q47 0 72.5 27t25.5 96v103z" />
    <glyph glyph-name="eng" unicode="&#x14b;" horiz-adv-x="662" 
d="M517 358q0 62 -31 86.5t-85 24.5q-23 0 -47.5 -6.5t-48.5 -17.5t-46 -25t-39 -30v-304q0 -17 7 -27.5t18.5 -16t27 -8.5t32.5 -5v-29h-246v29q17 2 32.5 5t27 8.5t18.5 16t7 27.5v351l-80 26v20l128 48h33l-5 -101q17 18 39 36.5t48.5 33t56.5 24t62 9.5q36 0 67 -9
t53 -28.5t34.5 -50.5t12.5 -76v-456q0 -38 -13.5 -68t-37 -51t-55 -32.5t-66.5 -11.5q-74 0 -106 26.5t-32 64.5q0 10 4 21t13 19h58v-20q0 -29 19 -50t54 -21q46 0 66 25t20 84v459z" />
    <glyph glyph-name="Omacron" unicode="&#x14c;" horiz-adv-x="904" 
d="M320 932h264v-52h-264v52zM476 50q69 0 123 24.5t90.5 67.5t56 100t19.5 121q0 76 -21 143t-63 116.5t-105 78.5t-148 29q-69 0 -123 -24.5t-90.5 -67.5t-56 -99.5t-19.5 -121.5q0 -76 21 -143t63 -116.5t105 -78.5t148 -29zM441 -10q-88 0 -159.5 32t-121.5 85
t-77 122.5t-27 145.5q0 96 31.5 172.5t86.5 130.5t129.5 83t159.5 29q89 0 160 -31.5t121 -85t77 -123t27 -145.5q0 -96 -31.5 -172.5t-86.5 -130.5t-129.5 -83t-159.5 -29z" />
    <glyph glyph-name="omacron" unicode="&#x14d;" horiz-adv-x="621" 
d="M182 704h264v-52h-264v52zM328 43q42 0 74 16t53 43.5t32 64t11 77.5q0 112 -53.5 174t-151.5 62q-42 0 -74 -16t-53 -43.5t-32 -64t-11 -77.5q0 -112 53.5 -174t151.5 -62zM302 -10q-57 0 -105 19.5t-82 54t-53 82.5t-19 105q0 65 23 117t61 89t88 56.5t104 19.5
q57 0 105 -19.5t82 -54t53 -82.5t19 -105q0 -65 -23 -117t-61 -89t-88 -56.5t-104 -19.5z" />
    <glyph glyph-name="Obreve" unicode="&#x14e;" horiz-adv-x="904" 
d="M452 833q-93 0 -133 52.5t-40 146.5h36q5 -39 17.5 -66t31 -43.5t41 -23.5t47.5 -7t47.5 7t41 23.5t31.5 43.5t17 66h36q0 -94 -40 -146.5t-133 -52.5zM476 50q69 0 123 24.5t90.5 67.5t56 100t19.5 121q0 76 -21 143t-63 116.5t-105 78.5t-148 29q-69 0 -123 -24.5
t-90.5 -67.5t-56 -99.5t-19.5 -121.5q0 -76 21 -143t63 -116.5t105 -78.5t148 -29zM441 -10q-88 0 -159.5 32t-121.5 85t-77 122.5t-27 145.5q0 96 31.5 172.5t86.5 130.5t129.5 83t159.5 29q89 0 160 -31.5t121 -85t77 -123t27 -145.5q0 -96 -31.5 -172.5t-86.5 -130.5
t-129.5 -83t-159.5 -29z" />
    <glyph glyph-name="obreve" unicode="&#x14f;" horiz-adv-x="621" 
d="M328 43q42 0 74 16t53 43.5t32 64t11 77.5q0 112 -53.5 174t-151.5 62q-42 0 -74 -16t-53 -43.5t-32 -64t-11 -77.5q0 -112 53.5 -174t151.5 -62zM302 -10q-57 0 -105 19.5t-82 54t-53 82.5t-19 105q0 65 23 117t61 89t88 56.5t104 19.5q57 0 105 -19.5t82 -54t53 -82.5
t19 -105q0 -65 -23 -117t-61 -89t-88 -56.5t-104 -19.5zM314 601q-93 0 -133 52.5t-40 146.5h36q5 -39 17.5 -66t31 -43.5t41 -23.5t47.5 -7t47.5 7t41 23.5t31.5 43.5t17 66h36q0 -94 -40 -146.5t-133 -52.5z" />
    <glyph glyph-name="Ohungarumlaut" unicode="&#x150;" horiz-adv-x="904" 
d="M476 50q69 0 123 24.5t90.5 67.5t56 100t19.5 121q0 76 -21 143t-63 116.5t-105 78.5t-148 29q-69 0 -123 -24.5t-90.5 -67.5t-56 -99.5t-19.5 -121.5q0 -76 21 -143t63 -116.5t105 -78.5t148 -29zM441 -10q-88 0 -159.5 32t-121.5 85t-77 122.5t-27 145.5
q0 96 31.5 172.5t86.5 130.5t129.5 83t159.5 29q89 0 160 -31.5t121 -85t77 -123t27 -145.5q0 -96 -31.5 -172.5t-86.5 -130.5t-129.5 -83t-159.5 -29zM517 1030l-122 -208h-36l67 208h91zM668 1030l-122 -208h-36l67 208h91z" />
    <glyph glyph-name="ohungarumlaut" unicode="&#x151;" horiz-adv-x="621" 
d="M365 800l-122 -208h-36l67 208h91zM516 800l-122 -208h-36l67 208h91zM328 43q42 0 74 16t53 43.5t32 64t11 77.5q0 112 -53.5 174t-151.5 62q-42 0 -74 -16t-53 -43.5t-32 -64t-11 -77.5q0 -112 53.5 -174t151.5 -62zM302 -10q-57 0 -105 19.5t-82 54t-53 82.5t-19 105
q0 65 23 117t61 89t88 56.5t104 19.5q57 0 105 -19.5t82 -54t53 -82.5t19 -105q0 -65 -23 -117t-61 -89t-88 -56.5t-104 -19.5z" />
    <glyph glyph-name="OE" unicode="&#x152;" horiz-adv-x="1300" 
d="M441 -10q-88 0 -159.5 32t-121.5 85t-77 122.5t-27 145.5q0 96 32 172.5t87.5 130.5t129.5 83t158 29q24 0 46.5 -2.5t44.5 -7.5h640l3 -176h-19q-16 37 -31 62t-33.5 40.5t-43 22t-58.5 6.5h-345q83 -51 130 -135t50 -181h141q38 0 55.5 27t26.5 78h28v-253h-28
q-9 51 -26.5 77.5t-55.5 26.5h-141q-7 -115 -59.5 -198.5t-135.5 -131.5h366q39 0 64 6t44 22t38 44t46 72h24l-35 -189h-664q-23 -5 -46.5 -7.5t-47.5 -2.5zM476 50q69 0 123 24.5t90.5 67.5t56 100t19.5 121q0 76 -21 143t-63 116.5t-105 78.5t-148 29q-69 0 -123 -24.5
t-90.5 -67.5t-56 -99.5t-19.5 -121.5q0 -76 21 -143t63 -116.5t105 -78.5t148 -29z" />
    <glyph glyph-name="oe" unicode="&#x153;" horiz-adv-x="1024" 
d="M765 533q54 0 94.5 -16t67.5 -44t41 -66t14 -83v-24h-404q-4 -56 9.5 -101.5t40.5 -77.5t66.5 -49.5t87.5 -17.5q65 0 104 23.5t73 66.5l25 -9q-10 -29 -28.5 -55t-45.5 -46t-63.5 -32t-83.5 -12q-84 0 -142 36t-88 93q-37 -62 -98 -95.5t-133 -33.5q-57 0 -105 19.5
t-82 54t-53 82.5t-19 105q0 65 23 117t61 89t88 56.5t104 19.5q78 0 135 -34t88 -94q34 60 91 94t132 34zM328 43q42 0 74 16t53 43.5t32 64t11 77.5q0 112 -53.5 174t-151.5 62q-42 0 -74 -16t-53 -43.5t-32 -64t-11 -77.5q0 -112 53.5 -174t151.5 -62zM745 482
q-62 0 -104.5 -38.5t-55.5 -100.5h314q0 60 -39.5 99.5t-114.5 39.5z" />
    <glyph glyph-name="Racute" unicode="&#x154;" horiz-adv-x="845" 
d="M251 736v-334h133q60 0 101.5 10t66.5 30.5t36 51t11 71.5q0 38 -11.5 69.5t-37 54t-66.5 35t-100 12.5h-133zM396 780q88 0 144.5 -19t89.5 -49.5t46 -68.5t13 -75q0 -48 -21 -85.5t-56.5 -64t-82.5 -40t-100 -13.5q26 -8 54.5 -28t55.5 -50l178 -197q26 -29 55.5 -42
t67.5 -15v-33h-125q-29 13 -50.5 32t-49.5 49l-193 212q-20 21 -36.5 34t-32.5 20t-31.5 9.5t-33.5 2.5h-37v-243q0 -26 9 -42t25 -24.5t39 -12t51 -4.5v-33h-329v33q28 1 51 4.5t39 12t25 24.5t9 42v548q0 26 -9 42t-25 24.5t-39 12t-51 4.5v33h350zM521 1030l-149 -208
h-33l81 208h101z" />
    <glyph glyph-name="racute" unicode="&#x155;" horiz-adv-x="448" 
d="M432 800l-149 -208h-33l81 208h101zM220 387q15 24 32 50t36.5 47.5t42 35t49.5 13.5q17 0 27.5 -4t16.5 -10v-64h-31q-27 0 -48.5 -5t-41 -17.5t-39 -33t-44.5 -51.5v-256q0 -19 5.5 -30.5t18 -17.5t32.5 -9t49 -6v-29h-266v29q17 2 32.5 5t27 8.5t18.5 16t7 27.5v351
l-80 26v20l127 48h34z" />
    <glyph glyph-name="Rcommaaccent" unicode="&#x156;" horiz-adv-x="845" 
d="M435 -164q-44 11 -44 52q0 24 16 40t43 16q35 0 51 -23.5t16 -52.5q0 -21 -5.5 -41.5t-19.5 -37t-37 -27.5t-59 -12v34q37 4 52 18.5t21 33.5h-34zM251 736v-334h133q60 0 101.5 10t66.5 30.5t36 51t11 71.5q0 38 -11.5 69.5t-37 54t-66.5 35t-100 12.5h-133zM396 780
q88 0 144.5 -19t89.5 -49.5t46 -68.5t13 -75q0 -48 -21 -85.5t-56.5 -64t-82.5 -40t-100 -13.5q26 -8 54.5 -28t55.5 -50l178 -197q26 -29 55.5 -42t67.5 -15v-33h-125q-29 13 -50.5 32t-49.5 49l-193 212q-20 21 -36.5 34t-32.5 20t-31.5 9.5t-33.5 2.5h-37v-243
q0 -26 9 -42t25 -24.5t39 -12t51 -4.5v-33h-329v33q28 1 51 4.5t39 12t25 24.5t9 42v548q0 26 -9 42t-25 24.5t-39 12t-51 4.5v33h350z" />
    <glyph glyph-name="rcommaaccent" unicode="&#x157;" horiz-adv-x="448" 
d="M175 -164q-44 11 -44 52q0 24 16 40t43 16q35 0 51 -23.5t16 -52.5q0 -21 -5.5 -41.5t-19.5 -37t-37 -27.5t-59 -12v34q37 4 52 18.5t21 33.5h-34zM220 387q15 24 32 50t36.5 47.5t42 35t49.5 13.5q17 0 27.5 -4t16.5 -10v-64h-31q-27 0 -48.5 -5t-41 -17.5t-39 -33
t-44.5 -51.5v-256q0 -19 5.5 -30.5t18 -17.5t32.5 -9t49 -6v-29h-266v29q17 2 32.5 5t27 8.5t18.5 16t7 27.5v351l-80 26v20l127 48h34z" />
    <glyph glyph-name="Rcaron" unicode="&#x158;" horiz-adv-x="845" 
d="M237 1030h34l142 -134l142 134h34l-148 -208h-56zM251 736v-334h133q60 0 101.5 10t66.5 30.5t36 51t11 71.5q0 38 -11.5 69.5t-37 54t-66.5 35t-100 12.5h-133zM396 780q88 0 144.5 -19t89.5 -49.5t46 -68.5t13 -75q0 -48 -21 -85.5t-56.5 -64t-82.5 -40t-100 -13.5
q26 -8 54.5 -28t55.5 -50l178 -197q26 -29 55.5 -42t67.5 -15v-33h-125q-29 13 -50.5 32t-49.5 49l-193 212q-20 21 -36.5 34t-32.5 20t-31.5 9.5t-33.5 2.5h-37v-243q0 -26 9 -42t25 -24.5t39 -12t51 -4.5v-33h-329v33q28 1 51 4.5t39 12t25 24.5t9 42v548q0 26 -9 42
t-25 24.5t-39 12t-51 4.5v33h350z" />
    <glyph glyph-name="rcaron" unicode="&#x159;" horiz-adv-x="448" 
d="M90 800h34l142 -134l142 134h34l-148 -208h-56zM220 387q15 24 32 50t36.5 47.5t42 35t49.5 13.5q17 0 27.5 -4t16.5 -10v-64h-31q-27 0 -48.5 -5t-41 -17.5t-39 -33t-44.5 -51.5v-256q0 -19 5.5 -30.5t18 -17.5t32.5 -9t49 -6v-29h-266v29q17 2 32.5 5t27 8.5t18.5 16
t7 27.5v351l-80 26v20l127 48h34z" />
    <glyph glyph-name="Sacute" unicode="&#x15a;" horiz-adv-x="635" 
d="M298 -10q-69 0 -133.5 17.5t-101.5 48.5l-7 187h27q22 -102 78.5 -154.5t143.5 -52.5q91 0 141 41t50 113q0 65 -38.5 99.5t-109.5 59.5l-113 41q-34 12 -64.5 28.5t-53.5 40t-37 56t-14 75.5t16 79.5t46.5 63.5t76 42t104.5 15q69 0 128.5 -18.5t99.5 -50.5v-167h-28
q-11 53 -28.5 89t-43 58.5t-59.5 32.5t-79 10q-75 0 -117 -38t-42 -100q0 -31 8.5 -53.5t24 -38.5t38.5 -27.5t52 -22.5l126 -47q41 -15 74.5 -33.5t57.5 -44t37.5 -59t13.5 -77.5q0 -49 -19.5 -88.5t-55.5 -67.5t-86.5 -42.5t-112.5 -14.5zM474 1030l-149 -208h-33l81 208
h101z" />
    <glyph glyph-name="sacute" unicode="&#x15b;" horiz-adv-x="495" 
d="M394 800l-149 -208h-33l81 208h101zM242 -10q-59 0 -105 14.5t-75 36.5l-6 135h30q17 -69 56.5 -105.5t104.5 -36.5q52 0 87 22t35 73q0 22 -8 37.5t-22 26.5t-33.5 19.5t-42.5 15.5l-68 21q-61 19 -95.5 50t-34.5 95q0 63 47.5 101t127.5 38q51 0 92.5 -11.5t76.5 -31.5
v-129h-33q-11 68 -46.5 98t-94.5 30q-44 0 -73 -20t-29 -65q0 -37 21.5 -55t64.5 -31l76 -23q71 -21 106.5 -56.5t35.5 -102.5q0 -66 -53 -106t-142 -40z" />
    <glyph glyph-name="Scircumflex" unicode="&#x15c;" horiz-adv-x="635" 
d="M298 -10q-69 0 -133.5 17.5t-101.5 48.5l-7 187h27q22 -102 78.5 -154.5t143.5 -52.5q91 0 141 41t50 113q0 65 -38.5 99.5t-109.5 59.5l-113 41q-34 12 -64.5 28.5t-53.5 40t-37 56t-14 75.5t16 79.5t46.5 63.5t76 42t104.5 15q69 0 128.5 -18.5t99.5 -50.5v-167h-28
q-11 53 -28.5 89t-43 58.5t-59.5 32.5t-79 10q-75 0 -117 -38t-42 -100q0 -31 8.5 -53.5t24 -38.5t38.5 -27.5t52 -22.5l126 -47q41 -15 74.5 -33.5t57.5 -44t37.5 -59t13.5 -77.5q0 -49 -19.5 -88.5t-55.5 -67.5t-86.5 -42.5t-112.5 -14.5zM490 822h-34l-142 134l-142 -134
h-34l148 208h56z" />
    <glyph glyph-name="scircumflex" unicode="&#x15d;" horiz-adv-x="495" 
d="M418 592h-34l-142 134l-142 -134h-34l148 208h56zM242 -10q-59 0 -105 14.5t-75 36.5l-6 135h30q17 -69 56.5 -105.5t104.5 -36.5q52 0 87 22t35 73q0 22 -8 37.5t-22 26.5t-33.5 19.5t-42.5 15.5l-68 21q-61 19 -95.5 50t-34.5 95q0 63 47.5 101t127.5 38
q51 0 92.5 -11.5t76.5 -31.5v-129h-33q-11 68 -46.5 98t-94.5 30q-44 0 -73 -20t-29 -65q0 -37 21.5 -55t64.5 -31l76 -23q71 -21 106.5 -56.5t35.5 -102.5q0 -66 -53 -106t-142 -40z" />
    <glyph glyph-name="Scedilla" unicode="&#x15e;" horiz-adv-x="635" 
d="M572 203q0 -48 -19 -87t-53.5 -66.5t-83.5 -43t-108 -16.5l-6 -32q50 -14 83 -38t33 -69t-35.5 -73t-88.5 -28q-31 0 -52 7t-35 16l8 27q18 -7 36.5 -9t34.5 -2q35 0 55.5 14.5t20.5 38.5q0 29 -27.5 44.5t-69.5 23.5l18 80q-66 2 -125.5 19.5t-94.5 46.5l-7 187h27
q22 -102 78.5 -154.5t143.5 -52.5q91 0 141 41t50 113q0 65 -38.5 99.5t-109.5 59.5l-113 41q-34 12 -64.5 28.5t-53.5 40t-37 56t-14 75.5t16 79.5t46.5 63.5t76 42t104.5 15q69 0 128.5 -18.5t99.5 -50.5v-167h-28q-11 53 -28.5 89t-43 58.5t-59.5 32.5t-79 10
q-75 0 -117 -38t-42 -100q0 -31 8.5 -53.5t24 -38.5t38.5 -27.5t52 -22.5l126 -47q41 -15 74.5 -33.5t57.5 -44t37.5 -59t13.5 -77.5z" />
    <glyph glyph-name="scedilla" unicode="&#x15f;" horiz-adv-x="495" 
d="M437 136q0 -66 -53 -105.5t-141 -40.5l-6 -32q50 -14 83 -38t33 -69t-35.5 -73t-88.5 -28q-31 0 -52 7t-35 16l8 27q18 -7 36.5 -9t34.5 -2q35 0 55.5 14.5t20.5 38.5q0 29 -27.5 44.5t-69.5 23.5l18 81q-51 3 -90.5 16.5t-65.5 33.5l-6 135h30q17 -69 56.5 -105.5
t104.5 -36.5q52 0 87 22t35 73q0 22 -8 37.5t-22 26.5t-33.5 19.5t-42.5 15.5l-68 21q-61 19 -95.5 50t-34.5 95q0 63 47.5 101t127.5 38q51 0 92.5 -11.5t76.5 -31.5v-129h-33q-11 68 -46.5 98t-94.5 30q-44 0 -73 -20t-29 -65q0 -37 21.5 -55t64.5 -31l76 -23
q71 -21 106.5 -56.5t35.5 -102.5z" />
    <glyph glyph-name="Scaron" unicode="&#x160;" horiz-adv-x="635" 
d="M298 -10q-69 0 -133.5 17.5t-101.5 48.5l-7 187h27q22 -102 78.5 -154.5t143.5 -52.5q91 0 141 41t50 113q0 65 -38.5 99.5t-109.5 59.5l-113 41q-34 12 -64.5 28.5t-53.5 40t-37 56t-14 75.5t16 79.5t46.5 63.5t76 42t104.5 15q69 0 128.5 -18.5t99.5 -50.5v-167h-28
q-11 53 -28.5 89t-43 58.5t-59.5 32.5t-79 10q-75 0 -117 -38t-42 -100q0 -31 8.5 -53.5t24 -38.5t38.5 -27.5t52 -22.5l126 -47q41 -15 74.5 -33.5t57.5 -44t37.5 -59t13.5 -77.5q0 -49 -19.5 -88.5t-55.5 -67.5t-86.5 -42.5t-112.5 -14.5zM138 1030h34l142 -134l142 134
h34l-148 -208h-56z" />
    <glyph glyph-name="scaron" unicode="&#x161;" horiz-adv-x="495" 
d="M66 800h34l142 -134l142 134h34l-148 -208h-56zM242 -10q-59 0 -105 14.5t-75 36.5l-6 135h30q17 -69 56.5 -105.5t104.5 -36.5q52 0 87 22t35 73q0 22 -8 37.5t-22 26.5t-33.5 19.5t-42.5 15.5l-68 21q-61 19 -95.5 50t-34.5 95q0 63 47.5 101t127.5 38q51 0 92.5 -11.5
t76.5 -31.5v-129h-33q-11 68 -46.5 98t-94.5 30q-44 0 -73 -20t-29 -65q0 -37 21.5 -55t64.5 -31l76 -23q71 -21 106.5 -56.5t35.5 -102.5q0 -66 -53 -106t-142 -40z" />
    <glyph glyph-name="Tcommaaccent" unicode="&#x162;" horiz-adv-x="815" 
d="M391 -164q-44 11 -44 52q0 24 16 40t43 16q35 0 51 -23.5t16 -52.5q0 -21 -5.5 -41.5t-19.5 -37t-37 -27.5t-59 -12v34q37 4 52 18.5t21 33.5h-34zM756 780l18 -196h-24q-22 45 -37.5 74.5t-34.5 47t-45.5 24.5t-69.5 7h-116v-621q0 -26 9 -42t25.5 -24.5t39.5 -12
t51 -4.5v-33h-330v33q28 1 51 4.5t39.5 12t25.5 24.5t9 42v621h-115q-43 0 -69.5 -7t-45.5 -24.5t-34.5 -47t-37.5 -74.5h-24l17 196h698z" />
    <glyph glyph-name="tcommaaccent" unicode="&#x163;" horiz-adv-x="398" 
d="M189 -164q-44 11 -44 52q0 24 16 40t43 16q35 0 51 -23.5t16 -52.5q0 -21 -5.5 -41.5t-19.5 -37t-37 -27.5t-59 -12v34q37 4 52 18.5t21 33.5h-34zM185 523h161v-43h-161v-331q0 -105 99 -105q20 0 38.5 4t39.5 14l9 -19q-17 -19 -48 -36t-75 -17q-29 0 -54.5 7.5t-44 24
t-29 41.5t-10.5 61v356h-77v23q18 13 34 25.5t32 27.5t32 33.5t34 42.5h20v-109z" />
    <glyph glyph-name="Tcaron" unicode="&#x164;" horiz-adv-x="815" 
d="M229 1030h34l142 -134l142 134h34l-148 -208h-56zM756 780l18 -196h-24q-22 45 -37.5 74.5t-34.5 47t-45.5 24.5t-69.5 7h-116v-621q0 -26 9 -42t25.5 -24.5t39.5 -12t51 -4.5v-33h-330v33q28 1 51 4.5t39.5 12t25.5 24.5t9 42v621h-115q-43 0 -69.5 -7t-45.5 -24.5
t-34.5 -47t-37.5 -74.5h-24l17 196h698z" />
    <glyph glyph-name="tcaron" unicode="&#x165;" horiz-adv-x="398" 
d="M329 800l-56 -208h-32l13 208h75zM185 523h161v-43h-161v-331q0 -105 99 -105q20 0 38.5 4t39.5 14l9 -19q-17 -19 -48 -36t-75 -17q-29 0 -54.5 7.5t-44 24t-29 41.5t-10.5 61v356h-77v23q18 13 34 25.5t32 27.5t32 33.5t34 42.5h20v-109z" />
    <glyph glyph-name="Tbar" unicode="&#x166;" horiz-adv-x="815" 
d="M756 780l18 -196h-24q-22 45 -37.5 74.5t-34.5 47t-45.5 24.5t-69.5 7h-116v-340h174v-47h-174v-234q0 -26 9 -42t25.5 -24.5t39.5 -12t51 -4.5v-33h-330v33q28 1 51 4.5t39.5 12t25.5 24.5t9 42v234h-171v47h171v340h-115q-43 0 -69.5 -7t-45.5 -24.5t-34.5 -47
t-37.5 -74.5h-24l17 196h698z" />
    <glyph glyph-name="tbar" unicode="&#x167;" horiz-adv-x="398" 
d="M33 344h77v136h-77v23q18 13 34 25.5t32 27.5t32 33.5t34 42.5h22v-109h159v-43h-159v-136h157v-43h-157v-152q0 -53 23 -79t74 -26q20 0 38.5 4t39.5 14l9 -19q-17 -19 -48 -36t-75 -17q-29 0 -54.5 7.5t-44 24t-29 41.5t-10.5 61v177h-77v43z" />
    <glyph glyph-name="Utilde" unicode="&#x168;" horiz-adv-x="876" 
d="M524 850q-24 0 -45 9.5t-39.5 20.5t-35.5 20.5t-34 9.5q-25 0 -38.5 -9.5t-31.5 -42.5l-33 4q18 49 48 77t76 28q24 0 45 -9.5t39.5 -20.5t35.5 -20.5t34 -9.5q26 0 39 9.5t31 42.5l33 -4q-18 -50 -48 -77.5t-76 -27.5zM215 285q0 -59 16.5 -103.5t46 -74t70.5 -44.5
t91 -15q125 0 188.5 59.5t63.5 180.5v376q0 26 -8 42t-23.5 24.5t-37.5 12t-50 4.5v33h294v-33q-28 -1 -50.5 -4.5t-38.5 -12t-24.5 -24.5t-8.5 -42v-399q0 -67 -24.5 -118.5t-66 -86.5t-97 -52.5t-117.5 -17.5q-68 0 -124 17t-96.5 51.5t-62.5 86.5t-22 122v397q0 26 -9 42
t-25 24.5t-39 12t-51 4.5v33h329v-33q-28 -1 -51 -4.5t-39 -12t-25 -24.5t-9 -42v-379z" />
    <glyph glyph-name="utilde" unicode="&#x169;" horiz-adv-x="670" 
d="M466 91q-16 -18 -35.5 -36t-42.5 -32.5t-51 -23.5t-61 -9q-35 0 -65 9t-52.5 29t-35 51.5t-12.5 77.5v283q0 29 -16 36.5t-58 12.5l-18 1v33l151 10h22l-5 -106v-262q0 -62 31.5 -89.5t81.5 -27.5t91 27t75 58v307q0 29 -16 36.5t-58 12.5l-19 1v33l152 10h22l-5 -106
v-324q0 -13 2.5 -20t9.5 -11.5t19.5 -6.5t31.5 -5l28 -4v-30l-164 -36h-8zM393 610q-24 0 -45 9t-39.5 20.5t-35.5 20.5t-34 9q-13 0 -22 -2t-16.5 -7.5t-15 -15.5t-16.5 -27l-33 5q18 49 48 77t76 28q24 0 45 -9.5t39.5 -20.5t35.5 -20.5t34 -9.5q26 0 39 9.5t31 42.5
l33 -4q-18 -50 -48 -77.5t-76 -27.5z" />
    <glyph glyph-name="Umacron" unicode="&#x16a;" horiz-adv-x="876" 
d="M325 932h264v-52h-264v52zM215 285q0 -59 16.5 -103.5t46 -74t70.5 -44.5t91 -15q125 0 188.5 59.5t63.5 180.5v376q0 26 -8 42t-23.5 24.5t-37.5 12t-50 4.5v33h294v-33q-28 -1 -50.5 -4.5t-38.5 -12t-24.5 -24.5t-8.5 -42v-399q0 -67 -24.5 -118.5t-66 -86.5t-97 -52.5
t-117.5 -17.5q-68 0 -124 17t-96.5 51.5t-62.5 86.5t-22 122v397q0 26 -9 42t-25 24.5t-39 12t-51 4.5v33h329v-33q-28 -1 -51 -4.5t-39 -12t-25 -24.5t-9 -42v-379z" />
    <glyph glyph-name="umacron" unicode="&#x16b;" horiz-adv-x="670" 
d="M466 91q-16 -18 -35.5 -36t-42.5 -32.5t-51 -23.5t-61 -9q-35 0 -65 9t-52.5 29t-35 51.5t-12.5 77.5v283q0 29 -16 36.5t-58 12.5l-18 1v33l151 10h22l-5 -106v-262q0 -62 31.5 -89.5t81.5 -27.5t91 27t75 58v307q0 29 -16 36.5t-58 12.5l-19 1v33l152 10h22l-5 -106
v-324q0 -13 2.5 -20t9.5 -11.5t19.5 -6.5t31.5 -5l28 -4v-30l-164 -36h-8zM194 704h264v-52h-264v52z" />
    <glyph glyph-name="Ubreve" unicode="&#x16c;" horiz-adv-x="876" 
d="M457 833q-93 0 -133 52.5t-40 146.5h36q5 -39 17.5 -66t31 -43.5t41 -23.5t47.5 -7t47.5 7t41 23.5t31.5 43.5t17 66h36q0 -94 -40 -146.5t-133 -52.5zM215 285q0 -59 16.5 -103.5t46 -74t70.5 -44.5t91 -15q125 0 188.5 59.5t63.5 180.5v376q0 26 -8 42t-23.5 24.5
t-37.5 12t-50 4.5v33h294v-33q-28 -1 -50.5 -4.5t-38.5 -12t-24.5 -24.5t-8.5 -42v-399q0 -67 -24.5 -118.5t-66 -86.5t-97 -52.5t-117.5 -17.5q-68 0 -124 17t-96.5 51.5t-62.5 86.5t-22 122v397q0 26 -9 42t-25 24.5t-39 12t-51 4.5v33h329v-33q-28 -1 -51 -4.5t-39 -12
t-25 -24.5t-9 -42v-379z" />
    <glyph glyph-name="ubreve" unicode="&#x16d;" horiz-adv-x="670" 
d="M466 91q-16 -18 -35.5 -36t-42.5 -32.5t-51 -23.5t-61 -9q-35 0 -65 9t-52.5 29t-35 51.5t-12.5 77.5v283q0 29 -16 36.5t-58 12.5l-18 1v33l151 10h22l-5 -106v-262q0 -62 31.5 -89.5t81.5 -27.5t91 27t75 58v307q0 29 -16 36.5t-58 12.5l-19 1v33l152 10h22l-5 -106
v-324q0 -13 2.5 -20t9.5 -11.5t19.5 -6.5t31.5 -5l28 -4v-30l-164 -36h-8zM326 601q-93 0 -133 52.5t-40 146.5h36q5 -39 17.5 -66t31 -43.5t41 -23.5t47.5 -7t47.5 7t41 23.5t31.5 43.5t17 66h36q0 -94 -40 -146.5t-133 -52.5z" />
    <glyph glyph-name="Uring" unicode="&#x16e;" horiz-adv-x="876" 
d="M215 285q0 -59 16.5 -103.5t46 -74t70.5 -44.5t91 -15q125 0 188.5 59.5t63.5 180.5v376q0 26 -8 42t-23.5 24.5t-37.5 12t-50 4.5v33h294v-33q-28 -1 -50.5 -4.5t-38.5 -12t-24.5 -24.5t-8.5 -42v-399q0 -67 -24.5 -118.5t-66 -86.5t-97 -52.5t-117.5 -17.5
q-68 0 -124 17t-96.5 51.5t-62.5 86.5t-22 122v397q0 26 -9 42t-25 24.5t-39 12t-51 4.5v33h329v-33q-28 -1 -51 -4.5t-39 -12t-25 -24.5t-9 -42v-379zM345 926q0 48 30.5 81t81.5 33t81.5 -33t30.5 -81t-30.5 -81t-81.5 -33t-81.5 33t-30.5 81zM521 926q0 32 -15.5 53
t-48.5 21t-48 -21t-15 -53t15 -53t48 -21t48.5 21t15.5 53z" />
    <glyph glyph-name="uring" unicode="&#x16f;" horiz-adv-x="670" 
d="M214 693q0 48 30.5 81t81.5 33t81.5 -33t30.5 -81t-30.5 -81t-81.5 -33t-81.5 33t-30.5 81zM390 693q0 32 -15.5 53.5t-48.5 21.5t-48 -21.5t-15 -53.5q0 -31 15 -52.5t48 -21.5t48.5 21.5t15.5 52.5zM466 91q-16 -18 -35.5 -36t-42.5 -32.5t-51 -23.5t-61 -9
q-35 0 -65 9t-52.5 29t-35 51.5t-12.5 77.5v283q0 29 -16 36.5t-58 12.5l-18 1v33l151 10h22l-5 -106v-262q0 -62 31.5 -89.5t81.5 -27.5t91 27t75 58v307q0 29 -16 36.5t-58 12.5l-19 1v33l152 10h22l-5 -106v-324q0 -13 2.5 -20t9.5 -11.5t19.5 -6.5t31.5 -5l28 -4v-30
l-164 -36h-8z" />
    <glyph glyph-name="Uhungarumlaut" unicode="&#x170;" horiz-adv-x="876" 
d="M215 285q0 -59 16.5 -103.5t46 -74t70.5 -44.5t91 -15q125 0 188.5 59.5t63.5 180.5v376q0 26 -8 42t-23.5 24.5t-37.5 12t-50 4.5v33h294v-33q-28 -1 -50.5 -4.5t-38.5 -12t-24.5 -24.5t-8.5 -42v-399q0 -67 -24.5 -118.5t-66 -86.5t-97 -52.5t-117.5 -17.5
q-68 0 -124 17t-96.5 51.5t-62.5 86.5t-22 122v397q0 26 -9 42t-25 24.5t-39 12t-51 4.5v33h329v-33q-28 -1 -51 -4.5t-39 -12t-25 -24.5t-9 -42v-379zM523 1030l-122 -208h-36l67 208h91zM674 1030l-122 -208h-36l67 208h91z" />
    <glyph glyph-name="uhungarumlaut" unicode="&#x171;" horiz-adv-x="670" 
d="M466 91q-16 -18 -35.5 -36t-42.5 -32.5t-51 -23.5t-61 -9q-35 0 -65 9t-52.5 29t-35 51.5t-12.5 77.5v283q0 29 -16 36.5t-58 12.5l-18 1v33l151 10h22l-5 -106v-262q0 -62 31.5 -89.5t81.5 -27.5t91 27t75 58v307q0 29 -16 36.5t-58 12.5l-19 1v33l152 10h22l-5 -106
v-324q0 -13 2.5 -20t9.5 -11.5t19.5 -6.5t31.5 -5l28 -4v-30l-164 -36h-8zM378 800l-122 -208h-36l67 208h91zM529 800l-122 -208h-36l67 208h91z" />
    <glyph glyph-name="Uogonek" unicode="&#x172;" horiz-adv-x="876" 
d="M215 285q0 -59 16.5 -103.5t46 -74t70.5 -44.5t91 -15q125 0 188.5 59.5t63.5 180.5v376q0 26 -8 42t-23.5 24.5t-37.5 12t-50 4.5v33h294v-33q-28 -1 -50.5 -4.5t-38.5 -12t-24.5 -24.5t-8.5 -42v-399q0 -56 -17 -101t-47 -79t-71 -55.5t-89 -31.5q-43 -17 -75 -48.5
t-32 -78.5q0 -35 21.5 -54.5t58.5 -19.5q21 0 36 4.5t29 10.5l11 -22q-20 -20 -44 -30t-59 -10q-23 0 -44 6t-36.5 19.5t-25 35t-9.5 51.5q0 42 21.5 73.5t57.5 54.5q-66 1 -120.5 18.5t-93.5 52t-60.5 86t-21.5 120.5v397q0 26 -9 42t-25 24.5t-39 12t-51 4.5v33h329v-33
q-28 -1 -51 -4.5t-39 -12t-25 -24.5t-9 -42v-379z" />
    <glyph glyph-name="uogonek" unicode="&#x173;" horiz-adv-x="670" 
d="M466 91q-16 -18 -35.5 -36t-42.5 -32.5t-51 -23.5t-61 -9q-35 0 -65 9t-52.5 29t-35 51.5t-12.5 77.5v283q0 29 -16 36.5t-58 12.5l-18 1v33l151 10h22l-5 -106v-262q0 -62 31.5 -89.5t81.5 -27.5t91 27t75 58v307q0 29 -16 36.5t-58 12.5l-19 1v33l152 10h22l-5 -106
v-324q0 -13 2.5 -20t9.5 -11.5t19.5 -6.5t31.5 -5l28 -4v-30q-62 -20 -93 -61t-31 -94q0 -35 21.5 -54.5t58.5 -19.5q21 0 36 4.5t29 10.5l11 -22q-20 -20 -44 -30t-59 -10q-23 0 -44 6t-36.5 19.5t-25 35t-9.5 51.5q0 49 29 87t78 59l-85 -18h-8z" />
    <glyph glyph-name="Wcircumflex" unicode="&#x174;" horiz-adv-x="1148" 
d="M992 650q5 16 9 27t4 21q0 26 -26 36.5t-88 12.5v33h247v-33q-24 -4 -43 -11t-27 -30l-260 -718h-20l-208 518l-207 -518h-20l-273 718q-9 23 -27.5 30t-42.5 11v33h276v-33q-62 -2 -87.5 -12t-25.5 -36q0 -10 3.5 -20t9.5 -27l198 -521l170 431l-55 144
q-8 22 -26.5 29.5t-42.5 11.5v33h275v-33q-62 -2 -87.5 -12t-25.5 -36q0 -10 4 -22t9 -26l205 -521zM741 822h-34l-142 134l-142 -134h-34l148 208h56z" />
    <glyph glyph-name="wcircumflex" unicode="&#x175;" horiz-adv-x="856" 
d="M609 592h-34l-142 134l-142 -134h-34l148 208h56zM721 422q6 17 8 23.5t2 12.5q0 18 -18 24.5t-58 11.5v29h191v-29q-19 -6 -30 -10t-17 -8t-9 -9t-6 -13l-186 -466h-13l-154 362l-147 -362h-13l-199 466q-3 8 -6.5 13t-9.5 9t-17 8t-29 10v29h225v-29
q-42 -7 -60.5 -12.5t-18.5 -23.5q0 -6 2 -13.5t8 -22.5l128 -306l112 284l-21 54q-3 8 -6.5 13t-9.5 9t-17 8t-30 10v29h226v-29q-41 -6 -59.5 -12t-18.5 -24q0 -6 1 -13t8 -23l127 -304z" />
    <glyph glyph-name="Ycircumflex" unicode="&#x176;" horiz-adv-x="736" 
d="M568 656q17 26 17 47q0 11 -4.5 19t-16.5 13t-32.5 8t-52.5 4v33h247v-33q-24 -4 -40 -12t-30 -29l-246 -377v-213q0 -26 8 -42t23.5 -24.5t38 -12t50.5 -4.5v-33h-319v33q28 1 50.5 4.5t38 12t23.5 24.5t8 42v209l-251 381q-14 21 -30 29t-40 12v33h280v-33
q-63 -2 -85 -12t-22 -33q0 -10 4 -20.5t10 -20.5l190 -287zM560 822h-34l-142 134l-142 -134h-34l148 208h56z" />
    <glyph glyph-name="ycircumflex" unicode="&#x177;" horiz-adv-x="589" 
d="M74 450q-4 9 -7.5 14t-10 9.5t-17 9t-29.5 11.5v29h225v-29q-40 -5 -58 -11.5t-18 -24.5q0 -6 1 -11.5t6 -15.5l154 -347l134 347q4 10 5.5 15.5t1.5 11.5q0 18 -18 24.5t-58 11.5v29h194v-29q-18 -7 -29 -11t-17.5 -8.5t-10 -10t-7.5 -14.5l-232 -579
q-15 -38 -31.5 -61.5t-34 -37t-35.5 -18.5t-37 -5q-26 0 -45.5 10t-26.5 25v44h63q40 0 66.5 16t44.5 63l36 92zM467 592h-34l-142 134l-142 -134h-34l148 208h56z" />
    <glyph glyph-name="Ydieresis" unicode="&#x178;" horiz-adv-x="736" 
d="M568 656q17 26 17 47q0 11 -4.5 19t-16.5 13t-32.5 8t-52.5 4v33h247v-33q-24 -4 -40 -12t-30 -29l-246 -377v-213q0 -26 8 -42t23.5 -24.5t38 -12t50.5 -4.5v-33h-319v33q28 1 50.5 4.5t38 12t23.5 24.5t8 42v209l-251 381q-14 21 -30 29t-40 12v33h280v-33
q-63 -2 -85 -12t-22 -33q0 -10 4 -20.5t10 -20.5l190 -287zM225 909q0 23 16.5 40t39.5 17t40 -17t17 -40t-17 -39.5t-40 -16.5t-39.5 16.5t-16.5 39.5zM424 909q0 23 16.5 40t39.5 17t40 -17t17 -40t-17 -39.5t-40 -16.5t-39.5 16.5t-16.5 39.5z" />
    <glyph glyph-name="Zacute" unicode="&#x179;" horiz-adv-x="743" 
d="M485 44q39 0 65.5 10t46 30t36 50t36.5 69h26l-36 -203h-623v19l532 717h-311q-34 0 -56.5 -6t-40 -23t-33 -47t-36.5 -78h-22l3 198h608v-20l-530 -716h335zM533 1030l-149 -208h-33l81 208h101z" />
    <glyph glyph-name="zacute" unicode="&#x17a;" horiz-adv-x="525" 
d="M436 800l-149 -208h-33l81 208h101zM45 17l323 465h-174q-19 0 -35 -4t-29 -15.5t-23 -31.5t-18 -53h-33l14 170h33l12 -25h353v-18l-317 -464h180q19 0 37 5t34 18t28.5 36t19.5 58h30l-13 -158h-422v17z" />
    <glyph glyph-name="Zdotaccent" unicode="&#x17b;" horiz-adv-x="743" 
d="M315 909q0 25 16.5 42t41.5 17t42 -17t17 -42t-17 -41.5t-42 -16.5t-41.5 16.5t-16.5 41.5zM485 44q39 0 65.5 10t46 30t36 50t36.5 69h26l-36 -203h-623v19l532 717h-311q-34 0 -56.5 -6t-40 -23t-33 -47t-36.5 -78h-22l3 198h608v-20l-530 -716h335z" />
    <glyph glyph-name="zdotaccent" unicode="&#x17c;" horiz-adv-x="525" 
d="M45 17l323 465h-174q-19 0 -35 -4t-29 -15.5t-23 -31.5t-18 -53h-33l14 170h33l12 -25h353v-18l-317 -464h180q19 0 37 5t34 18t28.5 36t19.5 58h30l-13 -158h-422v17zM213 693q0 25 16.5 42t41.5 17t42 -17t17 -42t-17 -41.5t-42 -16.5t-41.5 16.5t-16.5 41.5z" />
    <glyph glyph-name="Zcaron" unicode="&#x17d;" horiz-adv-x="743" 
d="M197 1030h34l142 -134l142 134h34l-148 -208h-56zM485 44q39 0 65.5 10t46 30t36 50t36.5 69h26l-36 -203h-623v19l532 717h-311q-34 0 -56.5 -6t-40 -23t-33 -47t-36.5 -78h-22l3 198h608v-20l-530 -716h335z" />
    <glyph glyph-name="zcaron" unicode="&#x17e;" horiz-adv-x="525" 
d="M95 800h34l142 -134l142 134h34l-148 -208h-56zM45 17l323 465h-174q-19 0 -35 -4t-29 -15.5t-23 -31.5t-18 -53h-33l14 170h33l12 -25h353v-18l-317 -464h180q19 0 37 5t34 18t28.5 36t19.5 58h30l-13 -158h-422v17z" />
    <glyph glyph-name="florin" unicode="&#x192;" horiz-adv-x="518" 
d="M112 -216l57 611h-113l4 38h113l15 161q9 94 56 145t143 51q60 0 90.5 -21t30.5 -57q0 -20 -11 -34.5t-21 -19.5h-62q2 7 2.5 15t0.5 13q0 58 -57 58q-45 0 -65.5 -41.5t-26.5 -106.5l-15 -163h160l-4 -38h-161l-55 -611h-81z" />
    <glyph glyph-name="Scommaaccent" unicode="&#x218;" horiz-adv-x="635" 
d="M285 -164q-44 11 -44 52q0 24 16 40t43 16q35 0 51 -23.5t16 -52.5q0 -21 -5.5 -41.5t-19.5 -37t-37 -27.5t-59 -12v34q37 4 52 18.5t21 33.5h-34zM298 -10q-69 0 -133.5 17.5t-101.5 48.5l-7 187h27q22 -102 78.5 -154.5t143.5 -52.5q91 0 141 41t50 113
q0 65 -38.5 99.5t-109.5 59.5l-113 41q-34 12 -64.5 28.5t-53.5 40t-37 56t-14 75.5t16 79.5t46.5 63.5t76 42t104.5 15q69 0 128.5 -18.5t99.5 -50.5v-167h-28q-11 53 -28.5 89t-43 58.5t-59.5 32.5t-79 10q-75 0 -117 -38t-42 -100q0 -31 8.5 -53.5t24 -38.5t38.5 -27.5
t52 -22.5l126 -47q41 -15 74.5 -33.5t57.5 -44t37.5 -59t13.5 -77.5q0 -49 -19.5 -88.5t-55.5 -67.5t-86.5 -42.5t-112.5 -14.5z" />
    <glyph glyph-name="scommaaccent" unicode="&#x219;" horiz-adv-x="495" 
d="M226 -164q-44 11 -44 52q0 24 16 40t43 16q35 0 51 -23.5t16 -52.5q0 -21 -5.5 -41.5t-19.5 -37t-37 -27.5t-59 -12v34q37 4 52 18.5t21 33.5h-34zM242 -10q-59 0 -105 14.5t-75 36.5l-6 135h30q17 -69 56.5 -105.5t104.5 -36.5q52 0 87 22t35 73q0 22 -8 37.5t-22 26.5
t-33.5 19.5t-42.5 15.5l-68 21q-61 19 -95.5 50t-34.5 95q0 63 47.5 101t127.5 38q51 0 92.5 -11.5t76.5 -31.5v-129h-33q-11 68 -46.5 98t-94.5 30q-44 0 -73 -20t-29 -65q0 -37 21.5 -55t64.5 -31l76 -23q71 -21 106.5 -56.5t35.5 -102.5q0 -66 -53 -106t-142 -40z" />
    <glyph glyph-name="dotlessj" unicode="&#x237;" horiz-adv-x="279" 
d="M35 463v20l127 48h34l-5 -107v-375q0 -30 -0.5 -50.5t-2.5 -36.5t-5.5 -29.5t-10.5 -29.5q-7 -18 -21 -38t-31.5 -40t-36 -39t-35.5 -36l-21 19l50 79q25 38 31.5 82t6.5 103v404z" />
    <glyph glyph-name="circumflex" unicode="&#x2c6;" horiz-adv-x="600" 
d="M476 592h-34l-142 134l-142 -134h-34l148 208h56z" />
    <glyph glyph-name="caron" unicode="&#x2c7;" horiz-adv-x="600" 
d="M124 800h34l142 -134l142 134h34l-148 -208h-56z" />
    <glyph glyph-name="breve" unicode="&#x2d8;" horiz-adv-x="600" 
d="M300 601q-93 0 -133 52.5t-40 146.5h36q5 -39 17.5 -66t31 -43.5t41 -23.5t47.5 -7t47.5 7t41 23.5t31.5 43.5t17 66h36q0 -94 -40 -146.5t-133 -52.5z" />
    <glyph glyph-name="dotaccent" unicode="&#x2d9;" horiz-adv-x="600" 
d="M241 693q0 25 16.5 42t41.5 17t42 -17t17 -42t-17 -41.5t-42 -16.5t-41.5 16.5t-16.5 41.5z" />
    <glyph glyph-name="ring" unicode="&#x2da;" horiz-adv-x="600" 
d="M188 693q0 48 30.5 81t81.5 33t81.5 -33t30.5 -81t-30.5 -81t-81.5 -33t-81.5 33t-30.5 81zM364 693q0 32 -15.5 53.5t-48.5 21.5t-48 -21.5t-15 -53.5q0 -31 15 -52.5t48 -21.5t48.5 21.5t15.5 52.5z" />
    <glyph glyph-name="ogonek" unicode="&#x2db;" horiz-adv-x="600" 
d="M381 0q-25 -8 -48 -19t-41 -27t-28.5 -36.5t-10.5 -46.5q0 -35 21.5 -54.5t58.5 -19.5q21 0 36 4.5t29 10.5l11 -22q-20 -20 -44 -30t-59 -10q-23 0 -44 6t-36.5 19.5t-25 35t-9.5 51.5q0 32 13.5 58t37 46t55.5 35t69 25z" />
    <glyph glyph-name="tilde" unicode="&#x2dc;" horiz-adv-x="600" 
d="M366 610q-24 0 -45 9t-39.5 20.5t-35.5 20.5t-34 9q-13 0 -22 -2t-16.5 -7.5t-15 -15.5t-16.5 -27l-33 5q18 49 48 77t76 28q24 0 45 -9.5t39.5 -20.5t35.5 -20.5t34 -9.5q26 0 39 9.5t31 42.5l33 -4q-18 -50 -48 -77.5t-76 -27.5z" />
    <glyph glyph-name="hungarumlaut" unicode="&#x2dd;" horiz-adv-x="600" 
d="M303 800l-122 -208h-36l67 208h91zM454 800l-122 -208h-36l67 208h91z" />
    <glyph glyph-name="uni0300" unicode="&#x300;" horiz-adv-x="600" 
d="M319 1030l84 -208h-45l-161 208h122z" />
    <glyph glyph-name="uni0301" unicode="&#x301;" horiz-adv-x="600" 
d="M403 1030l-161 -208h-45l84 208h122z" />
    <glyph glyph-name="uni0302" unicode="&#x302;" horiz-adv-x="600" 
d="M484 822h-46l-138 124l-138 -124h-46l150 208h68z" />
    <glyph glyph-name="uni0303" unicode="&#x303;" horiz-adv-x="600" 
d="M365 859q-24 0 -44.5 9t-39 20.5t-35.5 20.5t-34 9q-25 0 -38.5 -10.5t-30.5 -42.5l-39 6q21 62 51.5 92.5t78.5 30.5q24 0 44.5 -9t39 -20.5t36 -20.5t33.5 -9q25 0 38.5 10.5t30.5 42.5l39 -6q-21 -62 -51.5 -92.5t-78.5 -30.5z" />
    <glyph glyph-name="uni0304" unicode="&#x304;" horiz-adv-x="600" 
d="M164 958h272v-64h-272v64z" />
    <glyph glyph-name="uni0306" unicode="&#x306;" horiz-adv-x="600" 
d="M300 832q-97 0 -137.5 52t-40.5 146h44q4 -37 16 -62t30 -40t40.5 -21.5t47.5 -6.5t47.5 6.5t40.5 21.5t30 40t16 62h44q0 -94 -40.5 -146t-137.5 -52z" />
    <glyph glyph-name="uni0307" unicode="&#x307;" horiz-adv-x="600" 
d="M230 926q0 29 20.5 49.5t49.5 20.5t49.5 -20.5t20.5 -49.5t-20.5 -49.5t-49.5 -20.5t-49.5 20.5t-20.5 49.5z" />
    <glyph glyph-name="uni0308" unicode="&#x308;" horiz-adv-x="600" 
d="M130 926q0 29 20.5 49.5t49.5 20.5t49.5 -20.5t20.5 -49.5t-20.5 -49.5t-49.5 -20.5t-49.5 20.5t-20.5 49.5zM330 926q0 29 20.5 49.5t49.5 20.5t49.5 -20.5t20.5 -49.5t-20.5 -49.5t-49.5 -20.5t-49.5 20.5t-20.5 49.5z" />
    <glyph glyph-name="uni030A" unicode="&#x30a;" horiz-adv-x="600" 
d="M186 926q0 48 31.5 81t82.5 33t82.5 -33t31.5 -81t-31.5 -81t-82.5 -33t-82.5 33t-31.5 81zM361 926q0 29 -14.5 48.5t-46.5 19.5t-46.5 -19.5t-14.5 -48.5t14.5 -48.5t46.5 -19.5t46.5 19.5t14.5 48.5z" />
    <glyph glyph-name="uni030B" unicode="&#x30b;" horiz-adv-x="600" 
d="M304 1030l-124 -208h-45l67 208h102zM464 1030l-124 -208h-45l67 208h102z" />
    <glyph glyph-name="uni030C" unicode="&#x30c;" horiz-adv-x="600" 
d="M116 1030h46l138 -124l138 124h46l-150 -208h-68z" />
    <glyph glyph-name="uni030F" unicode="&#x30f;" horiz-adv-x="600" 
d="M397 1030l67 -208h-45l-124 208h102zM237 1030l67 -208h-45l-124 208h102z" />
    <glyph glyph-name="uni0311" unicode="&#x311;" horiz-adv-x="600" 
d="M300 1020q97 0 137.5 -51.5t40.5 -146.5h-44q-4 37 -16 62t-30 40t-40.5 21.5t-47.5 6.5t-47.5 -6.5t-40.5 -21.5t-30 -40t-16 -62h-44q0 95 40.5 146.5t137.5 51.5z" />
    <glyph glyph-name="uni0312" unicode="&#x312;" horiz-adv-x="600" 
d="M319 706q44 -11 44 -52q0 -24 -16 -40t-43 -16q-35 0 -51 23.5t-16 52.5q0 21 5.5 41.5t19.5 37t37 27.5t59 12v-34q-37 -4 -52 -18.5t-21 -33.5h34z" />
    <glyph glyph-name="Wgrave" unicode="&#x1e80;" horiz-adv-x="1148" 
d="M992 650q5 16 9 27t4 21q0 26 -26 36.5t-88 12.5v33h247v-33q-24 -4 -43 -11t-27 -30l-260 -718h-20l-208 518l-207 -518h-20l-273 718q-9 23 -27.5 30t-42.5 11v33h276v-33q-62 -2 -87.5 -12t-25.5 -36q0 -10 3.5 -20t9.5 -27l198 -521l170 431l-55 144
q-8 22 -26.5 29.5t-42.5 11.5v33h275v-33q-62 -2 -87.5 -12t-25.5 -36q0 -10 4 -22t9 -26l205 -521zM493 1030l84 -208h-33l-149 208h98z" />
    <glyph glyph-name="wgrave" unicode="&#x1e81;" horiz-adv-x="856" 
d="M721 422q6 17 8 23.5t2 12.5q0 18 -18 24.5t-58 11.5v29h191v-29q-19 -6 -30 -10t-17 -8t-9 -9t-6 -13l-186 -466h-13l-154 362l-147 -362h-13l-199 466q-3 8 -6.5 13t-9.5 9t-17 8t-29 10v29h225v-29q-42 -7 -60.5 -12.5t-18.5 -23.5q0 -6 2 -13.5t8 -22.5l128 -306
l112 284l-21 54q-3 8 -6.5 13t-9.5 9t-17 8t-30 10v29h226v-29q-41 -6 -59.5 -12t-18.5 -24q0 -6 1 -13t8 -23l127 -304zM360 800l84 -208h-33l-149 208h98z" />
    <glyph glyph-name="Wacute" unicode="&#x1e82;" horiz-adv-x="1148" 
d="M992 650q5 16 9 27t4 21q0 26 -26 36.5t-88 12.5v33h247v-33q-24 -4 -43 -11t-27 -30l-260 -718h-20l-208 518l-207 -518h-20l-273 718q-9 23 -27.5 30t-42.5 11v33h276v-33q-62 -2 -87.5 -12t-25.5 -36q0 -10 3.5 -20t9.5 -27l198 -521l170 431l-55 144
q-8 22 -26.5 29.5t-42.5 11.5v33h275v-33q-62 -2 -87.5 -12t-25.5 -36q0 -10 4 -22t9 -26l205 -521zM735 1030l-149 -208h-33l81 208h101z" />
    <glyph glyph-name="wacute" unicode="&#x1e83;" horiz-adv-x="856" 
d="M721 422q6 17 8 23.5t2 12.5q0 18 -18 24.5t-58 11.5v29h191v-29q-19 -6 -30 -10t-17 -8t-9 -9t-6 -13l-186 -466h-13l-154 362l-147 -362h-13l-199 466q-3 8 -6.5 13t-9.5 9t-17 8t-29 10v29h225v-29q-42 -7 -60.5 -12.5t-18.5 -23.5q0 -6 2 -13.5t8 -22.5l128 -306
l112 284l-21 54q-3 8 -6.5 13t-9.5 9t-17 8t-30 10v29h226v-29q-41 -6 -59.5 -12t-18.5 -24q0 -6 1 -13t8 -23l127 -304zM608 800l-149 -208h-33l81 208h101z" />
    <glyph glyph-name="Wdieresis" unicode="&#x1e84;" horiz-adv-x="1148" 
d="M992 650q5 16 9 27t4 21q0 26 -26 36.5t-88 12.5v33h247v-33q-24 -4 -43 -11t-27 -30l-260 -718h-20l-208 518l-207 -518h-20l-273 718q-9 23 -27.5 30t-42.5 11v33h276v-33q-62 -2 -87.5 -12t-25.5 -36q0 -10 3.5 -20t9.5 -27l198 -521l170 431l-55 144
q-8 22 -26.5 29.5t-42.5 11.5v33h275v-33q-62 -2 -87.5 -12t-25.5 -36q0 -10 4 -22t9 -26l205 -521zM406 909q0 23 16.5 40t39.5 17t40 -17t17 -40t-17 -39.5t-40 -16.5t-39.5 16.5t-16.5 39.5zM605 909q0 23 16.5 40t39.5 17t40 -17t17 -40t-17 -39.5t-40 -16.5t-39.5 16.5
t-16.5 39.5z" />
    <glyph glyph-name="wdieresis" unicode="&#x1e85;" horiz-adv-x="856" 
d="M721 422q6 17 8 23.5t2 12.5q0 18 -18 24.5t-58 11.5v29h191v-29q-19 -6 -30 -10t-17 -8t-9 -9t-6 -13l-186 -466h-13l-154 362l-147 -362h-13l-199 466q-3 8 -6.5 13t-9.5 9t-17 8t-29 10v29h225v-29q-42 -7 -60.5 -12.5t-18.5 -23.5q0 -6 2 -13.5t8 -22.5l128 -306
l112 284l-21 54q-3 8 -6.5 13t-9.5 9t-17 8t-30 10v29h226v-29q-41 -6 -59.5 -12t-18.5 -24q0 -6 1 -13t8 -23l127 -304zM274 691q0 23 16.5 40t39.5 17t40 -17t17 -40t-17 -39.5t-40 -16.5t-39.5 16.5t-16.5 39.5zM473 691q0 23 16.5 40t39.5 17t40 -17t17 -40t-17 -39.5
t-40 -16.5t-39.5 16.5t-16.5 39.5z" />
    <glyph glyph-name="Eszett" unicode="&#x1e9e;" horiz-adv-x="876" 
d="M594 -10q-23 0 -49.5 4.5t-53 13t-50.5 21t-42 27.5l-7 187h27q15 -58 33 -97.5t40.5 -64t49.5 -35t59 -10.5q75 0 113 41t38 113q0 65 -40 99t-107 46l-22 4q-25 5 -50 11.5t-46.5 18.5t-38 30.5t-26.5 46.5v19l178 241q-29 11 -64.5 18.5t-76.5 7.5
q-115 0 -179.5 -59.5t-64.5 -177.5v-379q0 -26 9 -42t25 -24.5t39 -12t51 -4.5v-33h-329v33q28 1 51 4.5t39 12t25 24.5t9 42v397q0 70 22.5 122t64.5 86.5t102.5 51.5t135.5 17q74 0 135 -19t98 -48v-20l-181 -247q13 -18 34 -26.5t53 -13.5l36 -7q39 -7 74 -23.5t61.5 -42
t42.5 -61t16 -79.5q0 -49 -17.5 -88.5t-49 -67.5t-74.5 -42.5t-93 -14.5z" />
    <glyph glyph-name="enspace" unicode="&#x2002;" horiz-adv-x="500" 
 />
    <glyph glyph-name="emspace" unicode="&#x2003;" horiz-adv-x="1000" 
 />
    <glyph glyph-name="threeperemspace" unicode="&#x2004;" horiz-adv-x="333" 
 />
    <glyph glyph-name="fourperemspace" unicode="&#x2005;" horiz-adv-x="250" 
 />
    <glyph glyph-name="sixperemspace" unicode="&#x2006;" horiz-adv-x="167" 
 />
    <glyph glyph-name="figurespace" unicode="&#x2007;" 
 />
    <glyph glyph-name="punctuationspace" unicode="&#x2008;" horiz-adv-x="280" 
 />
    <glyph glyph-name="thinspace" unicode="&#x2009;" horiz-adv-x="200" 
 />
    <glyph glyph-name="hairspace" unicode="&#x200a;" horiz-adv-x="100" 
 />
    <glyph glyph-name="zerowidthspace" unicode="&#x200b;" horiz-adv-x="0" 
 />
    <glyph glyph-name="figuredash" unicode="&#x2012;" 
d="M650 309h-600v58h600v-58z" />
    <glyph glyph-name="endash" unicode="&#x2013;" horiz-adv-x="500" 
d="M50 309v58h400v-58h-400z" />
    <glyph glyph-name="emdash" unicode="&#x2014;" horiz-adv-x="1000" 
d="M50 309v58h900v-58h-900z" />
    <glyph glyph-name="uni2015" unicode="&#x2015;" horiz-adv-x="1400" 
d="M1350 309h-1300v58h1300v-58z" />
    <glyph glyph-name="doublebar" unicode="&#x2016;" horiz-adv-x="385" 
d="M154 -121h-54v951h54v-951zM285 -121h-54v951h54v-951z" />
    <glyph glyph-name="quoteleft" unicode="&#x2018;" horiz-adv-x="251" 
d="M130 666q20 -5 32.5 -20.5t12.5 -38.5q0 -28 -18 -44t-46 -16q-19 0 -33 8.5t-23 22t-13.5 30.5t-4.5 34q0 28 9.5 56.5t30.5 53t53 42t77 21.5v-35q-64 -15 -89 -46.5t-25 -67.5h37z" />
    <glyph glyph-name="quoteright" unicode="&#x2019;" horiz-adv-x="251" 
d="M121 687q-20 5 -32.5 20.5t-12.5 38.5q0 28 18 44t46 16q20 0 34 -8.5t23 -22t13 -30.5t4 -34q0 -28 -9.5 -56.5t-30.5 -53t-53 -41.5t-77 -22v35q64 15 89 46.5t25 67.5h-37z" />
    <glyph glyph-name="quotesinglbase" unicode="&#x201a;" horiz-adv-x="251" 
d="M121 2q-20 5 -32.5 20.5t-12.5 38.5q0 28 18 44t46 16q20 0 34 -8.5t23 -22t13 -30.5t4 -34q0 -28 -9.5 -56.5t-30.5 -53t-53 -42t-77 -21.5v35q64 15 89 46.5t25 67.5h-37z" />
    <glyph glyph-name="reversequoteleft" unicode="&#x201b;" horiz-adv-x="251" 
d="M93 687q0 -36 25 -67.5t89 -46.5v-35q-45 5 -77 22t-53 41.5t-30.5 53t-9.5 56.5q0 17 4.5 34t13.5 30.5t23 22t33 8.5q28 0 46 -16t18 -44q0 -23 -12.5 -38.5t-32.5 -20.5h-37z" />
    <glyph glyph-name="quotedblleft" unicode="&#x201c;" horiz-adv-x="457" 
d="M130 666q20 -5 32.5 -20.5t12.5 -38.5q0 -28 -18 -44t-46 -16q-19 0 -33 8.5t-23 22t-13.5 30.5t-4.5 34q0 28 9.5 56.5t30.5 53t53 42t77 21.5v-35q-64 -15 -89 -46.5t-25 -67.5h37zM336 666q20 -5 32.5 -20.5t12.5 -38.5q0 -28 -18 -44t-46 -16q-19 0 -33 8.5t-23 22
t-13.5 30.5t-4.5 34q0 28 9.5 56.5t30.5 53t53 42t77 21.5v-35q-64 -15 -89 -46.5t-25 -67.5h37z" />
    <glyph glyph-name="quotedblright" unicode="&#x201d;" horiz-adv-x="457" 
d="M327 688q-20 5 -32.5 20.5t-12.5 38.5q0 28 18 44t46 16q20 0 34 -8.5t23 -22t13 -30.5t4 -34q0 -28 -9.5 -56.5t-30.5 -53t-53 -41.5t-77 -22v35q64 15 89 46.5t25 67.5h-37zM121 688q-20 5 -32.5 20.5t-12.5 38.5q0 28 18 44t46 16q20 0 34 -8.5t23 -22t13 -30.5t4 -34
q0 -28 -9.5 -56.5t-30.5 -53t-53 -41.5t-77 -22v35q64 15 89 46.5t25 67.5h-37z" />
    <glyph glyph-name="quotedblbase" unicode="&#x201e;" horiz-adv-x="457" 
d="M327 2q-20 5 -32.5 20.5t-12.5 38.5q0 28 18 44t46 16q20 0 34 -8.5t23 -22t13 -30.5t4 -34q0 -28 -9.5 -56.5t-30.5 -53t-53 -42t-77 -21.5v35q64 15 89 46.5t25 67.5h-37zM121 2q-20 5 -32.5 20.5t-12.5 38.5q0 28 18 44t46 16q20 0 34 -8.5t23 -22t13 -30.5t4 -34
q0 -28 -9.5 -56.5t-30.5 -53t-53 -42t-77 -21.5v35q64 15 89 46.5t25 67.5h-37z" />
    <glyph glyph-name="reversequotedblleft" unicode="&#x201f;" horiz-adv-x="457" 
d="M93 688q0 -36 25 -67.5t89 -46.5v-35q-45 5 -77 22t-53 41.5t-30.5 53t-9.5 56.5q0 17 4.5 34t13.5 30.5t23 22t33 8.5q28 0 46 -16t18 -44q0 -23 -12.5 -38.5t-32.5 -20.5h-37zM299 688q0 -36 25 -67.5t89 -46.5v-35q-45 5 -77 22t-53 41.5t-30.5 53t-9.5 56.5
q0 17 4.5 34t13.5 30.5t23 22t33 8.5q28 0 46 -16t18 -44q0 -23 -12.5 -38.5t-32.5 -20.5h-37z" />
    <glyph glyph-name="dagger" unicode="&#x2020;" horiz-adv-x="687" 
d="M381 780l10 -23l-35 -257l256 34l25 -10v-71l-25 -10l-256 34l35 -224l-32 -503h-31l-32 503l35 224l-256 -34l-25 10v71l25 10l256 -34l-35 257l10 23h75z" />
    <glyph glyph-name="daggerdbl" unicode="&#x2021;" horiz-adv-x="687" 
d="M331 477l-256 -34l-25 10v71l25 10l256 -34l-35 257l10 23h75l10 -23l-35 -257l256 34l25 -10v-71l-25 -10l-256 34l36 -208l-36 -206l256 34l25 -10v-71l-25 -10l-256 34l35 -257l-10 -23h-75l-10 23l35 257l-256 -34l-25 10v71l25 10l256 -34l-34 206z" />
    <glyph glyph-name="bullet" unicode="&#x2022;" horiz-adv-x="385" 
d="M89 333q0 21 8 40t22 33.5t33 22.5t40 8t40 -8t33.5 -22.5t22.5 -33.5t8 -40t-8 -40t-22.5 -33t-33.5 -22t-40 -8t-40 8t-33 22t-22 33t-8 40z" />
    <glyph glyph-name="ellipsis" unicode="&#x2026;" horiz-adv-x="1000" 
d="M97 53q0 26 18.5 45t44.5 19t45 -19t19 -45t-19 -44.5t-45 -18.5t-44.5 18.5t-18.5 44.5zM436 53q0 26 18.5 45t44.5 19t45 -19t19 -45t-19 -44.5t-45 -18.5t-44.5 18.5t-18.5 44.5zM776 53q0 26 18.5 45t44.5 19t45 -19t19 -45t-19 -44.5t-45 -18.5t-44.5 18.5
t-18.5 44.5z" />
    <glyph glyph-name="perthousand" unicode="&#x2030;" horiz-adv-x="1383" 
d="M50 583q0 104 51.5 155.5t133.5 51.5t133.5 -51.5t51.5 -155.5q0 -103 -51.5 -155t-133.5 -52t-133.5 52t-51.5 155zM348 583q0 76 -26.5 120.5t-86.5 44.5t-86.5 -44.5t-26.5 -120.5t26.5 -120.5t86.5 -44.5t86.5 44.5t26.5 120.5zM247 0h-55l517 780h55zM906 197
q0 -103 -51.5 -155t-133.5 -52t-133.5 52t-51.5 155q0 104 51.5 155.5t133.5 51.5t133.5 -51.5t51.5 -155.5zM608 197q0 -76 26.5 -120.5t86.5 -44.5t86.5 44.5t26.5 120.5t-26.5 120.5t-86.5 44.5t-86.5 -44.5t-26.5 -120.5zM1333 197q0 -103 -51.5 -155t-133.5 -52
t-133.5 52t-51.5 155q0 104 51.5 155.5t133.5 51.5t133.5 -51.5t51.5 -155.5zM1035 197q0 -76 26.5 -120.5t86.5 -44.5t86.5 44.5t26.5 120.5t-26.5 120.5t-86.5 44.5t-86.5 -44.5t-26.5 -120.5z" />
    <glyph glyph-name="minute" unicode="&#x2032;" horiz-adv-x="166" 
d="M144 780l-46 -250h-28v250h74z" />
    <glyph glyph-name="second" unicode="&#x2033;" horiz-adv-x="310" 
d="M144 780l-46 -250h-28v250h74zM288 780l-46 -250h-28v250h74z" />
    <glyph glyph-name="tripleprime" unicode="&#x2034;" horiz-adv-x="485" 
d="M69 524l-26 256h95l-26 -256h-43zM221 524l-26 256h95l-26 -256h-43zM373 524l-26 256h95l-26 -256h-43z" />
    <glyph glyph-name="guilsinglleft" unicode="&#x2039;" horiz-adv-x="301" 
d="M41 279l169 190h37l-128 -195l128 -195h-37l-169 190v10z" />
    <glyph glyph-name="guilsinglright" unicode="&#x203a;" horiz-adv-x="301" 
d="M260 269l-169 -190h-37l128 195l-128 195h37l169 -190v-10z" />
    <glyph glyph-name="interrobang" unicode="&#x203d;" horiz-adv-x="510" 
d="M395 620q0 33 -11 57t-30.5 39t-45 22.5t-54.5 7.5q-64 0 -93 -33t-29 -95v-16h-65q-9 10 -14.5 23t-5.5 33q0 26 13.5 49.5t39 42t62.5 29.5t83 11q51 0 93.5 -10.5t72.5 -32t46.5 -55t16.5 -80.5q0 -68 -33.5 -117.5t-94.5 -95.5q-25 -19 -42.5 -35t-28.5 -32.5
t-15.5 -36t-4.5 -46.5v-54h-25q-12 16 -22.5 39t-10.5 52q0 27 6.5 47.5t20.5 40.5l-19 195v46h90v-46l-14 -138l9 8q28 24 48 43t32.5 39.5t18.5 44t6 54.5zM178 53q0 26 18.5 45t44.5 19t45 -19t19 -45t-19 -44.5t-45 -18.5t-44.5 18.5t-18.5 44.5z" />
    <glyph glyph-name="fraction" unicode="&#x2044;" horiz-adv-x="283" 
d="M374 780h57l-522 -780h-57z" />
    <glyph glyph-name="uni2070" unicode="&#x2070;" horiz-adv-x="443" 
d="M119 538q0 -44 3.5 -83t14.5 -68t31 -45.5t54 -16.5t54 16.5t31 45.5t14.5 68t3.5 83t-3.5 83t-14.5 68t-31 45.5t-54 16.5t-54 -16.5t-31 -45.5t-14.5 -68t-3.5 -83zM402 538q0 -113 -44.5 -180.5t-135.5 -67.5t-135.5 67.5t-44.5 180.5t44.5 180.5t135.5 67.5
t135.5 -67.5t44.5 -180.5z" />
    <glyph glyph-name="uni2074" unicode="&#x2074;" horiz-adv-x="442" 
d="M273 462v217l-196 -217h196zM273 296v126h-257v30l293 328h35v-318h77v-40h-77v-126h-71z" />
    <glyph glyph-name="uni2075" unicode="&#x2075;" horiz-adv-x="437" 
d="M209 322q48 0 73.5 26t25.5 78q0 36 -16.5 61.5t-45.5 42t-68 24.5t-85 8l37 218h151q12 0 20.5 1t14.5 4t12 9.5t13 17.5h31l-28 -98h-190l-16 -96q51 -3 93 -15t73 -33t48 -52t17 -71q0 -36 -13 -65.5t-35.5 -49.5t-53.5 -31t-66 -11q-39 0 -68 8.5t-48 22.5t-28.5 32
t-9.5 37t8.5 32t19.5 19h42v-27q0 -41 20 -66.5t72 -25.5z" />
    <glyph glyph-name="uni2076" unicode="&#x2076;" horiz-adv-x="425" 
d="M332 756q-100 -29 -147 -79t-62 -118q19 18 49 33t71 15q31 0 58 -9.5t47.5 -28.5t32 -46.5t11.5 -63.5q0 -37 -13.5 -68.5t-36.5 -53.5t-55 -34.5t-69 -12.5q-42 0 -74.5 16t-55 43t-34.5 64t-12 79q0 53 18.5 100t53.5 85.5t86 66t117 40.5zM210 561q-31 0 -54.5 -9.5
t-38.5 -21.5q-2 -9 -2 -19.5v-19.5q0 -78 30 -121.5t80 -43.5q48 0 74.5 29.5t26.5 82.5q0 55 -30.5 89t-85.5 34z" />
    <glyph glyph-name="uni2077" unicode="&#x2077;" horiz-adv-x="423" 
d="M120 714q-23 0 -35 -17t-24 -49h-26l22 132h330v-20l-196 -464h-75l221 418h-217z" />
    <glyph glyph-name="uni2078" unicode="&#x2078;" horiz-adv-x="425" 
d="M365 670q0 -20 -9 -38.5t-23.5 -33t-32.5 -25.5t-36 -16l25 -11q42 -18 68.5 -46t26.5 -75q0 -28 -10 -52.5t-31 -43t-53.5 -29t-76.5 -10.5q-78 0 -125.5 35t-47.5 92q0 47 31 79.5t77 46.5l-8 4q-35 18 -58.5 42.5t-23.5 71.5q0 53 40 89t112 36t113.5 -31t41.5 -85z
M175 531q-42 -22 -57 -52.5t-15 -56.5q0 -47 30.5 -71.5t80.5 -24.5q48 0 76.5 23.5t28.5 62.5q0 33 -18 52.5t-54 35.5zM241 569q37 21 50 45.5t13 57.5q0 36 -26 56.5t-68 20.5t-65.5 -19t-23.5 -55q0 -30 17.5 -48.5t50.5 -33.5z" />
    <glyph glyph-name="uni2079" unicode="&#x2079;" horiz-adv-x="425" 
d="M93 318q100 29 147 79t62 118q-19 -18 -49 -33t-71 -15q-31 0 -58 9.5t-47.5 28.5t-32 46.5t-11.5 63.5q0 38 13.5 69t36.5 53t55 34.5t69 12.5q42 0 74.5 -16t55 -43t34.5 -64t12 -79q0 -52 -18.5 -99.5t-53.5 -86t-86 -66t-117 -40.5zM215 513q31 0 54.5 9.5t38.5 21.5
q2 9 2 19.5v19.5q0 78 -30 121.5t-80 43.5q-48 0 -74.5 -29.5t-26.5 -82.5q0 -55 30.5 -89t85.5 -34z" />
    <glyph glyph-name="uni207A" unicode="&#x207a;" horiz-adv-x="438" 
d="M197 502h-147v39h147v149h44v-149h147v-39h-147v-151h-44v151z" />
    <glyph glyph-name="uni207B" unicode="&#x207b;" horiz-adv-x="438" 
d="M50 502v39h338v-39h-338z" />
    <glyph glyph-name="uni207C" unicode="&#x207c;" horiz-adv-x="438" 
d="M50 457v40h338v-40h-338zM50 546v39h338v-39h-338z" />
    <glyph glyph-name="uni207D" unicode="&#x207d;" horiz-adv-x="244" 
d="M40 528q0 94 37.5 166t107.5 133l26 -24q-26 -26 -48.5 -54.5t-39.5 -62t-27 -72.5t-10 -86q0 -46 10 -85.5t27 -73t39.5 -62t48.5 -54.5l-26 -24q-70 61 -107.5 133t-37.5 166z" />
    <glyph glyph-name="uni207E" unicode="&#x207e;" horiz-adv-x="241" 
d="M201 528q0 -94 -36.5 -166t-105.5 -133l-26 24q26 26 48 54.5t38.5 62t26 73t9.5 85.5q0 47 -9.5 86t-26 72.5t-38.5 62t-48 54.5l26 24q69 -61 105.5 -133t36.5 -166z" />
    <glyph glyph-name="n.superior" unicode="&#x207f;" horiz-adv-x="495" 
d="M347 602q0 38 -18 52t-53 14q-28 0 -59.5 -12.5t-53.5 -29.5v-207q0 -24 16 -30t39 -9v-28h-180v28q24 3 39 9t15 30v230l-51 25v16l101 36h25l-4 -68q23 25 61 46t79 21q51 0 83 -26.5t32 -87.5v-192q0 -24 15.5 -30t39.5 -9v-28h-180v28q24 3 39 9t15 30v183z" />
    <glyph glyph-name="uni2080" unicode="&#x2080;" horiz-adv-x="443" 
d="M119 242q0 -44 3.5 -83t14.5 -68t31 -45.5t54 -16.5t54 16.5t31 45.5t14.5 68t3.5 83t-3.5 83t-14.5 68t-31 45.5t-54 16.5t-54 -16.5t-31 -45.5t-14.5 -68t-3.5 -83zM402 242q0 -113 -44.5 -180.5t-135.5 -67.5t-135.5 67.5t-44.5 180.5t44.5 180.5t135.5 67.5
t135.5 -67.5t44.5 -180.5z" />
    <glyph glyph-name="uni2081" unicode="&#x2081;" horiz-adv-x="411" 
d="M239 490v-412q0 -31 33 -38.5t90 -10.5v-29h-316v29q28 2 51 3.5t39.5 6.5t25.5 14t9 25v303h-125v23l25 3q45 7 84 27.5t70 55.5h14z" />
    <glyph glyph-name="uni2082" unicode="&#x2082;" horiz-adv-x="415" 
d="M237 60q23 0 38 2t27 9t22.5 21.5t23.5 38.5h20l-18 -131h-326v18l128 131q35 36 57.5 61.5t36 46t19 38.5t5.5 39q0 48 -26.5 72t-73.5 24q-42 0 -69.5 -20t-50.5 -43l-15 17q11 20 26 39t35 34t45.5 24t55.5 9q70 0 107 -37.5t37 -100.5q0 -36 -18.5 -70t-50 -69
t-73.5 -72t-88 -81h126z" />
    <glyph glyph-name="uni2083" unicode="&#x2083;" horiz-adv-x="433" 
d="M237 269q65 -8 102.5 -45.5t37.5 -92.5q0 -36 -14 -61.5t-38 -42.5t-55 -25t-64 -8q-38 0 -67 9t-49 23t-30.5 32.5t-10.5 37.5q0 18 9 30.5t20 18.5h41v-24q0 -43 23 -68.5t72 -25.5q43 0 68 23t25 72q0 31 -10 51.5t-28 33t-42.5 18t-53.5 5.5h-30v22q30 10 56 21
t44.5 24.5t29.5 31t11 39.5q0 33 -19.5 51t-61.5 18t-70.5 -20.5t-48.5 -41.5l-16 17q22 42 58.5 70t96.5 28q32 0 56 -8.5t40 -23t24 -33t8 -38.5q0 -25 -11 -43.5t-28 -32.5t-37 -24t-38 -18z" />
    <glyph glyph-name="uni2084" unicode="&#x2084;" horiz-adv-x="442" 
d="M273 166v217l-196 -217h196zM273 0v126h-257v30l293 328h35v-318h77v-40h-77v-126h-71z" />
    <glyph glyph-name="uni2085" unicode="&#x2085;" horiz-adv-x="437" 
d="M209 26q48 0 73.5 26t25.5 78q0 36 -16.5 61.5t-45.5 42t-68 24.5t-85 8l37 218h151q12 0 20.5 1t14.5 4t12 9.5t13 17.5h31l-28 -98h-190l-16 -96q51 -3 93 -15t73 -33t48 -52t17 -71q0 -36 -13 -65.5t-35.5 -49.5t-53.5 -31t-66 -11q-39 0 -68 8.5t-48 22.5t-28.5 32
t-9.5 37t8.5 32t19.5 19h42v-27q0 -41 20 -66.5t72 -25.5z" />
    <glyph glyph-name="uni2086" unicode="&#x2086;" horiz-adv-x="425" 
d="M332 460q-100 -29 -147 -79t-62 -118q19 18 49 33t71 15q31 0 58 -9.5t47.5 -28.5t32 -46.5t11.5 -63.5q0 -37 -13.5 -68.5t-36.5 -53.5t-55 -34.5t-69 -12.5q-42 0 -74.5 16t-55 43t-34.5 64t-12 79q0 53 18.5 100t53.5 85.5t86 66t117 40.5zM210 265q-31 0 -54.5 -9.5
t-38.5 -21.5q-2 -9 -2 -19.5v-19.5q0 -78 30 -121.5t80 -43.5q48 0 74.5 29.5t26.5 82.5q0 55 -30.5 89t-85.5 34z" />
    <glyph glyph-name="uni2087" unicode="&#x2087;" horiz-adv-x="423" 
d="M120 418q-23 0 -35 -17t-24 -49h-26l22 132h330v-20l-196 -464h-75l221 418h-217z" />
    <glyph glyph-name="uni2088" unicode="&#x2088;" horiz-adv-x="425" 
d="M365 374q0 -20 -9 -38.5t-23.5 -33t-32.5 -25.5t-36 -16l25 -11q42 -18 68.5 -46t26.5 -75q0 -28 -10 -52.5t-31 -43t-53.5 -29t-76.5 -10.5q-78 0 -125.5 35t-47.5 92q0 47 31 79.5t77 46.5l-8 4q-35 18 -58.5 42.5t-23.5 71.5q0 53 40 89t112 36t113.5 -31t41.5 -85z
M175 235q-42 -22 -57 -52.5t-15 -56.5q0 -47 30.5 -71.5t80.5 -24.5q48 0 76.5 23.5t28.5 62.5q0 33 -18 52.5t-54 35.5zM241 273q37 21 50 45.5t13 57.5q0 36 -26 56.5t-68 20.5t-65.5 -19t-23.5 -55q0 -30 17.5 -48.5t50.5 -33.5z" />
    <glyph glyph-name="uni2089" unicode="&#x2089;" horiz-adv-x="425" 
d="M93 22q100 29 147 79t62 118q-19 -18 -49 -33t-71 -15q-31 0 -58 9.5t-47.5 28.5t-32 46.5t-11.5 63.5q0 38 13.5 69t36.5 53t55 34.5t69 12.5q42 0 74.5 -16t55 -43t34.5 -64t12 -79q0 -52 -18.5 -99.5t-53.5 -86t-86 -66t-117 -40.5zM215 217q31 0 54.5 9.5t38.5 21.5
q2 9 2 19.5v19.5q0 78 -30 121.5t-80 43.5q-48 0 -74.5 -29.5t-26.5 -82.5q0 -55 30.5 -89t85.5 -34z" />
    <glyph glyph-name="uni208A" unicode="&#x208a;" horiz-adv-x="438" 
d="M197 206h-147v39h147v149h44v-149h147v-39h-147v-151h-44v151z" />
    <glyph glyph-name="uni208B" unicode="&#x208b;" horiz-adv-x="438" 
d="M50 206v39h338v-39h-338z" />
    <glyph glyph-name="uni208C" unicode="&#x208c;" horiz-adv-x="438" 
d="M50 161v40h338v-40h-338zM50 250v39h338v-39h-338z" />
    <glyph glyph-name="uni208D" unicode="&#x208d;" horiz-adv-x="244" 
d="M40 232q0 94 37.5 166t107.5 133l26 -24q-26 -26 -48.5 -54.5t-39.5 -62t-27 -72.5t-10 -86q0 -46 10 -85.5t27 -73t39.5 -62t48.5 -54.5l-26 -24q-70 61 -107.5 133t-37.5 166z" />
    <glyph glyph-name="uni208E" unicode="&#x208e;" horiz-adv-x="241" 
d="M201 232q0 -94 -36.5 -166t-105.5 -133l-26 24q26 26 48 54.5t38.5 62t26 73t9.5 85.5q0 47 -9.5 86t-26 72.5t-38.5 62t-48 54.5l26 24q69 -61 105.5 -133t36.5 -166z" />
    <glyph glyph-name="Euro" unicode="&#x20ac;" horiz-adv-x="755" 
d="M30 474h105q11 77 39 136t70 99t96 60.5t117 20.5q83 0 134.5 -17.5t88.5 -46.5l5 -167h-27q-26 102 -78 143t-129 41q-54 0 -95.5 -20t-70 -56t-45 -85t-21.5 -108h339l-18 -42h-323v-14q0 -17 0.5 -33.5t1.5 -33.5h297l-18 -42h-274q8 -57 25 -106.5t46.5 -87t72 -59
t100.5 -21.5q52 0 86.5 13.5t58 39t40 61.5t31.5 81h31l-20 -180q-45 -27 -104 -43.5t-138 -16.5q-75 0 -131.5 25t-96 68.5t-62.5 101.5t-31 124h-102v42h99v24v28.5t2 28.5h-101v42z" />
    <glyph glyph-name="afii61289" unicode="&#x2113;" horiz-adv-x="369" 
d="M223 -10q-69 0 -104.5 29t-35.5 92v110q-5 -4 -23.5 -17t-32.5 -23v63q12 9 27 19t27 21v270q0 64 10 106.5t28 68t42 36t52 10.5q53 0 81.5 -36t28.5 -105q0 -56 -16 -110.5t-41.5 -103.5t-57 -89t-61.5 -68v-128q0 -48 16.5 -66t60.5 -18q19 0 35 3t27 8l8 -61
q-12 -5 -29.5 -8t-41.5 -3zM147 345q23 26 44.5 59.5t38 72t26.5 80t10 81.5q0 35 -12.5 57t-39.5 22q-15 0 -27 -7.5t-21 -25.5t-14 -47t-5 -73v-219z" />
    <glyph glyph-name="numero" unicode="&#x2116;" horiz-adv-x="1481" 
d="M243 681q-18 21 -31 34t-26 20t-28.5 9.5t-37.5 2.5v33h172l487 -633v454q0 104 30.5 146.5t102.5 42.5q57 0 85 -24t28 -59q0 -21 -8.5 -34.5t-20.5 -21.5h-65v24q0 68 -41 68q-34 0 -46 -31t-12 -108v-604h-37l-499 637v-458q0 -103 -30.5 -146t-102.5 -43
q-57 0 -85 24t-28 59q0 21 8.5 34.5t20.5 21.5h65v-24q0 -68 41 -68q34 0 46 31t12 108v505zM994 52h404v-52h-404v52zM1205 215q67 0 105 44.5t38 116.5q0 33 -9.5 67.5t-30 62.5t-52 45.5t-76.5 17.5q-67 0 -105 -44.5t-38 -116.5q0 -33 9.5 -67.5t30 -62.5t52 -45.5
t76.5 -17.5zM1184 162q-51 0 -92 18t-69.5 48.5t-43.5 70.5t-15 84q0 55 19.5 99.5t52 75.5t75.5 47.5t90 16.5q51 0 92 -18t69.5 -48.5t43.5 -70.5t15 -84q0 -55 -19.5 -99.5t-52 -75.5t-75.5 -47.5t-90 -16.5z" />
    <glyph glyph-name="published" unicode="&#x2117;" horiz-adv-x="890" 
d="M45 390q0 83 31.5 156t85.5 127t127 85.5t156 31.5t156 -31.5t127 -85.5t85.5 -127t31.5 -156t-31.5 -156t-85.5 -127t-127 -85.5t-156 -31.5t-156 31.5t-127 85.5t-85.5 127t-31.5 156zM75 390q0 -76 29 -143.5t79.5 -118t118 -79.5t143.5 -29q77 0 144 29t117.5 79.5
t79.5 118t29 143.5q0 77 -29 144t-79.5 117.5t-117.5 79.5t-144 29q-76 0 -143.5 -29t-118 -79.5t-79.5 -117.5t-29 -144zM395 356v-123q0 -32 24.5 -41t65.5 -8v-25h-225v25q34 1 51 9t17 40v320q0 32 -17 40.5t-51 10.5v25h220q50 0 84.5 -11t56 -30t31 -44t9.5 -53
q0 -63 -42 -99t-139 -36h-85zM395 389h83q54 0 81.5 24t27.5 79q0 49 -29 76.5t-91 27.5h-72v-207z" />
    <glyph glyph-name="servicemark" unicode="&#x2120;" horiz-adv-x="799" 
d="M143 445q-30 0 -58 8.5t-43 21.5l-4 80h19q11 -40 35.5 -61.5t57.5 -21.5q30 0 50.5 13.5t20.5 43.5q0 24 -11 35t-40 22l-51 17q-32 11 -55.5 29.5t-23.5 60.5t30 67.5t84 25.5q40 0 63.5 -8.5t40.5 -21.5v-75h-20q-8 36 -28 57t-60 21q-28 0 -45.5 -13t-17.5 -39
q0 -20 12 -32.5t39 -21.5l52 -17q40 -13 60.5 -35t20.5 -62q0 -24 -10 -41.5t-27.5 -29.5t-41 -17.5t-49.5 -5.5zM648 689l-103 -237h-30l-101 237l-20 -159q-2 -8 -2.5 -18t-0.5 -13q0 -13 9.5 -17t34.5 -6v-24h-115v24q17 1 27 7.5t11 14.5l29 232q-2 11 -10 18t-30 9v23
h89q2 -11 4 -17.5t6 -14.5l98 -227l98 227q4 8 6 14.5t4 17.5h86v-23q-21 -2 -29 -9t-9 -18l28 -232q2 -12 11 -16t29 -6v-24h-143v24q26 2 35.5 6t9.5 17q0 4 -1 14t-2 18z" />
    <glyph glyph-name="trademark" unicode="&#x2122;" horiz-adv-x="834" 
d="M333 780l8 -90h-21q-9 18 -15.5 29.5t-13.5 18.5t-17 9.5t-26 2.5h-40v-245q0 -17 14 -22t37 -7v-24h-160v24q23 2 37.5 7t14.5 22v245h-41q-16 0 -25.5 -2.5t-17 -9.5t-13.5 -18.5t-14 -29.5h-22l7 90h308zM677 748q4 8 6 14.5t4 17.5h86v-23q-21 -2 -29 -9t-9 -18
l28 -232q2 -12 11 -16t29 -6v-24h-143v24q26 2 35.5 6t9.5 17q0 4 -1 14t-2 18l-19 158l-103 -237h-30l-101 237l-20 -159q-2 -8 -2.5 -18t-0.5 -13q0 -13 9.5 -17t34.5 -6v-24h-115v24q17 1 27 7.5t11 14.5l29 232q-2 11 -10 18t-30 9v23h89q2 -11 4 -17.5t6 -14.5l98 -227
z" />
    <glyph glyph-name="estimated" unicode="&#x212e;" horiz-adv-x="810" 
d="M133 363q3 -62 19 -120t49 -103t84 -72.5t123 -28.5q66 -1 120 13.5t93.5 43t63.5 70.5t30 97h65q-10 -72 -41.5 -123.5t-80 -85t-112.5 -49.5t-141 -16q-86 0 -158 28t-123.5 80t-80 126t-28.5 165q0 92 28.5 165.5t80 126t123.5 80.5t158 28t158 -28t123.5 -80.5
t80 -126t28.5 -165.5v-25h-662zM405 738q-72 0 -122.5 -27.5t-82.5 -72.5t-48 -103.5t-18 -120.5h543q-3 62 -19 120.5t-48.5 103.5t-83 72.5t-121.5 27.5z" />
    <glyph glyph-name="uni2153" unicode="&#x2153;" horiz-adv-x="1057" 
d="M239 786v-412q0 -31 33 -38.5t90 -10.5v-29h-316v29q28 2 51 3.5t39.5 6.5t25.5 14t9 25v303h-125v23l25 3q45 7 84 27.5t70 55.5h14zM785 780h57l-522 -780h-57zM861 269q65 -8 102.5 -45.5t37.5 -92.5q0 -36 -14 -61.5t-38 -42.5t-55 -25t-64 -8q-38 0 -67 9t-49 23
t-30.5 32.5t-10.5 37.5q0 18 9 30.5t20 18.5h41v-24q0 -43 23 -68.5t72 -25.5q43 0 68 23t25 72q0 31 -10 51.5t-28 33t-42.5 18t-53.5 5.5h-30v22q30 10 56 21t44.5 24.5t29.5 31t11 39.5q0 33 -19.5 51t-61.5 18t-70.5 -20.5t-48.5 -41.5l-16 17q22 42 58.5 70t96.5 28
q32 0 56 -8.5t40 -23t24 -33t8 -38.5q0 -25 -11 -43.5t-28 -32.5t-37 -24t-38 -18z" />
    <glyph glyph-name="uni2154" unicode="&#x2154;" horiz-adv-x="1041" 
d="M237 356q23 0 38 2t27 9t22.5 21.5t23.5 38.5h20l-18 -131h-326v18l128 131q35 36 57.5 61.5t36 46t19 38.5t5.5 39q0 48 -26.5 72t-73.5 24q-42 0 -69.5 -20t-50.5 -43l-15 17q11 20 26 39t35 34t45.5 24t55.5 9q70 0 107 -37.5t37 -100.5q0 -36 -18.5 -70t-50 -69
t-73.5 -72t-88 -81h126zM769 780h57l-522 -780h-57zM845 269q65 -8 102.5 -45.5t37.5 -92.5q0 -36 -14 -61.5t-38 -42.5t-55 -25t-64 -8q-38 0 -67 9t-49 23t-30.5 32.5t-10.5 37.5q0 18 9 30.5t20 18.5h41v-24q0 -43 23 -68.5t72 -25.5q43 0 68 23t25 72q0 31 -10 51.5
t-28 33t-42.5 18t-53.5 5.5h-30v22q30 10 56 21t44.5 24.5t29.5 31t11 39.5q0 33 -19.5 51t-61.5 18t-70.5 -20.5t-48.5 -41.5l-16 17q22 42 58.5 70t96.5 28q32 0 56 -8.5t40 -23t24 -33t8 -38.5q0 -25 -11 -43.5t-28 -32.5t-37 -24t-38 -18z" />
    <glyph glyph-name="uni2155" unicode="&#x2155;" horiz-adv-x="1061" 
d="M239 786v-412q0 -31 33 -38.5t90 -10.5v-29h-316v29q28 2 51 3.5t39.5 6.5t25.5 14t9 25v303h-125v23l25 3q45 7 84 27.5t70 55.5h14zM785 780h57l-522 -780h-57zM833 26q48 0 73.5 26t25.5 78q0 36 -16.5 61.5t-45.5 42t-68 24.5t-85 8l37 218h151q12 0 20.5 1t14.5 4
t12 9.5t13 17.5h31l-28 -98h-190l-16 -96q51 -3 93 -15t73 -33t48 -52t17 -71q0 -36 -13 -65.5t-35.5 -49.5t-53.5 -31t-66 -11q-39 0 -68 8.5t-48 22.5t-28.5 32t-9.5 37t8.5 32t19.5 19h42v-27q0 -41 20 -66.5t72 -25.5z" />
    <glyph glyph-name="uni2156" unicode="&#x2156;" horiz-adv-x="1045" 
d="M237 356q23 0 38 2t27 9t22.5 21.5t23.5 38.5h20l-18 -131h-326v18l128 131q35 36 57.5 61.5t36 46t19 38.5t5.5 39q0 48 -26.5 72t-73.5 24q-42 0 -69.5 -20t-50.5 -43l-15 17q11 20 26 39t35 34t45.5 24t55.5 9q70 0 107 -37.5t37 -100.5q0 -36 -18.5 -70t-50 -69
t-73.5 -72t-88 -81h126zM769 780h57l-522 -780h-57zM817 26q48 0 73.5 26t25.5 78q0 36 -16.5 61.5t-45.5 42t-68 24.5t-85 8l37 218h151q12 0 20.5 1t14.5 4t12 9.5t13 17.5h31l-28 -98h-190l-16 -96q51 -3 93 -15t73 -33t48 -52t17 -71q0 -36 -13 -65.5t-35.5 -49.5
t-53.5 -31t-66 -11q-39 0 -68 8.5t-48 22.5t-28.5 32t-9.5 37t8.5 32t19.5 19h42v-27q0 -41 20 -66.5t72 -25.5z" />
    <glyph glyph-name="uni2157" unicode="&#x2157;" horiz-adv-x="1023" 
d="M237 565q65 -8 102.5 -45.5t37.5 -92.5q0 -36 -14 -61.5t-38 -42.5t-55 -25t-64 -8q-38 0 -67 9t-49 23t-30.5 32.5t-10.5 37.5q0 18 9 30.5t20 18.5h41v-24q0 -43 23 -68.5t72 -25.5q43 0 68 23t25 72q0 31 -10 51.5t-28 33t-42.5 18t-53.5 5.5h-30v22q30 10 56 21
t44.5 24.5t29.5 31t11 39.5q0 33 -19.5 51t-61.5 18t-70.5 -20.5t-48.5 -41.5l-16 17q22 42 58.5 70t96.5 28q32 0 56 -8.5t40 -23t24 -33t8 -38.5q0 -25 -11 -43.5t-28 -32.5t-37 -24t-38 -18zM747 780h57l-522 -780h-57zM795 26q48 0 73.5 26t25.5 78q0 36 -16.5 61.5
t-45.5 42t-68 24.5t-85 8l37 218h151q12 0 20.5 1t14.5 4t12 9.5t13 17.5h31l-28 -98h-190l-16 -96q51 -3 93 -15t73 -33t48 -52t17 -71q0 -36 -13 -65.5t-35.5 -49.5t-53.5 -31t-66 -11q-39 0 -68 8.5t-48 22.5t-28.5 32t-9.5 37t8.5 32t19.5 19h42v-27q0 -41 20 -66.5
t72 -25.5z" />
    <glyph glyph-name="uni2158" unicode="&#x2158;" horiz-adv-x="1092" 
d="M273 462v217l-196 -217h196zM273 296v126h-257v30l293 328h35v-318h77v-40h-77v-126h-71zM816 780h57l-522 -780h-57zM864 26q48 0 73.5 26t25.5 78q0 36 -16.5 61.5t-45.5 42t-68 24.5t-85 8l37 218h151q12 0 20.5 1t14.5 4t12 9.5t13 17.5h31l-28 -98h-190l-16 -96
q51 -3 93 -15t73 -33t48 -52t17 -71q0 -36 -13 -65.5t-35.5 -49.5t-53.5 -31t-66 -11q-39 0 -68 8.5t-48 22.5t-28.5 32t-9.5 37t8.5 32t19.5 19h42v-27q0 -41 20 -66.5t72 -25.5z" />
    <glyph glyph-name="uni2159" unicode="&#x2159;" horiz-adv-x="1029" 
d="M239 786v-412q0 -31 33 -38.5t90 -10.5v-29h-316v29q28 2 51 3.5t39.5 6.5t25.5 14t9 25v303h-125v23l25 3q45 7 84 27.5t70 55.5h14zM785 780h57l-522 -780h-57zM936 460q-100 -29 -147 -79t-62 -118q19 18 49 33t71 15q31 0 58 -9.5t47.5 -28.5t32 -46.5t11.5 -63.5
q0 -37 -13.5 -68.5t-36.5 -53.5t-55 -34.5t-69 -12.5q-42 0 -74.5 16t-55 43t-34.5 64t-12 79q0 53 18.5 100t53.5 85.5t86 66t117 40.5zM814 265q-31 0 -54.5 -9.5t-38.5 -21.5q-2 -9 -2 -19.5v-19.5q0 -78 30 -121.5t80 -43.5q48 0 74.5 29.5t26.5 82.5q0 55 -30.5 89
t-85.5 34z" />
    <glyph glyph-name="uni215A" unicode="&#x215a;" horiz-adv-x="985" 
d="M209 322q48 0 73.5 26t25.5 78q0 36 -16.5 61.5t-45.5 42t-68 24.5t-85 8l37 218h151q12 0 20.5 1t14.5 4t12 9.5t13 17.5h31l-28 -98h-190l-16 -96q51 -3 93 -15t73 -33t48 -52t17 -71q0 -36 -13 -65.5t-35.5 -49.5t-53.5 -31t-66 -11q-39 0 -68 8.5t-48 22.5t-28.5 32
t-9.5 37t8.5 32t19.5 19h42v-27q0 -41 20 -66.5t72 -25.5zM741 780h57l-522 -780h-57zM892 460q-100 -29 -147 -79t-62 -118q19 18 49 33t71 15q31 0 58 -9.5t47.5 -28.5t32 -46.5t11.5 -63.5q0 -37 -13.5 -68.5t-36.5 -53.5t-55 -34.5t-69 -12.5q-42 0 -74.5 16t-55 43
t-34.5 64t-12 79q0 53 18.5 100t53.5 85.5t86 66t117 40.5zM770 265q-31 0 -54.5 -9.5t-38.5 -21.5q-2 -9 -2 -19.5v-19.5q0 -78 30 -121.5t80 -43.5q48 0 74.5 29.5t26.5 82.5q0 55 -30.5 89t-85.5 34z" />
    <glyph glyph-name="uni215B" unicode="&#x215b;" horiz-adv-x="1069" 
d="M239 786v-412q0 -31 33 -38.5t90 -10.5v-29h-316v29q28 2 51 3.5t39.5 6.5t25.5 14t9 25v303h-125v23l25 3q45 7 84 27.5t70 55.5h14zM785 780h57l-522 -780h-57zM1009 374q0 -20 -9 -38.5t-23.5 -33t-32.5 -25.5t-36 -16l25 -11q42 -18 68.5 -46t26.5 -75
q0 -28 -10 -52.5t-31 -43t-53.5 -29t-76.5 -10.5q-78 0 -125.5 35t-47.5 92q0 47 31 79.5t77 46.5l-8 4q-35 18 -58.5 42.5t-23.5 71.5q0 53 40 89t112 36t113.5 -31t41.5 -85zM819 235q-42 -22 -57 -52.5t-15 -56.5q0 -47 30.5 -71.5t80.5 -24.5q48 0 76.5 23.5t28.5 62.5
q0 33 -18 52.5t-54 35.5zM885 273q37 21 50 45.5t13 57.5q0 36 -26 56.5t-68 20.5t-65.5 -19t-23.5 -55q0 -30 17.5 -48.5t50.5 -33.5z" />
    <glyph glyph-name="uni215C" unicode="&#x215c;" horiz-adv-x="1031" 
d="M237 565q65 -8 102.5 -45.5t37.5 -92.5q0 -36 -14 -61.5t-38 -42.5t-55 -25t-64 -8q-38 0 -67 9t-49 23t-30.5 32.5t-10.5 37.5q0 18 9 30.5t20 18.5h41v-24q0 -43 23 -68.5t72 -25.5q43 0 68 23t25 72q0 31 -10 51.5t-28 33t-42.5 18t-53.5 5.5h-30v22q30 10 56 21
t44.5 24.5t29.5 31t11 39.5q0 33 -19.5 51t-61.5 18t-70.5 -20.5t-48.5 -41.5l-16 17q22 42 58.5 70t96.5 28q32 0 56 -8.5t40 -23t24 -33t8 -38.5q0 -25 -11 -43.5t-28 -32.5t-37 -24t-38 -18zM747 780h57l-522 -780h-57zM971 374q0 -20 -9 -38.5t-23.5 -33t-32.5 -25.5
t-36 -16l25 -11q42 -18 68.5 -46t26.5 -75q0 -28 -10 -52.5t-31 -43t-53.5 -29t-76.5 -10.5q-78 0 -125.5 35t-47.5 92q0 47 31 79.5t77 46.5l-8 4q-35 18 -58.5 42.5t-23.5 71.5q0 53 40 89t112 36t113.5 -31t41.5 -85zM781 235q-42 -22 -57 -52.5t-15 -56.5
q0 -47 30.5 -71.5t80.5 -24.5q48 0 76.5 23.5t28.5 62.5q0 33 -18 52.5t-54 35.5zM847 273q37 21 50 45.5t13 57.5q0 36 -26 56.5t-68 20.5t-65.5 -19t-23.5 -55q0 -30 17.5 -48.5t50.5 -33.5z" />
    <glyph glyph-name="uni215D" unicode="&#x215d;" horiz-adv-x="1025" 
d="M209 322q48 0 73.5 26t25.5 78q0 36 -16.5 61.5t-45.5 42t-68 24.5t-85 8l37 218h151q12 0 20.5 1t14.5 4t12 9.5t13 17.5h31l-28 -98h-190l-16 -96q51 -3 93 -15t73 -33t48 -52t17 -71q0 -36 -13 -65.5t-35.5 -49.5t-53.5 -31t-66 -11q-39 0 -68 8.5t-48 22.5t-28.5 32
t-9.5 37t8.5 32t19.5 19h42v-27q0 -41 20 -66.5t72 -25.5zM741 780h57l-522 -780h-57zM965 374q0 -20 -9 -38.5t-23.5 -33t-32.5 -25.5t-36 -16l25 -11q42 -18 68.5 -46t26.5 -75q0 -28 -10 -52.5t-31 -43t-53.5 -29t-76.5 -10.5q-78 0 -125.5 35t-47.5 92q0 47 31 79.5
t77 46.5l-8 4q-35 18 -58.5 42.5t-23.5 71.5q0 53 40 89t112 36t113.5 -31t41.5 -85zM775 235q-42 -22 -57 -52.5t-15 -56.5q0 -47 30.5 -71.5t80.5 -24.5q48 0 76.5 23.5t28.5 62.5q0 33 -18 52.5t-54 35.5zM841 273q37 21 50 45.5t13 57.5q0 36 -26 56.5t-68 20.5
t-65.5 -19t-23.5 -55q0 -30 17.5 -48.5t50.5 -33.5z" />
    <glyph glyph-name="uni215E" unicode="&#x215e;" horiz-adv-x="953" 
d="M120 714q-23 0 -35 -17t-24 -49h-26l22 132h330v-20l-196 -464h-75l221 418h-217zM669 780h57l-522 -780h-57zM893 374q0 -20 -9 -38.5t-23.5 -33t-32.5 -25.5t-36 -16l25 -11q42 -18 68.5 -46t26.5 -75q0 -28 -10 -52.5t-31 -43t-53.5 -29t-76.5 -10.5q-78 0 -125.5 35
t-47.5 92q0 47 31 79.5t77 46.5l-8 4q-35 18 -58.5 42.5t-23.5 71.5q0 53 40 89t112 36t113.5 -31t41.5 -85zM703 235q-42 -22 -57 -52.5t-15 -56.5q0 -47 30.5 -71.5t80.5 -24.5q48 0 76.5 23.5t28.5 62.5q0 33 -18 52.5t-54 35.5zM769 273q37 21 50 45.5t13 57.5
q0 36 -26 56.5t-68 20.5t-65.5 -19t-23.5 -55q0 -30 17.5 -48.5t50.5 -33.5z" />
    <glyph glyph-name="uni215F" unicode="&#x215f;" horiz-adv-x="694" 
d="M239 786v-412q0 -31 33 -38.5t90 -10.5v-29h-316v29q28 2 51 3.5t39.5 6.5t25.5 14t9 25v303h-125v23l25 3q45 7 84 27.5t70 55.5h14zM785 780h57l-522 -780h-57z" />
    <glyph glyph-name="arrowleft" unicode="&#x2190;" horiz-adv-x="860" 
d="M41 384v12l411 283v-52l-266 -216h645v-42h-645l266 -216v-52z" />
    <glyph glyph-name="arrowup" unicode="&#x2191;" horiz-adv-x="860" 
d="M424 790h12l283 -411h-52l-216 275v-654h-42v654l-216 -275h-52z" />
    <glyph glyph-name="arrowright" unicode="&#x2192;" horiz-adv-x="860" 
d="M420 101v52l266 216h-645v42h645l-266 216v52l411 -283v-12z" />
    <glyph glyph-name="arrowdown" unicode="&#x2193;" horiz-adv-x="860" 
d="M141 401h52l216 -275v654h42v-654l216 275h52l-283 -411h-12z" />
    <glyph glyph-name="uni2196" unicode="&#x2196;" horiz-adv-x="860" 
d="M29 781l8 9l491 -91l-37 -37l-341 42l457 -462l-30 -30l-455 462l34 -347l-37 -37z" />
    <glyph glyph-name="uni2197" unicode="&#x2197;" horiz-adv-x="860" 
d="M823 790l8 -9l-90 -491l-37 37l34 347l-455 -462l-30 30l457 462l-341 -42l-37 37z" />
    <glyph glyph-name="uni2198" unicode="&#x2198;" horiz-adv-x="860" 
d="M831 -1l-8 -9l-491 91l37 37l341 -42l-457 462l30 30l455 -462l-34 347l37 37z" />
    <glyph glyph-name="uni2199" unicode="&#x2199;" horiz-adv-x="860" 
d="M37 -10l-8 9l90 491l37 -37l-35 -347l456 462l30 -30l-457 -462l341 42l37 -37z" />
    <glyph glyph-name="partialdiff" unicode="&#x2202;" horiz-adv-x="625" 
d="M582 339q0 -89 -21.5 -154.5t-59.5 -109t-89 -64.5t-110 -21q-60 0 -108 21t-81.5 56t-51.5 81.5t-18 97.5q0 69 23 122t61.5 90t87.5 56t101 19q34 0 65 -9.5t56 -24.5t43 -34t26 -39q-4 59 -26 115t-57.5 100.5t-84 71.5t-105.5 27q-56 0 -90.5 -11t-63.5 -29l-16 19
q35 32 84 51.5t110 19.5q85 0 146.5 -34.5t101 -95.5t58.5 -143t19 -178zM328 43q42 0 74 16t53 43.5t32 64t11 77.5q0 112 -53.5 174t-151.5 62q-42 0 -74 -16t-53 -43.5t-32 -64t-11 -77.5q0 -112 53.5 -174t151.5 -62z" />
    <glyph glyph-name="Delta" unicode="&#x2206;" horiz-adv-x="860" 
d="M55 37l353 743h44l353 -743v-37h-750v37zM404 672l-292 -627h587z" />
    <glyph glyph-name="product" unicode="&#x220f;" horiz-adv-x="962" 
d="M251 730v-614q0 -26 9 -42t25 -24.5t39 -12t51 -4.5v-33h-329v33q28 1 51 4.5t39 12t25 24.5t9 42v548q0 26 -9 42t-25 24.5t-39 12t-51 4.5v33h870v-33q-28 -1 -51 -4.5t-39 -12t-25 -24.5t-9 -42v-548q0 -26 9 -42t25 -24.5t39 -12t51 -4.5v-33h-329v33q28 1 51 4.5
t39 12t25 24.5t9 42v614h-460z" />
    <glyph glyph-name="summation" unicode="&#x2211;" horiz-adv-x="659" 
d="M400 67q39 0 63.5 3t42 15t33.5 35t39 62h24l-24 -182h-548v61l321 326l-308 322v71h537l3 -176h-19q-16 37 -31 62t-33.5 40t-43 21.5t-58.5 6.5h-263l298 -309v-28l-327 -330h294z" />
    <glyph glyph-name="minus" unicode="&#x2212;" 
d="M80 260v51h540v-51h-540z" />
    <glyph glyph-name="radical" unicode="&#x221a;" horiz-adv-x="775" 
d="M715 764h51l-451 -764h-67l-109 471h-106v35l179 28l100 -457z" />
    <glyph glyph-name="infinity" unicode="&#x221e;" horiz-adv-x="879" 
d="M101 323q0 -53 33 -85t92 -32q53 0 96 27t81 81l-97 77q-33 27 -55.5 35t-48.5 8q-42 0 -71.5 -27t-29.5 -84zM778 334q0 53 -33 85t-92 32q-53 0 -96 -27t-81 -81l97 -77q33 -27 55.5 -35t48.5 -8q42 0 71.5 27t29.5 84zM431 289q-34 -60 -89 -97.5t-124 -37.5
q-36 0 -68.5 10.5t-56.5 31.5t-38.5 52.5t-14.5 74.5q0 44 14.5 77t39 55.5t56 33.5t65.5 11q45 0 78.5 -15.5t74.5 -49.5l80 -67q34 60 89 97.5t124 37.5q36 0 68.5 -10.5t56.5 -31.5t38.5 -52.5t14.5 -74.5q0 -44 -14.5 -77t-39 -55.5t-56 -33.5t-65.5 -11
q-45 0 -78.5 15.5t-74.5 49.5z" />
    <glyph glyph-name="integral" unicode="&#x222b;" horiz-adv-x="610" 
d="M272 553q11 115 67.5 176t150.5 61q55 0 85 -20.5t30 -56.5q0 -21 -9.5 -35.5t-18.5 -19.5h-63q1 5 1.5 10.5t0.5 9.5q0 34 -15.5 49.5t-43.5 15.5q-43 0 -67.5 -34t-32.5 -113l-56 -572q-11 -115 -67.5 -176t-150.5 -61q-55 0 -85 20.5t-30 56.5q0 21 9.5 35.5
t18.5 19.5h63q-1 -5 -1.5 -10.5t-0.5 -9.5q0 -34 15.5 -49.5t43.5 -15.5q43 0 67.5 34t32.5 113z" />
    <glyph glyph-name="approxequal" unicode="&#x2248;" 
d="M485 352q32 0 54.5 7t36.5 15.5t20 15l6 6.5l26 -37q-13 -16 -34 -28q-19 -12 -46.5 -20.5t-67.5 -8.5q-43 0 -75.5 11.5t-61.5 25t-59 24.5t-69 11q-32 0 -54.5 -7t-36.5 -15.5t-20 -15l-6 -6.5l-26 37q13 16 34 29q19 11 46.5 19.5t67.5 8.5q44 0 76 -11t61 -24.5
t59 -25t69 -11.5zM485 196q32 0 54.5 7t36.5 15.5t20 15l6 6.5l26 -37q-13 -16 -34 -28q-19 -12 -46.5 -20.5t-67.5 -8.5q-43 0 -75.5 11.5t-61.5 25t-59 24.5t-69 11q-32 0 -54.5 -7t-36.5 -15.5t-20 -15l-6 -6.5l-26 37q13 16 34 29q19 11 46.5 19.5t67.5 8.5q44 0 76 -11
t61 -24.5t59 -25t69 -11.5z" />
    <glyph glyph-name="notequal" unicode="&#x2260;" 
d="M253 187h-173v50h211l66 96h-277v51h314l64 92h60l-64 -92h166v-51h-203l-66 -96h272v-50h-310l-63 -92h-60z" />
    <glyph glyph-name="equivalence" unicode="&#x2261;" 
d="M80 120v47h540v-47h-540zM80 613v47h540v-47h-540zM80 368v46h540v-46h-540z" />
    <glyph glyph-name="lessequal" unicode="&#x2264;" 
d="M80 194v49l540 -169v-48zM273 305l347 -108v-50l-540 170v75l540 169v-50l-347 -108l-163 -49z" />
    <glyph glyph-name="greaterequal" unicode="&#x2265;" 
d="M80 26v48l540 169v-49zM590 354l-163 49l-347 108v50l540 -169v-75l-540 -170v50l347 108z" />
    <glyph glyph-name="squaremultiply" unicode="&#x22a0;" horiz-adv-x="976" 
d="M98 780h780v-780h-780v780zM165 717v-654h646v654h-646zM441 390l-225 225l47 47l225 -225l224 225l48 -47l-225 -225l225 -225l-48 -47l-224 225l-225 -225l-47 47z" />
    <glyph glyph-name="house" unicode="&#x2302;" horiz-adv-x="850" 
d="M70 0v450l355 340l355 -340v-450h-710z" />
    <glyph glyph-name="blacksquare" unicode="&#x25a0;" horiz-adv-x="976" 
d="M878 0h-780v780h780v-780z" />
    <glyph glyph-name="blacksquare" unicode="&#xe740;" horiz-adv-x="976" 
d="M878 0h-780v780h780v-780z" />
    <glyph glyph-name="whitesquare" unicode="&#x25a1;" horiz-adv-x="976" 
d="M98 780h780v-780h-780v780zM165 717v-654h646v654h-646z" />
    <glyph glyph-name="blacksmallsquare" unicode="&#x25aa;" horiz-adv-x="726" 
d="M628 0h-530v530h530v-530z" />
    <glyph glyph-name="whitesmallsquare" unicode="&#x25ab;" horiz-adv-x="726" 
d="M98 530h530v-530h-530v530zM165 467v-404h396v404h-396z" />
    <glyph glyph-name="triagup" unicode="&#x25b2;" horiz-adv-x="800" 
d="M10 0l390 676l390 -676h-780z" />
    <glyph glyph-name="triagrt" unicode="&#x25ba;" horiz-adv-x="800" 
d="M34 780l676 -390l-676 -390v780z" />
    <glyph glyph-name="triagdn" unicode="&#x25bc;" horiz-adv-x="800" 
d="M790 780l-390 -676l-390 676h780z" />
    <glyph glyph-name="triaglf" unicode="&#x25c4;" horiz-adv-x="800" 
d="M710 0l-676 390l676 390v-780z" />
    <glyph glyph-name="lozenge" unicode="&#x25ca;" horiz-adv-x="900" 
d="M82 390l368 400l368 -400l-368 -400zM450 68l288 322l-288 322l-288 -322z" />
    <glyph glyph-name="whitecircle" unicode="&#x25cb;" horiz-adv-x="976" 
d="M88 390q0 83 31.5 156t85.5 127t127 85.5t156 31.5t156 -31.5t127 -85.5t85.5 -127t31.5 -156t-31.5 -156t-85.5 -127t-127 -85.5t-156 -31.5t-156 31.5t-127 85.5t-85.5 127t-31.5 156zM815 390q0 69 -25.5 129.5t-69.5 106t-104 71.5t-128 26q-69 0 -128.5 -26
t-103.5 -71.5t-69.5 -106t-25.5 -129.5t25.5 -129.5t70 -106t104 -71.5t127.5 -26q69 0 128.5 26t103.5 71.5t69.5 106t25.5 129.5z" />
    <glyph glyph-name="whitecircle" unicode="&#x25ef;" horiz-adv-x="976" 
d="M88 390q0 83 31.5 156t85.5 127t127 85.5t156 31.5t156 -31.5t127 -85.5t85.5 -127t31.5 -156t-31.5 -156t-85.5 -127t-127 -85.5t-156 -31.5t-156 31.5t-127 85.5t-85.5 127t-31.5 156zM815 390q0 69 -25.5 129.5t-69.5 106t-104 71.5t-128 26q-69 0 -128.5 -26
t-103.5 -71.5t-69.5 -106t-25.5 -129.5t25.5 -129.5t70 -106t104 -71.5t127.5 -26q69 0 128.5 26t103.5 71.5t69.5 106t25.5 129.5z" />
    <glyph glyph-name="bullseye" unicode="&#x25ce;" horiz-adv-x="960" 
d="M80 390q0 83 31.5 156t85.5 127t127 85.5t156 31.5t156 -31.5t127 -85.5t85.5 -127t31.5 -156t-31.5 -156t-85.5 -127t-127 -85.5t-156 -31.5t-156 31.5t-127 85.5t-85.5 127t-31.5 156zM330 390q0 31 12 58.5t32 47.5t47.5 32t58.5 12t58.5 -12t47.5 -32t32 -47.5
t12 -58.5t-12 -58.5t-32 -47.5t-47.5 -32t-58.5 -12t-58.5 12t-47.5 32t-32 47.5t-12 58.5zM157 339q0 -57 21.5 -106.5t58 -86t86 -58t106.5 -21.5t106.5 21.5t86.5 58t58.5 86t21.5 106.5t-21.5 106.5t-58.5 86.5t-86.5 58.5t-106.5 21.5t-106.5 -21.5t-86 -58.5
t-58 -86.5t-21.5 -106.5z" />
    <glyph glyph-name="blackcircle" unicode="&#x25cf;" horiz-adv-x="976" 
d="M88 390q0 83 31.5 156t85.5 127t127 85.5t156 31.5t156 -31.5t127 -85.5t85.5 -127t31.5 -156t-31.5 -156t-85.5 -127t-127 -85.5t-156 -31.5t-156 31.5t-127 85.5t-85.5 127t-31.5 156z" />
    <glyph glyph-name="uni25E2" unicode="&#x25e2;" horiz-adv-x="800" 
d="M578 754l202 -754l-754 202z" />
    <glyph glyph-name="uni25E3" unicode="&#x25e3;" horiz-adv-x="800" 
d="M774 202l-754 -202l202 754z" />
    <glyph glyph-name="uni25E4" unicode="&#x25e4;" horiz-adv-x="800" 
d="M222 26l-202 754l754 -202z" />
    <glyph glyph-name="uni25E5" unicode="&#x25e5;" horiz-adv-x="800" 
d="M26 578l754 202l-202 -754z" />
    <glyph glyph-name="uni2605" unicode="&#x2605;" horiz-adv-x="880" 
d="M180 -10l99 307l-260 189h322l99 306l99 -306h322l-260 -189l99 -307l-260 190z" />
    <glyph glyph-name="ballotboxwithx" unicode="&#x2612;" horiz-adv-x="710" 
d="M90 530h530v-530h-530v530zM160 464v-398h390v398h-390zM310 265l-130 129l46 46l129 -130l129 130l46 -46l-130 -129l130 -129l-46 -46l-129 130l-129 -130l-46 46z" />
    <glyph glyph-name="uni263C" unicode="&#x263c;" horiz-adv-x="960" 
d="M711 360l155 -73l-171 15l132 -112l-162 59l98 -141l-141 98l58 -162l-111 130l15 -170l-74 155l-30 -169l-30 169l-74 -155l15 170l-111 -130l58 162l-141 -98l98 141l-162 -59l132 112l-171 -15l155 73l-169 30l169 30l-155 73l171 -15l-132 112l162 -59l-98 141
l141 -98l-58 162l111 -130l-15 170l74 -155l30 169l30 -169l74 155l-15 -170l111 130l-58 -162l141 98l-98 -141l162 59l-132 -112l171 15l-155 -73l169 -30z" />
    <glyph glyph-name="uni263E" unicode="&#x263e;" horiz-adv-x="960" 
d="M624 728q-67 0 -126 -26.5t-103 -72.5t-69.5 -107.5t-25.5 -131.5t25.5 -131.5t69.5 -107.5t103 -72.5t126 -26.5q50 0 96 15q-51 -37 -112.5 -57t-127.5 -20q-83 0 -156 31.5t-127 85.5t-85.5 127t-31.5 156t31.5 156t85.5 127t127 85.5t156 31.5q66 0 127.5 -20.5
t112.5 -56.5q-23 7 -47 11t-49 4z" />
    <glyph glyph-name="spade" unicode="&#x2660;" horiz-adv-x="900" 
d="M451 790q12 -19 35 -47.5t54 -60.5t67.5 -64t76.5 -58q33 -21 62.5 -44.5t52 -51t36 -59.5t13.5 -71q0 -37 -13.5 -68.5t-37.5 -55t-56 -37t-69 -13.5t-68 13.5t-56 36t-44 51.5t-32 60l-3 -1q4 -51 10.5 -93t16 -80t23 -73.5t32.5 -73.5h-202q19 38 32.5 73.5t23 73.5
t16 80t10.5 93l-3 1q-13 -31 -32 -60t-44 -51.5t-56 -36t-68 -13.5t-69 13.5t-56 37t-37.5 55t-13.5 68.5q0 39 13.5 71t36 59.5t52 51t62.5 44.5q40 26 76.5 58t67.5 64t54 60.5t35 47.5h2z" />
    <glyph glyph-name="club" unicode="&#x2663;" horiz-adv-x="900" 
d="M349 0q19 38 32.5 73.5t23 73.5t16 80t10.5 93l-3 1q-13 -31 -32 -60t-44 -51.5t-56 -36t-68 -13.5t-69 13.5t-56 37t-37.5 55t-13.5 68.5q0 39 12.5 72t35.5 57t55 37.5t71 13.5q26 0 46.5 -7t37.5 -16l2 2q-17 25 -27.5 54.5t-10.5 62.5q0 37 13.5 70t37 57.5
t55.5 38.5t70 14t70 -14t55.5 -38.5t37 -57.5t13.5 -70q0 -33 -10.5 -62.5t-27.5 -54.5l2 -2q17 9 37.5 16t46.5 7q39 0 71 -13.5t55 -37.5t35.5 -57t12.5 -72q0 -37 -13.5 -68.5t-37.5 -55t-56 -37t-69 -13.5t-68 13.5t-56 36t-44 51.5t-32 60l-3 -1q4 -51 10.5 -93t16 -80
t23 -73.5t32.5 -73.5h-202z" />
    <glyph glyph-name="heart" unicode="&#x2665;" horiz-adv-x="900" 
d="M449 -10q-12 19 -35 50t-54 70t-67.5 83.5t-76.5 89.5q-26 29 -55 65t-53 75.5t-40 80.5t-16 80q0 44 13.5 82t38 65.5t60 43t79.5 15.5q47 0 80.5 -13t57.5 -34.5t40 -50t27 -59.5h4q11 31 27 59.5t40 50t58 34.5t80 13q44 0 79.5 -15.5t60.5 -43t38 -65.5t13 -82
q0 -39 -16 -80t-40 -80.5t-53 -75.5t-55 -65q-40 -45 -76.5 -89.5t-67.5 -83.5t-54 -70t-35 -50h-2z" />
    <glyph glyph-name="diamond" unicode="&#x2666;" horiz-adv-x="900" 
d="M817 390q-53 -42 -104.5 -89.5t-98.5 -99t-88.5 -105t-74.5 -106.5h-2q-33 53 -74.5 106.5t-88.5 105t-98.5 99t-104.5 89.5q53 42 104.5 89.5t98.5 99t88.5 105t74.5 106.5h2q33 -53 74.5 -106.5t88.5 -105t98.5 -99t104.5 -89.5z" />
    <glyph glyph-name="musicflatsign" unicode="&#x266d;" horiz-adv-x="480" 
d="M68 820h52v-369q10 19 26.5 36t37.5 29.5t44.5 19.5t45.5 7q88 0 129.5 -48t41.5 -136q0 -74 -32 -138.5t-84.5 -116.5t-120.5 -89t-140 -57v862zM120 34q36 13 82 38t86.5 64t68.5 92t28 122q0 27 -5 51t-18.5 43t-36.5 30t-58 11q-30 0 -56 -13.5t-45.5 -34
t-31.5 -45.5t-14 -49v-309z" />
    <glyph glyph-name="musicsharpsign" unicode="&#x266f;" horiz-adv-x="466" 
d="M355 670l91 73v-79l-91 -74v-205l91 73v-79l-91 -74v-305h-51v265l-142 -114v-251h-51v210l-91 -73v79l91 74v205l-91 -73v79l91 74v305h51v-265l142 114v251h51v-210zM162 230l142 114v206l-142 -115v-205z" />
    <glyph glyph-name="uni267B" unicode="&#x267b;" horiz-adv-x="960" 
d="M864 264l-96 -167q-8 -12 -15 -22t-17 -17.5t-23 -12t-33 -4.5h-57v-49l-113 136l113 135v-49h145q22 0 39.5 8t30.5 18q14 11 25 26zM184 122l-96 168q-6 12 -11.5 23.5t-7 23.5t1.5 25.5t13 30.5l28 49l-42 24l174 31l59 -166l-41 24q-20 -34 -35 -61
q-15 -25 -25.5 -43.5t-11.5 -20.5q-11 -19 -13 -38.5t0 -34.5q2 -18 9 -35h-2zM404 780h193q29 -1 51 -7t41 -40l28 -49l43 24l-61 -166l-173 31l41 24l-72 125q-11 20 -26.5 31t-30.5 17q-16 7 -34 9v1zM267 717q4 7 13 15.5t21 15.5q22 13 47.5 14.5t49 -4.5t42 -18.5
t26.5 -26.5l-116 -201l-150 86zM311 41q-8 0 -20.5 3t-23.5 10q-23 13 -37 34.5t-20.5 45t-5 45t9.5 35.5h232v-173h-135zM875 410q4 -7 7 -18.5t3 -25.5q0 -26 -11.5 -49t-28.5 -40t-36.5 -27t-35.5 -10l-116 201l149 86z" />
    <glyph glyph-name="uni267C" unicode="&#x267c;" horiz-adv-x="960" 
d="M880 389q0 -83 -31.5 -155.5t-85.5 -126.5t-126.5 -85.5t-155.5 -31.5t-156 31.5t-127.5 85.5t-86 126.5t-31.5 155.5t31.5 156t86 127.5t127.5 86t156 31.5t155.5 -31.5t126.5 -86t85.5 -127.5t31.5 -156zM261 553l116 -67l90 156q-6 11 -20.5 20.5t-32.5 14t-38 3.5
t-37 -11q-9 -5 -16 -12t-10 -12zM415 693q14 -2 27 -7q12 -5 23.5 -13.5t20.5 -23.5l56 -97l-32 -19l134 -24l47 129l-33 -19l-22 38q-15 26 -32 31.5t-39 5.5h-150v-1zM448 121v134h-180q-6 -11 -7 -28t3.5 -35t15.5 -34.5t29 -26.5q9 -5 18.5 -7.5t15.5 -2.5h105zM250 184
q-5 13 -7 27q-2 13 -0.5 27.5t10.5 29.5l56 97l32 -19l-46 129l-135 -24l33 -19l-22 -38q-16 -26 -11.5 -43.5t14.5 -36.5l75 -130h1zM731 498l-116 -67l90 -156q12 0 27.5 7.5t29 21t22 31.5t8.5 38q0 11 -2.5 20t-5.5 14zM775 295q-9 -11 -20 -20q-10 -8 -23.5 -14
t-30.5 -6h-112v38l-88 -105l88 -105v38h44q31 0 44 12.5t24 30.5l75 130z" />
    <glyph glyph-name="uni267D" unicode="&#x267d;" horiz-adv-x="960" 
d="M880 389q0 -83 -31.5 -155.5t-85.5 -126.5t-126.5 -85.5t-155.5 -31.5t-156 31.5t-127.5 85.5t-86 126.5t-31.5 155.5t31.5 156t86 127.5t127.5 86t156 31.5t155.5 -31.5t126.5 -86t85.5 -127.5t31.5 -156zM860 389q0 79 -29.5 148.5t-81 121t-120.5 81.5t-148 30
t-148.5 -30t-121 -81.5t-81.5 -121t-30 -148.5t30 -148t81.5 -120.5t121 -81t148.5 -29.5t148 29.5t120.5 81t81 120.5t29.5 148zM313 645q3 5 10 12t16 12q17 10 37 11t38 -3.5t32.5 -14t20.5 -20.5l-90 -156l-116 67zM415 694h150q22 0 39 -5.5t32 -31.5l22 -38l33 19
l-47 -129l-134 24l32 19l-56 97q-9 15 -21 23.5t-23 13.5q-13 5 -27 7v1zM343 121q-6 0 -15.5 2.5t-18.5 7.5q-18 10 -29 26.5t-15.5 34.5t-3.5 35t7 28h180v-134h-105zM249 184l-75 130q-10 19 -14.5 36.5t11.5 43.5l22 38l-33 19l135 24l46 -129l-32 19l-56 -97
q-9 -15 -10.5 -30t0.5 -27q2 -14 7 -27h-1zM784 407q3 -5 5.5 -14t2.5 -20q0 -20 -8.5 -38t-22 -31.5t-29 -21t-27.5 -7.5l-90 156l116 67zM776 294l-75 -130q-11 -18 -24 -30.5t-44 -12.5h-44v-38l-88 105l88 105v-38h112q17 0 31 6t23 14q11 9 20 20z" />
    <glyph glyph-name="mediumwhitecircle" unicode="&#x26aa;" horiz-adv-x="710" 
d="M80 265q0 57 21.5 107t59 87.5t87.5 59t107 21.5t107 -21.5t87.5 -59t59 -87.5t21.5 -107t-21.5 -107t-59 -87.5t-87.5 -59t-107 -21.5t-107 21.5t-87.5 59t-59 87.5t-21.5 107zM561 265q0 43 -16 81t-44 66t-65.5 44.5t-80.5 16.5t-80.5 -16.5t-65.5 -44.5t-44 -66
t-16 -81t16 -81t44 -66t65.5 -44.5t80.5 -16.5t80.5 16.5t65.5 44.5t44 66t16 81z" />
    <glyph glyph-name="mediumblackcircle" unicode="&#x26ab;" horiz-adv-x="710" 
d="M80 265q0 57 21.5 107t59 87.5t87.5 59t107 21.5t107 -21.5t87.5 -59t59 -87.5t21.5 -107t-21.5 -107t-59 -87.5t-87.5 -59t-107 -21.5t-107 21.5t-87.5 59t-59 87.5t-21.5 107z" />
    <glyph glyph-name="anglebracketleft" unicode="&#x3008;" horiz-adv-x="364" 
d="M76 350l179 480h49l-175 -480l175 -480h-49z" />
    <glyph glyph-name="anglebracketright" unicode="&#x3009;" horiz-adv-x="364" 
d="M109 -130h-49l175 480l-175 480h49l179 -480z" />
    <glyph glyph-name="aogonek.school" unicode="&#xe150;" horiz-adv-x="665" 
d="M303 485q-82 0 -132.5 -57t-50.5 -163q0 -44 11.5 -83t34.5 -68.5t57 -46.5t80 -17q48 0 89.5 21t68.5 53v212q0 75 -41.5 112t-116.5 37zM628 26q-62 -20 -93 -61t-31 -94q0 -35 21.5 -54.5t58.5 -19.5q21 0 36 4.5t29 10.5l11 -22q-20 -20 -44 -30t-59 -10q-23 0 -44 6
t-36.5 19.5t-25 35t-9.5 51.5q0 49 29 87t78 59l-85 -18h-8l5 91q-35 -41 -80.5 -66t-99.5 -25q-58 0 -102.5 20t-74.5 54t-45.5 78.5t-15.5 93.5q0 69 22 124t59 93.5t86 59t104 20.5q48 0 90.5 -16t65.5 -36l58 63h14l-5 -108v-333q0 -13 2.5 -20t9.5 -11.5t19.5 -6.5
t31.5 -5l28 -4v-30z" />
    <glyph glyph-name="a.school" unicode="&#xe151;" horiz-adv-x="665" 
d="M303 485q-82 0 -132.5 -57t-50.5 -163q0 -44 11.5 -83t34.5 -68.5t57 -46.5t80 -17q48 0 89.5 21t68.5 53v212q0 75 -41.5 112t-116.5 37zM461 81q-35 -41 -80.5 -66t-99.5 -25q-58 0 -102.5 20t-74.5 54t-45.5 78.5t-15.5 93.5q0 69 22 124t59 93.5t86 59t104 20.5
q48 0 90.5 -16t65.5 -36l58 63h14l-5 -108v-333q0 -13 2.5 -20t9.5 -11.5t19.5 -6.5t31.5 -5l28 -4v-30l-164 -36h-8z" />
    <glyph glyph-name="agrave.school" unicode="&#xe152;" horiz-adv-x="665" 
d="M303 485q-82 0 -132.5 -57t-50.5 -163q0 -44 11.5 -83t34.5 -68.5t57 -46.5t80 -17q48 0 89.5 21t68.5 53v212q0 75 -41.5 112t-116.5 37zM461 81q-35 -41 -80.5 -66t-99.5 -25q-58 0 -102.5 20t-74.5 54t-45.5 78.5t-15.5 93.5q0 69 22 124t59 93.5t86 59t104 20.5
q48 0 90.5 -16t65.5 -36l58 63h14l-5 -108v-333q0 -13 2.5 -20t9.5 -11.5t19.5 -6.5t31.5 -5l28 -4v-30l-164 -36h-8zM244 800l84 -208h-33l-149 208h98z" />
    <glyph glyph-name="aacute.school" unicode="&#xe153;" horiz-adv-x="665" 
d="M303 485q-82 0 -132.5 -57t-50.5 -163q0 -44 11.5 -83t34.5 -68.5t57 -46.5t80 -17q48 0 89.5 21t68.5 53v212q0 75 -41.5 112t-116.5 37zM461 81q-35 -41 -80.5 -66t-99.5 -25q-58 0 -102.5 20t-74.5 54t-45.5 78.5t-15.5 93.5q0 69 22 124t59 93.5t86 59t104 20.5
q48 0 90.5 -16t65.5 -36l58 63h14l-5 -108v-333q0 -13 2.5 -20t9.5 -11.5t19.5 -6.5t31.5 -5l28 -4v-30l-164 -36h-8zM472 800l-149 -208h-33l81 208h101z" />
    <glyph glyph-name="acircumflex.school" unicode="&#xe154;" horiz-adv-x="665" 
d="M483 592h-34l-142 134l-142 -134h-34l148 208h56zM303 485q-82 0 -132.5 -57t-50.5 -163q0 -44 11.5 -83t34.5 -68.5t57 -46.5t80 -17q48 0 89.5 21t68.5 53v212q0 75 -41.5 112t-116.5 37zM461 81q-35 -41 -80.5 -66t-99.5 -25q-58 0 -102.5 20t-74.5 54t-45.5 78.5
t-15.5 93.5q0 69 22 124t59 93.5t86 59t104 20.5q48 0 90.5 -16t65.5 -36l58 63h14l-5 -108v-333q0 -13 2.5 -20t9.5 -11.5t19.5 -6.5t31.5 -5l28 -4v-30l-164 -36h-8z" />
    <glyph glyph-name="adieresis.school" unicode="&#xe155;" horiz-adv-x="665" 
d="M148 691q0 23 16.5 40t39.5 17t40 -17t17 -40t-17 -39.5t-40 -16.5t-39.5 16.5t-16.5 39.5zM347 691q0 23 16.5 40t39.5 17t40 -17t17 -40t-17 -39.5t-40 -16.5t-39.5 16.5t-16.5 39.5zM303 485q-82 0 -132.5 -57t-50.5 -163q0 -44 11.5 -83t34.5 -68.5t57 -46.5t80 -17
q48 0 89.5 21t68.5 53v212q0 75 -41.5 112t-116.5 37zM461 81q-35 -41 -80.5 -66t-99.5 -25q-58 0 -102.5 20t-74.5 54t-45.5 78.5t-15.5 93.5q0 69 22 124t59 93.5t86 59t104 20.5q48 0 90.5 -16t65.5 -36l58 63h14l-5 -108v-333q0 -13 2.5 -20t9.5 -11.5t19.5 -6.5
t31.5 -5l28 -4v-30l-164 -36h-8z" />
    <glyph glyph-name="atilde.school" unicode="&#xe156;" horiz-adv-x="665" 
d="M303 485q-82 0 -132.5 -57t-50.5 -163q0 -44 11.5 -83t34.5 -68.5t57 -46.5t80 -17q48 0 89.5 21t68.5 53v212q0 75 -41.5 112t-116.5 37zM461 81q-35 -41 -80.5 -66t-99.5 -25q-58 0 -102.5 20t-74.5 54t-45.5 78.5t-15.5 93.5q0 69 22 124t59 93.5t86 59t104 20.5
q48 0 90.5 -16t65.5 -36l58 63h14l-5 -108v-333q0 -13 2.5 -20t9.5 -11.5t19.5 -6.5t31.5 -5l28 -4v-30l-164 -36h-8zM374 610q-24 0 -45 9t-39.5 20.5t-35.5 20.5t-34 9q-13 0 -22 -2t-16.5 -7.5t-15 -15.5t-16.5 -27l-33 5q18 49 48 77t76 28q24 0 45 -9.5t39.5 -20.5
t35.5 -20.5t34 -9.5q26 0 39 9.5t31 42.5l33 -4q-18 -50 -48 -77.5t-76 -27.5z" />
    <glyph glyph-name="aring.school" unicode="&#xe157;" horiz-adv-x="665" 
d="M303 485q-82 0 -132.5 -57t-50.5 -163q0 -44 11.5 -83t34.5 -68.5t57 -46.5t80 -17q48 0 89.5 21t68.5 53v212q0 75 -41.5 112t-116.5 37zM461 81q-35 -41 -80.5 -66t-99.5 -25q-58 0 -102.5 20t-74.5 54t-45.5 78.5t-15.5 93.5q0 69 22 124t59 93.5t86 59t104 20.5
q48 0 90.5 -16t65.5 -36l58 63h14l-5 -108v-333q0 -13 2.5 -20t9.5 -11.5t19.5 -6.5t31.5 -5l28 -4v-30l-164 -36h-8zM195 693q0 48 30.5 81t81.5 33t81.5 -33t30.5 -81t-30.5 -81t-81.5 -33t-81.5 33t-30.5 81zM371 693q0 32 -15.5 53.5t-48.5 21.5t-48 -21.5t-15 -53.5
q0 -31 15 -52.5t48 -21.5t48.5 21.5t15.5 52.5z" />
    <glyph glyph-name="amacron.school" unicode="&#xe159;" horiz-adv-x="665" 
d="M303 485q-82 0 -132.5 -57t-50.5 -163q0 -44 11.5 -83t34.5 -68.5t57 -46.5t80 -17q48 0 89.5 21t68.5 53v212q0 75 -41.5 112t-116.5 37zM461 81q-35 -41 -80.5 -66t-99.5 -25q-58 0 -102.5 20t-74.5 54t-45.5 78.5t-15.5 93.5q0 69 22 124t59 93.5t86 59t104 20.5
q48 0 90.5 -16t65.5 -36l58 63h14l-5 -108v-333q0 -13 2.5 -20t9.5 -11.5t19.5 -6.5t31.5 -5l28 -4v-30l-164 -36h-8zM175 704h264v-52h-264v52z" />
    <glyph glyph-name="abreve.school" unicode="&#xe15a;" horiz-adv-x="665" 
d="M303 485q-82 0 -132.5 -57t-50.5 -163q0 -44 11.5 -83t34.5 -68.5t57 -46.5t80 -17q48 0 89.5 21t68.5 53v212q0 75 -41.5 112t-116.5 37zM461 81q-35 -41 -80.5 -66t-99.5 -25q-58 0 -102.5 20t-74.5 54t-45.5 78.5t-15.5 93.5q0 69 22 124t59 93.5t86 59t104 20.5
q48 0 90.5 -16t65.5 -36l58 63h14l-5 -108v-333q0 -13 2.5 -20t9.5 -11.5t19.5 -6.5t31.5 -5l28 -4v-30l-164 -36h-8zM307 601q-93 0 -133 52.5t-40 146.5h36q5 -39 17.5 -66t31 -43.5t41 -23.5t47.5 -7t47.5 7t41 23.5t31.5 43.5t17 66h36q0 -94 -40 -146.5t-133 -52.5z
" />
    <glyph glyph-name="ytilde.school" unicode="&#xe160;" horiz-adv-x="628" 
d="M298 -250q-37 0 -72.5 7.5t-63 22.5t-44.5 38.5t-17 55.5q0 24 10.5 38.5t26.5 22.5h44v-24q0 -63 31.5 -91.5t98.5 -28.5q84 0 119 53t35 170v81q-16 -18 -35.5 -36t-42.5 -32.5t-51 -23.5t-61 -9q-35 0 -65 9t-52.5 29t-35 51.5t-12.5 77.5v279q0 29 -16 36.5t-58 12.5
l-18 1v33l151 10h22l-5 -106v-258q0 -62 31.5 -89.5t81.5 -27.5t91 27t75 58v303q0 29 -16 36.5t-58 12.5l-19 1v33l152 10h22l-5 -106v-448q0 -55 -17 -97.5t-49 -72t-77 -44.5t-101 -15zM372 610q-24 0 -45 9t-39.5 20.5t-35.5 20.5t-34 9q-13 0 -22 -2t-16.5 -7.5
t-15 -15.5t-16.5 -27l-33 5q18 49 48 77t76 28q24 0 45 -9.5t39.5 -20.5t35.5 -20.5t34 -9.5q26 0 39 9.5t31 42.5l33 -4q-18 -50 -48 -77.5t-76 -27.5z" />
    <glyph glyph-name="g.school" unicode="&#xe161;" horiz-adv-x="630" 
d="M470 81q-36 -41 -82.5 -66t-101.5 -25q-59 0 -104.5 20t-76 54t-46.5 78.5t-16 93.5q0 69 22.5 124t60.5 93.5t88 59t106 20.5q48 0 92 -16t67 -36l58 63h14l-5 -108v-459q0 -56 -20 -98.5t-55 -71t-82.5 -43t-103.5 -14.5q-37 0 -74 7.5t-66 22.5t-47.5 38.5t-18.5 55.5
q0 24 10.5 38.5t26.5 22.5h45v-24q0 -63 35.5 -91.5t102.5 -28.5q83 0 127 47.5t44 164.5v78zM308 485q-84 0 -135 -57t-51 -163q0 -44 11.5 -83t35 -68.5t58.5 -46.5t81 -17q50 0 92 21t70 53v212q0 75 -42.5 112t-119.5 37z" />
    <glyph glyph-name="gcircumflex.school" unicode="&#xe163;" horiz-adv-x="630" 
d="M489 592h-34l-142 134l-142 -134h-34l148 208h56zM470 81q-36 -41 -82.5 -66t-101.5 -25q-59 0 -104.5 20t-76 54t-46.5 78.5t-16 93.5q0 69 22.5 124t60.5 93.5t88 59t106 20.5q48 0 92 -16t67 -36l58 63h14l-5 -108v-459q0 -56 -20 -98.5t-55 -71t-82.5 -43
t-103.5 -14.5q-37 0 -74 7.5t-66 22.5t-47.5 38.5t-18.5 55.5q0 24 10.5 38.5t26.5 22.5h45v-24q0 -63 35.5 -91.5t102.5 -28.5q83 0 127 47.5t44 164.5v78zM308 485q-84 0 -135 -57t-51 -163q0 -44 11.5 -83t35 -68.5t58.5 -46.5t81 -17q50 0 92 21t70 53v212
q0 75 -42.5 112t-119.5 37z" />
    <glyph glyph-name="gbreve.school" unicode="&#xe166;" horiz-adv-x="630" 
d="M470 81q-36 -41 -82.5 -66t-101.5 -25q-59 0 -104.5 20t-76 54t-46.5 78.5t-16 93.5q0 69 22.5 124t60.5 93.5t88 59t106 20.5q48 0 92 -16t67 -36l58 63h14l-5 -108v-459q0 -56 -20 -98.5t-55 -71t-82.5 -43t-103.5 -14.5q-37 0 -74 7.5t-66 22.5t-47.5 38.5t-18.5 55.5
q0 24 10.5 38.5t26.5 22.5h45v-24q0 -63 35.5 -91.5t102.5 -28.5q83 0 127 47.5t44 164.5v78zM308 485q-84 0 -135 -57t-51 -163q0 -44 11.5 -83t35 -68.5t58.5 -46.5t81 -17q50 0 92 21t70 53v212q0 75 -42.5 112t-119.5 37zM314 601q-93 0 -133 52.5t-40 146.5h36
q5 -39 17.5 -66t31 -43.5t41 -23.5t47.5 -7t47.5 7t41 23.5t31.5 43.5t17 66h36q0 -94 -40 -146.5t-133 -52.5z" />
    </font>
</defs>
</svg>
