<?xml version="1.0" standalone="no"?>
<!DOCTYPE svg PUBLIC "-//W3C//DTD SVG 1.1//EN" "http://www.w3.org/Graphics/SVG/1.1/DTD/svg11.dtd" >
<svg xmlns="http://www.w3.org/2000/svg" xmlns:xlink="http://www.w3.org/1999/xlink" version="1.1">
<metadata>
Created by FontForge 20170910 at Tue Jul 12 21:23:45 2016
 By Jimmy Wärting
Copyright (c) 2009-13 by Village Type &#38; Design LLC. All rights reserved.
</metadata>
<defs>
<font id="Copernicus-Extrabold" horiz-adv-x="700" >
  <font-face 
    font-family="Copernicus Extrabold"
    font-weight="751"
    font-stretch="normal"
    units-per-em="1000"
    panose-1="2 0 0 0 0 0 0 0 0 0"
    ascent="800"
    descent="-200"
    x-height="546"
    cap-height="780"
    bbox="-158 -307 1480 1040"
    underline-thickness="30"
    underline-position="-100"
    unicode-range="U+000D-F614"
  />
<missing-glyph horiz-adv-x="960" 
d="M90 780h780v-780h-780v780zM201 66h558l-279 279zM480 435l279 279h-558zM160 665v-550l275 275zM800 115v550l-275 -275z" />
    <glyph glyph-name="fi" unicode="fi" horiz-adv-x="752" 
d="M658 448v-330q0 -34 15 -43t49 -14v-61h-308v61q35 5 49.5 14t14.5 43v357h-189v-357q0 -34 15 -43t49 -14v-61h-308v61q35 5 49.5 14t14.5 43v357h-77v51l77 39v8q0 56 20.5 100t59 74.5t93 46.5t121.5 16q110 0 158 -31t48 -84q0 -23 -9.5 -43t-34.5 -32h-130v47
q0 38 -13.5 59.5t-48.5 21.5q-46 0 -65 -40t-19 -119v-43h374z" />
    <glyph glyph-name="fl" unicode="fl" horiz-adv-x="752" 
d="M624 810h39l-5 -87v-605q0 -34 15 -43t49 -14v-61h-308v61q35 5 49.5 14t14.5 43v565q-21 30 -48.5 45t-55.5 15q-42 0 -63.5 -25.5t-21.5 -82.5v-89h119v-71h-119v-357q0 -34 15 -43t49 -14v-61h-308v61q35 5 49.5 14t14.5 43v357h-77v51l77 39v8q0 56 18.5 100
t52.5 74.5t81.5 46.5t104.5 16q92 0 149 -37z" />
    <glyph glyph-name=".notdef" horiz-adv-x="960" 
d="M90 780h780v-780h-780v780zM201 66h558l-279 279zM480 435l279 279h-558zM160 665v-550l275 275zM800 115v550l-275 -275z" />
    <glyph glyph-name=".null" horiz-adv-x="0" 
 />
    <glyph glyph-name=".null" horiz-adv-x="0" 
 />
    <glyph glyph-name="nonmarkingreturn" unicode="&#xd;" horiz-adv-x="250" 
 />
    <glyph glyph-name="space" unicode=" " horiz-adv-x="200" 
 />
    <glyph glyph-name="exclam" unicode="!" horiz-adv-x="354" 
d="M70 96q0 23 8.5 42.5t23 34t33.5 23t41 8.5q23 0 42.5 -8.5t34 -23t23 -34t8.5 -42.5q0 -22 -8.5 -41t-23 -33.5t-34 -23t-42.5 -8.5q-22 0 -41 8.5t-33.5 23t-23 33.5t-8.5 41zM285 734l-23 -158q-6 -43 -13 -90t-12.5 -90.5t-9.5 -80t-5 -60.5h-90q-1 24 -5 60.5
t-9.5 80t-12.5 90.5t-13 90l-23 158v46h216v-46z" />
    <glyph glyph-name="quotedbl" unicode="&#x22;" horiz-adv-x="528" 
d="M126 480l-46 300h164l-46 -300h-72zM330 480l-46 300h164l-46 -300h-72z" />
    <glyph glyph-name="numbersign" unicode="#" horiz-adv-x="662" 
d="M534 569h88v-98h-109l-35 -166h107v-98h-128l-44 -207h-102l44 207h-127l-44 -207h-102l44 207h-86v98h107l35 166h-105v98h126l45 211h102l-45 -211h127l45 211h102zM249 305h127l35 166h-127z" />
    <glyph glyph-name="dollar" unicode="$" horiz-adv-x="672" 
d="M235 -4q-57 8 -104.5 25.5t-78.5 40.5l-12 187h100q17 -65 43.5 -106.5t67.5 -61.5l39 222l-40 12q-46 13 -83.5 32t-64 46t-40.5 64.5t-14 87.5q0 57 21 102.5t58.5 77t89.5 48.5t113 17q12 0 24 -0.5t23 -1.5l21 117h60l-22 -123q48 -8 86.5 -23t66.5 -35l2 -170h-86
q-14 44 -34 78.5t-52 56.5l-36 -205l31 -8q45 -13 85 -30.5t69.5 -45t46.5 -67.5t17 -97q0 -63 -25.5 -109.5t-68.5 -76.5t-100.5 -45t-122.5 -15q-5 0 -10.5 0.5t-10.5 0.5l-20 -116h-60zM347 287l-39 -222q7 -1 14.5 -1.5t15.5 -0.5q55 0 91 26t36 79q0 46 -25 73t-92 46
h-1zM207 621q0 -51 27.5 -77t90.5 -44l38 212q-23 5 -48 5q-53 0 -80.5 -27t-27.5 -69z" />
    <glyph glyph-name="percent" unicode="%" horiz-adv-x="1030" 
d="M50 583q0 52 16.5 90.5t44.5 64.5t65 39t78 13t78 -13t65 -39t44.5 -64.5t16.5 -90.5t-16.5 -90.5t-44.5 -64.5t-65 -39t-78 -13t-78 13t-65 39t-44.5 64.5t-16.5 90.5zM324 583q0 71 -17.5 113t-52.5 42t-52.5 -42t-17.5 -113t17.5 -113t52.5 -42t52.5 42t17.5 113z
M301 0h-89l517 780h89zM980 197q0 -52 -16.5 -90.5t-44.5 -64.5t-65 -39t-78 -13t-78 13t-65 39t-44.5 64.5t-16.5 90.5t16.5 90.5t44.5 64.5t65 39t78 13t78 -13t65 -39t44.5 -64.5t16.5 -90.5zM706 197q0 -71 17.5 -113t52.5 -42t52.5 42t17.5 113t-17.5 113t-52.5 42
t-52.5 -42t-17.5 -113z" />
    <glyph glyph-name="ampersand" unicode="&#x26;" horiz-adv-x="873" 
d="M742 317q-4 -37 -16 -71t-31 -65l53 -52q30 -29 53.5 -44t61.5 -19v-66h-222q-20 10 -36 22t-35 31q-52 -30 -114 -46.5t-134 -16.5q-62 0 -116.5 12t-95 38t-63.5 66t-23 95q0 78 48.5 127t140.5 81q-25 28 -48.5 70t-23.5 105q0 48 17.5 86t49.5 65t78 41t103 14
q109 0 167 -45.5t58 -125.5q0 -34 -14 -61.5t-39 -50t-57.5 -39t-70.5 -28.5l207 -205q17 39 17 82q0 23 -3.5 37t-13 22.5t-27 12t-45.5 4.5v66h266v-66q-28 -1 -45 -4.5t-27 -12t-14 -22.5t-6 -37zM383 74q35 0 69 7.5t65 22.5l-261 261q-22 -20 -32.5 -48.5t-10.5 -74.5
q0 -37 12.5 -67.5t35 -53t54 -35t68.5 -12.5zM309 633q0 -50 22.5 -83t54.5 -65q39 26 57.5 58.5t18.5 79.5q0 44 -21 71t-57 27q-34 0 -54.5 -23t-20.5 -65z" />
    <glyph glyph-name="quotesingle" unicode="'" horiz-adv-x="324" 
d="M126 480l-46 300h164l-46 -300h-72z" />
    <glyph glyph-name="parenleft" unicode="(" horiz-adv-x="430" 
d="M70 350q0 150 58.5 266.5t167.5 213.5l64 -57q-41 -41 -75.5 -86t-60 -96.5t-39.5 -111t-14 -129.5t14 -129.5t39.5 -111t60 -96.5t75.5 -86l-64 -57q-109 97 -167.5 213.5t-58.5 266.5z" />
    <glyph glyph-name="parenright" unicode=")" horiz-adv-x="430" 
d="M360 350q0 -150 -58 -266.5t-168 -213.5l-64 57q41 41 75.5 86t60 96.5t39.5 111t14 129.5t-14 129.5t-39.5 111t-60 96.5t-75.5 86l64 57q110 -97 168 -213.5t58 -266.5z" />
    <glyph glyph-name="asterisk" unicode="*" horiz-adv-x="466" 
d="M63 695l119 -24l14 119h76l14 -120l116 24l24 -72l-110 -51l59 -103l-61 -45l-83 89l-80 -88l-61 44l59 105l-109 51z" />
    <glyph glyph-name="plus" unicode="+" 
d="M303 253h-223v94h223v223h94v-223h223v-94h-223v-223h-94v223z" />
    <glyph glyph-name="comma" unicode="," horiz-adv-x="354" 
d="M141 8q-71 17 -71 97q0 42 26 70.5t73 28.5q56 0 87.5 -35.5t31.5 -102.5q0 -105 -59 -165t-178 -68v64q59 9 98.5 33.5t42.5 77.5h-51z" />
    <glyph glyph-name="hyphen" unicode="-" horiz-adv-x="400" 
d="M50 271v116h300v-116h-300z" />
    <glyph glyph-name="period" unicode="." horiz-adv-x="354" 
d="M70 96q0 23 8.5 42.5t23 34t33.5 23t41 8.5q23 0 42.5 -8.5t34 -23t23 -34t8.5 -42.5q0 -22 -8.5 -41t-23 -33.5t-34 -23t-42.5 -8.5q-22 0 -41 8.5t-33.5 23t-23 33.5t-8.5 41z" />
    <glyph glyph-name="slash" unicode="/" horiz-adv-x="420" 
d="M100 -120h-95l290 950h95z" />
    <glyph glyph-name="zero" unicode="0" 
d="M350 790q74 0 132 -27.5t98 -79t60.5 -125.5t20.5 -168t-20.5 -168t-60.5 -125.5t-98 -79t-132 -27.5t-132 27.5t-97.5 79t-60.5 125.5t-21 168t21 168t60.5 125.5t97.5 79t132 27.5zM350 714q-34 0 -54 -22t-30.5 -64t-13.5 -102t-3 -136t3 -136t13.5 -102t30.5 -64
t54 -22t54 22t30.5 64t13.5 102t3 136t-3 136t-13.5 102t-30.5 64t-54 22z" />
    <glyph glyph-name="one" unicode="1" 
d="M467 790v-645q0 -25 12 -39.5t35.5 -22.5t58 -11t79.5 -6v-66h-562v66q45 3 79.5 6t58 11t35.5 22.5t12 39.5v438h-185v61l48 8q77 13 147.5 46t123.5 92h58z" />
    <glyph glyph-name="two" unicode="2" 
d="M408 150q28 0 48 3t37.5 15t34 35t37.5 62h52l-28 -265h-560v55l217 213q40 39 65.5 71t40 61t20 57t5.5 59q0 63 -34.5 97t-94.5 34q-29 0 -51.5 -7t-41 -18t-34 -25t-30.5 -28l-40 40q21 38 48 70.5t62.5 57.5t80 39t99.5 14q112 0 176 -56t64 -159q0 -60 -27 -110.5
t-73 -100t-108 -101.5t-131 -113h166z" />
    <glyph glyph-name="three" unicode="3" 
d="M405 450q48 -5 88.5 -22t69.5 -45.5t45 -66.5t16 -85q0 -60 -26.5 -105t-69.5 -75t-98.5 -45.5t-113.5 -15.5q-65 0 -114.5 13.5t-83 36t-50.5 53t-17 64.5q0 29 16 50t35 30h115v-39q0 -69 30 -105.5t88 -36.5q48 0 74.5 35t26.5 88q0 80 -46.5 127t-130.5 47h-25
l-15 45q92 36 131 73.5t39 86.5q0 40 -23.5 67.5t-76.5 27.5q-55 0 -92 -23.5t-66 -52.5l-43 37q20 38 47 70t61.5 55.5t77 37t91.5 13.5t88 -12t66.5 -34t42.5 -52.5t15 -67.5q0 -40 -17 -69.5t-43 -50t-56 -33.5t-56 -21z" />
    <glyph glyph-name="four" unicode="4" 
d="M358 282v325l-241 -325h241zM358 201h-344v65l379 514h150v-498h120v-81h-120v-59q0 -22 4 -36.5t14 -23t28 -12t46 -4.5v-66h-369v66q28 1 46 4.5t28 12t14 23t4 36.5v59z" />
    <glyph glyph-name="five" unicode="5" 
d="M326 -10q-65 0 -114.5 13t-83 35t-50.5 52t-17 64q0 29 16 51.5t35 31.5h115v-32q0 -147 117 -147q55 0 81.5 32t26.5 81q0 86 -80.5 134t-261.5 48l71 427h238q24 0 41 1.5t30 7t23 15t20 24.5h50l-39 -219h-327l-16 -91q92 0 167 -16.5t129 -50t83.5 -86t29.5 -124.5
q0 -60 -21.5 -107t-59 -79t-89.5 -48.5t-114 -16.5z" />
    <glyph glyph-name="six" unicode="6" 
d="M549 751q-124 -46 -198 -124t-101 -180q29 26 70 43.5t101 17.5q53 0 97 -15.5t76 -46t50 -75t18 -101.5q0 -71 -26.5 -124t-69 -87.5t-96 -51.5t-107.5 -17q-73 0 -132.5 22.5t-101 64.5t-64 103t-22.5 138q0 84 31.5 161.5t91 141.5t144.5 109.5t191 64.5zM324 405
q-27 0 -47.5 -4.5t-38.5 -12.5q-2 -17 -3 -34.5t-1 -34.5q0 -54 8 -100.5t24.5 -80.5t42 -53.5t61.5 -19.5q55 0 86.5 41.5t31.5 113.5q0 38 -10.5 71.5t-31.5 59t-51.5 40t-70.5 14.5z" />
    <glyph glyph-name="seven" unicode="7" 
d="M221 607q-38 0 -62.5 -27t-44.5 -80h-63l53 280h565v-47l-323 -733h-149l326 607h-302z" />
    <glyph glyph-name="eight" unicode="8" 
d="M614 609q0 -33 -12 -59.5t-32.5 -46t-48 -32.5t-59.5 -21l16 -6q85 -32 127 -84t42 -132q0 -55 -21 -99t-59.5 -75t-93 -47.5t-121.5 -16.5q-69 0 -124 13t-94 38t-60 61t-21 82q0 71 45.5 113t114.5 58l-6 3q-58 29 -92 77.5t-34 121.5q0 54 19 97t54 73.5t85 46.5
t111 16t110 -12.5t83 -36t52.5 -57t18.5 -75.5zM256 332q-28 -23 -41 -59t-13 -70q0 -69 42.5 -104t108.5 -35q62 0 97 26.5t35 76.5q0 42 -25.5 67t-82.5 48zM411 473q26 21 43.5 55.5t17.5 72.5q0 54 -31 84.5t-91 30.5q-56 0 -85.5 -27.5t-29.5 -69.5q0 -39 22 -64
t66 -44z" />
    <glyph glyph-name="nine" unicode="9" 
d="M151 29q124 46 198 124t101 180q-29 -26 -70 -43.5t-101 -17.5q-52 0 -96.5 15.5t-76.5 46t-50 75t-18 101.5q0 71 26.5 124t69 87.5t96 51.5t107.5 17q74 0 133 -22.5t100.5 -64.5t64 -103t22.5 -138q0 -84 -31.5 -161.5t-91 -141.5t-144 -109t-191.5 -65zM376 375
q27 0 47.5 4.5t38.5 12.5q2 17 3 34.5t1 34.5q0 54 -8 100.5t-24.5 80.5t-42 53.5t-61.5 19.5q-55 0 -86.5 -41.5t-31.5 -113.5q0 -38 10.5 -71.5t31.5 -59t51.5 -40t70.5 -14.5z" />
    <glyph glyph-name="colon" unicode=":" horiz-adv-x="354" 
d="M70 96q0 23 8.5 42.5t23 34t33.5 23t41 8.5q23 0 42.5 -8.5t34 -23t23 -34t8.5 -42.5q0 -22 -8.5 -41t-23 -33.5t-34 -23t-42.5 -8.5q-22 0 -41 8.5t-33.5 23t-23 33.5t-8.5 41zM70 386q0 23 8.5 42.5t23 34t33.5 23t41 8.5q23 0 42.5 -8.5t34 -23t23 -34t8.5 -42.5
q0 -22 -8.5 -41t-23 -33.5t-34 -23t-42.5 -8.5q-22 0 -41 8.5t-33.5 23t-23 33.5t-8.5 41z" />
    <glyph glyph-name="semicolon" unicode=";" horiz-adv-x="354" 
d="M141 8q-71 17 -71 97q0 42 26 70.5t73 28.5q56 0 87.5 -35.5t31.5 -102.5q0 -105 -59 -165t-178 -68v64q59 9 98.5 33.5t42.5 77.5h-51zM70 386q0 23 8.5 42.5t23 34t33.5 23t41 8.5q23 0 42.5 -8.5t34 -23t23 -34t8.5 -42.5q0 -22 -8.5 -41t-23 -33.5t-34 -23
t-42.5 -8.5q-22 0 -41 8.5t-33.5 23t-23 33.5t-8.5 41z" />
    <glyph glyph-name="less" unicode="&#x3c;" 
d="M185 300l120 -50l315 -139v-102l-540 244v94l540 244v-102l-315 -139z" />
    <glyph glyph-name="equal" unicode="=" 
d="M80 348v94h540v-94h-540zM80 158v94h540v-94h-540z" />
    <glyph glyph-name="greater" unicode="&#x3e;" 
d="M515 300l-120 50l-315 139v102l540 -244v-94l-540 -244v102l315 139z" />
    <glyph glyph-name="question" unicode="?" horiz-adv-x="527" 
d="M340 641q0 39 -20.5 58.5t-54.5 19.5q-42 0 -60 -28.5t-18 -68.5v-58h-120q-22 12 -30 31t-8 41q0 32 18.5 60t50.5 49t75.5 33t93.5 12q115 0 177.5 -45t62.5 -133q0 -33 -9.5 -60t-26.5 -50.5t-41 -45t-54 -43.5q-22 -17 -39 -31.5t-28 -29.5t-16.5 -32t-5.5 -40v-25
h-60q-20 17 -36.5 48.5t-16.5 66.5q0 42 13.5 74t48.5 66q16 15 34 28.5t33.5 28.5t26 32.5t10.5 41.5zM151 96q0 23 8.5 42.5t23 34t33.5 23t41 8.5q23 0 42.5 -8.5t34 -23t23 -34t8.5 -42.5q0 -22 -8.5 -41t-23 -33.5t-34 -23t-42.5 -8.5q-22 0 -41 8.5t-33.5 23t-23 33.5
t-8.5 41z" />
    <glyph glyph-name="at" unicode="@" horiz-adv-x="1131" 
d="M475 123q29 0 55 32t55 87q14 27 27 56.5t24 58t19 54t11 44.5q-8 5 -21 9t-33 4q-38 0 -70.5 -27.5t-56 -69t-37 -90.5t-13.5 -93q0 -30 9 -47.5t31 -17.5zM786 91q36 0 70 18t59.5 54.5t41 91t15.5 126.5q0 70 -25 133t-72.5 110t-115.5 75t-154 28q-101 0 -183 -35.5
t-139.5 -99.5t-89 -152.5t-31.5 -194.5q0 -96 35 -173t95 -131t140.5 -83t171.5 -29q49 0 90.5 4t79.5 13t75 23.5t77 35.5l26 -39q-66 -54 -155.5 -85t-204.5 -31q-112 0 -209 34.5t-169 98.5t-113 155.5t-41 204.5q0 118 40.5 218t113 173t172.5 114.5t219 41.5
q110 0 197 -33t147.5 -89.5t92.5 -130.5t32 -156q0 -96 -30 -165.5t-80 -114t-115.5 -65.5t-137.5 -21q-58 0 -81.5 25.5t-23.5 68.5q0 34 10 74t22 81h-4q-11 -27 -25 -55.5t-38 -70.5q-32 -55 -74.5 -89t-97.5 -34q-57 0 -90.5 41.5t-33.5 115.5q0 71 24 134.5t67.5 112
t104.5 77t135 28.5q38 0 71 -9.5t61 -35.5l58 52h62l-32 -104q-11 -42 -21.5 -89.5t-18.5 -91t-12.5 -78.5t-4.5 -54q0 -14 4 -18.5t13 -4.5z" />
    <glyph glyph-name="A" unicode="A" horiz-adv-x="876" 
d="M532 239h-304l-31 -80q-5 -13 -8.5 -24t-3.5 -21q0 -25 16 -35.5t68 -12.5v-66h-259v66q23 4 40 11t26 30l245 583l-37 90h212l304 -673q11 -23 26.5 -30t39.5 -11v-66h-370v66q52 2 68 12.5t16 35.5q0 18 -12 45zM256 312h243l-127 283z" />
    <glyph glyph-name="B" unicode="B" horiz-adv-x="813" 
d="M40 66q28 1 46 4.5t28 12t14 23t4 36.5v496q0 23 -4 37t-14 22.5t-28 12t-46 4.5v66h422q132 0 203.5 -48.5t71.5 -146.5q0 -42 -16 -74t-43 -54.5t-63 -35.5t-77 -18q116 -7 183 -54.5t67 -135.5q0 -101 -75 -157t-218 -56h-455v66zM325 363v-218q0 -45 25 -60t76 -15
h29q67 0 99 39t32 100q0 34 -8 62.5t-26.5 48.5t-50.5 31.5t-80 11.5h-96zM325 705v-267h73q75 0 111 33t36 107q0 60 -38 93.5t-110 33.5h-72z" />
    <glyph glyph-name="C" unicode="C" horiz-adv-x="815" 
d="M479 72q82 0 131 48.5t81 148.5h92l-19 -208q-54 -33 -131 -52t-171 -19q-103 0 -182 29.5t-132 81.5t-80.5 122.5t-27.5 151.5q0 96 33 172.5t90.5 130.5t135 83t165.5 29q91 0 161.5 -22.5t118.5 -60.5l3 -178h-94q-13 43 -30.5 77t-42 58t-58 36.5t-77.5 12.5
q-53 0 -90.5 -25.5t-61 -67.5t-34 -97t-10.5 -114q0 -72 13.5 -133.5t42 -106.5t72 -71t102.5 -26z" />
    <glyph glyph-name="D" unicode="D" horiz-adv-x="930" 
d="M325 705v-552q0 -49 22.5 -63.5t73.5 -14.5h36q48 0 89.5 16t72 52t47.5 95t17 146q0 74 -16.5 133t-50.5 101t-86 64.5t-124 22.5h-81zM467 780q109 0 189 -29t132 -79t77 -117t25 -143q0 -100 -30.5 -177t-85 -129t-129.5 -79t-164 -27h-441v66q28 1 46 4.5t28 12
t14 23t4 36.5v496q0 23 -4 37t-14 22.5t-28 12t-46 4.5v66h427z" />
    <glyph glyph-name="E" unicode="E" horiz-adv-x="788" 
d="M528 273q-9 51 -26.5 70.5t-55.5 19.5h-121v-213q0 -45 24 -60t72 -15h59q31 0 54 7.5t44 25t42.5 46.5t48.5 71h79l-35 -225h-673v66q28 1 46 4.5t28 12t14 23t4 36.5v496q0 23 -4 37t-14 22.5t-28 12t-46 4.5v66h668l3 -208h-80q-14 35 -27.5 60t-31.5 41t-42 24t-58 8
h-147v-267h121q38 0 55.5 19.5t26.5 70.5h71v-255h-71z" />
    <glyph glyph-name="F" unicode="F" horiz-adv-x="728" 
d="M40 0v66q28 1 46 4.5t28 12t14 23t4 36.5v496q0 23 -4 37t-14 22.5t-28 12t-46 4.5v66h655l3 -208h-80q-14 35 -27.5 60t-31.5 41t-42 24t-58 8h-134v-278h101q38 0 55.5 19.5t26.5 70.5h71v-255h-71q-9 51 -26.5 70.5t-55.5 19.5h-101v-210q0 -45 31 -59t101 -17v-66
h-417z" />
    <glyph glyph-name="G" unicode="G" horiz-adv-x="884" 
d="M40 375q0 96 33 172.5t90.5 130.5t135 83t165.5 29q91 0 161.5 -22.5t118.5 -60.5l3 -178h-94q-13 43 -30.5 77t-42 58t-58 36.5t-77.5 12.5q-53 0 -90.5 -25.5t-61 -67.5t-34 -97t-10.5 -114q0 -72 13.5 -133.5t42 -106.5t72 -71t102.5 -26q29 0 50.5 4.5t44.5 18.5v137
q0 23 -4 37t-14 22.5t-28 12t-46 4.5v66h377v-66q-28 -1 -46 -4.5t-28 -12t-14 -22.5t-4 -37v-162q-57 -35 -136.5 -57.5t-173.5 -22.5q-101 0 -179 29.5t-131 81.5t-80 122.5t-27 151.5z" />
    <glyph glyph-name="H" unicode="H" horiz-adv-x="989" 
d="M664 363h-339v-221q0 -22 4 -36.5t14 -23t28 -12t46 -4.5v-66h-377v66q28 1 46 4.5t28 12t14 23t4 36.5v496q0 23 -4 37t-14 22.5t-28 12t-46 4.5v66h377v-66q-28 -1 -46 -4.5t-28 -12t-14 -22.5t-4 -37v-200h339v200q0 23 -4 37t-14 22.5t-28 12t-46 4.5v66h377v-66
q-28 -1 -46 -4.5t-28 -12t-14 -22.5t-4 -37v-496q0 -22 4 -36.5t14 -23t28 -12t46 -4.5v-66h-377v66q28 1 46 4.5t28 12t14 23t4 36.5v221z" />
    <glyph glyph-name="I" unicode="I" horiz-adv-x="457" 
d="M132 638q0 23 -4 37t-14 22.5t-28 12t-46 4.5v66h377v-66q-28 -1 -46 -4.5t-28 -12t-14 -22.5t-4 -37v-496q0 -22 4 -36.5t14 -23t28 -12t46 -4.5v-66h-377v66q28 1 46 4.5t28 12t14 23t4 36.5v496z" />
    <glyph glyph-name="J" unicode="J" horiz-adv-x="685" 
d="M568 233q0 -118 -78 -180.5t-218 -62.5q-126 0 -194 40.5t-68 117.5q0 37 16.5 61t37.5 38h132v-46q0 -72 19 -106.5t65 -34.5q52 0 73.5 40t21.5 116v422q0 23 -4 37t-14 22.5t-28 12t-46 4.5v66h377v-66q-28 -1 -46 -4.5t-28 -12t-14 -22.5t-4 -37v-405z" />
    <glyph glyph-name="K" unicode="K" horiz-adv-x="906" 
d="M796 128q15 -18 25.5 -29t20.5 -17.5t22.5 -10t31.5 -5.5v-66h-220q-29 15 -52 41t-53 62l-241 294l257 236q14 14 22.5 24t8.5 24t-14 22.5t-59 10.5v66h306v-66q-24 -4 -50.5 -13t-44.5 -25l-239 -221zM132 638q0 23 -4 37t-14 22.5t-28 12t-46 4.5v66h377v-66
q-28 -1 -46 -4.5t-28 -12t-14 -22.5t-4 -37v-496q0 -22 4 -36.5t14 -23t28 -12t46 -4.5v-66h-377v66q28 1 46 4.5t28 12t14 23t4 36.5v496z" />
    <glyph glyph-name="L" unicode="L" horiz-adv-x="763" 
d="M325 150q0 -45 24 -60t72 -15h57q31 0 52.5 7.5t41.5 27.5t42.5 55.5t55.5 91.5h84l-41 -257h-673v66q28 1 46 4.5t28 12t14 23t4 36.5v496q0 23 -4 37t-14 22.5t-28 12t-46 4.5v66h377v-66q-28 -1 -46 -4.5t-28 -12t-14 -22.5t-4 -37v-488z" />
    <glyph glyph-name="M" unicode="M" horiz-adv-x="1139" 
d="M772 570l-209 -570h-83l-217 570l-56 -406q-1 -6 -1.5 -15t-0.5 -12q0 -41 24 -54.5t84 -16.5v-66h-298v66q48 2 69 15t26 52l71 500q0 44 -19.5 61.5t-75.5 19.5v66h304q2 -19 6 -32.5t13 -36.5l166 -440l154 440q8 23 12 36.5t6 32.5h306v-66q-56 -2 -75.5 -19.5
t-19.5 -61.5l71 -500q5 -39 26 -52t69 -15v-66h-398v66q60 3 84 16.5t24 54.5q0 3 -0.5 12t-1.5 15z" />
    <glyph glyph-name="N" unicode="N" horiz-adv-x="932" 
d="M132 649q-25 31 -42.5 47t-49.5 18v66h272l400 -460v318q0 45 -23 59.5t-79 16.5v66h292v-66q-28 -1 -46 -4.5t-28 -12t-14 -22.5t-4 -37v-638h-69l-511 577v-435q0 -45 23 -59.5t79 -16.5v-66h-292v66q28 1 46 4.5t28 12t14 23t4 36.5v507z" />
    <glyph glyph-name="O" unicode="O" horiz-adv-x="880" 
d="M455 70q46 0 79 23.5t54.5 65t32 97.5t10.5 120q0 69 -13.5 130t-39.5 106t-64.5 71.5t-88.5 26.5q-46 0 -79 -23.5t-54.5 -65t-32 -97t-10.5 -120.5q0 -69 13.5 -130t39.5 -106t64.5 -71.5t88.5 -26.5zM429 -10q-93 0 -165.5 32t-122 85t-75.5 122.5t-26 145.5
q0 96 31.5 172.5t86.5 130.5t130.5 83t162.5 29q93 0 165.5 -31.5t122 -85t75.5 -123t26 -145.5q0 -96 -31.5 -172.5t-86.5 -130.5t-130.5 -83t-162.5 -29z" />
    <glyph glyph-name="P" unicode="P" horiz-adv-x="787" 
d="M325 304v-162q0 -45 31 -59t101 -17v-66h-417v66q28 1 46 4.5t28 12t14 23t4 36.5v496q0 23 -4 37t-14 22.5t-28 12t-46 4.5v66h407q83 0 141.5 -18.5t96 -50.5t55 -74.5t17.5 -91.5q0 -110 -74.5 -175.5t-232.5 -65.5h-125zM325 374h72q83 0 122.5 42t39.5 127
q0 72 -44 117t-125 45h-65v-331z" />
    <glyph glyph-name="Q" unicode="Q" horiz-adv-x="880" 
d="M357 -1q-76 12 -135.5 46.5t-99.5 85t-61 113.5t-21 131q0 96 31.5 172.5t86.5 130.5t130.5 83t162.5 29q93 0 165.5 -31.5t122 -85t75.5 -123t26 -145.5q0 -77 -22.5 -143t-63 -117.5t-96.5 -85.5t-124 -48l114 -62q46 -25 82 -36t80 -11h26v-51q-21 -17 -61.5 -34
t-89.5 -17q-73 0 -134.5 28t-109.5 79zM456 68q46 0 79 23.5t54.5 65t31.5 97.5t10 121q0 69 -13.5 130t-39.5 106.5t-64.5 72t-88.5 26.5q-46 0 -79 -23.5t-54.5 -65t-32 -97.5t-10.5 -121q0 -69 13.5 -130t40 -106.5t65 -72t88.5 -26.5z" />
    <glyph glyph-name="R" unicode="R" horiz-adv-x="892" 
d="M325 705v-293h63q90 0 129.5 35.5t39.5 117.5q0 67 -41 103.5t-128 36.5h-63zM453 780q86 0 144.5 -17t94.5 -46t52 -68.5t16 -83.5q0 -55 -21.5 -94t-55.5 -64t-75.5 -37.5t-81.5 -15.5q50 -8 87 -28t73 -67l89 -114q15 -19 26 -32.5t22 -23t25 -15t34 -8.5v-66h-218
q-26 20 -45.5 42.5t-40.5 51.5l-141 185q-23 30 -43 42.5t-55 12.5h-14v-192q0 -22 4 -36.5t14 -23t28 -12t46 -4.5v-66h-377v66q28 1 46 4.5t28 12t14 23t4 36.5v496q0 23 -4 37t-14 22.5t-28 12t-46 4.5v66h413z" />
    <glyph glyph-name="S" unicode="S" horiz-adv-x="682" 
d="M320 -10q-81 0 -151 20.5t-112 51.5l-12 187h100q25 -94 71 -140t127 -46q55 0 91 26t36 79q0 46 -25 73t-92 46l-98 28q-46 13 -83.5 32t-64 46t-40.5 64.5t-14 87.5q0 57 21 102.5t58.5 77t89.5 48.5t113 17q87 0 152 -18t107 -48l2 -170h-86q-12 36 -27 65.5
t-36.5 51.5t-52.5 34t-74 12q-53 0 -80.5 -27t-27.5 -69q0 -51 28.5 -77t92.5 -44l86 -24q45 -13 85 -30.5t69.5 -45t46.5 -67.5t17 -97q0 -63 -25.5 -109.5t-68.5 -76.5t-100.5 -45t-122.5 -15z" />
    <glyph glyph-name="T" unicode="T" horiz-adv-x="821" 
d="M790 780l16 -251h-81q-20 45 -36.5 79t-35.5 56.5t-43 34t-59 11.5h-44v-568q0 -22 5 -36.5t16.5 -23t30.5 -12t47 -4.5v-66h-391v66q28 1 47 4.5t30.5 12t16.5 23t5 36.5v568h-44q-35 0 -59 -11.5t-43 -34t-35.5 -56.5t-36.5 -79h-81l16 251h759z" />
    <glyph glyph-name="U" unicode="U" horiz-adv-x="886" 
d="M310 288q0 -91 40 -143.5t128 -52.5q41 0 76 9.5t61 33t41 63t15 99.5v341q0 45 -23 59.5t-79 16.5v66h292v-66q-28 -1 -46 -4.5t-28 -12t-14 -22.5t-4 -37v-366q0 -72 -25.5 -125.5t-68.5 -88t-100 -51.5t-119 -17q-162 0 -250.5 71t-88.5 212v365q0 23 -4 37t-14 22.5
t-28 12t-46 4.5v66h377v-66q-28 -1 -46 -4.5t-28 -12t-14 -22.5t-4 -37v-350z" />
    <glyph glyph-name="V" unicode="V" horiz-adv-x="852" 
d="M649 621q5 13 8.5 24t3.5 21q0 26 -16 36t-68 12v66h265v-66q-24 -4 -40 -11t-26 -30l-300 -678h-62l-338 678q-11 23 -26.5 30t-39.5 11v66h377v-66q-52 -2 -68 -12t-16 -36q0 -10 3.5 -21.5t8.5 -23.5l176 -373z" />
    <glyph glyph-name="W" unicode="W" horiz-adv-x="1182" 
d="M985 612q6 18 9.5 31t3.5 23q0 26 -15.5 36t-67.5 12v66h257v-66q-24 -4 -40.5 -10.5t-25.5 -30.5l-254 -678h-81l-166 444l-171 -444h-81l-277 678q-10 23 -26.5 30t-39.5 11v66h371v-66q-52 -2 -67.5 -12t-15.5 -36q0 -10 3.5 -22t11.5 -32l134 -355l113 299l-45 117
q-10 24 -26.5 30.5t-39.5 10.5v66h359v-66q-52 -2 -67.5 -12t-15.5 -36q0 -10 3.5 -22.5t13.5 -40.5l119 -341z" />
    <glyph glyph-name="X" unicode="X" horiz-adv-x="862" 
d="M525 438l255 -331q14 -18 31.5 -27.5t40.5 -13.5v-66h-369v66q39 0 50.5 8t11.5 28q0 11 -6 22t-19 28l-130 166l-135 -166q-14 -17 -19.5 -28t-5.5 -22q0 -20 14 -28t53 -8v-66h-287v66q32 2 54.5 13t36.5 28l234 281l-221 285q-11 15 -27 25.5t-39 15.5v66h376v-66
q-39 0 -53.5 -8t-14.5 -28q0 -12 6.5 -22.5t19.5 -27.5l90 -118l95 118q12 15 18.5 27t6.5 23q0 20 -14.5 28t-53.5 8v66h285v-66q-35 -3 -52.5 -13.5t-31.5 -27.5z" />
    <glyph glyph-name="Y" unicode="Y" horiz-adv-x="832" 
d="M609 607q14 23 19.5 37t5.5 27q0 23 -18 32t-60 11v66h266v-66q-24 -4 -38.5 -12t-27.5 -29l-242 -390v-141q0 -22 5 -36.5t16.5 -23t30.5 -12t47 -4.5v-66h-388v66q28 1 47 4.5t30.5 12t16.5 23t5 36.5v141l-248 390q-14 21 -28 29t-38 12v66h376v-66q-47 -2 -62 -10
t-15 -34t24 -63l140 -222z" />
    <glyph glyph-name="Z" unicode="Z" horiz-adv-x="755" 
d="M455 75q31 0 52.5 7.5t41.5 27.5t42.5 55.5t55.5 91.5h84l-41 -257h-660v48l431 657h-165q-34 0 -56 -9t-38 -27t-30 -45.5t-32 -64.5h-77l3 221h633v-49l-432 -656h188z" />
    <glyph glyph-name="bracketleft" unicode="[" horiz-adv-x="413" 
d="M195 -50h148v-80h-243v960h243v-80h-148v-800z" />
    <glyph glyph-name="backslash" unicode="\" horiz-adv-x="420" 
d="M30 830h95l290 -950h-95z" />
    <glyph glyph-name="bracketright" unicode="]" horiz-adv-x="413" 
d="M218 750h-148v80h243v-960h-243v80h148v800z" />
    <glyph glyph-name="asciicircum" unicode="^" horiz-adv-x="522" 
d="M502 400h-103l-138 296l-138 -296h-103l185 390h112z" />
    <glyph glyph-name="underscore" unicode="_" horiz-adv-x="300" 
d="M20 -200v94h260v-94h-260z" />
    <glyph glyph-name="grave" unicode="`" horiz-adv-x="600" 
d="M354 800l84 -208h-85l-201 208h202z" />
    <glyph glyph-name="a" unicode="a" horiz-adv-x="619" 
d="M276 98q19 0 38.5 6.5t37.5 17.5v152l-91 -34q-26 -11 -36 -26.5t-10 -41.5q0 -32 16.5 -53t44.5 -21zM532 157q0 -33 5 -50.5t28 -17.5q7 0 20 1.5t24 4.5l10 -47q-26 -26 -67 -42t-80 -16q-48 0 -75 23.5t-42 64.5q-14 -15 -32.5 -30.5t-40.5 -27.5t-47.5 -19.5
t-52.5 -7.5q-69 0 -108 37.5t-39 102.5q0 34 10.5 56.5t29 38t43.5 26t54 19.5l180 56v50q0 60 -20.5 87t-57.5 27q-27 0 -41 -17t-14 -46q0 -15 2 -30.5t6 -35.5l-121 -16q-43 17 -43 66q0 35 17.5 61.5t48 44.5t73 27t92.5 9q55 0 99 -9.5t75 -34t47.5 -66t16.5 -105.5
v-184z" />
    <glyph glyph-name="b" unicode="b" horiz-adv-x="690" 
d="M20 734v34l205 42h39l-5 -87v-264q26 43 69 70t103 27q54 0 96.5 -18t72 -51.5t45 -81t15.5 -107.5q0 -73 -24 -130t-66.5 -96.5t-100 -60.5t-123.5 -21q-88 0 -151.5 16.5t-115.5 51.5v625zM346 60q61 0 94 51t33 136q0 92 -35.5 142t-95.5 50q-25 0 -44.5 -5.5
t-38.5 -20.5v-250q0 -103 87 -103z" />
    <glyph glyph-name="c" unicode="c" horiz-adv-x="572" 
d="M195 324q0 -93 41.5 -147.5t125.5 -54.5q49 0 84 20t61 52l43 -22q-29 -87 -91.5 -134.5t-162.5 -47.5q-60 0 -109.5 19t-84 53.5t-53.5 84t-19 109.5q0 68 22.5 123.5t62.5 94.5t94.5 60.5t118.5 21.5q45 0 83.5 -9.5t67 -28t45 -45t16.5 -60.5q0 -29 -12.5 -48
t-32.5 -27h-115v42q0 23 -3 42.5t-11 33.5t-22.5 22.5t-37.5 8.5q-48 0 -79.5 -41.5t-31.5 -121.5z" />
    <glyph glyph-name="d" unicode="d" horiz-adv-x="705" 
d="M344 486q-61 0 -94 -51t-33 -136q0 -92 35.5 -142t95.5 -50q25 0 44.5 5.5t38.5 20.5v259q0 44 -21 69t-66 25zM465 -10h-39l5 97q-26 -43 -69 -70t-103 -27q-54 0 -96.5 18t-72 51.5t-45 81t-15.5 107.5q0 71 22.5 128t62 97t92 61.5t112.5 21.5q32 0 60.5 -6.5
t51.5 -21.5v155l-59 51v34l205 42h39l-5 -87v-584q0 -26 8.5 -39.5t32.5 -13.5h24v-63z" />
    <glyph glyph-name="e" unicode="e" horiz-adv-x="579" 
d="M317 556q57 0 100.5 -17t72.5 -47t44 -70t15 -86v-36h-353q0 -82 44.5 -129.5t125.5 -47.5q47 0 81 19t60 51l41 -22q-11 -34 -30.5 -66.5t-50 -58t-72 -41t-95.5 -15.5q-59 0 -108.5 18t-85.5 52t-56 83t-20 112q0 68 22.5 123.5t61.5 95t91.5 61t111.5 21.5zM297 487
q-46 0 -69.5 -36.5t-29.5 -92.5h187q-1 58 -22 93.5t-66 35.5z" />
    <glyph glyph-name="f" unicode="f" horiz-adv-x="430" 
d="M289 118q0 -17 4.5 -27t14.5 -15.5t26 -8.5t39 -6v-61h-328v61q35 5 49.5 14t14.5 43v357h-77v51l77 39v8q0 56 19 100t54.5 74.5t84.5 46.5t109 16q88 0 126 -29.5t38 -75.5q0 -23 -8.5 -43t-29.5 -32h-116v56q0 31 -9 46.5t-33 15.5q-35 0 -45 -28t-10 -85v-89h119v-71
h-119v-357z" />
    <glyph glyph-name="g" unicode="g" horiz-adv-x="612" 
d="M308 556q32 0 57.5 -4t46.5 -10l195 7v-92h-46l-95 17v-2q37 -16 60.5 -45.5t23.5 -70.5q0 -45 -19.5 -79t-53 -57.5t-79.5 -35.5t-99 -12q-32 0 -63 4.5t-59 14.5q-14 -11 -19.5 -24.5t-5.5 -25.5q0 -14 9.5 -22t29.5 -8h239q95 0 138.5 -40.5t43.5 -111.5
q0 -45 -22 -83.5t-63.5 -66.5t-102 -43.5t-137.5 -15.5q-137 0 -205 37t-68 98q0 40 27 58.5t65 24.5q-33 12 -51.5 40.5t-18.5 66.5q0 49 29.5 82.5t71.5 50.5q-39 22 -62.5 57.5t-23.5 87.5q0 48 19 85.5t53.5 64t81.5 40t103 13.5zM147 -55q-8 -15 -8 -41q0 -44 41 -66
t110 -22q38 0 70 4.5t55.5 14.5t36.5 26t13 39q0 27 -19.5 36t-52.5 9h-246zM307 231q36 0 50 31t14 83q0 67 -17.5 108.5t-63.5 41.5q-35 0 -48.5 -31t-13.5 -83q0 -67 17 -108.5t62 -41.5z" />
    <glyph glyph-name="h" unicode="h" horiz-adv-x="728" 
d="M35 734v34l205 42h39l-5 -87v-265q17 18 37.5 35.5t45 31.5t52.5 22.5t60 8.5q75 0 122.5 -40t47.5 -124v-274q0 -34 15 -43t49 -14v-61h-308v61q35 5 49.5 14t14.5 43v252q0 37 -17.5 54t-55.5 17q-31 0 -60.5 -8.5t-51.5 -19.5v-295q0 -34 15 -43t49 -14v-61h-308v61
q35 5 49.5 14t14.5 43v565z" />
    <glyph glyph-name="i" unicode="i" horiz-adv-x="378" 
d="M284 118q0 -34 15 -43t49 -14v-61h-308v61q35 5 49.5 14t14.5 43v300l-59 54v34l205 54h39l-5 -98v-344zM85 710q0 44 28.5 73t79.5 29q52 0 80.5 -29t28.5 -73q0 -43 -28.5 -72t-80.5 -29q-51 0 -79.5 29t-28.5 72z" />
    <glyph glyph-name="j" unicode="j" horiz-adv-x="330" 
d="M23 472v34l205 54h39l-5 -98v-371q0 -41 -4.5 -72t-13.5 -55t-21.5 -43t-27.5 -37q-36 -42 -75 -73.5t-80 -53.5l-40 36l43 71q25 41 32 85.5t7 103.5v365zM63 710q0 44 28.5 73t79.5 29q52 0 80.5 -29t28.5 -73q0 -43 -28.5 -72t-80.5 -29q-51 0 -79.5 29t-28.5 72z" />
    <glyph glyph-name="k" unicode="k" horiz-adv-x="706" 
d="M432 410q17 13 23 22.5t6 17.5q0 18 -12.5 24t-52.5 11v61h271v-61q-31 -9 -51.5 -21t-48.5 -32l-116 -85l245 -297v-50h-192l-226 295zM274 118q0 -34 15 -43t49 -14v-61h-308v61q35 5 49.5 14t14.5 43v565l-59 51v34l205 42h39l-5 -87v-605z" />
    <glyph glyph-name="l" unicode="l" horiz-adv-x="368" 
d="M274 118q0 -34 15 -43t49 -14v-61h-308v61q35 5 49.5 14t14.5 43v565l-59 51v34l205 42h39l-5 -87v-605z" />
    <glyph glyph-name="m" unicode="m" horiz-adv-x="1065" 
d="M626 454q15 18 34.5 36t44 32.5t53 24t61.5 9.5q32 0 61.5 -8.5t52 -27.5t36 -49t13.5 -74v-279q0 -17 2.5 -27.5t9 -16t18 -8.5t28.5 -5v-61h-296v61q17 2 28.5 5t18 8.5t9 16t2.5 27.5v252q0 37 -17 54t-55 17q-27 0 -51 -8t-46 -19v-296q0 -17 2.5 -27.5t9 -16
t18 -8.5t28.5 -5v-61h-296v61q17 2 28.5 5t18 8.5t9 16t2.5 27.5v252q0 37 -17 54t-55 17q-27 0 -51 -8t-46 -19v-296q0 -17 2.5 -27.5t9 -16t18 -8.5t28.5 -5v-61h-302v61q35 5 49.5 14t14.5 43v300l-59 54v34l205 54h39l-5 -102q15 18 33.5 35.5t41.5 31.5t50.5 22.5
t60.5 8.5q53 0 96.5 -23.5t59.5 -78.5z" />
    <glyph glyph-name="n" unicode="n" horiz-adv-x="738" 
d="M469 370q0 37 -17.5 54t-55.5 17q-31 0 -60.5 -8.5t-51.5 -19.5v-295q0 -34 15 -43t49 -14v-61h-308v61q35 5 49.5 14t14.5 43v300l-59 54v34l205 54h39l-5 -102q17 18 37.5 35.5t45 31.5t52.5 22.5t60 8.5q75 0 122.5 -40t47.5 -124v-274q0 -34 15 -43t49 -14v-61h-308
v61q35 5 49.5 14t14.5 43v252z" />
    <glyph glyph-name="o" unicode="o" horiz-adv-x="649" 
d="M337 60q26 0 43.5 13.5t27.5 37.5t14 58t4 75q0 114 -27.5 178t-86.5 64q-26 0 -43.5 -13.5t-27.5 -37.5t-14 -58t-4 -75q0 -114 27.5 -178t86.5 -64zM314 -10q-65 0 -117.5 21t-89.5 57.5t-57 86.5t-20 108q0 68 23 122t63.5 92t96.5 58.5t122 20.5q65 0 117.5 -21
t89.5 -57.5t57 -86.5t20 -108q0 -67 -23 -121.5t-63.5 -92.5t-96.5 -58.5t-122 -20.5z" />
    <glyph glyph-name="p" unicode="p" horiz-adv-x="705" 
d="M386 -10q-34 0 -62 7t-50 24v-143q0 -35 15 -44t49 -13v-61h-308v61q35 4 49.5 13t14.5 44v540l-59 54v34l205 54h39l-5 -101q26 43 69 70t103 27q54 0 96.5 -18t72 -51.5t45 -81t15.5 -107.5q0 -73 -20.5 -130t-58 -96.5t-91 -60.5t-119.5 -21zM361 61q61 0 94 50.5
t33 135.5q0 92 -35.5 142t-95.5 50q-25 0 -44.5 -5.5t-38.5 -20.5v-249q0 -103 87 -103z" />
    <glyph glyph-name="q" unicode="q" horiz-adv-x="675" 
d="M344 486q-61 0 -94 -51t-33 -136q0 -92 35.5 -142t95.5 -50q25 0 44.5 5.5t38.5 20.5v259q0 44 -21 69t-66 25zM319 556q51 0 95.5 -13.5t84.5 -48.5l49 62h68l-5 -120v-558q0 -35 15 -44t49 -13v-61h-308v61q35 4 49.5 13t14.5 44v209q-26 -44 -69 -70.5t-103 -26.5
q-54 0 -96.5 18t-72 51.5t-45 81t-15.5 107.5q0 71 22.5 128t62 97t92 61.5t112.5 21.5z" />
    <glyph glyph-name="r" unicode="r" horiz-adv-x="526" 
d="M284 387q20 47 39.5 79.5t41.5 52.5t46.5 28.5t55.5 8.5q18 0 29.5 -4t19.5 -10v-148h-29q-24 0 -52 -1.5t-55.5 -7t-52.5 -15t-43 -25.5v-227q0 -17 4.5 -27t14.5 -15.5t26 -8.5t39 -6v-61h-328v61q35 5 49.5 14t14.5 43v300l-59 54v34l205 54h39z" />
    <glyph glyph-name="s" unicode="s" horiz-adv-x="534" 
d="M263 -10q-69 0 -121.5 15.5t-87.5 38.5l-6 129h83q11 -59 44.5 -88.5t93.5 -29.5q40 0 66.5 15.5t26.5 47.5q0 31 -20.5 43t-57.5 20l-76 15q-70 14 -113.5 57t-43.5 125q0 88 59 133t159 45q54 0 101.5 -10.5t82.5 -33.5v-113h-74q-27 92 -121 92q-32 0 -51.5 -14.5
t-19.5 -41.5q0 -26 15.5 -37.5t46.5 -18.5l75 -16q78 -16 124 -59t46 -127q0 -46 -17 -81t-48 -58.5t-73 -35.5t-93 -12z" />
    <glyph glyph-name="t" unicode="t" horiz-adv-x="451" 
d="M267 546h146v-71h-146v-301q0 -42 14.5 -58.5t49.5 -16.5q23 0 46 7.5t41 15.5l23 -47q-35 -36 -83 -60.5t-113 -24.5q-31 0 -59.5 8t-50.5 26.5t-35 49.5t-13 76v325h-77v51q51 18 103 57.5t94 86.5h60v-124z" />
    <glyph glyph-name="u" unicode="u" horiz-adv-x="705" 
d="M431 88q-13 -18 -31.5 -35.5t-42 -31.5t-52.5 -22.5t-64 -8.5q-69 0 -113 40.5t-44 128.5v237q0 23 -8.5 38t-34.5 20l-16 4v56l205 42h39l-5 -100v-270q0 -42 18.5 -61.5t49.5 -19.5t54 8.5t45 19.5v263q0 23 -8.5 38t-34.5 20l-16 4v56l205 42h39l-5 -100v-317
q0 -26 8.5 -39.5t32.5 -13.5h24v-63l-211 -33h-39z" />
    <glyph glyph-name="v" unicode="v" horiz-adv-x="630" 
d="M625 485q-28 -10 -39 -16.5t-19 -23.5l-214 -450h-54l-236 450q-8 17 -19 23.5t-39 16.5v61h330v-61q-40 -5 -54.5 -11.5t-14.5 -24.5q0 -6 1 -11.5t6 -15.5l98 -217l95 217q5 10 6 15.5t1 11.5q0 18 -14.5 24.5t-54.5 11.5v61h221v-61z" />
    <glyph glyph-name="w" unicode="w" horiz-adv-x="961" 
d="M800 422q5 13 5 27q0 18 -13.5 24.5t-53.5 11.5v61h218v-61q-28 -10 -39 -16.5t-19 -23.5l-199 -450h-57l-153 322l-146 -322h-57l-223 450q-8 17 -19 23.5t-39 16.5v61h320v-61q-33 -3 -46 -10.5t-13 -25.5q0 -6 1 -11.5t6 -15.5l92 -210l84 192l-19 41q-8 17 -20 25.5
t-35 14.5v61h307v-61q-36 -4 -47.5 -11t-11.5 -25q0 -6 1 -11.5t6 -15.5l86 -203z" />
    <glyph glyph-name="x" unicode="x" horiz-adv-x="646" 
d="M224 275l-142 170q-10 11 -21 20.5t-34 19.5v61h328v-61q-23 -5 -39 -9t-16 -18q0 -10 4.5 -18t12.5 -18l58 -72l61 72q8 10 12.5 18t4.5 18q0 14 -14.5 18t-37.5 9v61h217v-61q-23 -10 -40 -20t-28 -22l-129 -150l157 -192q9 -11 24 -23t39 -17v-61h-333v61
q29 5 42 10.5t13 21.5t-13 32l-80 95l-78 -95q-13 -16 -13 -32t13 -21.5t42 -10.5v-61h-229v61q24 5 43 17t28 23z" />
    <glyph glyph-name="y" unicode="y" horiz-adv-x="630" 
d="M63 445q-8 17 -19 23.5t-39 16.5v61h330v-61q-40 -5 -54.5 -11.5t-14.5 -24.5q0 -6 1 -11.5t6 -15.5l97 -232l96 232q7 17 7 27q0 18 -14.5 24.5t-54.5 11.5v61h221v-61q-28 -10 -39 -16.5t-19 -23.5l-249 -552q-36 -80 -74.5 -110t-90.5 -30q-35 0 -60 11t-35 27v89h73
q26 0 45.5 2.5t35.5 10.5t28.5 23.5t23.5 42.5l17 39z" />
    <glyph glyph-name="z" unicode="z" horiz-adv-x="615" 
d="M37 41l296 437h-100q-19 0 -33.5 -6t-27.5 -21t-26.5 -40t-31.5 -63h-66l14 228h62l12 -30h415v-45l-290 -433h106q24 0 42 5.5t33 20.5t29.5 40.5t33.5 65.5h67l-22 -200h-513v41z" />
    <glyph glyph-name="braceleft" unicode="{" horiz-adv-x="437" 
d="M173 350q56 -17 84 -56t28 -87q0 -20 -4 -40.5t-8.5 -42.5t-8.5 -45t-4 -48q0 -49 26 -69.5t81 -20.5v-71q-56 0 -95 12t-63.5 33.5t-35.5 51t-11 64.5q0 25 3.5 48.5t8 45t8 42t3.5 40.5q0 24 -6.5 44t-23 34.5t-44.5 22.5t-71 8v68q43 0 71 8t44.5 22.5t23 34.5t6.5 44
q0 20 -3.5 40.5t-8 42.5t-8 45t-3.5 48q0 35 11 64.5t35.5 51t63.5 33.5t95 12v-71q-55 0 -81 -20.5t-26 -69.5q0 -25 4 -48t8.5 -45t8.5 -42.5t4 -40.5q0 -48 -28 -87t-84 -56z" />
    <glyph glyph-name="bar" unicode="|" horiz-adv-x="290" 
d="M190 -120h-90v950h90v-950z" />
    <glyph glyph-name="braceright" unicode="}" horiz-adv-x="437" 
d="M264 350q-56 17 -84 56t-28 87q0 20 4 40.5t8.5 42.5t8.5 45t4 48q0 49 -26 69.5t-81 20.5v71q56 0 95 -12t63.5 -33.5t35.5 -51t11 -64.5q0 -25 -3.5 -48t-8 -45t-8 -42.5t-3.5 -40.5q0 -24 6.5 -44t23 -34.5t44.5 -22.5t71 -8v-68q-43 0 -71 -8t-44.5 -22.5t-23 -34.5
t-6.5 -44q0 -20 3.5 -40.5t8 -42t8 -45t3.5 -48.5q0 -35 -11 -64.5t-35.5 -51t-63.5 -33.5t-95 -12v71q55 0 81 20.5t26 69.5q0 25 -4 48t-8.5 45t-8.5 42.5t-4 40.5q0 48 28 87t84 56z" />
    <glyph glyph-name="asciitilde" unicode="~" horiz-adv-x="603" 
d="M50 275q27 97 73 142t106 45q25 0 49 -9.5t46.5 -21.5t42.5 -21.5t37 -9.5q25 0 42 14.5t35 45.5h72q-27 -97 -73 -142t-106 -45q-25 0 -49 9.5t-46.5 21.5t-42.5 21.5t-37 9.5q-25 0 -42 -14.5t-35 -45.5h-72z" />
    <glyph glyph-name="nonbreakingspace" unicode="&#xa0;" horiz-adv-x="240" 
 />
    <glyph glyph-name="exclamdown" unicode="&#xa1;" horiz-adv-x="354" 
d="M70 450q0 22 8.5 41t23 33.5t33.5 23t41 8.5q23 0 42.5 -8.5t34 -23t23 -33.5t8.5 -41t-8.5 -42t-23 -34.5t-34 -23t-42.5 -8.5q-22 0 -41 8.5t-33.5 23t-23 34.5t-8.5 42zM285 -234h-216v46l23 158q6 44 13 90.5t12.5 90t9.5 80t5 60.5h90q1 -24 5 -60.5t9.5 -80
t12.5 -90t13 -90.5l23 -158v-46z" />
    <glyph glyph-name="cent" unicode="&#xa2;" horiz-adv-x="610" 
d="M238 105q-92 22 -145 93.5t-53 179.5q0 72 23.5 131t65 100.5t98.5 64t123 22.5h3l19 94h57l-20 -99q71 -11 116 -49t45 -98q0 -31 -14 -51t-36 -28h-95v61q0 59 -31 86l-74 -378q30 -8 63 -8q52 0 88 25t65 59l44 -21q-29 -92 -94 -142.5t-169 -50.5h-12t-12 1l-20 -106
h-57zM204 440q0 -61 16 -106.5t49 -72.5l72 370q-4 1 -11 1q-52 0 -89 -48.5t-37 -143.5z" />
    <glyph glyph-name="sterling" unicode="&#xa3;" horiz-adv-x="808" 
d="M118 442h108v17q0 80 15 142t48.5 104t87.5 63.5t133 21.5q50 0 92.5 -8.5t73.5 -25.5t48.5 -44t17.5 -65q0 -32 -13.5 -52.5t-33.5 -28.5h-122v54q0 51 -14.5 78.5t-48.5 27.5q-37 0 -52 -33.5t-23 -113.5l-14 -137h193v-61h-199l-7 -71q-5 -48 -11.5 -75.5t-13.5 -49.5
q24 -5 55 -13t63.5 -16t64 -14t55.5 -6q54 0 75 24t21 83l44 9q6 -11 11.5 -35.5t5.5 -47.5q0 -91 -53 -135t-140 -44q-38 0 -74 8.5t-67.5 22t-58.5 30.5t-48 34q-32 -48 -82.5 -71.5t-113.5 -23.5q-61 0 -97.5 32.5t-36.5 88.5q0 59 39 90t99 31q41 0 81 -14v163h-108v61z
M145 50q74 0 80 98q-17 8 -37 14t-43 6q-33 0 -48 -16.5t-15 -41.5q0 -29 17 -44.5t46 -15.5z" />
    <glyph glyph-name="currency" unicode="&#xa4;" horiz-adv-x="694" 
d="M252 311q0 -88 24 -140t71 -52t71 52t24 140t-24 140t-71 52t-71 -52t-24 -140zM86 311q0 48 13 87.5t37 71.5l-66 67l42 42l66 -67q32 24 77 37.5t92 13.5t92 -13.5t77 -37.5l66 67l42 -42l-66 -67q24 -32 37 -71.5t13 -87.5t-13 -87.5t-37 -71.5l66 -67l-42 -42l-66 67
q-32 -24 -77 -37.5t-92 -13.5t-92 13.5t-77 37.5l-66 -67l-42 42l66 67q-24 32 -37 71.5t-13 87.5z" />
    <glyph glyph-name="yen" unicode="&#xa5;" horiz-adv-x="795" 
d="M126 410h104l-154 263q-13 22 -27.5 29.5t-38.5 11.5v66h379v-66q-47 -2 -62 -10t-15 -34q0 -14 6.5 -28.5t17.5 -34.5l120 -211l116 211q13 23 19 37t6 27q0 23 -18 32t-60 11v66h266v-66q-24 -4 -39 -12t-27 -29l-150 -263h115v-61h-150l-37 -66v-7h187v-61h-187v-73
q0 -22 5 -36.5t16.5 -23t30.5 -12t47 -4.5v-66h-391v66q28 1 47 4.5t30.5 12t16.5 23t5 36.5v73h-178v61h178v7l-39 66h-139v61z" />
    <glyph glyph-name="brokenbar" unicode="&#xa6;" horiz-adv-x="290" 
d="M190 424h-90v406h90v-406zM190 -121h-90v406h90v-406z" />
    <glyph glyph-name="section" unicode="&#xa7;" horiz-adv-x="532" 
d="M140 689q-12 -22 -18 -60t-6 -90q0 -75 31.5 -162t86.5 -172q26 -40 54 -82t51 -84t38 -82.5t15 -77.5q12 22 18 60t6 90q0 75 -31.5 162t-86.5 172q-26 40 -54 82t-51 84t-38 82.5t-15 77.5zM229 -250q-34 0 -63 7.5t-50 22t-33 35t-12 46.5q0 30 13.5 46t30.5 24h80
v-38q0 -15 3 -30.5t11 -28t22.5 -20.5t38.5 -8q35 0 50.5 20t15.5 50q0 28 -15.5 63.5t-39.5 74.5t-52.5 81t-54.5 84q-54 85 -86.5 171.5t-32.5 188.5q0 64 19 115.5t52 88t78.5 56t98.5 19.5q34 0 63 -7.5t50 -22t33 -35t12 -46.5q0 -30 -13.5 -46t-30.5 -24h-80v38
q0 15 -3 30.5t-11 28t-22.5 20.5t-38.5 8q-35 0 -50.5 -20t-15.5 -50q0 -28 15.5 -63.5t39.5 -74.5t52.5 -81t54.5 -84q54 -85 86.5 -171.5t32.5 -188.5q0 -64 -19 -115.5t-52 -88t-78.5 -56t-98.5 -19.5z" />
    <glyph glyph-name="dieresis" unicode="&#xa8;" horiz-adv-x="600" 
d="M93 702q0 39 27 66.5t65 27.5q39 0 66.5 -27.5t27.5 -66.5q0 -38 -27.5 -65t-66.5 -27q-19 0 -35.5 7.5t-29 20t-20 29t-7.5 35.5zM321 702q0 39 27 66.5t65 27.5q39 0 66.5 -27.5t27.5 -66.5q0 -38 -27.5 -65t-66.5 -27q-19 0 -35.5 7.5t-29 20t-20 29t-7.5 35.5z" />
    <glyph glyph-name="copyright" unicode="&#xa9;" horiz-adv-x="890" 
d="M45 390q0 83 31.5 156t85.5 127t127 85.5t156 31.5t156 -31.5t127 -85.5t85.5 -127t31.5 -156t-31.5 -156t-85.5 -127t-127 -85.5t-156 -31.5t-156 31.5t-127 85.5t-85.5 127t-31.5 156zM75 390q0 -76 29 -143.5t79.5 -118t118 -79.5t143.5 -29q77 0 144 29t117.5 79.5
t79.5 118t29 143.5q0 77 -29 144t-79.5 117.5t-117.5 79.5t-144 29q-76 0 -143.5 -29t-118 -79.5t-79.5 -117.5t-29 -144zM468 197q51 0 77 28.5t47 91.5h68l-13 -132q-34 -21 -82.5 -33t-107.5 -12q-65 0 -115 18.5t-83.5 51.5t-51 77.5t-17.5 96.5q0 60 21 108.5t57 82.5
t85 52.5t105 18.5q58 0 102.5 -14.5t74.5 -37.5l2 -113h-70q-8 27 -17.5 47.5t-23 35t-33 21.5t-47.5 7q-34 0 -56 -15.5t-35 -41t-18 -59.5t-5 -71q0 -45 7 -83.5t23 -66t42 -43t64 -15.5z" />
    <glyph glyph-name="ordfeminine" unicode="&#xaa;" horiz-adv-x="436" 
d="M199 430q8 0 18.5 1.5t18.5 4.5v109l-42 -19q-18 -8 -24.5 -19t-6.5 -29q0 -20 9.5 -34t26.5 -14zM382 468q0 -23 1.5 -35.5t17.5 -12.5q5 0 14 1.5t17 2.5l7 -36q-18 -18 -50 -30.5t-63 -12.5q-35 0 -56 16.5t-32 44.5q-19 -22 -51 -40t-67 -18q-45 0 -73 26t-28 72
q0 24 7 40t19.5 27t30 18.5t37.5 13.5l123 39v42q0 42 -12 57t-31 15q-14 0 -22.5 -11.5t-8.5 -29.5q0 -13 2 -24.5t5 -25.5l-94 -13q-17 5 -26 18t-9 31q0 52 47.5 77t120.5 25q41 0 73 -6.5t54.5 -24t34.5 -47.5t12 -78v-121z" />
    <glyph glyph-name="guillemotleft" unicode="&#xab;" horiz-adv-x="540" 
d="M35 279l179 190h82l-115 -195l115 -195h-82l-179 190v10zM244 279l179 190h82l-115 -195l115 -195h-82l-179 190v10z" />
    <glyph glyph-name="logicalnot" unicode="&#xac;" 
d="M529 481h-449v91h540v-364h-91v273z" />
    <glyph glyph-name="uni00AD" unicode="&#xad;" horiz-adv-x="400" 
d="M50 271v116h300v-116h-300z" />
    <glyph glyph-name="registered" unicode="&#xae;" horiz-adv-x="471" 
d="M208 690v-79h14q43 0 43 40q0 16 -10 27.5t-33 11.5h-14zM234 714q48 0 68 -19t20 -43q0 -27 -20.5 -40.5t-51.5 -15.5q26 -3 43 -23l28 -33q7 -8 12.5 -12.5t13.5 -5.5v-20h-57q-8 5 -14 11.5t-14 16.5l-32 44q-10 15 -22 15v-45q0 -13 4 -17.5t18 -4.5v-20h-97v20
q16 0 19.5 4.5t3.5 17.5v128q0 14 -3.5 17t-19.5 5v20h101zM50 603q0 39 14.5 73t39.5 59.5t58.5 40t71.5 14.5q39 0 73 -14.5t59.5 -40t40 -59.5t14.5 -73q0 -38 -14.5 -71.5t-40 -58.5t-59.5 -39.5t-73 -14.5q-38 0 -71.5 14.5t-58.5 39.5t-39.5 58.5t-14.5 71.5zM76 603
q0 -33 12.5 -62t34 -51t50 -35t61.5 -13t62.5 13t51 35t34 51t12.5 62t-12.5 63t-34 52t-51 35t-62.5 13t-61.5 -13t-50 -35t-34 -52t-12.5 -63z" />
    <glyph glyph-name="macron" unicode="&#xaf;" horiz-adv-x="600" 
d="M149 716h302v-90h-302v90z" />
    <glyph glyph-name="degree" unicode="&#xb0;" horiz-adv-x="499" 
d="M60 596q0 40 13 75.5t37.5 61.5t59.5 41.5t79 15.5t79.5 -15.5t60 -41.5t37.5 -61.5t13 -75.5t-13 -75t-37.5 -61.5t-60 -41.5t-79.5 -15t-79 15t-59.5 41.5t-37.5 61.5t-13 75zM355 596q0 50 -28 84.5t-76 34.5q-49 0 -76.5 -34.5t-27.5 -84.5q0 -49 27.5 -83t76.5 -34
q48 0 76 34t28 83z" />
    <glyph glyph-name="plusminus" unicode="&#xb1;" 
d="M303 343h-223v94h223v133h94v-133h223v-94h-223v-133h-94v133zM80 48v94h540v-94h-540z" />
    <glyph glyph-name="twosuperior" unicode="&#xb2;" horiz-adv-x="446" 
d="M273 407q16 0 27.5 2t21 9t20 21t24.5 38h41l-14 -181h-388v44l134 120q49 44 66 77.5t18 70.5q0 35 -21 54.5t-56 19.5q-33 0 -54 -13t-39 -28l-31 30q30 50 76.5 82.5t123.5 32.5q74 0 117.5 -33.5t43.5 -98.5q0 -36 -16.5 -66t-45.5 -59t-68 -58t-84 -64h104z" />
    <glyph glyph-name="threesuperior" unicode="&#xb3;" horiz-adv-x="427" 
d="M255 564q65 -4 101.5 -36t36.5 -89q0 -37 -16.5 -65t-44.5 -47t-65 -28t-79 -9q-90 0 -134 30.5t-44 75.5q0 20 10.5 32.5t23.5 18.5h91v-24q0 -43 16 -65t42 -22q58 0 58 78q0 44 -24 72t-73 28h-11l-13 30q30 13 49 24.5t29.5 22.5t14 21.5t3.5 21.5q0 23 -16 37.5
t-45 14.5q-37 0 -57 -14.5t-37 -33.5l-35 25q23 51 71.5 87t121.5 36q64 0 104.5 -26.5t40.5 -83.5q0 -22 -9.5 -41t-26 -33.5t-38 -24.5t-45.5 -13z" />
    <glyph glyph-name="acute" unicode="&#xb4;" horiz-adv-x="600" 
d="M448 800l-201 -208h-85l94 208h192z" />
    <glyph glyph-name="paragraph" unicode="&#xb6;" horiz-adv-x="738" 
d="M318 314q-134 0 -208.5 61t-74.5 172t74.5 172t208.5 61h365v-66q-28 -1 -49.5 -4.5t-36 -12t-22 -24t-7.5 -40.5v-873h-77v946h-96v-946h-77v554z" />
    <glyph glyph-name="periodcentered" unicode="&#xb7;" horiz-adv-x="354" 
d="M70 346q0 23 8.5 42.5t23 34t33.5 23t41 8.5q23 0 42.5 -8.5t34 -23t23 -34t8.5 -42.5q0 -22 -8.5 -41t-23 -33.5t-34 -23t-42.5 -8.5q-22 0 -41 8.5t-33.5 23t-23 33.5t-8.5 41z" />
    <glyph glyph-name="cedilla" unicode="&#xb8;" horiz-adv-x="600" 
d="M293 12l-13 -57q60 -5 92.5 -31t32.5 -74q0 -25 -10 -44t-27 -31.5t-38.5 -18.5t-44.5 -6q-32 0 -54.5 8.5t-35.5 18.5l15 40q14 -8 31.5 -13.5t34.5 -5.5q20 0 31 6.5t11 21.5q0 24 -30.5 32.5t-75.5 12.5l28 141h53z" />
    <glyph glyph-name="onesuperior" unicode="&#xb9;" horiz-adv-x="402" 
d="M290 786v-393q0 -32 25.5 -39t76.5 -10v-48h-352v48q29 2 48.5 3.5t30.5 6.5t15.5 14t4.5 25v246h-99v46l47 8q32 6 55 14t40 19.5t31 26t29 33.5h48z" />
    <glyph glyph-name="ordmasculine" unicode="&#xba;" horiz-adv-x="458" 
d="M236 396q32 0 39.5 35t7.5 93q0 170 -61 170q-31 0 -39 -35t-8 -94q0 -169 61 -169zM222 345q-46 0 -83.5 14.5t-64 40t-41 61t-14.5 77.5q0 48 16 86t44.5 65t68.5 41.5t88 14.5q47 0 84.5 -14.5t64 -40t41 -61t14.5 -77.5q0 -48 -16 -86t-45 -65t-69 -41.5t-88 -14.5z
" />
    <glyph glyph-name="guillemotright" unicode="&#xbb;" horiz-adv-x="540" 
d="M296 269l-179 -190h-82l115 195l-115 195h82l179 -190v-10zM505 269l-179 -190h-82l115 195l-115 195h82l179 -190v-10z" />
    <glyph glyph-name="onequarter" unicode="&#xbc;" horiz-adv-x="1025" 
d="M290 786v-393q0 -32 25.5 -39t76.5 -10v-48h-352v48q29 2 48.5 3.5t30.5 6.5t15.5 14t4.5 25v246h-99v46l47 8q32 6 55 14t40 19.5t31 26t29 33.5h48zM761 780h82l-517 -780h-82zM772 173v206l-152 -206h152zM772 0v116h-227v47l238 321h131v-311h93v-57h-93v-116h-142z
" />
    <glyph glyph-name="onehalf" unicode="&#xbd;" horiz-adv-x="1071" 
d="M290 786v-393q0 -32 25.5 -39t76.5 -10v-48h-352v48q29 2 48.5 3.5t30.5 6.5t15.5 14t4.5 25v246h-99v46l47 8q32 6 55 14t40 19.5t31 26t29 33.5h48zM761 780h82l-517 -780h-82zM898 111q16 0 27.5 2t21 9t20 21t24.5 38h41l-14 -181h-388v44l134 120q49 44 66 77.5
t18 70.5q0 35 -21 54.5t-56 19.5q-33 0 -54 -13t-39 -28l-31 30q30 50 76.5 82.5t123.5 32.5q74 0 117.5 -33.5t43.5 -98.5q0 -36 -16.5 -66t-45.5 -59t-68 -58t-84 -64h104z" />
    <glyph glyph-name="threequarters" unicode="&#xbe;" horiz-adv-x="980" 
d="M255 564q65 -4 101.5 -36t36.5 -89q0 -37 -16.5 -65t-44.5 -47t-65 -28t-79 -9q-90 0 -134 30.5t-44 75.5q0 20 10.5 32.5t23.5 18.5h91v-24q0 -43 16 -65t42 -22q58 0 58 78q0 44 -24 72t-73 28h-11l-13 30q30 13 49 24.5t29.5 22.5t14 21.5t3.5 21.5q0 23 -16 37.5
t-45 14.5q-37 0 -57 -14.5t-37 -33.5l-35 25q23 51 71.5 87t121.5 36q64 0 104.5 -26.5t40.5 -83.5q0 -22 -9.5 -41t-26 -33.5t-38 -24.5t-45.5 -13zM716 780h82l-517 -780h-82zM727 173v206l-152 -206h152zM727 0v116h-227v47l238 321h131v-311h93v-57h-93v-116h-142z" />
    <glyph glyph-name="questiondown" unicode="&#xbf;" horiz-adv-x="527" 
d="M187 -95q0 -39 20.5 -58.5t54.5 -19.5q42 0 60 28.5t18 68.5v58h120q22 -12 30 -31t8 -41q0 -32 -18.5 -60t-50.5 -49t-75.5 -33t-93.5 -12q-115 0 -177.5 45t-62.5 133q0 33 9.5 60t26.5 50.5t41 45t54 43.5q23 17 39.5 31.5t27.5 29.5t16.5 32.5t5.5 39.5v25h60
q20 -17 36.5 -48.5t16.5 -66.5q0 -42 -13.5 -74t-48.5 -66q-16 -15 -34 -28.5t-33.5 -28.5t-26 -32.5t-10.5 -41.5zM376 450q0 -22 -8.5 -42t-23 -34.5t-33.5 -23t-41 -8.5t-42 8.5t-34.5 23t-23 34.5t-8.5 42t8.5 41t23 33.5t34.5 23t42 8.5t41 -8.5t33.5 -23t23 -33.5
t8.5 -41z" />
    <glyph glyph-name="Agrave" unicode="&#xc0;" horiz-adv-x="876" 
d="M532 239h-304l-31 -80q-5 -13 -8.5 -24t-3.5 -21q0 -25 16 -35.5t68 -12.5v-66h-259v66q23 4 40 11t26 30l245 583l-37 90h212l304 -673q11 -23 26.5 -30t39.5 -11v-66h-370v66q52 2 68 12.5t16 35.5q0 18 -12 45zM256 312h243l-127 283zM356 1030l84 -208h-85l-201 208
h202z" />
    <glyph glyph-name="Aacute" unicode="&#xc1;" horiz-adv-x="876" 
d="M532 239h-304l-31 -80q-5 -13 -8.5 -24t-3.5 -21q0 -25 16 -35.5t68 -12.5v-66h-259v66q23 4 40 11t26 30l245 583l-37 90h212l304 -673q11 -23 26.5 -30t39.5 -11v-66h-370v66q52 2 68 12.5t16 35.5q0 18 -12 45zM256 312h243l-127 283zM640 1030l-201 -208h-85l94 208
h192z" />
    <glyph glyph-name="Acircumflex" unicode="&#xc2;" horiz-adv-x="876" 
d="M532 239h-304l-31 -80q-5 -13 -8.5 -24t-3.5 -21q0 -25 16 -35.5t68 -12.5v-66h-259v66q23 4 40 11t26 30l245 583l-37 90h212l304 -673q11 -23 26.5 -30t39.5 -11v-66h-370v66q52 2 68 12.5t16 35.5q0 18 -12 45zM256 312h243l-127 283zM609 822h-87l-124 102l-124 -102
h-87l157 208h108z" />
    <glyph glyph-name="Atilde" unicode="&#xc3;" horiz-adv-x="876" 
d="M532 239h-304l-31 -80q-5 -13 -8.5 -24t-3.5 -21q0 -25 16 -35.5t68 -12.5v-66h-259v66q23 4 40 11t26 30l245 583l-37 90h212l304 -673q11 -23 26.5 -30t39.5 -11v-66h-370v66q52 2 68 12.5t16 35.5q0 18 -12 45zM256 312h243l-127 283zM470 841q-22 0 -42.5 9
t-39.5 19.5t-36 19.5t-32 9q-22 0 -36.5 -13.5t-29.5 -41.5l-58 10q29 89 63.5 125.5t85.5 36.5q22 0 42.5 -9t39.5 -19.5t36 -19.5t32 -9q22 0 36.5 13.5t29.5 41.5l58 -10q-29 -88 -63.5 -125t-85.5 -37z" />
    <glyph glyph-name="Adieresis" unicode="&#xc4;" horiz-adv-x="876" 
d="M532 239h-304l-31 -80q-5 -13 -8.5 -24t-3.5 -21q0 -25 16 -35.5t68 -12.5v-66h-259v66q23 4 40 11t26 30l245 583l-37 90h212l304 -673q11 -23 26.5 -30t39.5 -11v-66h-370v66q52 2 68 12.5t16 35.5q0 18 -12 45zM256 312h243l-127 283zM191 926q0 39 27 66.5t65 27.5
q39 0 66.5 -27.5t27.5 -66.5q0 -38 -27.5 -65t-66.5 -27q-19 0 -35.5 7.5t-29 20t-20 29t-7.5 35.5zM419 926q0 39 27 66.5t65 27.5q39 0 66.5 -27.5t27.5 -66.5q0 -38 -27.5 -65t-66.5 -27q-19 0 -35.5 7.5t-29 20t-20 29t-7.5 35.5z" />
    <glyph glyph-name="Aring" unicode="&#xc5;" horiz-adv-x="876" 
d="M532 239h-304l-31 -80q-5 -13 -8.5 -24t-3.5 -21q0 -25 16 -35.5t68 -12.5v-66h-259v66q23 4 40 11t26 30l245 583l-37 90h212l304 -673q11 -23 26.5 -30t39.5 -11v-66h-370v66q52 2 68 12.5t16 35.5q0 18 -12 45zM256 312h243l-127 283zM277 926q0 48 33.5 81t87.5 33
q55 0 88.5 -33t33.5 -81t-33.5 -81t-88.5 -33q-54 0 -87.5 33t-33.5 81zM450 926q0 23 -13 38.5t-39 15.5t-39 -15.5t-13 -38.5t13 -38.5t39 -15.5t39 15.5t13 38.5z" />
    <glyph glyph-name="AE" unicode="&#xc6;" horiz-adv-x="1224" 
d="M575 247h-318l-44 -88q-6 -11 -11 -23.5t-5 -24.5q0 -23 18 -33t70 -12v-66h-275v66q23 2 40 13t38 39l281 552q-8 22 -27.5 32t-66.5 12v66h869l3 -208h-80q-14 35 -27.5 60t-31.5 41t-42 24t-58 8h-227l57 -267h144q38 0 55.5 19.5t26.5 70.5h71v-255h-71
q-9 51 -26.5 70.5t-55.5 19.5h-127l46 -213q10 -44 29.5 -59.5t66.5 -15.5h19q31 0 54 7.5t44 25t42.5 46.5t48.5 71h79l-35 -225h-643v66q48 2 71.5 12.5t23.5 39.5q0 11 -3 24zM294 322h264l-80 364h-2z" />
    <glyph glyph-name="Ccedilla" unicode="&#xc7;" horiz-adv-x="815" 
d="M479 72q82 0 131 48.5t81 148.5h92l-19 -208q-54 -33 -131 -52t-171 -19h-12t-11 1l-8 -36q60 -5 92.5 -31t32.5 -74q0 -25 -10 -44t-27 -31.5t-38.5 -18.5t-44.5 -6q-32 0 -54.5 8.5t-35.5 18.5l15 40q14 -8 31.5 -13.5t34.5 -5.5q20 0 31 6.5t11 21.5q0 24 -30.5 32.5
t-75.5 12.5l24 124q-85 10 -150 43t-108.5 83.5t-66 115t-22.5 138.5q0 96 33 172.5t90.5 130.5t135 83t165.5 29q91 0 161.5 -22.5t118.5 -60.5l3 -178h-94q-13 43 -30.5 77t-42 58t-58 36.5t-77.5 12.5q-53 0 -90.5 -25.5t-61 -67.5t-34 -97t-10.5 -114q0 -72 13.5 -133.5
t42 -106.5t72 -71t102.5 -26z" />
    <glyph glyph-name="Egrave" unicode="&#xc8;" horiz-adv-x="788" 
d="M528 273q-9 51 -26.5 70.5t-55.5 19.5h-121v-213q0 -45 24 -60t72 -15h59q31 0 54 7.5t44 25t42.5 46.5t48.5 71h79l-35 -225h-673v66q28 1 46 4.5t28 12t14 23t4 36.5v496q0 23 -4 37t-14 22.5t-28 12t-46 4.5v66h668l3 -208h-80q-14 35 -27.5 60t-31.5 41t-42 24t-58 8
h-147v-267h121q38 0 55.5 19.5t26.5 70.5h71v-255h-71zM356 1030l84 -208h-85l-201 208h202z" />
    <glyph glyph-name="Eacute" unicode="&#xc9;" horiz-adv-x="788" 
d="M528 273q-9 51 -26.5 70.5t-55.5 19.5h-121v-213q0 -45 24 -60t72 -15h59q31 0 54 7.5t44 25t42.5 46.5t48.5 71h79l-35 -225h-673v66q28 1 46 4.5t28 12t14 23t4 36.5v496q0 23 -4 37t-14 22.5t-28 12t-46 4.5v66h668l3 -208h-80q-14 35 -27.5 60t-31.5 41t-42 24t-58 8
h-147v-267h121q38 0 55.5 19.5t26.5 70.5h71v-255h-71zM650 1030l-201 -208h-85l94 208h192z" />
    <glyph glyph-name="Ecircumflex" unicode="&#xca;" horiz-adv-x="788" 
d="M528 273q-9 51 -26.5 70.5t-55.5 19.5h-121v-213q0 -45 24 -60t72 -15h59q31 0 54 7.5t44 25t42.5 46.5t48.5 71h79l-35 -225h-673v66q28 1 46 4.5t28 12t14 23t4 36.5v496q0 23 -4 37t-14 22.5t-28 12t-46 4.5v66h668l3 -208h-80q-14 35 -27.5 60t-31.5 41t-42 24t-58 8
h-147v-267h121q38 0 55.5 19.5t26.5 70.5h71v-255h-71zM619 822h-87l-124 102l-124 -102h-87l157 208h108z" />
    <glyph glyph-name="Edieresis" unicode="&#xcb;" horiz-adv-x="788" 
d="M528 273q-9 51 -26.5 70.5t-55.5 19.5h-121v-213q0 -45 24 -60t72 -15h59q31 0 54 7.5t44 25t42.5 46.5t48.5 71h79l-35 -225h-673v66q28 1 46 4.5t28 12t14 23t4 36.5v496q0 23 -4 37t-14 22.5t-28 12t-46 4.5v66h668l3 -208h-80q-14 35 -27.5 60t-31.5 41t-42 24t-58 8
h-147v-267h121q38 0 55.5 19.5t26.5 70.5h71v-255h-71zM185 926q0 39 27 66.5t65 27.5q39 0 66.5 -27.5t27.5 -66.5q0 -38 -27.5 -65t-66.5 -27q-19 0 -35.5 7.5t-29 20t-20 29t-7.5 35.5zM413 926q0 39 27 66.5t65 27.5q39 0 66.5 -27.5t27.5 -66.5q0 -38 -27.5 -65
t-66.5 -27q-19 0 -35.5 7.5t-29 20t-20 29t-7.5 35.5z" />
    <glyph glyph-name="Igrave" unicode="&#xcc;" horiz-adv-x="457" 
d="M132 638q0 23 -4 37t-14 22.5t-28 12t-46 4.5v66h377v-66q-28 -1 -46 -4.5t-28 -12t-14 -22.5t-4 -37v-496q0 -22 4 -36.5t14 -23t28 -12t46 -4.5v-66h-377v66q28 1 46 4.5t28 12t14 23t4 36.5v496zM186 1030l84 -208h-85l-201 208h202z" />
    <glyph glyph-name="Iacute" unicode="&#xcd;" horiz-adv-x="457" 
d="M132 638q0 23 -4 37t-14 22.5t-28 12t-46 4.5v66h377v-66q-28 -1 -46 -4.5t-28 -12t-14 -22.5t-4 -37v-496q0 -22 4 -36.5t14 -23t28 -12t46 -4.5v-66h-377v66q28 1 46 4.5t28 12t14 23t4 36.5v496zM470 1030l-201 -208h-85l94 208h192z" />
    <glyph glyph-name="Icircumflex" unicode="&#xce;" horiz-adv-x="457" 
d="M132 638q0 23 -4 37t-14 22.5t-28 12t-46 4.5v66h377v-66q-28 -1 -46 -4.5t-28 -12t-14 -22.5t-4 -37v-496q0 -22 4 -36.5t14 -23t28 -12t46 -4.5v-66h-377v66q28 1 46 4.5t28 12t14 23t4 36.5v496zM439 822h-87l-124 102l-124 -102h-87l157 208h108z" />
    <glyph glyph-name="Idieresis" unicode="&#xcf;" horiz-adv-x="457" 
d="M132 638q0 23 -4 37t-14 22.5t-28 12t-46 4.5v66h377v-66q-28 -1 -46 -4.5t-28 -12t-14 -22.5t-4 -37v-496q0 -22 4 -36.5t14 -23t28 -12t46 -4.5v-66h-377v66q28 1 46 4.5t28 12t14 23t4 36.5v496zM21 926q0 39 27 66.5t65 27.5q39 0 66.5 -27.5t27.5 -66.5
q0 -38 -27.5 -65t-66.5 -27q-19 0 -35.5 7.5t-29 20t-20 29t-7.5 35.5zM249 926q0 39 27 66.5t65 27.5q39 0 66.5 -27.5t27.5 -66.5q0 -38 -27.5 -65t-66.5 -27q-19 0 -35.5 7.5t-29 20t-20 29t-7.5 35.5z" />
    <glyph glyph-name="Eth" unicode="&#xd0;" horiz-adv-x="930" 
d="M40 433h92v205q0 23 -4 37t-14 22.5t-28 12t-46 4.5v66h427q109 0 189 -29t132 -79t77 -117t25 -143q0 -100 -30.5 -177t-85 -129t-129.5 -79t-164 -27h-441v66q28 1 46 4.5t28 12t14 23t4 36.5v225h-92v66zM325 705v-272h166v-66h-166v-214q0 -49 22.5 -63.5t73.5 -14.5
h36q48 0 89.5 16t72 52t47.5 95t17 146q0 74 -16.5 133t-50.5 101t-86 64.5t-124 22.5h-81z" />
    <glyph glyph-name="Ntilde" unicode="&#xd1;" horiz-adv-x="932" 
d="M132 649q-25 31 -42.5 47t-49.5 18v66h272l400 -460v318q0 45 -23 59.5t-79 16.5v66h292v-66q-28 -1 -46 -4.5t-28 -12t-14 -22.5t-4 -37v-638h-69l-511 577v-435q0 -45 23 -59.5t79 -16.5v-66h-292v66q28 1 46 4.5t28 12t14 23t4 36.5v507zM539 841q-22 0 -42.5 9
t-39.5 19.5t-36 19.5t-32 9q-22 0 -36.5 -13.5t-29.5 -41.5l-58 10q29 89 63.5 125.5t85.5 36.5q22 0 42.5 -9t39.5 -19.5t36 -19.5t32 -9q22 0 36.5 13.5t29.5 41.5l58 -10q-29 -88 -63.5 -125t-85.5 -37z" />
    <glyph glyph-name="Ograve" unicode="&#xd2;" horiz-adv-x="880" 
d="M455 70q46 0 79 23.5t54.5 65t32 97.5t10.5 120q0 69 -13.5 130t-39.5 106t-64.5 71.5t-88.5 26.5q-46 0 -79 -23.5t-54.5 -65t-32 -97t-10.5 -120.5q0 -69 13.5 -130t39.5 -106t64.5 -71.5t88.5 -26.5zM429 -10q-93 0 -165.5 32t-122 85t-75.5 122.5t-26 145.5
q0 96 31.5 172.5t86.5 130.5t130.5 83t162.5 29q93 0 165.5 -31.5t122 -85t75.5 -123t26 -145.5q0 -96 -31.5 -172.5t-86.5 -130.5t-130.5 -83t-162.5 -29zM398 1030l84 -208h-85l-201 208h202z" />
    <glyph glyph-name="Oacute" unicode="&#xd3;" horiz-adv-x="880" 
d="M455 70q46 0 79 23.5t54.5 65t32 97.5t10.5 120q0 69 -13.5 130t-39.5 106t-64.5 71.5t-88.5 26.5q-46 0 -79 -23.5t-54.5 -65t-32 -97t-10.5 -120.5q0 -69 13.5 -130t39.5 -106t64.5 -71.5t88.5 -26.5zM429 -10q-93 0 -165.5 32t-122 85t-75.5 122.5t-26 145.5
q0 96 31.5 172.5t86.5 130.5t130.5 83t162.5 29q93 0 165.5 -31.5t122 -85t75.5 -123t26 -145.5q0 -96 -31.5 -172.5t-86.5 -130.5t-130.5 -83t-162.5 -29zM682 1030l-201 -208h-85l94 208h192z" />
    <glyph glyph-name="Ocircumflex" unicode="&#xd4;" horiz-adv-x="880" 
d="M455 70q46 0 79 23.5t54.5 65t32 97.5t10.5 120q0 69 -13.5 130t-39.5 106t-64.5 71.5t-88.5 26.5q-46 0 -79 -23.5t-54.5 -65t-32 -97t-10.5 -120.5q0 -69 13.5 -130t39.5 -106t64.5 -71.5t88.5 -26.5zM429 -10q-93 0 -165.5 32t-122 85t-75.5 122.5t-26 145.5
q0 96 31.5 172.5t86.5 130.5t130.5 83t162.5 29q93 0 165.5 -31.5t122 -85t75.5 -123t26 -145.5q0 -96 -31.5 -172.5t-86.5 -130.5t-130.5 -83t-162.5 -29zM651 822h-87l-124 102l-124 -102h-87l157 208h108z" />
    <glyph glyph-name="Otilde" unicode="&#xd5;" horiz-adv-x="880" 
d="M455 70q46 0 79 23.5t54.5 65t32 97.5t10.5 120q0 69 -13.5 130t-39.5 106t-64.5 71.5t-88.5 26.5q-46 0 -79 -23.5t-54.5 -65t-32 -97t-10.5 -120.5q0 -69 13.5 -130t39.5 -106t64.5 -71.5t88.5 -26.5zM429 -10q-93 0 -165.5 32t-122 85t-75.5 122.5t-26 145.5
q0 96 31.5 172.5t86.5 130.5t130.5 83t162.5 29q93 0 165.5 -31.5t122 -85t75.5 -123t26 -145.5q0 -96 -31.5 -172.5t-86.5 -130.5t-130.5 -83t-162.5 -29zM512 841q-22 0 -42.5 9t-39.5 19.5t-36 19.5t-32 9q-22 0 -36.5 -13.5t-29.5 -41.5l-58 10q29 89 63.5 125.5
t85.5 36.5q22 0 42.5 -9t39.5 -19.5t36 -19.5t32 -9q22 0 36.5 13.5t29.5 41.5l58 -10q-29 -88 -63.5 -125t-85.5 -37z" />
    <glyph glyph-name="Odieresis" unicode="&#xd6;" horiz-adv-x="880" 
d="M455 70q46 0 79 23.5t54.5 65t32 97.5t10.5 120q0 69 -13.5 130t-39.5 106t-64.5 71.5t-88.5 26.5q-46 0 -79 -23.5t-54.5 -65t-32 -97t-10.5 -120.5q0 -69 13.5 -130t39.5 -106t64.5 -71.5t88.5 -26.5zM429 -10q-93 0 -165.5 32t-122 85t-75.5 122.5t-26 145.5
q0 96 31.5 172.5t86.5 130.5t130.5 83t162.5 29q93 0 165.5 -31.5t122 -85t75.5 -123t26 -145.5q0 -96 -31.5 -172.5t-86.5 -130.5t-130.5 -83t-162.5 -29zM233 926q0 39 27 66.5t65 27.5q39 0 66.5 -27.5t27.5 -66.5q0 -38 -27.5 -65t-66.5 -27q-19 0 -35.5 7.5t-29 20
t-20 29t-7.5 35.5zM461 926q0 39 27 66.5t65 27.5q39 0 66.5 -27.5t27.5 -66.5q0 -38 -27.5 -65t-66.5 -27q-19 0 -35.5 7.5t-29 20t-20 29t-7.5 35.5z" />
    <glyph glyph-name="multiply" unicode="&#xd7;" 
d="M412 300l197 -196l-63 -62l-196 197l-196 -197l-62 62l197 196l-197 196l63 62l196 -197l196 197l62 -62z" />
    <glyph glyph-name="Oslash" unicode="&#xd8;" horiz-adv-x="870" 
d="M424 -10q-81 0 -145 23t-112 64l-88 -87l-44 51l85 84q-42 52 -63.5 116t-21.5 134q0 96 31.5 172.5t86.5 130.5t130.5 83t162.5 29q80 0 144 -23t112 -64l87 87l47 -52l-86 -84q42 -52 63.5 -116t21.5 -133q0 -96 -31.5 -172.5t-86.5 -130.5t-130.5 -83t-162.5 -29z
M450 70q46 0 79 23.5t54.5 65t32 97.5t10.5 120q0 37 -4 72t-12 67l-326 -322q26 -57 67.5 -90t98.5 -33zM244 404q0 -77 16 -140l325 324q-26 56 -67 89t-98 33q-46 0 -79 -23.5t-54.5 -65t-32 -97t-10.5 -120.5z" />
    <glyph glyph-name="Ugrave" unicode="&#xd9;" horiz-adv-x="886" 
d="M310 288q0 -91 40 -143.5t128 -52.5q41 0 76 9.5t61 33t41 63t15 99.5v341q0 45 -23 59.5t-79 16.5v66h292v-66q-28 -1 -46 -4.5t-28 -12t-14 -22.5t-4 -37v-366q0 -72 -25.5 -125.5t-68.5 -88t-100 -51.5t-119 -17q-162 0 -250.5 71t-88.5 212v365q0 23 -4 37t-14 22.5
t-28 12t-46 4.5v66h377v-66q-28 -1 -46 -4.5t-28 -12t-14 -22.5t-4 -37v-350zM437 1030l84 -208h-85l-201 208h202z" />
    <glyph glyph-name="Uacute" unicode="&#xda;" horiz-adv-x="886" 
d="M310 288q0 -91 40 -143.5t128 -52.5q41 0 76 9.5t61 33t41 63t15 99.5v341q0 45 -23 59.5t-79 16.5v66h292v-66q-28 -1 -46 -4.5t-28 -12t-14 -22.5t-4 -37v-366q0 -72 -25.5 -125.5t-68.5 -88t-100 -51.5t-119 -17q-162 0 -250.5 71t-88.5 212v365q0 23 -4 37t-14 22.5
t-28 12t-46 4.5v66h377v-66q-28 -1 -46 -4.5t-28 -12t-14 -22.5t-4 -37v-350zM721 1030l-201 -208h-85l94 208h192z" />
    <glyph glyph-name="Ucircumflex" unicode="&#xdb;" horiz-adv-x="886" 
d="M310 288q0 -91 40 -143.5t128 -52.5q41 0 76 9.5t61 33t41 63t15 99.5v341q0 45 -23 59.5t-79 16.5v66h292v-66q-28 -1 -46 -4.5t-28 -12t-14 -22.5t-4 -37v-366q0 -72 -25.5 -125.5t-68.5 -88t-100 -51.5t-119 -17q-162 0 -250.5 71t-88.5 212v365q0 23 -4 37t-14 22.5
t-28 12t-46 4.5v66h377v-66q-28 -1 -46 -4.5t-28 -12t-14 -22.5t-4 -37v-350zM690 822h-87l-124 102l-124 -102h-87l157 208h108z" />
    <glyph glyph-name="Udieresis" unicode="&#xdc;" horiz-adv-x="886" 
d="M310 288q0 -91 40 -143.5t128 -52.5q41 0 76 9.5t61 33t41 63t15 99.5v341q0 45 -23 59.5t-79 16.5v66h292v-66q-28 -1 -46 -4.5t-28 -12t-14 -22.5t-4 -37v-366q0 -72 -25.5 -125.5t-68.5 -88t-100 -51.5t-119 -17q-162 0 -250.5 71t-88.5 212v365q0 23 -4 37t-14 22.5
t-28 12t-46 4.5v66h377v-66q-28 -1 -46 -4.5t-28 -12t-14 -22.5t-4 -37v-350zM272 926q0 39 27 66.5t65 27.5q39 0 66.5 -27.5t27.5 -66.5q0 -38 -27.5 -65t-66.5 -27q-19 0 -35.5 7.5t-29 20t-20 29t-7.5 35.5zM500 926q0 39 27 66.5t65 27.5q39 0 66.5 -27.5t27.5 -66.5
q0 -38 -27.5 -65t-66.5 -27q-19 0 -35.5 7.5t-29 20t-20 29t-7.5 35.5z" />
    <glyph glyph-name="Yacute" unicode="&#xdd;" horiz-adv-x="832" 
d="M609 607q14 23 19.5 37t5.5 27q0 23 -18 32t-60 11v66h266v-66q-24 -4 -38.5 -12t-27.5 -29l-242 -390v-141q0 -22 5 -36.5t16.5 -23t30.5 -12t47 -4.5v-66h-388v66q28 1 47 4.5t30.5 12t16.5 23t5 36.5v141l-248 390q-14 21 -28 29t-38 12v66h376v-66q-47 -2 -62 -10
t-15 -34t24 -63l140 -222zM694 1030l-201 -208h-85l94 208h192z" />
    <glyph glyph-name="Thorn" unicode="&#xde;" horiz-adv-x="787" 
d="M325 238h72q83 0 122.5 37t39.5 122q0 72 -44 112t-125 40h-65v-311zM325 624h122q83 0 141.5 -17t96 -47t55 -71t17.5 -90q0 -110 -74.5 -170.5t-232.5 -60.5h-125v-26q0 -45 31 -59t101 -17v-66h-417v66q28 1 46 4.5t28 12t14 23t4 36.5v496q0 23 -4 37t-14 22.5
t-28 12t-46 4.5v66h377v-66q-28 -1 -46 -4.5t-28 -12t-14 -22.5t-4 -37v-14z" />
    <glyph glyph-name="germandbls" unicode="&#xdf;" horiz-adv-x="760" 
d="M45 0v61q35 5 49.5 14t14.5 43v357h-77v51l77 39v8q0 53 19 95.5t56 73.5t91.5 47.5t125.5 16.5q120 0 175.5 -47t55.5 -124q0 -35 -12 -62t-30.5 -47.5t-41 -36.5t-43.5 -29q60 -37 103 -68t71.5 -62t42 -66.5t13.5 -83.5t-16.5 -83.5t-46 -59t-69 -35.5t-85.5 -12
q-49 0 -84.5 9t-59 25t-34.5 36.5t-11 42.5q0 32 15 50.5t38 26.5h88v-41q0 -17 2.5 -33.5t9.5 -29.5t19.5 -21t31.5 -8q30 0 44 18t14 48t-15 55t-44.5 52t-73.5 59t-103 77v26q41 40 65.5 71t37 59t16.5 55.5t4 60.5q0 51 -29.5 86t-82.5 35q-43 0 -60 -26.5t-17 -71.5
v-651h-244z" />
    <glyph glyph-name="agrave" unicode="&#xe0;" horiz-adv-x="619" 
d="M276 98q19 0 38.5 6.5t37.5 17.5v152l-91 -34q-26 -11 -36 -26.5t-10 -41.5q0 -32 16.5 -53t44.5 -21zM532 157q0 -33 5 -50.5t28 -17.5q7 0 20 1.5t24 4.5l10 -47q-26 -26 -67 -42t-80 -16q-48 0 -75 23.5t-42 64.5q-14 -15 -32.5 -30.5t-40.5 -27.5t-47.5 -19.5
t-52.5 -7.5q-69 0 -108 37.5t-39 102.5q0 34 10.5 56.5t29 38t43.5 26t54 19.5l180 56v50q0 60 -20.5 87t-57.5 27q-27 0 -41 -17t-14 -46q0 -15 2 -30.5t6 -35.5l-121 -16q-43 17 -43 66q0 35 17.5 61.5t48 44.5t73 27t92.5 9q55 0 99 -9.5t75 -34t47.5 -66t16.5 -105.5
v-184zM253 800l84 -208h-85l-201 208h202z" />
    <glyph glyph-name="aacute" unicode="&#xe1;" horiz-adv-x="619" 
d="M276 98q19 0 38.5 6.5t37.5 17.5v152l-91 -34q-26 -11 -36 -26.5t-10 -41.5q0 -32 16.5 -53t44.5 -21zM532 157q0 -33 5 -50.5t28 -17.5q7 0 20 1.5t24 4.5l10 -47q-26 -26 -67 -42t-80 -16q-48 0 -75 23.5t-42 64.5q-14 -15 -32.5 -30.5t-40.5 -27.5t-47.5 -19.5
t-52.5 -7.5q-69 0 -108 37.5t-39 102.5q0 34 10.5 56.5t29 38t43.5 26t54 19.5l180 56v50q0 60 -20.5 87t-57.5 27q-27 0 -41 -17t-14 -46q0 -15 2 -30.5t6 -35.5l-121 -16q-43 17 -43 66q0 35 17.5 61.5t48 44.5t73 27t92.5 9q55 0 99 -9.5t75 -34t47.5 -66t16.5 -105.5
v-184zM523 800l-201 -208h-85l94 208h192z" />
    <glyph glyph-name="acircumflex" unicode="&#xe2;" horiz-adv-x="619" 
d="M276 98q19 0 38.5 6.5t37.5 17.5v152l-91 -34q-26 -11 -36 -26.5t-10 -41.5q0 -32 16.5 -53t44.5 -21zM532 157q0 -33 5 -50.5t28 -17.5q7 0 20 1.5t24 4.5l10 -47q-26 -26 -67 -42t-80 -16q-48 0 -75 23.5t-42 64.5q-14 -15 -32.5 -30.5t-40.5 -27.5t-47.5 -19.5
t-52.5 -7.5q-69 0 -108 37.5t-39 102.5q0 34 10.5 56.5t29 38t43.5 26t54 19.5l180 56v50q0 60 -20.5 87t-57.5 27q-27 0 -41 -17t-14 -46q0 -15 2 -30.5t6 -35.5l-121 -16q-43 17 -43 66q0 35 17.5 61.5t48 44.5t73 27t92.5 9q55 0 99 -9.5t75 -34t47.5 -66t16.5 -105.5
v-184zM502 592h-87l-124 102l-124 -102h-87l157 208h108z" />
    <glyph glyph-name="atilde" unicode="&#xe3;" horiz-adv-x="619" 
d="M276 98q19 0 38.5 6.5t37.5 17.5v152l-91 -34q-26 -11 -36 -26.5t-10 -41.5q0 -32 16.5 -53t44.5 -21zM532 157q0 -33 5 -50.5t28 -17.5q7 0 20 1.5t24 4.5l10 -47q-26 -26 -67 -42t-80 -16q-48 0 -75 23.5t-42 64.5q-14 -15 -32.5 -30.5t-40.5 -27.5t-47.5 -19.5
t-52.5 -7.5q-69 0 -108 37.5t-39 102.5q0 34 10.5 56.5t29 38t43.5 26t54 19.5l180 56v50q0 60 -20.5 87t-57.5 27q-27 0 -41 -17t-14 -46q0 -15 2 -30.5t6 -35.5l-121 -16q-43 17 -43 66q0 35 17.5 61.5t48 44.5t73 27t92.5 9q55 0 99 -9.5t75 -34t47.5 -66t16.5 -105.5
v-184zM354 611q-22 0 -42.5 9t-39.5 19.5t-36 19.5t-32 9q-22 0 -36.5 -13.5t-29.5 -41.5l-58 10q29 89 63.5 125.5t85.5 36.5q22 0 42.5 -9t39.5 -19.5t36 -19.5t32 -9q22 0 36.5 13.5t29.5 41.5l58 -10q-29 -88 -63.5 -125t-85.5 -37z" />
    <glyph glyph-name="adieresis" unicode="&#xe4;" horiz-adv-x="619" 
d="M276 98q19 0 38.5 6.5t37.5 17.5v152l-91 -34q-26 -11 -36 -26.5t-10 -41.5q0 -32 16.5 -53t44.5 -21zM532 157q0 -33 5 -50.5t28 -17.5q7 0 20 1.5t24 4.5l10 -47q-26 -26 -67 -42t-80 -16q-48 0 -75 23.5t-42 64.5q-14 -15 -32.5 -30.5t-40.5 -27.5t-47.5 -19.5
t-52.5 -7.5q-69 0 -108 37.5t-39 102.5q0 34 10.5 56.5t29 38t43.5 26t54 19.5l180 56v50q0 60 -20.5 87t-57.5 27q-27 0 -41 -17t-14 -46q0 -15 2 -30.5t6 -35.5l-121 -16q-43 17 -43 66q0 35 17.5 61.5t48 44.5t73 27t92.5 9q55 0 99 -9.5t75 -34t47.5 -66t16.5 -105.5
v-184zM84 702q0 39 27 66.5t65 27.5q39 0 66.5 -27.5t27.5 -66.5q0 -38 -27.5 -65t-66.5 -27q-19 0 -35.5 7.5t-29 20t-20 29t-7.5 35.5zM312 702q0 39 27 66.5t65 27.5q39 0 66.5 -27.5t27.5 -66.5q0 -38 -27.5 -65t-66.5 -27q-19 0 -35.5 7.5t-29 20t-20 29t-7.5 35.5z
" />
    <glyph glyph-name="aring" unicode="&#xe5;" horiz-adv-x="619" 
d="M276 98q19 0 38.5 6.5t37.5 17.5v152l-91 -34q-26 -11 -36 -26.5t-10 -41.5q0 -32 16.5 -53t44.5 -21zM532 157q0 -33 5 -50.5t28 -17.5q7 0 20 1.5t24 4.5l10 -47q-26 -26 -67 -42t-80 -16q-48 0 -75 23.5t-42 64.5q-14 -15 -32.5 -30.5t-40.5 -27.5t-47.5 -19.5
t-52.5 -7.5q-69 0 -108 37.5t-39 102.5q0 34 10.5 56.5t29 38t43.5 26t54 19.5l180 56v50q0 60 -20.5 87t-57.5 27q-27 0 -41 -17t-14 -46q0 -15 2 -30.5t6 -35.5l-121 -16q-43 17 -43 66q0 35 17.5 61.5t48 44.5t73 27t92.5 9q55 0 99 -9.5t75 -34t47.5 -66t16.5 -105.5
v-184zM170 702q0 48 33.5 81t87.5 33q55 0 88.5 -33t33.5 -81t-33.5 -81t-88.5 -33q-54 0 -87.5 33t-33.5 81zM343 702q0 23 -13 38.5t-39 15.5t-39 -15.5t-13 -38.5t13 -38.5t39 -15.5t39 15.5t13 38.5z" />
    <glyph glyph-name="ae" unicode="&#xe6;" horiz-adv-x="901" 
d="M639 556q57 0 100.5 -17t72.5 -47t44 -70t15 -86v-23l-351 -43q3 -29 14 -55.5t32 -47t51.5 -32.5t70.5 -12q47 0 81 19t60 51l41 -22q-11 -34 -30.5 -66.5t-50 -58t-72 -41t-95.5 -15.5q-72 0 -129 25.5t-93 74.5q-58 -55 -108 -76t-104 -21q-73 0 -113 37.5t-40 102.5
q0 68 40 104.5t106 44.5l171 21v76q0 60 -20.5 87t-57.5 27q-27 0 -41 -17t-14 -46q0 -15 2 -30.5t6 -35.5l-121 -16q-43 17 -43 66q0 35 17.5 61.5t48 44.5t73 27t92.5 9q63 0 105.5 -14t68.5 -49q33 30 76.5 46.5t94.5 16.5zM619 487q-46 0 -71 -38.5t-31 -125.5l191 23
q-2 67 -23 104t-66 37zM281 98q29 0 50.5 11.5t42.5 29.5q-22 50 -22 110l-80 -10q-57 -8 -57 -67q0 -32 17 -53t49 -21z" />
    <glyph glyph-name="ccedilla" unicode="&#xe7;" horiz-adv-x="572" 
d="M195 324q0 -93 41.5 -147.5t125.5 -54.5q49 0 84 20t61 52l43 -22q-29 -87 -91.5 -134.5t-162.5 -47.5h-12l-8 -35q60 -5 92.5 -31t32.5 -74q0 -25 -10 -44t-27 -31.5t-38.5 -18.5t-44.5 -6q-32 0 -54.5 8.5t-35.5 18.5l15 40q14 -8 31.5 -13.5t34.5 -5.5q20 0 31 6.5
t11 21.5q0 24 -30.5 32.5t-75.5 12.5l25 125q-94 18 -148.5 86.5t-54.5 173.5q0 68 22.5 123.5t62.5 94.5t94.5 60.5t118.5 21.5q45 0 83.5 -9.5t67 -28t45 -45t16.5 -60.5q0 -29 -12.5 -48t-32.5 -27h-115v42q0 23 -3 42.5t-11 33.5t-22.5 22.5t-37.5 8.5
q-48 0 -79.5 -41.5t-31.5 -121.5z" />
    <glyph glyph-name="egrave" unicode="&#xe8;" horiz-adv-x="579" 
d="M317 556q57 0 100.5 -17t72.5 -47t44 -70t15 -86v-36h-353q0 -82 44.5 -129.5t125.5 -47.5q47 0 81 19t60 51l41 -22q-11 -34 -30.5 -66.5t-50 -58t-72 -41t-95.5 -15.5q-59 0 -108.5 18t-85.5 52t-56 83t-20 112q0 68 22.5 123.5t61.5 95t91.5 61t111.5 21.5zM297 487
q-46 0 -69.5 -36.5t-29.5 -92.5h187q-1 58 -22 93.5t-66 35.5zM259 800l84 -208h-85l-201 208h202z" />
    <glyph glyph-name="eacute" unicode="&#xe9;" horiz-adv-x="579" 
d="M317 556q57 0 100.5 -17t72.5 -47t44 -70t15 -86v-36h-353q0 -82 44.5 -129.5t125.5 -47.5q47 0 81 19t60 51l41 -22q-11 -34 -30.5 -66.5t-50 -58t-72 -41t-95.5 -15.5q-59 0 -108.5 18t-85.5 52t-56 83t-20 112q0 68 22.5 123.5t61.5 95t91.5 61t111.5 21.5zM297 487
q-46 0 -69.5 -36.5t-29.5 -92.5h187q-1 58 -22 93.5t-66 35.5zM529 800l-201 -208h-85l94 208h192z" />
    <glyph glyph-name="ecircumflex" unicode="&#xea;" horiz-adv-x="579" 
d="M317 556q57 0 100.5 -17t72.5 -47t44 -70t15 -86v-36h-353q0 -82 44.5 -129.5t125.5 -47.5q47 0 81 19t60 51l41 -22q-11 -34 -30.5 -66.5t-50 -58t-72 -41t-95.5 -15.5q-59 0 -108.5 18t-85.5 52t-56 83t-20 112q0 68 22.5 123.5t61.5 95t91.5 61t111.5 21.5zM297 487
q-46 0 -69.5 -36.5t-29.5 -92.5h187q-1 58 -22 93.5t-66 35.5zM508 592h-87l-124 102l-124 -102h-87l157 208h108z" />
    <glyph glyph-name="edieresis" unicode="&#xeb;" horiz-adv-x="579" 
d="M317 556q57 0 100.5 -17t72.5 -47t44 -70t15 -86v-36h-353q0 -82 44.5 -129.5t125.5 -47.5q47 0 81 19t60 51l41 -22q-11 -34 -30.5 -66.5t-50 -58t-72 -41t-95.5 -15.5q-59 0 -108.5 18t-85.5 52t-56 83t-20 112q0 68 22.5 123.5t61.5 95t91.5 61t111.5 21.5zM297 487
q-46 0 -69.5 -36.5t-29.5 -92.5h187q-1 58 -22 93.5t-66 35.5zM90 702q0 39 27 66.5t65 27.5q39 0 66.5 -27.5t27.5 -66.5q0 -38 -27.5 -65t-66.5 -27q-19 0 -35.5 7.5t-29 20t-20 29t-7.5 35.5zM318 702q0 39 27 66.5t65 27.5q39 0 66.5 -27.5t27.5 -66.5q0 -38 -27.5 -65
t-66.5 -27q-19 0 -35.5 7.5t-29 20t-20 29t-7.5 35.5z" />
    <glyph glyph-name="igrave" unicode="&#xec;" horiz-adv-x="378" 
d="M284 118q0 -34 15 -43t49 -14v-61h-308v61q35 5 49.5 14t14.5 43v300l-59 54v34l205 54h39l-5 -98v-344zM156 800l84 -208h-85l-201 208h202z" />
    <glyph glyph-name="iacute" unicode="&#xed;" horiz-adv-x="378" 
d="M284 118q0 -34 15 -43t49 -14v-61h-308v61q35 5 49.5 14t14.5 43v300l-59 54v34l205 54h39l-5 -98v-344zM426 800l-201 -208h-85l94 208h192z" />
    <glyph glyph-name="icircumflex" unicode="&#xee;" horiz-adv-x="378" 
d="M284 118q0 -34 15 -43t49 -14v-61h-308v61q35 5 49.5 14t14.5 43v300l-59 54v34l205 54h39l-5 -98v-344zM405 592h-87l-124 102l-124 -102h-87l157 208h108z" />
    <glyph glyph-name="idieresis" unicode="&#xef;" horiz-adv-x="378" 
d="M284 118q0 -34 15 -43t49 -14v-61h-308v61q35 5 49.5 14t14.5 43v300l-59 54v34l205 54h39l-5 -98v-344zM-13 702q0 39 27 66.5t65 27.5q39 0 66.5 -27.5t27.5 -66.5q0 -38 -27.5 -65t-66.5 -27q-19 0 -35.5 7.5t-29 20t-20 29t-7.5 35.5zM215 702q0 39 27 66.5t65 27.5
q39 0 66.5 -27.5t27.5 -66.5q0 -38 -27.5 -65t-66.5 -27q-19 0 -35.5 7.5t-29 20t-20 29t-7.5 35.5z" />
    <glyph glyph-name="eth" unicode="&#xf0;" horiz-adv-x="643" 
d="M161 638l120 50q-32 27 -65 47.5t-61 31.5v15l107 28q76 -28 139 -72l108 45l24 -47l-86 -36q75 -68 120.5 -162.5t45.5 -211.5q0 -83 -22 -146t-61.5 -105t-94.5 -63.5t-121 -21.5q-65 0 -117.5 21t-89.5 57.5t-57 86.5t-20 108q0 68 22.5 122t62.5 92t93.5 58.5
t115.5 20.5q20 0 41 -4t39 -13q-12 27 -33 55t-47 54l-139 -58zM223 302q0 -114 27.5 -178t86.5 -64q26 0 43.5 13.5t27.5 37.5t14 58t4 75q0 114 -27.5 178t-86.5 64q-26 0 -43.5 -13.5t-27.5 -37.5t-14 -58t-4 -75z" />
    <glyph glyph-name="ntilde" unicode="&#xf1;" horiz-adv-x="738" 
d="M469 370q0 37 -17.5 54t-55.5 17q-31 0 -60.5 -8.5t-51.5 -19.5v-295q0 -34 15 -43t49 -14v-61h-308v61q35 5 49.5 14t14.5 43v300l-59 54v34l205 54h39l-5 -102q17 18 37.5 35.5t45 31.5t52.5 22.5t60 8.5q75 0 122.5 -40t47.5 -124v-274q0 -34 15 -43t49 -14v-61h-308
v61q35 5 49.5 14t14.5 43v252zM437 611q-22 0 -42.5 9t-39.5 19.5t-36 19.5t-32 9q-22 0 -36.5 -13.5t-29.5 -41.5l-58 10q29 89 63.5 125.5t85.5 36.5q22 0 42.5 -9t39.5 -19.5t36 -19.5t32 -9q22 0 36.5 13.5t29.5 41.5l58 -10q-29 -88 -63.5 -125t-85.5 -37z" />
    <glyph glyph-name="ograve" unicode="&#xf2;" horiz-adv-x="649" 
d="M337 60q26 0 43.5 13.5t27.5 37.5t14 58t4 75q0 114 -27.5 178t-86.5 64q-26 0 -43.5 -13.5t-27.5 -37.5t-14 -58t-4 -75q0 -114 27.5 -178t86.5 -64zM314 -10q-65 0 -117.5 21t-89.5 57.5t-57 86.5t-20 108q0 68 23 122t63.5 92t96.5 58.5t122 20.5q65 0 117.5 -21
t89.5 -57.5t57 -86.5t20 -108q0 -67 -23 -121.5t-63.5 -92.5t-96.5 -58.5t-122 -20.5zM286 800l84 -208h-85l-201 208h202z" />
    <glyph glyph-name="oacute" unicode="&#xf3;" horiz-adv-x="649" 
d="M337 60q26 0 43.5 13.5t27.5 37.5t14 58t4 75q0 114 -27.5 178t-86.5 64q-26 0 -43.5 -13.5t-27.5 -37.5t-14 -58t-4 -75q0 -114 27.5 -178t86.5 -64zM314 -10q-65 0 -117.5 21t-89.5 57.5t-57 86.5t-20 108q0 68 23 122t63.5 92t96.5 58.5t122 20.5q65 0 117.5 -21
t89.5 -57.5t57 -86.5t20 -108q0 -67 -23 -121.5t-63.5 -92.5t-96.5 -58.5t-122 -20.5zM556 800l-201 -208h-85l94 208h192z" />
    <glyph glyph-name="ocircumflex" unicode="&#xf4;" horiz-adv-x="649" 
d="M337 60q26 0 43.5 13.5t27.5 37.5t14 58t4 75q0 114 -27.5 178t-86.5 64q-26 0 -43.5 -13.5t-27.5 -37.5t-14 -58t-4 -75q0 -114 27.5 -178t86.5 -64zM314 -10q-65 0 -117.5 21t-89.5 57.5t-57 86.5t-20 108q0 68 23 122t63.5 92t96.5 58.5t122 20.5q65 0 117.5 -21
t89.5 -57.5t57 -86.5t20 -108q0 -67 -23 -121.5t-63.5 -92.5t-96.5 -58.5t-122 -20.5zM535 592h-87l-124 102l-124 -102h-87l157 208h108z" />
    <glyph glyph-name="otilde" unicode="&#xf5;" horiz-adv-x="649" 
d="M337 60q26 0 43.5 13.5t27.5 37.5t14 58t4 75q0 114 -27.5 178t-86.5 64q-26 0 -43.5 -13.5t-27.5 -37.5t-14 -58t-4 -75q0 -114 27.5 -178t86.5 -64zM314 -10q-65 0 -117.5 21t-89.5 57.5t-57 86.5t-20 108q0 68 23 122t63.5 92t96.5 58.5t122 20.5q65 0 117.5 -21
t89.5 -57.5t57 -86.5t20 -108q0 -67 -23 -121.5t-63.5 -92.5t-96.5 -58.5t-122 -20.5zM387 611q-22 0 -42.5 9t-39.5 19.5t-36 19.5t-32 9q-22 0 -36.5 -13.5t-29.5 -41.5l-58 10q29 89 63.5 125.5t85.5 36.5q22 0 42.5 -9t39.5 -19.5t36 -19.5t32 -9q22 0 36.5 13.5
t29.5 41.5l58 -10q-29 -88 -63.5 -125t-85.5 -37z" />
    <glyph glyph-name="odieresis" unicode="&#xf6;" horiz-adv-x="649" 
d="M337 60q26 0 43.5 13.5t27.5 37.5t14 58t4 75q0 114 -27.5 178t-86.5 64q-26 0 -43.5 -13.5t-27.5 -37.5t-14 -58t-4 -75q0 -114 27.5 -178t86.5 -64zM314 -10q-65 0 -117.5 21t-89.5 57.5t-57 86.5t-20 108q0 68 23 122t63.5 92t96.5 58.5t122 20.5q65 0 117.5 -21
t89.5 -57.5t57 -86.5t20 -108q0 -67 -23 -121.5t-63.5 -92.5t-96.5 -58.5t-122 -20.5zM117 702q0 39 27 66.5t65 27.5q39 0 66.5 -27.5t27.5 -66.5q0 -38 -27.5 -65t-66.5 -27q-19 0 -35.5 7.5t-29 20t-20 29t-7.5 35.5zM345 702q0 39 27 66.5t65 27.5q39 0 66.5 -27.5
t27.5 -66.5q0 -38 -27.5 -65t-66.5 -27q-19 0 -35.5 7.5t-29 20t-20 29t-7.5 35.5z" />
    <glyph glyph-name="divide" unicode="&#xf7;" 
d="M80 253v94h540v-94h-540zM268 513q0 34 24 58t58 24t58 -24t24 -58t-24 -58t-58 -24t-58 24t-24 58zM268 87q0 34 24 58t58 24t58 -24t24 -58t-24 -58t-58 -24t-58 24t-24 58z" />
    <glyph glyph-name="oslash" unicode="&#xf8;" horiz-adv-x="649" 
d="M314 -10q-100 0 -171 48l-65 -68l-48 41l66 69q-66 74 -66 183q0 68 23 122t63.5 92t96.5 58.5t122 20.5q50 0 92 -12t76 -35l65 68l51 -42l-66 -69q32 -36 49 -82.5t17 -100.5q0 -67 -23 -121.5t-63.5 -92.5t-96.5 -58.5t-122 -20.5zM337 60q26 0 43.5 13.5t27.5 37.5
t14 58t4 75q0 23 -1.5 44t-3.5 40l-178 -185q29 -83 94 -83zM223 302q0 -23 1 -43.5t3 -39.5l177 186q-14 39 -37 60t-55 21q-26 0 -43.5 -13.5t-27.5 -37.5t-14 -58t-4 -75z" />
    <glyph glyph-name="ugrave" unicode="&#xf9;" horiz-adv-x="705" 
d="M431 88q-13 -18 -31.5 -35.5t-42 -31.5t-52.5 -22.5t-64 -8.5q-69 0 -113 40.5t-44 128.5v237q0 23 -8.5 38t-34.5 20l-16 4v56l205 42h39l-5 -100v-270q0 -42 18.5 -61.5t49.5 -19.5t54 8.5t45 19.5v263q0 23 -8.5 38t-34.5 20l-16 4v56l205 42h39l-5 -100v-317
q0 -26 8.5 -39.5t32.5 -13.5h24v-63l-211 -33h-39zM330 800l84 -208h-85l-201 208h202z" />
    <glyph glyph-name="uacute" unicode="&#xfa;" horiz-adv-x="705" 
d="M431 88q-13 -18 -31.5 -35.5t-42 -31.5t-52.5 -22.5t-64 -8.5q-69 0 -113 40.5t-44 128.5v237q0 23 -8.5 38t-34.5 20l-16 4v56l205 42h39l-5 -100v-270q0 -42 18.5 -61.5t49.5 -19.5t54 8.5t45 19.5v263q0 23 -8.5 38t-34.5 20l-16 4v56l205 42h39l-5 -100v-317
q0 -26 8.5 -39.5t32.5 -13.5h24v-63l-211 -33h-39zM580 800l-201 -208h-85l94 208h192z" />
    <glyph glyph-name="ucircumflex" unicode="&#xfb;" horiz-adv-x="705" 
d="M431 88q-13 -18 -31.5 -35.5t-42 -31.5t-52.5 -22.5t-64 -8.5q-69 0 -113 40.5t-44 128.5v237q0 23 -8.5 38t-34.5 20l-16 4v56l205 42h39l-5 -100v-270q0 -42 18.5 -61.5t49.5 -19.5t54 8.5t45 19.5v263q0 23 -8.5 38t-34.5 20l-16 4v56l205 42h39l-5 -100v-317
q0 -26 8.5 -39.5t32.5 -13.5h24v-63l-211 -33h-39zM559 592h-87l-124 102l-124 -102h-87l157 208h108z" />
    <glyph glyph-name="udieresis" unicode="&#xfc;" horiz-adv-x="705" 
d="M431 88q-13 -18 -31.5 -35.5t-42 -31.5t-52.5 -22.5t-64 -8.5q-69 0 -113 40.5t-44 128.5v237q0 23 -8.5 38t-34.5 20l-16 4v56l205 42h39l-5 -100v-270q0 -42 18.5 -61.5t49.5 -19.5t54 8.5t45 19.5v263q0 23 -8.5 38t-34.5 20l-16 4v56l205 42h39l-5 -100v-317
q0 -26 8.5 -39.5t32.5 -13.5h24v-63l-211 -33h-39zM141 702q0 39 27 66.5t65 27.5q39 0 66.5 -27.5t27.5 -66.5q0 -38 -27.5 -65t-66.5 -27q-19 0 -35.5 7.5t-29 20t-20 29t-7.5 35.5zM369 702q0 39 27 66.5t65 27.5q39 0 66.5 -27.5t27.5 -66.5q0 -38 -27.5 -65t-66.5 -27
q-19 0 -35.5 7.5t-29 20t-20 29t-7.5 35.5z" />
    <glyph glyph-name="yacute" unicode="&#xfd;" horiz-adv-x="630" 
d="M63 445q-8 17 -19 23.5t-39 16.5v61h330v-61q-40 -5 -54.5 -11.5t-14.5 -24.5q0 -6 1 -11.5t6 -15.5l97 -232l96 232q7 17 7 27q0 18 -14.5 24.5t-54.5 11.5v61h221v-61q-28 -10 -39 -16.5t-19 -23.5l-249 -552q-36 -80 -74.5 -110t-90.5 -30q-35 0 -60 11t-35 27v89h73
q26 0 45.5 2.5t35.5 10.5t28.5 23.5t23.5 42.5l17 39zM571 800l-201 -208h-85l94 208h192z" />
    <glyph glyph-name="thorn" unicode="&#xfe;" horiz-adv-x="690" 
d="M259 -122q0 -35 15 -44t49 -13v-61h-308v61q35 4 49.5 13t14.5 44v805l-59 51v34l205 42h39l-5 -87v-264q26 43 69 70t103 27q54 0 96.5 -18t72 -51.5t45 -81t15.5 -107.5q0 -73 -20.5 -130t-58 -96.5t-91 -60.5t-119.5 -21q-34 0 -62 7t-50 24v-143zM346 61
q61 0 94 50.5t33 135.5q0 92 -35.5 142t-95.5 50q-25 0 -44.5 -5.5t-38.5 -20.5v-249q0 -103 87 -103z" />
    <glyph glyph-name="ydieresis" unicode="&#xff;" horiz-adv-x="630" 
d="M63 445q-8 17 -19 23.5t-39 16.5v61h330v-61q-40 -5 -54.5 -11.5t-14.5 -24.5q0 -6 1 -11.5t6 -15.5l97 -232l96 232q7 17 7 27q0 18 -14.5 24.5t-54.5 11.5v61h221v-61q-28 -10 -39 -16.5t-19 -23.5l-249 -552q-36 -80 -74.5 -110t-90.5 -30q-35 0 -60 11t-35 27v89h73
q26 0 45.5 2.5t35.5 10.5t28.5 23.5t23.5 42.5l17 39zM132 702q0 39 27 66.5t65 27.5q39 0 66.5 -27.5t27.5 -66.5q0 -38 -27.5 -65t-66.5 -27q-19 0 -35.5 7.5t-29 20t-20 29t-7.5 35.5zM360 702q0 39 27 66.5t65 27.5q39 0 66.5 -27.5t27.5 -66.5q0 -38 -27.5 -65
t-66.5 -27q-19 0 -35.5 7.5t-29 20t-20 29t-7.5 35.5z" />
    <glyph glyph-name="Amacron" unicode="&#x100;" horiz-adv-x="876" 
d="M532 239h-304l-31 -80q-5 -13 -8.5 -24t-3.5 -21q0 -25 16 -35.5t68 -12.5v-66h-259v66q23 4 40 11t26 30l245 583l-37 90h212l304 -673q11 -23 26.5 -30t39.5 -11v-66h-370v66q52 2 68 12.5t16 35.5q0 18 -12 45zM256 312h243l-127 283zM247 941h302v-90h-302v90z" />
    <glyph glyph-name="amacron" unicode="&#x101;" horiz-adv-x="619" 
d="M276 98q19 0 38.5 6.5t37.5 17.5v152l-91 -34q-26 -11 -36 -26.5t-10 -41.5q0 -32 16.5 -53t44.5 -21zM532 157q0 -33 5 -50.5t28 -17.5q7 0 20 1.5t24 4.5l10 -47q-26 -26 -67 -42t-80 -16q-48 0 -75 23.5t-42 64.5q-14 -15 -32.5 -30.5t-40.5 -27.5t-47.5 -19.5
t-52.5 -7.5q-69 0 -108 37.5t-39 102.5q0 34 10.5 56.5t29 38t43.5 26t54 19.5l180 56v50q0 60 -20.5 87t-57.5 27q-27 0 -41 -17t-14 -46q0 -15 2 -30.5t6 -35.5l-121 -16q-43 17 -43 66q0 35 17.5 61.5t48 44.5t73 27t92.5 9q55 0 99 -9.5t75 -34t47.5 -66t16.5 -105.5
v-184zM140 716h302v-90h-302v90z" />
    <glyph glyph-name="Abreve" unicode="&#x102;" horiz-adv-x="876" 
d="M532 239h-304l-31 -80q-5 -13 -8.5 -24t-3.5 -21q0 -25 16 -35.5t68 -12.5v-66h-259v66q23 4 40 11t26 30l245 583l-37 90h212l304 -673q11 -23 26.5 -30t39.5 -11v-66h-370v66q52 2 68 12.5t16 35.5q0 18 -12 45zM256 312h243l-127 283zM398 829q-97 0 -137.5 53.5
t-40.5 147.5h58q4 -29 15.5 -48t27.5 -30t36 -15t41 -4t41 4t36 15t27.5 30t15.5 48h58q0 -94 -40.5 -147.5t-137.5 -53.5z" />
    <glyph glyph-name="abreve" unicode="&#x103;" horiz-adv-x="619" 
d="M276 98q19 0 38.5 6.5t37.5 17.5v152l-91 -34q-26 -11 -36 -26.5t-10 -41.5q0 -32 16.5 -53t44.5 -21zM532 157q0 -33 5 -50.5t28 -17.5q7 0 20 1.5t24 4.5l10 -47q-26 -26 -67 -42t-80 -16q-48 0 -75 23.5t-42 64.5q-14 -15 -32.5 -30.5t-40.5 -27.5t-47.5 -19.5
t-52.5 -7.5q-69 0 -108 37.5t-39 102.5q0 34 10.5 56.5t29 38t43.5 26t54 19.5l180 56v50q0 60 -20.5 87t-57.5 27q-27 0 -41 -17t-14 -46q0 -15 2 -30.5t6 -35.5l-121 -16q-43 17 -43 66q0 35 17.5 61.5t48 44.5t73 27t92.5 9q55 0 99 -9.5t75 -34t47.5 -66t16.5 -105.5
v-184zM291 599q-97 0 -137.5 53.5t-40.5 147.5h58q4 -29 15.5 -48t27.5 -30t36 -15t41 -4t41 4t36 15t27.5 30t15.5 48h58q0 -94 -40.5 -147.5t-137.5 -53.5z" />
    <glyph glyph-name="Aogonek" unicode="&#x104;" horiz-adv-x="876" 
d="M496 0v66q52 2 68 12.5t16 35.5q0 18 -12 45l-36 80h-304l-31 -80q-5 -13 -8.5 -24t-3.5 -21q0 -25 16 -35.5t68 -12.5v-66h-259v66q23 4 40 11t26 30l245 583l-37 90h212l304 -673q11 -23 26.5 -30t39.5 -11v-66q-65 -28 -88 -60.5t-23 -58.5q0 -27 13 -42.5t42 -15.5
q21 0 35.5 7t31.5 18l12 -43q-19 -22 -53.5 -38.5t-73.5 -16.5q-57 0 -91.5 28t-34.5 79q0 44 33 82.5t86 60.5h-259zM256 312h243l-127 283z" />
    <glyph glyph-name="aogonek" unicode="&#x105;" horiz-adv-x="619" 
d="M276 98q19 0 38.5 6.5t37.5 17.5v152l-91 -34q-26 -11 -36 -26.5t-10 -41.5q0 -32 16.5 -53t44.5 -21zM443 -7q-35 6 -55 28t-33 57q-14 -15 -32.5 -30.5t-40.5 -27.5t-47.5 -19.5t-52.5 -7.5q-69 0 -108 37.5t-39 102.5q0 34 10.5 56.5t29 38t43.5 26t54 19.5l180 56v50
q0 60 -20.5 87t-57.5 27q-27 0 -41 -17t-14 -46q0 -15 2 -30.5t6 -35.5l-121 -16q-43 17 -43 66q0 35 17.5 61.5t48 44.5t73 27t92.5 9q55 0 99 -9.5t75 -34t47.5 -66t16.5 -105.5v-184q0 -33 5 -50.5t28 -17.5q7 0 20 1.5t24 4.5l10 -47q-26 -16 -50.5 -33t-43.5 -36.5
t-30.5 -42.5t-11.5 -51q0 -30 13 -46t42 -16q21 0 35.5 7t31.5 18l12 -43q-19 -22 -53.5 -38.5t-73.5 -16.5q-57 0 -91.5 28.5t-34.5 83.5q0 38 18.5 71t60.5 60z" />
    <glyph glyph-name="Cacute" unicode="&#x106;" horiz-adv-x="815" 
d="M479 72q82 0 131 48.5t81 148.5h92l-19 -208q-54 -33 -131 -52t-171 -19q-103 0 -182 29.5t-132 81.5t-80.5 122.5t-27.5 151.5q0 96 33 172.5t90.5 130.5t135 83t165.5 29q91 0 161.5 -22.5t118.5 -60.5l3 -178h-94q-13 43 -30.5 77t-42 58t-58 36.5t-77.5 12.5
q-53 0 -90.5 -25.5t-61 -67.5t-34 -97t-10.5 -114q0 -72 13.5 -133.5t42 -106.5t72 -71t102.5 -26zM693 1030l-201 -208h-85l94 208h192z" />
    <glyph glyph-name="cacute" unicode="&#x107;" horiz-adv-x="572" 
d="M195 324q0 -93 41.5 -147.5t125.5 -54.5q49 0 84 20t61 52l43 -22q-29 -87 -91.5 -134.5t-162.5 -47.5q-60 0 -109.5 19t-84 53.5t-53.5 84t-19 109.5q0 68 22.5 123.5t62.5 94.5t94.5 60.5t118.5 21.5q45 0 83.5 -9.5t67 -28t45 -45t16.5 -60.5q0 -29 -12.5 -48
t-32.5 -27h-115v42q0 23 -3 42.5t-11 33.5t-22.5 22.5t-37.5 8.5q-48 0 -79.5 -41.5t-31.5 -121.5zM538 800l-201 -208h-85l94 208h192z" />
    <glyph glyph-name="Ccircumflex" unicode="&#x108;" horiz-adv-x="815" 
d="M479 72q82 0 131 48.5t81 148.5h92l-19 -208q-54 -33 -131 -52t-171 -19q-103 0 -182 29.5t-132 81.5t-80.5 122.5t-27.5 151.5q0 96 33 172.5t90.5 130.5t135 83t165.5 29q91 0 161.5 -22.5t118.5 -60.5l3 -178h-94q-13 43 -30.5 77t-42 58t-58 36.5t-77.5 12.5
q-53 0 -90.5 -25.5t-61 -67.5t-34 -97t-10.5 -114q0 -72 13.5 -133.5t42 -106.5t72 -71t102.5 -26zM662 822h-87l-124 102l-124 -102h-87l157 208h108z" />
    <glyph glyph-name="ccircumflex" unicode="&#x109;" horiz-adv-x="572" 
d="M195 324q0 -93 41.5 -147.5t125.5 -54.5q49 0 84 20t61 52l43 -22q-29 -87 -91.5 -134.5t-162.5 -47.5q-60 0 -109.5 19t-84 53.5t-53.5 84t-19 109.5q0 68 22.5 123.5t62.5 94.5t94.5 60.5t118.5 21.5q45 0 83.5 -9.5t67 -28t45 -45t16.5 -60.5q0 -29 -12.5 -48
t-32.5 -27h-115v42q0 23 -3 42.5t-11 33.5t-22.5 22.5t-37.5 8.5q-48 0 -79.5 -41.5t-31.5 -121.5zM517 592h-87l-124 102l-124 -102h-87l157 208h108z" />
    <glyph glyph-name="Cdotaccent" unicode="&#x10a;" horiz-adv-x="815" 
d="M479 72q82 0 131 48.5t81 148.5h92l-19 -208q-54 -33 -131 -52t-171 -19q-103 0 -182 29.5t-132 81.5t-80.5 122.5t-27.5 151.5q0 96 33 172.5t90.5 130.5t135 83t165.5 29q91 0 161.5 -22.5t118.5 -60.5l3 -178h-94q-13 43 -30.5 77t-42 58t-58 36.5t-77.5 12.5
q-53 0 -90.5 -25.5t-61 -67.5t-34 -97t-10.5 -114q0 -72 13.5 -133.5t42 -106.5t72 -71t102.5 -26zM342 935q0 44 28.5 73t79.5 29q52 0 80.5 -29t28.5 -73q0 -43 -28.5 -72t-80.5 -29q-51 0 -79.5 29t-28.5 72z" />
    <glyph glyph-name="cdotaccent" unicode="&#x10b;" horiz-adv-x="572" 
d="M195 324q0 -93 41.5 -147.5t125.5 -54.5q49 0 84 20t61 52l43 -22q-29 -87 -91.5 -134.5t-162.5 -47.5q-60 0 -109.5 19t-84 53.5t-53.5 84t-19 109.5q0 68 22.5 123.5t62.5 94.5t94.5 60.5t118.5 21.5q45 0 83.5 -9.5t67 -28t45 -45t16.5 -60.5q0 -29 -12.5 -48
t-32.5 -27h-115v42q0 23 -3 42.5t-11 33.5t-22.5 22.5t-37.5 8.5q-48 0 -79.5 -41.5t-31.5 -121.5zM197 701q0 44 28.5 73t79.5 29q52 0 80.5 -29t28.5 -73q0 -43 -28.5 -72t-80.5 -29q-51 0 -79.5 29t-28.5 72z" />
    <glyph glyph-name="Ccaron" unicode="&#x10c;" horiz-adv-x="815" 
d="M479 72q82 0 131 48.5t81 148.5h92l-19 -208q-54 -33 -131 -52t-171 -19q-103 0 -182 29.5t-132 81.5t-80.5 122.5t-27.5 151.5q0 96 33 172.5t90.5 130.5t135 83t165.5 29q91 0 161.5 -22.5t118.5 -60.5l3 -178h-94q-13 43 -30.5 77t-42 58t-58 36.5t-77.5 12.5
q-53 0 -90.5 -25.5t-61 -67.5t-34 -97t-10.5 -114q0 -72 13.5 -133.5t42 -106.5t72 -71t102.5 -26zM240 1030h87l124 -102l124 102h87l-157 -208h-108z" />
    <glyph glyph-name="ccaron" unicode="&#x10d;" horiz-adv-x="572" 
d="M195 324q0 -93 41.5 -147.5t125.5 -54.5q49 0 84 20t61 52l43 -22q-29 -87 -91.5 -134.5t-162.5 -47.5q-60 0 -109.5 19t-84 53.5t-53.5 84t-19 109.5q0 68 22.5 123.5t62.5 94.5t94.5 60.5t118.5 21.5q45 0 83.5 -9.5t67 -28t45 -45t16.5 -60.5q0 -29 -12.5 -48
t-32.5 -27h-115v42q0 23 -3 42.5t-11 33.5t-22.5 22.5t-37.5 8.5q-48 0 -79.5 -41.5t-31.5 -121.5zM95 800h87l124 -102l124 102h87l-157 -208h-108z" />
    <glyph glyph-name="Dcaron" unicode="&#x10e;" horiz-adv-x="930" 
d="M325 705v-552q0 -49 22.5 -63.5t73.5 -14.5h36q48 0 89.5 16t72 52t47.5 95t17 146q0 74 -16.5 133t-50.5 101t-86 64.5t-124 22.5h-81zM467 780q109 0 189 -29t132 -79t77 -117t25 -143q0 -100 -30.5 -177t-85 -129t-129.5 -79t-164 -27h-441v66q28 1 46 4.5t28 12
t14 23t4 36.5v496q0 23 -4 37t-14 22.5t-28 12t-46 4.5v66h427zM232 1030h87l124 -102l124 102h87l-157 -208h-108z" />
    <glyph glyph-name="dcaron" unicode="&#x10f;" horiz-adv-x="705" 
d="M344 486q-61 0 -94 -51t-33 -136q0 -92 35.5 -142t95.5 -50q25 0 44.5 5.5t38.5 20.5v259q0 44 -21 69t-66 25zM465 -10h-39l5 97q-26 -43 -69 -70t-103 -27q-54 0 -96.5 18t-72 51.5t-45 81t-15.5 107.5q0 71 22.5 128t62 97t92 61.5t112.5 21.5q32 0 60.5 -6.5
t51.5 -21.5v155l-59 51v34l205 42h39l-5 -87v-584q0 -26 8.5 -39.5t32.5 -13.5h24v-63zM825 800l-92 -208h-83l8 208h167z" />
    <glyph glyph-name="Dcroat" unicode="&#x110;" horiz-adv-x="930" 
d="M40 433h92v205q0 23 -4 37t-14 22.5t-28 12t-46 4.5v66h427q109 0 189 -29t132 -79t77 -117t25 -143q0 -100 -30.5 -177t-85 -129t-129.5 -79t-164 -27h-441v66q28 1 46 4.5t28 12t14 23t4 36.5v225h-92v66zM325 705v-272h166v-66h-166v-214q0 -49 22.5 -63.5t73.5 -14.5
h36q48 0 89.5 16t72 52t47.5 95t17 146q0 74 -16.5 133t-50.5 101t-86 64.5t-124 22.5h-81z" />
    <glyph glyph-name="dcroat" unicode="&#x111;" horiz-adv-x="705" 
d="M265 662h166v34l-59 38v34l205 42h39l-5 -87v-61h65v-59h-65v-464q0 -26 8.5 -39.5t32.5 -13.5h24v-63l-211 -33h-39l5 97q-26 -43 -69 -70t-103 -27q-54 0 -96.5 18t-72 51.5t-45 81t-15.5 107.5q0 71 22.5 128t62 97t92 61.5t112.5 21.5q32 0 60.5 -6.5t51.5 -21.5v75
h-166v59zM344 486q-61 0 -94 -51t-33 -136q0 -92 35.5 -142t95.5 -50q25 0 44.5 5.5t38.5 20.5v259q0 44 -21 69t-66 25z" />
    <glyph glyph-name="Emacron" unicode="&#x112;" horiz-adv-x="788" 
d="M528 273q-9 51 -26.5 70.5t-55.5 19.5h-121v-213q0 -45 24 -60t72 -15h59q31 0 54 7.5t44 25t42.5 46.5t48.5 71h79l-35 -225h-673v66q28 1 46 4.5t28 12t14 23t4 36.5v496q0 23 -4 37t-14 22.5t-28 12t-46 4.5v66h668l3 -208h-80q-14 35 -27.5 60t-31.5 41t-42 24t-58 8
h-147v-267h121q38 0 55.5 19.5t26.5 70.5h71v-255h-71zM237 941h302v-90h-302v90z" />
    <glyph glyph-name="emacron" unicode="&#x113;" horiz-adv-x="579" 
d="M317 556q57 0 100.5 -17t72.5 -47t44 -70t15 -86v-36h-353q0 -82 44.5 -129.5t125.5 -47.5q47 0 81 19t60 51l41 -22q-11 -34 -30.5 -66.5t-50 -58t-72 -41t-95.5 -15.5q-59 0 -108.5 18t-85.5 52t-56 83t-20 112q0 68 22.5 123.5t61.5 95t91.5 61t111.5 21.5zM297 487
q-46 0 -69.5 -36.5t-29.5 -92.5h187q-1 58 -22 93.5t-66 35.5zM146 716h302v-90h-302v90z" />
    <glyph glyph-name="Ebreve" unicode="&#x114;" horiz-adv-x="788" 
d="M528 273q-9 51 -26.5 70.5t-55.5 19.5h-121v-213q0 -45 24 -60t72 -15h59q31 0 54 7.5t44 25t42.5 46.5t48.5 71h79l-35 -225h-673v66q28 1 46 4.5t28 12t14 23t4 36.5v496q0 23 -4 37t-14 22.5t-28 12t-46 4.5v66h668l3 -208h-80q-14 35 -27.5 60t-31.5 41t-42 24t-58 8
h-147v-267h121q38 0 55.5 19.5t26.5 70.5h71v-255h-71zM398 829q-97 0 -137.5 53.5t-40.5 147.5h58q4 -29 15.5 -48t27.5 -30t36 -15t41 -4t41 4t36 15t27.5 30t15.5 48h58q0 -94 -40.5 -147.5t-137.5 -53.5z" />
    <glyph glyph-name="ebreve" unicode="&#x115;" horiz-adv-x="579" 
d="M317 556q57 0 100.5 -17t72.5 -47t44 -70t15 -86v-36h-353q0 -82 44.5 -129.5t125.5 -47.5q47 0 81 19t60 51l41 -22q-11 -34 -30.5 -66.5t-50 -58t-72 -41t-95.5 -15.5q-59 0 -108.5 18t-85.5 52t-56 83t-20 112q0 68 22.5 123.5t61.5 95t91.5 61t111.5 21.5zM297 487
q-46 0 -69.5 -36.5t-29.5 -92.5h187q-1 58 -22 93.5t-66 35.5zM297 599q-97 0 -137.5 53.5t-40.5 147.5h58q4 -29 15.5 -48t27.5 -30t36 -15t41 -4t41 4t36 15t27.5 30t15.5 48h58q0 -94 -40.5 -147.5t-137.5 -53.5z" />
    <glyph glyph-name="Edotaccent" unicode="&#x116;" horiz-adv-x="788" 
d="M528 273q-9 51 -26.5 70.5t-55.5 19.5h-121v-213q0 -45 24 -60t72 -15h59q31 0 54 7.5t44 25t42.5 46.5t48.5 71h79l-35 -225h-673v66q28 1 46 4.5t28 12t14 23t4 36.5v496q0 23 -4 37t-14 22.5t-28 12t-46 4.5v66h668l3 -208h-80q-14 35 -27.5 60t-31.5 41t-42 24t-58 8
h-147v-267h121q38 0 55.5 19.5t26.5 70.5h71v-255h-71zM289 935q0 44 28.5 73t79.5 29q52 0 80.5 -29t28.5 -73q0 -43 -28.5 -72t-80.5 -29q-51 0 -79.5 29t-28.5 72z" />
    <glyph glyph-name="edotaccent" unicode="&#x117;" horiz-adv-x="579" 
d="M317 556q57 0 100.5 -17t72.5 -47t44 -70t15 -86v-36h-353q0 -82 44.5 -129.5t125.5 -47.5q47 0 81 19t60 51l41 -22q-11 -34 -30.5 -66.5t-50 -58t-72 -41t-95.5 -15.5q-59 0 -108.5 18t-85.5 52t-56 83t-20 112q0 68 22.5 123.5t61.5 95t91.5 61t111.5 21.5zM297 487
q-46 0 -69.5 -36.5t-29.5 -92.5h187q-1 58 -22 93.5t-66 35.5zM188 701q0 44 28.5 73t79.5 29q52 0 80.5 -29t28.5 -73q0 -43 -28.5 -72t-80.5 -29q-51 0 -79.5 29t-28.5 72z" />
    <glyph glyph-name="Eogonek" unicode="&#x118;" horiz-adv-x="788" 
d="M40 0v66q28 1 46 4.5t28 12t14 23t4 36.5v496q0 23 -4 37t-14 22.5t-28 12t-46 4.5v66h668l3 -208h-80q-14 35 -27.5 60t-31.5 41t-42 24t-58 8h-147v-267h121q38 0 55.5 19.5t26.5 70.5h71v-255h-71q-9 51 -26.5 70.5t-55.5 19.5h-121v-213q0 -45 24 -60t72 -15h59
q31 0 54 7.5t44 25t42.5 46.5t48.5 71h79l-35 -225q-65 -28 -88 -60.5t-23 -58.5q0 -27 13 -42.5t42 -15.5q21 0 35.5 7t31.5 18l12 -43q-19 -22 -53.5 -38.5t-73.5 -16.5q-57 0 -91.5 28t-34.5 79q0 44 33 82.5t86 60.5h-562z" />
    <glyph glyph-name="eogonek" unicode="&#x119;" horiz-adv-x="579" 
d="M447 29q-29 -22 -47.5 -39t-29.5 -32.5t-15.5 -32t-4.5 -37.5q0 -27 14.5 -46.5t43.5 -19.5q21 0 35.5 7t31.5 18l12 -43q-19 -22 -53.5 -38.5t-73.5 -16.5q-57 0 -91.5 28.5t-34.5 83.5q0 36 17.5 69t57.5 59h-9q-59 0 -108.5 18t-85.5 52.5t-56 83.5t-20 112
q0 68 22.5 123.5t61.5 95t91.5 61t111.5 21.5q57 0 100.5 -17t72.5 -47t44 -70t15 -86v-36h-353q0 -82 44.5 -129.5t125.5 -47.5q48 0 83 19t61 51l42 -22q-14 -41 -39 -76t-66 -66zM297 487q-46 0 -69.5 -36.5t-29.5 -92.5h187q-1 58 -22 93.5t-66 35.5z" />
    <glyph glyph-name="Ecaron" unicode="&#x11a;" horiz-adv-x="788" 
d="M528 273q-9 51 -26.5 70.5t-55.5 19.5h-121v-213q0 -45 24 -60t72 -15h59q31 0 54 7.5t44 25t42.5 46.5t48.5 71h79l-35 -225h-673v66q28 1 46 4.5t28 12t14 23t4 36.5v496q0 23 -4 37t-14 22.5t-28 12t-46 4.5v66h668l3 -208h-80q-14 35 -27.5 60t-31.5 41t-42 24t-58 8
h-147v-267h121q38 0 55.5 19.5t26.5 70.5h71v-255h-71zM197 1030h87l124 -102l124 102h87l-157 -208h-108z" />
    <glyph glyph-name="ecaron" unicode="&#x11b;" horiz-adv-x="579" 
d="M317 556q57 0 100.5 -17t72.5 -47t44 -70t15 -86v-36h-353q0 -82 44.5 -129.5t125.5 -47.5q47 0 81 19t60 51l41 -22q-11 -34 -30.5 -66.5t-50 -58t-72 -41t-95.5 -15.5q-59 0 -108.5 18t-85.5 52t-56 83t-20 112q0 68 22.5 123.5t61.5 95t91.5 61t111.5 21.5zM297 487
q-46 0 -69.5 -36.5t-29.5 -92.5h187q-1 58 -22 93.5t-66 35.5zM86 800h87l124 -102l124 102h87l-157 -208h-108z" />
    <glyph glyph-name="Gcircumflex" unicode="&#x11c;" horiz-adv-x="884" 
d="M40 375q0 96 33 172.5t90.5 130.5t135 83t165.5 29q91 0 161.5 -22.5t118.5 -60.5l3 -178h-94q-13 43 -30.5 77t-42 58t-58 36.5t-77.5 12.5q-53 0 -90.5 -25.5t-61 -67.5t-34 -97t-10.5 -114q0 -72 13.5 -133.5t42 -106.5t72 -71t102.5 -26q29 0 50.5 4.5t44.5 18.5v137
q0 23 -4 37t-14 22.5t-28 12t-46 4.5v66h377v-66q-28 -1 -46 -4.5t-28 -12t-14 -22.5t-4 -37v-162q-57 -35 -136.5 -57.5t-173.5 -22.5q-101 0 -179 29.5t-131 81.5t-80 122.5t-27 151.5zM662 822h-87l-124 102l-124 -102h-87l157 208h108z" />
    <glyph glyph-name="gcircumflex" unicode="&#x11d;" horiz-adv-x="612" 
d="M308 556q32 0 57.5 -4t46.5 -10l195 7v-92h-46l-95 17v-2q37 -16 60.5 -45.5t23.5 -70.5q0 -45 -19.5 -79t-53 -57.5t-79.5 -35.5t-99 -12q-32 0 -63 4.5t-59 14.5q-14 -11 -19.5 -24.5t-5.5 -25.5q0 -14 9.5 -22t29.5 -8h239q95 0 138.5 -40.5t43.5 -111.5
q0 -45 -22 -83.5t-63.5 -66.5t-102 -43.5t-137.5 -15.5q-137 0 -205 37t-68 98q0 40 27 58.5t65 24.5q-33 12 -51.5 40.5t-18.5 66.5q0 49 29.5 82.5t71.5 50.5q-39 22 -62.5 57.5t-23.5 87.5q0 48 19 85.5t53.5 64t81.5 40t103 13.5zM147 -55q-8 -15 -8 -41q0 -44 41 -66
t110 -22q38 0 70 4.5t55.5 14.5t36.5 26t13 39q0 27 -19.5 36t-52.5 9h-246zM307 231q36 0 50 31t14 83q0 67 -17.5 108.5t-63.5 41.5q-35 0 -48.5 -31t-13.5 -83q0 -67 17 -108.5t62 -41.5zM504 592h-87l-124 102l-124 -102h-87l157 208h108z" />
    <glyph glyph-name="Gbreve" unicode="&#x11e;" horiz-adv-x="884" 
d="M40 375q0 96 33 172.5t90.5 130.5t135 83t165.5 29q91 0 161.5 -22.5t118.5 -60.5l3 -178h-94q-13 43 -30.5 77t-42 58t-58 36.5t-77.5 12.5q-53 0 -90.5 -25.5t-61 -67.5t-34 -97t-10.5 -114q0 -72 13.5 -133.5t42 -106.5t72 -71t102.5 -26q29 0 50.5 4.5t44.5 18.5v137
q0 23 -4 37t-14 22.5t-28 12t-46 4.5v66h377v-66q-28 -1 -46 -4.5t-28 -12t-14 -22.5t-4 -37v-162q-57 -35 -136.5 -57.5t-173.5 -22.5q-101 0 -179 29.5t-131 81.5t-80 122.5t-27 151.5zM451 829q-97 0 -137.5 53.5t-40.5 147.5h58q4 -29 15.5 -48t27.5 -30t36 -15t41 -4
t41 4t36 15t27.5 30t15.5 48h58q0 -94 -40.5 -147.5t-137.5 -53.5z" />
    <glyph glyph-name="gbreve" unicode="&#x11f;" horiz-adv-x="612" 
d="M308 556q32 0 57.5 -4t46.5 -10l195 7v-92h-46l-95 17v-2q37 -16 60.5 -45.5t23.5 -70.5q0 -45 -19.5 -79t-53 -57.5t-79.5 -35.5t-99 -12q-32 0 -63 4.5t-59 14.5q-14 -11 -19.5 -24.5t-5.5 -25.5q0 -14 9.5 -22t29.5 -8h239q95 0 138.5 -40.5t43.5 -111.5
q0 -45 -22 -83.5t-63.5 -66.5t-102 -43.5t-137.5 -15.5q-137 0 -205 37t-68 98q0 40 27 58.5t65 24.5q-33 12 -51.5 40.5t-18.5 66.5q0 49 29.5 82.5t71.5 50.5q-39 22 -62.5 57.5t-23.5 87.5q0 48 19 85.5t53.5 64t81.5 40t103 13.5zM147 -55q-8 -15 -8 -41q0 -44 41 -66
t110 -22q38 0 70 4.5t55.5 14.5t36.5 26t13 39q0 27 -19.5 36t-52.5 9h-246zM307 231q36 0 50 31t14 83q0 67 -17.5 108.5t-63.5 41.5q-35 0 -48.5 -31t-13.5 -83q0 -67 17 -108.5t62 -41.5zM303 599q-97 0 -137.5 53.5t-40.5 147.5h58q4 -29 15.5 -48t27.5 -30t36 -15
t41 -4t41 4t36 15t27.5 30t15.5 48h58q0 -94 -40.5 -147.5t-137.5 -53.5z" />
    <glyph glyph-name="Gdotaccent" unicode="&#x120;" horiz-adv-x="884" 
d="M40 375q0 96 33 172.5t90.5 130.5t135 83t165.5 29q91 0 161.5 -22.5t118.5 -60.5l3 -178h-94q-13 43 -30.5 77t-42 58t-58 36.5t-77.5 12.5q-53 0 -90.5 -25.5t-61 -67.5t-34 -97t-10.5 -114q0 -72 13.5 -133.5t42 -106.5t72 -71t102.5 -26q29 0 50.5 4.5t44.5 18.5v137
q0 23 -4 37t-14 22.5t-28 12t-46 4.5v66h377v-66q-28 -1 -46 -4.5t-28 -12t-14 -22.5t-4 -37v-162q-57 -35 -136.5 -57.5t-173.5 -22.5q-101 0 -179 29.5t-131 81.5t-80 122.5t-27 151.5zM342 935q0 44 28.5 73t79.5 29q52 0 80.5 -29t28.5 -73q0 -43 -28.5 -72t-80.5 -29
q-51 0 -79.5 29t-28.5 72z" />
    <glyph glyph-name="gdotaccent" unicode="&#x121;" horiz-adv-x="612" 
d="M308 556q32 0 57.5 -4t46.5 -10l195 7v-92h-46l-95 17v-2q37 -16 60.5 -45.5t23.5 -70.5q0 -45 -19.5 -79t-53 -57.5t-79.5 -35.5t-99 -12q-32 0 -63 4.5t-59 14.5q-14 -11 -19.5 -24.5t-5.5 -25.5q0 -14 9.5 -22t29.5 -8h239q95 0 138.5 -40.5t43.5 -111.5
q0 -45 -22 -83.5t-63.5 -66.5t-102 -43.5t-137.5 -15.5q-137 0 -205 37t-68 98q0 40 27 58.5t65 24.5q-33 12 -51.5 40.5t-18.5 66.5q0 49 29.5 82.5t71.5 50.5q-39 22 -62.5 57.5t-23.5 87.5q0 48 19 85.5t53.5 64t81.5 40t103 13.5zM147 -55q-8 -15 -8 -41q0 -44 41 -66
t110 -22q38 0 70 4.5t55.5 14.5t36.5 26t13 39q0 27 -19.5 36t-52.5 9h-246zM307 231q36 0 50 31t14 83q0 67 -17.5 108.5t-63.5 41.5q-35 0 -48.5 -31t-13.5 -83q0 -67 17 -108.5t62 -41.5zM184 701q0 44 28.5 73t79.5 29q52 0 80.5 -29t28.5 -73q0 -43 -28.5 -72
t-80.5 -29q-51 0 -79.5 29t-28.5 72z" />
    <glyph glyph-name="Gcommaaccent" unicode="&#x122;" horiz-adv-x="884" 
d="M40 375q0 96 33 172.5t90.5 130.5t135 83t165.5 29q91 0 161.5 -22.5t118.5 -60.5l3 -178h-94q-13 43 -30.5 77t-42 58t-58 36.5t-77.5 12.5q-53 0 -90.5 -25.5t-61 -67.5t-34 -97t-10.5 -114q0 -72 13.5 -133.5t42 -106.5t72 -71t102.5 -26q29 0 50.5 4.5t44.5 18.5v137
q0 23 -4 37t-14 22.5t-28 12t-46 4.5v66h377v-66q-28 -1 -46 -4.5t-28 -12t-14 -22.5t-4 -37v-162q-57 -35 -136.5 -57.5t-173.5 -22.5q-101 0 -179 29.5t-131 81.5t-80 122.5t-27 151.5zM422 -160q-27 6 -41 20.5t-14 40.5t19.5 44.5t56.5 18.5q42 0 67 -26t25 -69
q0 -25 -8 -46t-26 -37t-47 -25.5t-71 -10.5v44q44 4 63.5 15t19.5 31h-44z" />
    <glyph glyph-name="gcommaaccent" unicode="&#x123;" horiz-adv-x="612" 
d="M308 556q32 0 57.5 -4t46.5 -10l195 7v-92h-46l-95 15q37 -16 60.5 -45.5t23.5 -70.5q0 -45 -19.5 -79t-53 -57.5t-79.5 -35.5t-99 -12q-32 0 -63 4.5t-59 14.5q-14 -11 -19.5 -24.5t-5.5 -25.5q0 -14 9.5 -22t29.5 -8h239q95 0 138.5 -40.5t43.5 -111.5q0 -45 -22 -83.5
t-63.5 -66.5t-102 -43.5t-137.5 -15.5q-68 0 -119.5 11t-85.5 30t-51 43.5t-17 50.5q0 40 27 58.5t65 24.5q-33 12 -51.5 40.5t-18.5 66.5q0 49 29.5 82.5t71.5 50.5q-39 22 -62.5 57.5t-23.5 87.5q0 48 19 85.5t53.5 64t81.5 40t103 13.5zM147 -55q-8 -15 -8 -41
q0 -44 41 -66t110 -22q38 0 70 4.5t55.5 14.5t36.5 26t13 39q0 27 -19.5 36t-52.5 9h-246zM307 231q36 0 50 31t14 83q0 67 -17.5 108.5t-63.5 41.5q-35 0 -48.5 -31t-13.5 -83q0 -67 17 -108.5t62 -41.5zM329 725q27 -6 41 -20.5t14 -40.5t-19.5 -44.5t-56.5 -18.5
q-42 0 -67 26t-25 69q0 25 8 46t26 37t47 25.5t71 10.5v-44q-44 -4 -63.5 -15t-19.5 -31h44z" />
    <glyph glyph-name="Hcircumflex" unicode="&#x124;" horiz-adv-x="989" 
d="M664 363h-339v-221q0 -22 4 -36.5t14 -23t28 -12t46 -4.5v-66h-377v66q28 1 46 4.5t28 12t14 23t4 36.5v496q0 23 -4 37t-14 22.5t-28 12t-46 4.5v66h377v-66q-28 -1 -46 -4.5t-28 -12t-14 -22.5t-4 -37v-200h339v200q0 23 -4 37t-14 22.5t-28 12t-46 4.5v66h377v-66
q-28 -1 -46 -4.5t-28 -12t-14 -22.5t-4 -37v-496q0 -22 4 -36.5t14 -23t28 -12t46 -4.5v-66h-377v66q28 1 46 4.5t28 12t14 23t4 36.5v221zM705 822h-87l-124 102l-124 -102h-87l157 208h108z" />
    <glyph glyph-name="hcircumflex" unicode="&#x125;" horiz-adv-x="728" 
d="M35 734v34l205 42h39l-5 -87v-265q17 18 37.5 35.5t45 31.5t52.5 22.5t60 8.5q75 0 122.5 -40t47.5 -124v-274q0 -34 15 -43t49 -14v-61h-308v61q35 5 49.5 14t14.5 43v252q0 37 -17.5 54t-55.5 17q-31 0 -60.5 -8.5t-51.5 -19.5v-295q0 -34 15 -43t49 -14v-61h-308v61
q35 5 49.5 14t14.5 43v565zM395 822h-87l-124 102l-124 -102h-87l157 208h108z" />
    <glyph glyph-name="Hbar" unicode="&#x126;" horiz-adv-x="989" 
d="M50 601h82v37q0 23 -4 37t-14 22.5t-28 12t-46 4.5v66h377v-66q-28 -1 -46 -4.5t-28 -12t-14 -22.5t-4 -37v-37h339v37q0 23 -4 37t-14 22.5t-28 12t-46 4.5v66h377v-66q-28 -1 -46 -4.5t-28 -12t-14 -22.5t-4 -37v-37h82v-66h-82v-393q0 -22 4 -36.5t14 -23t28 -12
t46 -4.5v-66h-377v66q28 1 46 4.5t28 12t14 23t4 36.5v221h-339v-221q0 -22 4 -36.5t14 -23t28 -12t46 -4.5v-66h-377v66q28 1 46 4.5t28 12t14 23t4 36.5v393h-82v66zM664 438v97h-339v-97h339z" />
    <glyph glyph-name="hbar" unicode="&#x127;" horiz-adv-x="728" 
d="M35 734v34l205 42h39l-5 -87v-61h166v-59h-166v-145q17 18 37.5 35.5t45 31.5t52.5 22.5t60 8.5q75 0 122.5 -40t47.5 -124v-274q0 -34 15 -43t49 -14v-61h-308v61q35 5 49.5 14t14.5 43v252q0 37 -17.5 54t-55.5 17q-31 0 -60.5 -8.5t-51.5 -19.5v-295q0 -34 15 -43
t49 -14v-61h-308v61q35 5 49.5 14t14.5 43v485h-65v59h65v32z" />
    <glyph glyph-name="Itilde" unicode="&#x128;" horiz-adv-x="457" 
d="M132 638q0 23 -4 37t-14 22.5t-28 12t-46 4.5v66h377v-66q-28 -1 -46 -4.5t-28 -12t-14 -22.5t-4 -37v-496q0 -22 4 -36.5t14 -23t28 -12t46 -4.5v-66h-377v66q28 1 46 4.5t28 12t14 23t4 36.5v496zM291 841q-22 0 -42.5 9t-39.5 19.5t-36 19.5t-32 9q-22 0 -36.5 -13.5
t-29.5 -41.5l-58 10q29 89 63.5 125.5t85.5 36.5q22 0 42.5 -9t39.5 -19.5t36 -19.5t32 -9q22 0 36.5 13.5t29.5 41.5l58 -10q-29 -88 -63.5 -125t-85.5 -37z" />
    <glyph glyph-name="itilde" unicode="&#x129;" horiz-adv-x="378" 
d="M284 118q0 -34 15 -43t49 -14v-61h-308v61q35 5 49.5 14t14.5 43v300l-59 54v34l205 54h39l-5 -98v-344zM257 611q-22 0 -42.5 9t-39.5 19.5t-36 19.5t-32 9q-22 0 -36.5 -13.5t-29.5 -41.5l-58 10q29 89 63.5 125.5t85.5 36.5q22 0 42.5 -9t39.5 -19.5t36 -19.5t32 -9
q22 0 36.5 13.5t29.5 41.5l58 -10q-29 -88 -63.5 -125t-85.5 -37z" />
    <glyph glyph-name="Imacron" unicode="&#x12a;" horiz-adv-x="457" 
d="M132 638q0 23 -4 37t-14 22.5t-28 12t-46 4.5v66h377v-66q-28 -1 -46 -4.5t-28 -12t-14 -22.5t-4 -37v-496q0 -22 4 -36.5t14 -23t28 -12t46 -4.5v-66h-377v66q28 1 46 4.5t28 12t14 23t4 36.5v496zM77 941h302v-90h-302v90z" />
    <glyph glyph-name="imacron" unicode="&#x12b;" horiz-adv-x="378" 
d="M284 118q0 -34 15 -43t49 -14v-61h-308v61q35 5 49.5 14t14.5 43v300l-59 54v34l205 54h39l-5 -98v-344zM43 716h302v-90h-302v90z" />
    <glyph glyph-name="Ibreve" unicode="&#x12c;" horiz-adv-x="457" 
d="M132 638q0 23 -4 37t-14 22.5t-28 12t-46 4.5v66h377v-66q-28 -1 -46 -4.5t-28 -12t-14 -22.5t-4 -37v-496q0 -22 4 -36.5t14 -23t28 -12t46 -4.5v-66h-377v66q28 1 46 4.5t28 12t14 23t4 36.5v496zM228 829q-97 0 -137.5 53.5t-40.5 147.5h58q4 -29 15.5 -48t27.5 -30
t36 -15t41 -4t41 4t36 15t27.5 30t15.5 48h58q0 -94 -40.5 -147.5t-137.5 -53.5z" />
    <glyph glyph-name="ibreve" unicode="&#x12d;" horiz-adv-x="378" 
d="M284 118q0 -34 15 -43t49 -14v-61h-308v61q35 5 49.5 14t14.5 43v300l-59 54v34l205 54h39l-5 -98v-344zM194 599q-97 0 -137.5 53.5t-40.5 147.5h58q4 -29 15.5 -48t27.5 -30t36 -15t41 -4t41 4t36 15t27.5 30t15.5 48h58q0 -94 -40.5 -147.5t-137.5 -53.5z" />
    <glyph glyph-name="Iogonek" unicode="&#x12e;" horiz-adv-x="457" 
d="M40 0v66q28 1 46 4.5t28 12t14 23t4 36.5v496q0 23 -4 37t-14 22.5t-28 12t-46 4.5v66h377v-66q-28 -1 -46 -4.5t-28 -12t-14 -22.5t-4 -37v-496q0 -22 4 -36.5t14 -23t28 -12t46 -4.5v-66q-65 -28 -88 -60.5t-23 -58.5q0 -27 13 -42.5t42 -15.5q21 0 35.5 7t31.5 18
l12 -43q-19 -22 -53.5 -38.5t-73.5 -16.5q-57 0 -91.5 28t-34.5 79q0 44 33 82.5t86 60.5h-266z" />
    <glyph glyph-name="iogonek" unicode="&#x12f;" horiz-adv-x="378" 
d="M85 710q0 44 28.5 73t79.5 29q52 0 80.5 -29t28.5 -73q0 -43 -28.5 -72t-80.5 -29q-51 0 -79.5 29t-28.5 72zM40 0v61q35 5 49.5 14t14.5 43v300l-59 54v34l205 54h39l-5 -98v-344q0 -34 15 -43t49 -14v-61q-65 -28 -88 -60.5t-23 -58.5q0 -27 13 -42.5t42 -15.5
q21 0 35.5 7t31.5 18l12 -43q-19 -22 -53.5 -38.5t-73.5 -16.5q-57 0 -91.5 28t-34.5 79q0 44 33 82.5t86 60.5h-197z" />
    <glyph glyph-name="Idotaccent" unicode="&#x130;" horiz-adv-x="457" 
d="M132 638q0 23 -4 37t-14 22.5t-28 12t-46 4.5v66h377v-66q-28 -1 -46 -4.5t-28 -12t-14 -22.5t-4 -37v-496q0 -22 4 -36.5t14 -23t28 -12t46 -4.5v-66h-377v66q28 1 46 4.5t28 12t14 23t4 36.5v496zM119 935q0 44 28.5 73t79.5 29q52 0 80.5 -29t28.5 -73
q0 -43 -28.5 -72t-80.5 -29q-51 0 -79.5 29t-28.5 72z" />
    <glyph glyph-name="dotlessi" unicode="&#x131;" horiz-adv-x="378" 
d="M284 118q0 -34 15 -43t49 -14v-61h-308v61q35 5 49.5 14t14.5 43v300l-59 54v34l205 54h39l-5 -98v-344z" />
    <glyph glyph-name="IJ" unicode="&#x132;" horiz-adv-x="1102" 
d="M132 638q0 23 -4 37t-14 22.5t-28 12t-46 4.5v66h377v-66q-28 -1 -46 -4.5t-28 -12t-14 -22.5t-4 -37v-496q0 -22 4 -36.5t14 -23t28 -12t46 -4.5v-66h-377v66q28 1 46 4.5t28 12t14 23t4 36.5v496zM985 233q0 -118 -78 -180.5t-218 -62.5q-126 0 -194 40.5t-68 117.5
q0 37 16.5 61t37.5 38h132v-46q0 -72 19 -106.5t65 -34.5q52 0 73.5 40t21.5 116v422q0 23 -4 37t-14 22.5t-28 12t-46 4.5v66h377v-66q-28 -1 -46 -4.5t-28 -12t-14 -22.5t-4 -37v-405z" />
    <glyph glyph-name="ij" unicode="&#x133;" horiz-adv-x="658" 
d="M45 472v34l205 54h39l-5 -98v-344q0 -34 15 -43t49 -14v-61h-308v61q35 5 49.5 14t14.5 43v300zM85 710q0 44 28.5 73t79.5 29q52 0 80.5 -29t28.5 -73q0 -43 -28.5 -72t-80.5 -29q-51 0 -79.5 29t-28.5 72zM351 472v34l205 54h39l-5 -98v-371q0 -41 -4.5 -72t-13.5 -55
t-21.5 -43t-27.5 -37q-36 -42 -75 -73.5t-80 -53.5l-40 36l43 71q25 41 32 85.5t7 103.5v365zM391 710q0 44 28.5 73t79.5 29q52 0 80.5 -29t28.5 -73q0 -43 -28.5 -72t-80.5 -29q-51 0 -79.5 29t-28.5 72z" />
    <glyph glyph-name="Jcircumflex" unicode="&#x134;" horiz-adv-x="685" 
d="M568 233q0 -118 -78 -180.5t-218 -62.5q-126 0 -194 40.5t-68 117.5q0 37 16.5 61t37.5 38h132v-46q0 -72 19 -106.5t65 -34.5q52 0 73.5 40t21.5 116v422q0 23 -4 37t-14 22.5t-28 12t-46 4.5v66h377v-66q-28 -1 -46 -4.5t-28 -12t-14 -22.5t-4 -37v-405zM680 822h-87
l-124 102l-124 -102h-87l157 208h108z" />
    <glyph glyph-name="jcircumflex" unicode="&#x135;" horiz-adv-x="330" 
d="M23 472v34l205 54h39l-5 -98v-371q0 -41 -4.5 -72t-13.5 -55t-21.5 -43t-27.5 -37q-36 -42 -75 -73.5t-80 -53.5l-40 36l43 71q25 41 32 85.5t7 103.5v365zM380 592h-87l-124 102l-124 -102h-87l157 208h108z" />
    <glyph glyph-name="Kcommaaccent" unicode="&#x136;" horiz-adv-x="906" 
d="M796 128q15 -18 25.5 -29t20.5 -17.5t22.5 -10t31.5 -5.5v-66h-220q-29 15 -52 41t-53 62l-241 294l257 236q14 14 22.5 24t8.5 24t-14 22.5t-59 10.5v66h306v-66q-24 -4 -50.5 -13t-44.5 -25l-239 -221zM132 638q0 23 -4 37t-14 22.5t-28 12t-46 4.5v66h377v-66
q-28 -1 -46 -4.5t-28 -12t-14 -22.5t-4 -37v-496q0 -22 4 -36.5t14 -23t28 -12t46 -4.5v-66h-377v66q28 1 46 4.5t28 12t14 23t4 36.5v496zM439 -160q-27 6 -41 20.5t-14 40.5t19.5 44.5t56.5 18.5q42 0 67 -26t25 -69q0 -25 -8 -46t-26 -37t-47 -25.5t-71 -10.5v44
q44 4 63.5 15t19.5 31h-44z" />
    <glyph glyph-name="kcommaaccent" unicode="&#x137;" horiz-adv-x="706" 
d="M432 410q17 13 23 22.5t6 17.5q0 18 -12.5 24t-52.5 11v61h271v-61q-31 -9 -51.5 -21t-48.5 -32l-116 -85l245 -297v-50h-192l-226 295zM274 118q0 -34 15 -43t49 -14v-61h-308v61q35 5 49.5 14t14.5 43v565l-59 51v34l205 42h39l-5 -87v-605zM334 -160q-27 6 -41 20.5
t-14 40.5t19.5 44.5t56.5 18.5q42 0 67 -26t25 -69q0 -25 -8 -46t-26 -37t-47 -25.5t-71 -10.5v44q44 4 63.5 15t19.5 31h-44z" />
    <glyph glyph-name="kgreenlandic" unicode="&#x138;" horiz-adv-x="714" 
d="M45 472v34l205 54h39l-5 -98v-344q0 -34 15 -43t49 -14v-61h-308v61q35 5 49.5 14t14.5 43v300zM440 410q17 13 23 22.5t6 17.5q0 18 -12.5 24t-52.5 11v61h271v-61q-31 -9 -51.5 -21t-48.5 -32l-116 -85l245 -297v-50h-192l-226 295z" />
    <glyph glyph-name="Lacute" unicode="&#x139;" horiz-adv-x="763" 
d="M325 150q0 -45 24 -60t72 -15h57q31 0 52.5 7.5t41.5 27.5t42.5 55.5t55.5 91.5h84l-41 -257h-673v66q28 1 46 4.5t28 12t14 23t4 36.5v496q0 23 -4 37t-14 22.5t-28 12t-46 4.5v66h377v-66q-28 -1 -46 -4.5t-28 -12t-14 -22.5t-4 -37v-488zM483 1030l-201 -208h-85
l94 208h192z" />
    <glyph glyph-name="lacute" unicode="&#x13a;" horiz-adv-x="368" 
d="M274 118q0 -34 15 -43t49 -14v-61h-308v61q35 5 49.5 14t14.5 43v565l-59 51v34l205 42h39l-5 -87v-605zM426 1030l-201 -208h-85l94 208h192z" />
    <glyph glyph-name="Lcommaaccent" unicode="&#x13b;" horiz-adv-x="763" 
d="M325 150q0 -45 24 -60t72 -15h57q31 0 52.5 7.5t41.5 27.5t42.5 55.5t55.5 91.5h84l-41 -257h-673v66q28 1 46 4.5t28 12t14 23t4 36.5v496q0 23 -4 37t-14 22.5t-28 12t-46 4.5v66h377v-66q-28 -1 -46 -4.5t-28 -12t-14 -22.5t-4 -37v-488zM368 -160q-27 6 -41 20.5
t-14 40.5t19.5 44.5t56.5 18.5q42 0 67 -26t25 -69q0 -25 -8 -46t-26 -37t-47 -25.5t-71 -10.5v44q44 4 63.5 15t19.5 31h-44z" />
    <glyph glyph-name="lcommaaccent" unicode="&#x13c;" horiz-adv-x="368" 
d="M274 118q0 -34 15 -43t49 -14v-61h-308v61q35 5 49.5 14t14.5 43v565l-59 51v34l205 42h39l-5 -87v-605zM155 -160q-27 6 -41 20.5t-14 40.5t19.5 44.5t56.5 18.5q42 0 67 -26t25 -69q0 -25 -8 -46t-26 -37t-47 -25.5t-71 -10.5v44q44 4 63.5 15t19.5 31h-44z" />
    <glyph glyph-name="Lcaron" unicode="&#x13d;" horiz-adv-x="763" 
d="M325 150q0 -45 24 -60t72 -15h57q31 0 52.5 7.5t41.5 27.5t42.5 55.5t55.5 91.5h84l-41 -257h-673v66q28 1 46 4.5t28 12t14 23t4 36.5v496q0 23 -4 37t-14 22.5t-28 12t-46 4.5v66h377v-66q-28 -1 -46 -4.5t-28 -12t-14 -22.5t-4 -37v-488zM665 780l-92 -208h-83l8 208
h167z" />
    <glyph glyph-name="lcaron" unicode="&#x13e;" horiz-adv-x="368" 
d="M274 118q0 -34 15 -43t49 -14v-61h-308v61q35 5 49.5 14t14.5 43v565l-59 51v34l205 42h39l-5 -87v-605zM488 800l-92 -208h-83l8 208h167z" />
    <glyph glyph-name="Ldot" unicode="&#x13f;" horiz-adv-x="763" 
d="M325 150q0 -45 24 -60t72 -15h57q31 0 52.5 7.5t41.5 27.5t42.5 55.5t55.5 91.5h84l-41 -257h-673v66q28 1 46 4.5t28 12t14 23t4 36.5v496q0 23 -4 37t-14 22.5t-28 12t-46 4.5v66h377v-66q-28 -1 -46 -4.5t-28 -12t-14 -22.5t-4 -37v-488zM517 417q0 39 27 66.5
t65 27.5q39 0 66.5 -27.5t27.5 -66.5q0 -38 -27.5 -65t-66.5 -27q-19 0 -35.5 7.5t-29 20t-20 29t-7.5 35.5z" />
    <glyph glyph-name="ldot" unicode="&#x140;" horiz-adv-x="454" 
d="M315 392q0 39 27 66.5t65 27.5q39 0 66.5 -27.5t27.5 -66.5q0 -38 -27.5 -65t-66.5 -27q-19 0 -35.5 7.5t-29 20t-20 29t-7.5 35.5zM274 118q0 -34 15 -43t49 -14v-61h-308v61q35 5 49.5 14t14.5 43v565l-59 51v34l205 42h39l-5 -87v-605z" />
    <glyph glyph-name="Lslash" unicode="&#x141;" horiz-adv-x="763" 
d="M40 348l92 37v253q0 23 -4 37t-14 22.5t-28 12t-46 4.5v66h377v-66q-28 -1 -46 -4.5t-28 -12t-14 -22.5t-4 -37v-183l190 77v-75l-190 -77v-230q0 -45 24 -60t72 -15h57q31 0 52.5 7.5t41.5 27.5t42.5 55.5t55.5 91.5h84l-41 -257h-673v66q28 1 46 4.5t28 12t14 23
t4 36.5v168l-92 -37v75z" />
    <glyph glyph-name="lslash" unicode="&#x142;" horiz-adv-x="379" 
d="M285 507l72 44v-70l-72 -44v-319q0 -34 15 -43t49 -14v-61h-308v61q35 5 49.5 14t14.5 43v226l-71 -43v70l71 42v270l-59 51v34l205 42h39l-5 -87v-216z" />
    <glyph glyph-name="Nacute" unicode="&#x143;" horiz-adv-x="932" 
d="M132 649q-25 31 -42.5 47t-49.5 18v66h272l400 -460v318q0 45 -23 59.5t-79 16.5v66h292v-66q-28 -1 -46 -4.5t-28 -12t-14 -22.5t-4 -37v-638h-69l-511 577v-435q0 -45 23 -59.5t79 -16.5v-66h-292v66q28 1 46 4.5t28 12t14 23t4 36.5v507zM718 1030l-201 -208h-85
l94 208h192z" />
    <glyph glyph-name="nacute" unicode="&#x144;" horiz-adv-x="738" 
d="M469 370q0 37 -17.5 54t-55.5 17q-31 0 -60.5 -8.5t-51.5 -19.5v-295q0 -34 15 -43t49 -14v-61h-308v61q35 5 49.5 14t14.5 43v300l-59 54v34l205 54h39l-5 -102q17 18 37.5 35.5t45 31.5t52.5 22.5t60 8.5q75 0 122.5 -40t47.5 -124v-274q0 -34 15 -43t49 -14v-61h-308
v61q35 5 49.5 14t14.5 43v252zM606 800l-201 -208h-85l94 208h192z" />
    <glyph glyph-name="Ncommaaccent" unicode="&#x145;" horiz-adv-x="932" 
d="M132 649q-25 31 -42.5 47t-49.5 18v66h272l400 -460v318q0 45 -23 59.5t-79 16.5v66h292v-66q-28 -1 -46 -4.5t-28 -12t-14 -22.5t-4 -37v-638h-69l-511 577v-435q0 -45 23 -59.5t79 -16.5v-66h-292v66q28 1 46 4.5t28 12t14 23t4 36.5v507zM447 -160q-27 6 -41 20.5
t-14 40.5t19.5 44.5t56.5 18.5q42 0 67 -26t25 -69q0 -25 -8 -46t-26 -37t-47 -25.5t-71 -10.5v44q44 4 63.5 15t19.5 31h-44z" />
    <glyph glyph-name="ncommaaccent" unicode="&#x146;" horiz-adv-x="738" 
d="M469 370q0 37 -17.5 54t-55.5 17q-31 0 -60.5 -8.5t-51.5 -19.5v-295q0 -34 15 -43t49 -14v-61h-308v61q35 5 49.5 14t14.5 43v300l-59 54v34l205 54h39l-5 -102q17 18 37.5 35.5t45 31.5t52.5 22.5t60 8.5q75 0 122.5 -40t47.5 -124v-274q0 -34 15 -43t49 -14v-61h-308
v61q35 5 49.5 14t14.5 43v252zM345 -160q-27 6 -41 20.5t-14 40.5t19.5 44.5t56.5 18.5q42 0 67 -26t25 -69q0 -25 -8 -46t-26 -37t-47 -25.5t-71 -10.5v44q44 4 63.5 15t19.5 31h-44z" />
    <glyph glyph-name="Ncaron" unicode="&#x147;" horiz-adv-x="932" 
d="M132 649q-25 31 -42.5 47t-49.5 18v66h272l400 -460v318q0 45 -23 59.5t-79 16.5v66h292v-66q-28 -1 -46 -4.5t-28 -12t-14 -22.5t-4 -37v-638h-69l-511 577v-435q0 -45 23 -59.5t79 -16.5v-66h-292v66q28 1 46 4.5t28 12t14 23t4 36.5v507zM265 1030h87l124 -102
l124 102h87l-157 -208h-108z" />
    <glyph glyph-name="ncaron" unicode="&#x148;" horiz-adv-x="738" 
d="M469 370q0 37 -17.5 54t-55.5 17q-31 0 -60.5 -8.5t-51.5 -19.5v-295q0 -34 15 -43t49 -14v-61h-308v61q35 5 49.5 14t14.5 43v300l-59 54v34l205 54h39l-5 -102q17 18 37.5 35.5t45 31.5t52.5 22.5t60 8.5q75 0 122.5 -40t47.5 -124v-274q0 -34 15 -43t49 -14v-61h-308
v61q35 5 49.5 14t14.5 43v252zM163 800h87l124 -102l124 102h87l-157 -208h-108z" />
    <glyph glyph-name="Eng" unicode="&#x14a;" horiz-adv-x="932" 
d="M230 577v-435q0 -45 23 -59.5t79 -16.5v-66h-292v66q28 1 46 4.5t28 12t14 23t4 36.5v507q-25 31 -42.5 47t-49.5 18v66h272l400 -462v320q0 45 -23 59.5t-79 16.5v66h292v-66q-28 -1 -46 -4.5t-28 -12t-14 -22.5t-4 -37v-661q0 -227 -218 -227q-109 0 -168.5 35.5
t-59.5 103.5q0 32 14.5 53t33.5 34h126v-40q0 -64 20.5 -91.5t61.5 -27.5q51 0 71.5 41t20.5 115v60z" />
    <glyph glyph-name="eng" unicode="&#x14b;" horiz-adv-x="683" 
d="M464 370q0 37 -15 54t-53 17q-31 0 -60.5 -8.5t-51.5 -19.5v-295q0 -34 15 -43t49 -14v-61h-308v61q35 5 49.5 14t14.5 43v300l-59 54v34l205 54h39l-5 -102q17 18 37.5 35.5t45 31.5t52.5 22.5t60 8.5q75 0 120 -39.5t45 -124.5v-440q0 -97 -56 -149.5t-177 -52.5
q-49 0 -84.5 9t-59 25t-34.5 36t-11 43q0 32 15 50.5t38 26.5h88v-41q0 -17 2.5 -33.5t8.5 -29.5t16.5 -21t26.5 -8q29 0 38 34t9 93v436z" />
    <glyph glyph-name="Omacron" unicode="&#x14c;" horiz-adv-x="880" 
d="M455 70q46 0 79 23.5t54.5 65t32 97.5t10.5 120q0 69 -13.5 130t-39.5 106t-64.5 71.5t-88.5 26.5q-46 0 -79 -23.5t-54.5 -65t-32 -97t-10.5 -120.5q0 -69 13.5 -130t39.5 -106t64.5 -71.5t88.5 -26.5zM429 -10q-93 0 -165.5 32t-122 85t-75.5 122.5t-26 145.5
q0 96 31.5 172.5t86.5 130.5t130.5 83t162.5 29q93 0 165.5 -31.5t122 -85t75.5 -123t26 -145.5q0 -96 -31.5 -172.5t-86.5 -130.5t-130.5 -83t-162.5 -29zM289 941h302v-90h-302v90z" />
    <glyph glyph-name="omacron" unicode="&#x14d;" horiz-adv-x="649" 
d="M337 60q26 0 43.5 13.5t27.5 37.5t14 58t4 75q0 114 -27.5 178t-86.5 64q-26 0 -43.5 -13.5t-27.5 -37.5t-14 -58t-4 -75q0 -114 27.5 -178t86.5 -64zM314 -10q-65 0 -117.5 21t-89.5 57.5t-57 86.5t-20 108q0 68 23 122t63.5 92t96.5 58.5t122 20.5q65 0 117.5 -21
t89.5 -57.5t57 -86.5t20 -108q0 -67 -23 -121.5t-63.5 -92.5t-96.5 -58.5t-122 -20.5zM173 716h302v-90h-302v90z" />
    <glyph glyph-name="Obreve" unicode="&#x14e;" horiz-adv-x="880" 
d="M455 70q46 0 79 23.5t54.5 65t32 97.5t10.5 120q0 69 -13.5 130t-39.5 106t-64.5 71.5t-88.5 26.5q-46 0 -79 -23.5t-54.5 -65t-32 -97t-10.5 -120.5q0 -69 13.5 -130t39.5 -106t64.5 -71.5t88.5 -26.5zM429 -10q-93 0 -165.5 32t-122 85t-75.5 122.5t-26 145.5
q0 96 31.5 172.5t86.5 130.5t130.5 83t162.5 29q93 0 165.5 -31.5t122 -85t75.5 -123t26 -145.5q0 -96 -31.5 -172.5t-86.5 -130.5t-130.5 -83t-162.5 -29zM440 829q-97 0 -137.5 53.5t-40.5 147.5h58q4 -29 15.5 -48t27.5 -30t36 -15t41 -4t41 4t36 15t27.5 30t15.5 48h58
q0 -94 -40.5 -147.5t-137.5 -53.5z" />
    <glyph glyph-name="obreve" unicode="&#x14f;" horiz-adv-x="649" 
d="M337 60q26 0 43.5 13.5t27.5 37.5t14 58t4 75q0 114 -27.5 178t-86.5 64q-26 0 -43.5 -13.5t-27.5 -37.5t-14 -58t-4 -75q0 -114 27.5 -178t86.5 -64zM314 -10q-65 0 -117.5 21t-89.5 57.5t-57 86.5t-20 108q0 68 23 122t63.5 92t96.5 58.5t122 20.5q65 0 117.5 -21
t89.5 -57.5t57 -86.5t20 -108q0 -67 -23 -121.5t-63.5 -92.5t-96.5 -58.5t-122 -20.5zM324 599q-97 0 -137.5 53.5t-40.5 147.5h58q4 -29 15.5 -48t27.5 -30t36 -15t41 -4t41 4t36 15t27.5 30t15.5 48h58q0 -94 -40.5 -147.5t-137.5 -53.5z" />
    <glyph glyph-name="Ohungarumlaut" unicode="&#x150;" horiz-adv-x="880" 
d="M455 70q46 0 79 23.5t54.5 65t32 97.5t10.5 120q0 69 -13.5 130t-39.5 106t-64.5 71.5t-88.5 26.5q-46 0 -79 -23.5t-54.5 -65t-32 -97t-10.5 -120.5q0 -69 13.5 -130t39.5 -106t64.5 -71.5t88.5 -26.5zM429 -10q-93 0 -165.5 32t-122 85t-75.5 122.5t-26 145.5
q0 96 31.5 172.5t86.5 130.5t130.5 83t162.5 29q93 0 165.5 -31.5t122 -85t75.5 -123t26 -145.5q0 -96 -31.5 -172.5t-86.5 -130.5t-130.5 -83t-162.5 -29zM504 1030l-131 -208h-78l67 208h142zM694 1030l-131 -208h-78l67 208h142z" />
    <glyph glyph-name="ohungarumlaut" unicode="&#x151;" horiz-adv-x="649" 
d="M337 60q26 0 43.5 13.5t27.5 37.5t14 58t4 75q0 114 -27.5 178t-86.5 64q-26 0 -43.5 -13.5t-27.5 -37.5t-14 -58t-4 -75q0 -114 27.5 -178t86.5 -64zM314 -10q-65 0 -117.5 21t-89.5 57.5t-57 86.5t-20 108q0 68 23 122t63.5 92t96.5 58.5t122 20.5q65 0 117.5 -21
t89.5 -57.5t57 -86.5t20 -108q0 -67 -23 -121.5t-63.5 -92.5t-96.5 -58.5t-122 -20.5zM392 800l-131 -208h-78l67 208h142zM582 800l-131 -208h-78l67 208h142z" />
    <glyph glyph-name="OE" unicode="&#x152;" horiz-adv-x="1263" 
d="M429 -10q-93 0 -165.5 32t-122 85t-75.5 122.5t-26 145.5q0 96 31.5 172.5t86.5 130.5t130.5 83t162.5 29q26 0 49 -2.5t46 -7.5h637l3 -208h-80q-14 35 -27.5 60t-31.5 41t-42 24t-58 8h-242q60 -50 93.5 -119.5t39.5 -147.5h65q38 0 55.5 19.5t26.5 70.5h71v-255h-71
q-9 51 -26.5 70.5t-55.5 19.5h-65q-8 -94 -46 -167t-101 -121h264q31 0 54 7.5t44 25t42.5 46.5t48.5 71h79l-35 -225h-661q-24 -5 -48 -7.5t-50 -2.5zM455 70q46 0 79 23.5t54.5 65t32 97.5t10.5 120q0 69 -13.5 130t-39.5 106t-64.5 71.5t-88.5 26.5q-46 0 -79 -23.5
t-54.5 -65t-32 -97t-10.5 -120.5q0 -69 13.5 -130t39.5 -106t64.5 -71.5t88.5 -26.5z" />
    <glyph glyph-name="oe" unicode="&#x153;" horiz-adv-x="975" 
d="M713 556q57 0 100.5 -17t72.5 -47t44 -70t15 -86v-36h-353q0 -82 44.5 -129.5t125.5 -47.5q47 0 81 19t60 51l41 -22q-11 -34 -30.5 -66.5t-50 -58t-72 -41t-95.5 -15.5q-60 0 -107 19.5t-79 55.5q-35 -36 -84 -55.5t-112 -19.5q-65 0 -117.5 21t-89.5 57.5t-57 86.5
t-20 108q0 68 23 122t63.5 92t96.5 58.5t122 20.5q64 0 111 -22t79 -59q35 38 83 59.5t105 21.5zM337 60q26 0 43.5 13.5t27.5 37.5t14 58t4 75q0 114 -27.5 178t-86.5 64q-26 0 -43.5 -13.5t-27.5 -37.5t-14 -58t-4 -75q0 -114 27.5 -178t86.5 -64zM693 487
q-46 0 -69.5 -36.5t-29.5 -92.5h187q-1 58 -22 93.5t-66 35.5z" />
    <glyph glyph-name="Racute" unicode="&#x154;" horiz-adv-x="892" 
d="M325 705v-293h63q90 0 129.5 35.5t39.5 117.5q0 67 -41 103.5t-128 36.5h-63zM453 780q86 0 144.5 -17t94.5 -46t52 -68.5t16 -83.5q0 -55 -21.5 -94t-55.5 -64t-75.5 -37.5t-81.5 -15.5q50 -8 87 -28t73 -67l89 -114q15 -19 26 -32.5t22 -23t25 -15t34 -8.5v-66h-218
q-26 20 -45.5 42.5t-40.5 51.5l-141 185q-23 30 -43 42.5t-55 12.5h-14v-192q0 -22 4 -36.5t14 -23t28 -12t46 -4.5v-66h-377v66q28 1 46 4.5t28 12t14 23t4 36.5v496q0 23 -4 37t-14 22.5t-28 12t-46 4.5v66h413zM643 1030l-201 -208h-85l94 208h192z" />
    <glyph glyph-name="racute" unicode="&#x155;" horiz-adv-x="526" 
d="M284 387q20 47 39.5 79.5t41.5 52.5t46.5 28.5t55.5 8.5q18 0 29.5 -4t19.5 -10v-148h-29q-24 0 -52 -1.5t-55.5 -7t-52.5 -15t-43 -25.5v-227q0 -17 4.5 -27t14.5 -15.5t26 -8.5t39 -6v-61h-328v61q35 5 49.5 14t14.5 43v300l-59 54v34l205 54h39zM518 800l-201 -208
h-85l94 208h192z" />
    <glyph glyph-name="Rcommaaccent" unicode="&#x156;" horiz-adv-x="892" 
d="M325 705v-293h63q90 0 129.5 35.5t39.5 117.5q0 67 -41 103.5t-128 36.5h-63zM453 780q86 0 144.5 -17t94.5 -46t52 -68.5t16 -83.5q0 -55 -21.5 -94t-55.5 -64t-75.5 -37.5t-81.5 -15.5q50 -8 87 -28t73 -67l89 -114q15 -19 26 -32.5t22 -23t25 -15t34 -8.5v-66h-218
q-26 20 -45.5 42.5t-40.5 51.5l-141 185q-23 30 -43 42.5t-55 12.5h-14v-192q0 -22 4 -36.5t14 -23t28 -12t46 -4.5v-66h-377v66q28 1 46 4.5t28 12t14 23t4 36.5v496q0 23 -4 37t-14 22.5t-28 12t-46 4.5v66h413zM434 -160q-27 6 -41 20.5t-14 40.5t19.5 44.5t56.5 18.5
q42 0 67 -26t25 -69q0 -25 -8 -46t-26 -37t-47 -25.5t-71 -10.5v44q44 4 63.5 15t19.5 31h-44z" />
    <glyph glyph-name="rcommaaccent" unicode="&#x157;" horiz-adv-x="526" 
d="M284 387q20 47 39.5 79.5t41.5 52.5t46.5 28.5t55.5 8.5q18 0 29.5 -4t19.5 -10v-148h-29q-24 0 -52 -1.5t-55.5 -7t-52.5 -15t-43 -25.5v-227q0 -17 4.5 -27t14.5 -15.5t26 -8.5t39 -6v-61h-328v61q35 5 49.5 14t14.5 43v300l-59 54v34l205 54h39zM170 -160
q-27 6 -41 20.5t-14 40.5t19.5 44.5t56.5 18.5q42 0 67 -26t25 -69q0 -25 -8 -46t-26 -37t-47 -25.5t-71 -10.5v44q44 4 63.5 15t19.5 31h-44z" />
    <glyph glyph-name="Rcaron" unicode="&#x158;" horiz-adv-x="892" 
d="M325 705v-293h63q90 0 129.5 35.5t39.5 117.5q0 67 -41 103.5t-128 36.5h-63zM453 780q86 0 144.5 -17t94.5 -46t52 -68.5t16 -83.5q0 -55 -21.5 -94t-55.5 -64t-75.5 -37.5t-81.5 -15.5q50 -8 87 -28t73 -67l89 -114q15 -19 26 -32.5t22 -23t25 -15t34 -8.5v-66h-218
q-26 20 -45.5 42.5t-40.5 51.5l-141 185q-23 30 -43 42.5t-55 12.5h-14v-192q0 -22 4 -36.5t14 -23t28 -12t46 -4.5v-66h-377v66q28 1 46 4.5t28 12t14 23t4 36.5v496q0 23 -4 37t-14 22.5t-28 12t-46 4.5v66h413zM190 1030h87l124 -102l124 102h87l-157 -208h-108z" />
    <glyph glyph-name="rcaron" unicode="&#x159;" horiz-adv-x="526" 
d="M284 387q20 47 39.5 79.5t41.5 52.5t46.5 28.5t55.5 8.5q18 0 29.5 -4t19.5 -10v-148h-29q-24 0 -52 -1.5t-55.5 -7t-52.5 -15t-43 -25.5v-227q0 -17 4.5 -27t14.5 -15.5t26 -8.5t39 -6v-61h-328v61q35 5 49.5 14t14.5 43v300l-59 54v34l205 54h39zM75 800h87l124 -102
l124 102h87l-157 -208h-108z" />
    <glyph glyph-name="Sacute" unicode="&#x15a;" horiz-adv-x="682" 
d="M320 -10q-81 0 -151 20.5t-112 51.5l-12 187h100q25 -94 71 -140t127 -46q55 0 91 26t36 79q0 46 -25 73t-92 46l-98 28q-46 13 -83.5 32t-64 46t-40.5 64.5t-14 87.5q0 57 21 102.5t58.5 77t89.5 48.5t113 17q87 0 152 -18t107 -48l2 -170h-86q-12 36 -27 65.5
t-36.5 51.5t-52.5 34t-74 12q-53 0 -80.5 -27t-27.5 -69q0 -51 28.5 -77t92.5 -44l86 -24q45 -13 85 -30.5t69.5 -45t46.5 -67.5t17 -97q0 -63 -25.5 -109.5t-68.5 -76.5t-100.5 -45t-122.5 -15zM576 1030l-201 -208h-85l94 208h192z" />
    <glyph glyph-name="sacute" unicode="&#x15b;" horiz-adv-x="534" 
d="M263 -10q-69 0 -121.5 15.5t-87.5 38.5l-6 129h83q11 -59 44.5 -88.5t93.5 -29.5q40 0 66.5 15.5t26.5 47.5q0 31 -20.5 43t-57.5 20l-76 15q-70 14 -113.5 57t-43.5 125q0 88 59 133t159 45q54 0 101.5 -10.5t82.5 -33.5v-113h-74q-27 92 -121 92q-32 0 -51.5 -14.5
t-19.5 -41.5q0 -26 15.5 -37.5t46.5 -18.5l75 -16q78 -16 124 -59t46 -127q0 -46 -17 -81t-48 -58.5t-73 -35.5t-93 -12zM493 800l-201 -208h-85l94 208h192z" />
    <glyph glyph-name="Scircumflex" unicode="&#x15c;" horiz-adv-x="682" 
d="M320 -10q-81 0 -151 20.5t-112 51.5l-12 187h100q25 -94 71 -140t127 -46q55 0 91 26t36 79q0 46 -25 73t-92 46l-98 28q-46 13 -83.5 32t-64 46t-40.5 64.5t-14 87.5q0 57 21 102.5t58.5 77t89.5 48.5t113 17q87 0 152 -18t107 -48l2 -170h-86q-12 36 -27 65.5
t-36.5 51.5t-52.5 34t-74 12q-53 0 -80.5 -27t-27.5 -69q0 -51 28.5 -77t92.5 -44l86 -24q45 -13 85 -30.5t69.5 -45t46.5 -67.5t17 -97q0 -63 -25.5 -109.5t-68.5 -76.5t-100.5 -45t-122.5 -15zM545 822h-87l-124 102l-124 -102h-87l157 208h108z" />
    <glyph glyph-name="scircumflex" unicode="&#x15d;" horiz-adv-x="534" 
d="M263 -10q-69 0 -121.5 15.5t-87.5 38.5l-6 129h83q11 -59 44.5 -88.5t93.5 -29.5q40 0 66.5 15.5t26.5 47.5q0 31 -20.5 43t-57.5 20l-76 15q-70 14 -113.5 57t-43.5 125q0 88 59 133t159 45q54 0 101.5 -10.5t82.5 -33.5v-113h-74q-27 92 -121 92q-32 0 -51.5 -14.5
t-19.5 -41.5q0 -26 15.5 -37.5t46.5 -18.5l75 -16q78 -16 124 -59t46 -127q0 -46 -17 -81t-48 -58.5t-73 -35.5t-93 -12zM472 592h-87l-124 102l-124 -102h-87l157 208h108z" />
    <glyph glyph-name="Scedilla" unicode="&#x15e;" horiz-adv-x="682" 
d="M637 236q0 -63 -25 -109t-68 -76.5t-100.5 -45.5t-121.5 -15l-8 -35q60 -5 92.5 -31t32.5 -74q0 -25 -10 -44t-27 -31.5t-38.5 -18.5t-44.5 -6q-32 0 -54.5 8.5t-35.5 18.5l15 40q14 -8 31.5 -13.5t34.5 -5.5q20 0 31 6.5t11 21.5q0 24 -30.5 32.5t-75.5 12.5l24 121
q-66 6 -122 25t-91 45l-12 187h100q25 -94 71 -140t127 -46q55 0 91 26t36 79q0 46 -25 73t-92 46l-98 28q-46 13 -83.5 32t-64 46t-40.5 64.5t-14 87.5q0 57 21 102.5t58.5 77t89.5 48.5t113 17q87 0 152 -18t107 -48l2 -170h-86q-12 36 -27 65.5t-36.5 51.5t-52.5 34
t-74 12q-53 0 -80.5 -27t-27.5 -69q0 -51 28.5 -77t92.5 -44l86 -24q45 -13 85 -30.5t69.5 -45t46.5 -67.5t17 -97z" />
    <glyph glyph-name="scedilla" unicode="&#x15f;" horiz-adv-x="534" 
d="M494 177q0 -44 -15.5 -77.5t-43.5 -57t-66.5 -36.5t-85.5 -15l-8 -36q60 -5 92.5 -31t32.5 -74q0 -25 -10 -44t-27 -31.5t-38.5 -18.5t-44.5 -6q-32 0 -54.5 8.5t-35.5 18.5l15 40q14 -8 31.5 -13.5t34.5 -5.5q20 0 31 6.5t11 21.5q0 24 -30.5 32.5t-75.5 12.5l24 120
q-57 4 -101.5 18.5t-75.5 34.5l-6 129h83q11 -59 44.5 -88.5t93.5 -29.5q40 0 66.5 15.5t26.5 47.5q0 31 -20.5 43t-57.5 20l-76 15q-70 14 -113.5 57t-43.5 125q0 88 59 133t159 45q54 0 101.5 -10.5t82.5 -33.5v-113h-74q-27 92 -121 92q-32 0 -51.5 -14.5t-19.5 -41.5
q0 -26 15.5 -37.5t46.5 -18.5l75 -16q78 -16 124 -59t46 -127z" />
    <glyph glyph-name="Scaron" unicode="&#x160;" horiz-adv-x="682" 
d="M320 -10q-81 0 -151 20.5t-112 51.5l-12 187h100q25 -94 71 -140t127 -46q55 0 91 26t36 79q0 46 -25 73t-92 46l-98 28q-46 13 -83.5 32t-64 46t-40.5 64.5t-14 87.5q0 57 21 102.5t58.5 77t89.5 48.5t113 17q87 0 152 -18t107 -48l2 -170h-86q-12 36 -27 65.5
t-36.5 51.5t-52.5 34t-74 12q-53 0 -80.5 -27t-27.5 -69q0 -51 28.5 -77t92.5 -44l86 -24q45 -13 85 -30.5t69.5 -45t46.5 -67.5t17 -97q0 -63 -25.5 -109.5t-68.5 -76.5t-100.5 -45t-122.5 -15zM123 1030h87l124 -102l124 102h87l-157 -208h-108z" />
    <glyph glyph-name="scaron" unicode="&#x161;" horiz-adv-x="534" 
d="M263 -10q-69 0 -121.5 15.5t-87.5 38.5l-6 129h83q11 -59 44.5 -88.5t93.5 -29.5q40 0 66.5 15.5t26.5 47.5q0 31 -20.5 43t-57.5 20l-76 15q-70 14 -113.5 57t-43.5 125q0 88 59 133t159 45q54 0 101.5 -10.5t82.5 -33.5v-113h-74q-27 92 -121 92q-32 0 -51.5 -14.5
t-19.5 -41.5q0 -26 15.5 -37.5t46.5 -18.5l75 -16q78 -16 124 -59t46 -127q0 -46 -17 -81t-48 -58.5t-73 -35.5t-93 -12zM50 800h87l124 -102l124 102h87l-157 -208h-108z" />
    <glyph glyph-name="Tcommaaccent" unicode="&#x162;" horiz-adv-x="821" 
d="M790 780l16 -251h-81q-20 45 -36.5 79t-35.5 56.5t-43 34t-59 11.5h-44v-568q0 -22 5 -36.5t16.5 -23t30.5 -12t47 -4.5v-66h-391v66q28 1 47 4.5t30.5 12t16.5 23t5 36.5v568h-44q-35 0 -59 -11.5t-43 -34t-35.5 -56.5t-36.5 -79h-81l16 251h759zM381 -160
q-27 6 -41 20.5t-14 40.5t19.5 44.5t56.5 18.5q42 0 67 -26t25 -69q0 -25 -8 -46t-26 -37t-47 -25.5t-71 -10.5v44q44 4 63.5 15t19.5 31h-44z" />
    <glyph glyph-name="tcommaaccent" unicode="&#x163;" horiz-adv-x="451" 
d="M267 546h146v-71h-146v-301q0 -42 14.5 -58.5t49.5 -16.5q23 0 46 7.5t41 15.5l23 -47q-35 -36 -83 -60.5t-113 -24.5q-31 0 -59.5 8t-50.5 26.5t-35 49.5t-13 76v325h-77v51q51 18 103 57.5t94 86.5h60v-124zM196 -160q-27 6 -41 20.5t-14 40.5t19.5 44.5t56.5 18.5
q42 0 67 -26t25 -69q0 -25 -8 -46t-26 -37t-47 -25.5t-71 -10.5v44q44 4 63.5 15t19.5 31h-44z" />
    <glyph glyph-name="Tcaron" unicode="&#x164;" horiz-adv-x="821" 
d="M790 780l16 -251h-81q-20 45 -36.5 79t-35.5 56.5t-43 34t-59 11.5h-44v-568q0 -22 5 -36.5t16.5 -23t30.5 -12t47 -4.5v-66h-391v66q28 1 47 4.5t30.5 12t16.5 23t5 36.5v568h-44q-35 0 -59 -11.5t-43 -34t-35.5 -56.5t-36.5 -79h-81l16 251h759zM199 1030h87l124 -102
l124 102h87l-157 -208h-108z" />
    <glyph glyph-name="tcaron" unicode="&#x165;" horiz-adv-x="451" 
d="M267 546h146v-71h-146v-301q0 -42 14.5 -58.5t49.5 -16.5q23 0 46 7.5t41 15.5l23 -47q-35 -36 -83 -60.5t-113 -24.5q-31 0 -59.5 8t-50.5 26.5t-35 49.5t-13 76v325h-77v51q51 18 103 57.5t94 86.5h60v-124zM481 800l-92 -208h-83l8 208h167z" />
    <glyph glyph-name="Tbar" unicode="&#x166;" horiz-adv-x="821" 
d="M790 780l16 -251h-81q-20 45 -36.5 79t-35.5 56.5t-43 34t-59 11.5h-44v-292h144v-66h-144v-210q0 -22 5 -36.5t16.5 -23t30.5 -12t47 -4.5v-66h-391v66q28 1 47 4.5t30.5 12t16.5 23t5 36.5v210h-144v66h144v292h-44q-35 0 -59 -11.5t-43 -34t-35.5 -56.5t-36.5 -79h-81
l16 251h759z" />
    <glyph glyph-name="tbar" unicode="&#x167;" horiz-adv-x="451" 
d="M10 355h77v120h-77v51q51 18 103 57.5t94 86.5h60v-124h146v-71h-146v-120h146v-68h-146v-113q0 -42 14.5 -58.5t49.5 -16.5q23 0 46 7.5t41 15.5l23 -47q-35 -36 -83 -60.5t-113 -24.5q-31 0 -59.5 8t-50.5 26.5t-35 49.5t-13 76v137h-77v68z" />
    <glyph glyph-name="Utilde" unicode="&#x168;" horiz-adv-x="886" 
d="M310 288q0 -91 40 -143.5t128 -52.5q41 0 76 9.5t61 33t41 63t15 99.5v341q0 45 -23 59.5t-79 16.5v66h292v-66q-28 -1 -46 -4.5t-28 -12t-14 -22.5t-4 -37v-366q0 -72 -25.5 -125.5t-68.5 -88t-100 -51.5t-119 -17q-162 0 -250.5 71t-88.5 212v365q0 23 -4 37t-14 22.5
t-28 12t-46 4.5v66h377v-66q-28 -1 -46 -4.5t-28 -12t-14 -22.5t-4 -37v-350zM542 841q-22 0 -42.5 9t-39.5 19.5t-36 19.5t-32 9q-22 0 -36.5 -13.5t-29.5 -41.5l-58 10q29 89 63.5 125.5t85.5 36.5q22 0 42.5 -9t39.5 -19.5t36 -19.5t32 -9q22 0 36.5 13.5t29.5 41.5
l58 -10q-29 -88 -63.5 -125t-85.5 -37z" />
    <glyph glyph-name="utilde" unicode="&#x169;" horiz-adv-x="705" 
d="M431 88q-13 -18 -31.5 -35.5t-42 -31.5t-52.5 -22.5t-64 -8.5q-69 0 -113 40.5t-44 128.5v237q0 23 -8.5 38t-34.5 20l-16 4v56l205 42h39l-5 -100v-270q0 -42 18.5 -61.5t49.5 -19.5t54 8.5t45 19.5v263q0 23 -8.5 38t-34.5 20l-16 4v56l205 42h39l-5 -100v-317
q0 -26 8.5 -39.5t32.5 -13.5h24v-63l-211 -33h-39zM411 611q-22 0 -42.5 9t-39.5 19.5t-36 19.5t-32 9q-22 0 -36.5 -13.5t-29.5 -41.5l-58 10q29 89 63.5 125.5t85.5 36.5q22 0 42.5 -9t39.5 -19.5t36 -19.5t32 -9q22 0 36.5 13.5t29.5 41.5l58 -10q-29 -88 -63.5 -125
t-85.5 -37z" />
    <glyph glyph-name="Umacron" unicode="&#x16a;" horiz-adv-x="886" 
d="M310 288q0 -91 40 -143.5t128 -52.5q41 0 76 9.5t61 33t41 63t15 99.5v341q0 45 -23 59.5t-79 16.5v66h292v-66q-28 -1 -46 -4.5t-28 -12t-14 -22.5t-4 -37v-366q0 -72 -25.5 -125.5t-68.5 -88t-100 -51.5t-119 -17q-162 0 -250.5 71t-88.5 212v365q0 23 -4 37t-14 22.5
t-28 12t-46 4.5v66h377v-66q-28 -1 -46 -4.5t-28 -12t-14 -22.5t-4 -37v-350zM328 941h302v-90h-302v90z" />
    <glyph glyph-name="umacron" unicode="&#x16b;" horiz-adv-x="705" 
d="M431 88q-13 -18 -31.5 -35.5t-42 -31.5t-52.5 -22.5t-64 -8.5q-69 0 -113 40.5t-44 128.5v237q0 23 -8.5 38t-34.5 20l-16 4v56l205 42h39l-5 -100v-270q0 -42 18.5 -61.5t49.5 -19.5t54 8.5t45 19.5v263q0 23 -8.5 38t-34.5 20l-16 4v56l205 42h39l-5 -100v-317
q0 -26 8.5 -39.5t32.5 -13.5h24v-63l-211 -33h-39zM197 716h302v-90h-302v90z" />
    <glyph glyph-name="Ubreve" unicode="&#x16c;" horiz-adv-x="886" 
d="M310 288q0 -91 40 -143.5t128 -52.5q41 0 76 9.5t61 33t41 63t15 99.5v341q0 45 -23 59.5t-79 16.5v66h292v-66q-28 -1 -46 -4.5t-28 -12t-14 -22.5t-4 -37v-366q0 -72 -25.5 -125.5t-68.5 -88t-100 -51.5t-119 -17q-162 0 -250.5 71t-88.5 212v365q0 23 -4 37t-14 22.5
t-28 12t-46 4.5v66h377v-66q-28 -1 -46 -4.5t-28 -12t-14 -22.5t-4 -37v-350zM479 829q-97 0 -137.5 53.5t-40.5 147.5h58q4 -29 15.5 -48t27.5 -30t36 -15t41 -4t41 4t36 15t27.5 30t15.5 48h58q0 -94 -40.5 -147.5t-137.5 -53.5z" />
    <glyph glyph-name="ubreve" unicode="&#x16d;" horiz-adv-x="705" 
d="M431 88q-13 -18 -31.5 -35.5t-42 -31.5t-52.5 -22.5t-64 -8.5q-69 0 -113 40.5t-44 128.5v237q0 23 -8.5 38t-34.5 20l-16 4v56l205 42h39l-5 -100v-270q0 -42 18.5 -61.5t49.5 -19.5t54 8.5t45 19.5v263q0 23 -8.5 38t-34.5 20l-16 4v56l205 42h39l-5 -100v-317
q0 -26 8.5 -39.5t32.5 -13.5h24v-63l-211 -33h-39zM348 599q-97 0 -137.5 53.5t-40.5 147.5h58q4 -29 15.5 -48t27.5 -30t36 -15t41 -4t41 4t36 15t27.5 30t15.5 48h58q0 -94 -40.5 -147.5t-137.5 -53.5z" />
    <glyph glyph-name="Uring" unicode="&#x16e;" horiz-adv-x="886" 
d="M310 288q0 -91 40 -143.5t128 -52.5q41 0 76 9.5t61 33t41 63t15 99.5v341q0 45 -23 59.5t-79 16.5v66h292v-66q-28 -1 -46 -4.5t-28 -12t-14 -22.5t-4 -37v-366q0 -72 -25.5 -125.5t-68.5 -88t-100 -51.5t-119 -17q-162 0 -250.5 71t-88.5 212v365q0 23 -4 37t-14 22.5
t-28 12t-46 4.5v66h377v-66q-28 -1 -46 -4.5t-28 -12t-14 -22.5t-4 -37v-350zM358 926q0 48 33.5 81t87.5 33q55 0 88.5 -33t33.5 -81t-33.5 -81t-88.5 -33q-54 0 -87.5 33t-33.5 81zM531 926q0 23 -13 38.5t-39 15.5t-39 -15.5t-13 -38.5t13 -38.5t39 -15.5t39 15.5
t13 38.5z" />
    <glyph glyph-name="uring" unicode="&#x16f;" horiz-adv-x="705" 
d="M431 88q-13 -18 -31.5 -35.5t-42 -31.5t-52.5 -22.5t-64 -8.5q-69 0 -113 40.5t-44 128.5v237q0 23 -8.5 38t-34.5 20l-16 4v56l205 42h39l-5 -100v-270q0 -42 18.5 -61.5t49.5 -19.5t54 8.5t45 19.5v263q0 23 -8.5 38t-34.5 20l-16 4v56l205 42h39l-5 -100v-317
q0 -26 8.5 -39.5t32.5 -13.5h24v-63l-211 -33h-39zM227 702q0 48 33.5 81t87.5 33q55 0 88.5 -33t33.5 -81t-33.5 -81t-88.5 -33q-54 0 -87.5 33t-33.5 81zM400 702q0 23 -13 38.5t-39 15.5t-39 -15.5t-13 -38.5t13 -38.5t39 -15.5t39 15.5t13 38.5z" />
    <glyph glyph-name="Uhungarumlaut" unicode="&#x170;" horiz-adv-x="886" 
d="M310 288q0 -91 40 -143.5t128 -52.5q41 0 76 9.5t61 33t41 63t15 99.5v341q0 45 -23 59.5t-79 16.5v66h292v-66q-28 -1 -46 -4.5t-28 -12t-14 -22.5t-4 -37v-366q0 -72 -25.5 -125.5t-68.5 -88t-100 -51.5t-119 -17q-162 0 -250.5 71t-88.5 212v365q0 23 -4 37t-14 22.5
t-28 12t-46 4.5v66h377v-66q-28 -1 -46 -4.5t-28 -12t-14 -22.5t-4 -37v-350zM543 1030l-131 -208h-78l67 208h142zM733 1030l-131 -208h-78l67 208h142z" />
    <glyph glyph-name="uhungarumlaut" unicode="&#x171;" horiz-adv-x="705" 
d="M431 88q-13 -18 -31.5 -35.5t-42 -31.5t-52.5 -22.5t-64 -8.5q-69 0 -113 40.5t-44 128.5v237q0 23 -8.5 38t-34.5 20l-16 4v56l205 42h39l-5 -100v-270q0 -42 18.5 -61.5t49.5 -19.5t54 8.5t45 19.5v263q0 23 -8.5 38t-34.5 20l-16 4v56l205 42h39l-5 -100v-317
q0 -26 8.5 -39.5t32.5 -13.5h24v-63l-211 -33h-39zM416 800l-131 -208h-78l67 208h142zM606 800l-131 -208h-78l67 208h142z" />
    <glyph glyph-name="Uogonek" unicode="&#x172;" horiz-adv-x="886" 
d="M310 288q0 -91 40 -143.5t128 -52.5q41 0 76 9.5t61 33t41 63t15 99.5v341q0 45 -23 59.5t-79 16.5v66h292v-66q-28 -1 -46 -4.5t-28 -12t-14 -22.5t-4 -37v-366q0 -52 -13.5 -93.5t-37 -74t-56 -55.5t-71.5 -37q-58 -28 -78.5 -62t-20.5 -69q0 -27 13 -42.5t42 -15.5
q21 0 35.5 7t31.5 18l12 -43q-19 -22 -53.5 -38.5t-73.5 -16.5q-57 0 -91.5 28t-34.5 80q0 42 18.5 73t49.5 59q-155 4 -239.5 74.5t-84.5 208.5v365q0 23 -4 37t-14 22.5t-28 12t-46 4.5v66h377v-66q-28 -1 -46 -4.5t-28 -12t-14 -22.5t-4 -37v-350z" />
    <glyph glyph-name="uogonek" unicode="&#x173;" horiz-adv-x="705" 
d="M431 88q-13 -18 -31.5 -35.5t-42 -31.5t-52.5 -22.5t-64 -8.5q-69 0 -113 40.5t-44 128.5v237q0 23 -8.5 38t-34.5 20l-16 4v56l205 42h39l-5 -100v-270q0 -42 18.5 -61.5t49.5 -19.5t54 8.5t45 19.5v263q0 23 -8.5 38t-34.5 20l-16 4v56l205 42h39l-5 -100v-317
q0 -26 8.5 -39.5t32.5 -13.5h24v-63q-38 -17 -60.5 -36.5t-34 -38.5t-14.5 -36.5t-3 -30.5q0 -27 13 -42.5t42 -15.5q21 0 35.5 7t31.5 18l12 -43q-19 -22 -53.5 -38.5t-73.5 -16.5q-57 0 -91.5 28.5t-34.5 83.5q0 41 22 76.5t73 63.5l-75 -12h-39z" />
    <glyph glyph-name="Wcircumflex" unicode="&#x174;" horiz-adv-x="1182" 
d="M985 612q6 18 9.5 31t3.5 23q0 26 -15.5 36t-67.5 12v66h257v-66q-24 -4 -40.5 -10.5t-25.5 -30.5l-254 -678h-81l-166 444l-171 -444h-81l-277 678q-10 23 -26.5 30t-39.5 11v66h371v-66q-52 -2 -67.5 -12t-15.5 -36q0 -10 3.5 -22t11.5 -32l134 -355l113 299l-45 117
q-10 24 -26.5 30.5t-39.5 10.5v66h359v-66q-52 -2 -67.5 -12t-15.5 -36q0 -10 3.5 -22.5t13.5 -40.5l119 -341zM834 822h-87l-124 102l-124 -102h-87l157 208h108z" />
    <glyph glyph-name="wcircumflex" unicode="&#x175;" horiz-adv-x="961" 
d="M800 422q5 13 5 27q0 18 -13.5 24.5t-53.5 11.5v61h218v-61q-28 -10 -39 -16.5t-19 -23.5l-199 -450h-57l-153 322l-146 -322h-57l-223 450q-8 17 -19 23.5t-39 16.5v61h320v-61q-33 -3 -46 -10.5t-13 -25.5q0 -6 1 -11.5t6 -15.5l92 -210l84 192l-19 41q-8 17 -20 25.5
t-35 14.5v61h307v-61q-36 -4 -47.5 -11t-11.5 -25q0 -6 1 -11.5t6 -15.5l86 -203zM719 592h-87l-124 102l-124 -102h-87l157 208h108z" />
    <glyph glyph-name="Ycircumflex" unicode="&#x176;" horiz-adv-x="832" 
d="M609 607q14 23 19.5 37t5.5 27q0 23 -18 32t-60 11v66h266v-66q-24 -4 -38.5 -12t-27.5 -29l-242 -390v-141q0 -22 5 -36.5t16.5 -23t30.5 -12t47 -4.5v-66h-388v66q28 1 47 4.5t30.5 12t16.5 23t5 36.5v141l-248 390q-14 21 -28 29t-38 12v66h376v-66q-47 -2 -62 -10
t-15 -34t24 -63l140 -222zM663 822h-87l-124 102l-124 -102h-87l157 208h108z" />
    <glyph glyph-name="ycircumflex" unicode="&#x177;" horiz-adv-x="630" 
d="M63 445q-8 17 -19 23.5t-39 16.5v61h330v-61q-40 -5 -54.5 -11.5t-14.5 -24.5q0 -6 1 -11.5t6 -15.5l97 -232l96 232q7 17 7 27q0 18 -14.5 24.5t-54.5 11.5v61h221v-61q-28 -10 -39 -16.5t-19 -23.5l-249 -552q-36 -80 -74.5 -110t-90.5 -30q-35 0 -60 11t-35 27v89h73
q26 0 45.5 2.5t35.5 10.5t28.5 23.5t23.5 42.5l17 39zM550 592h-87l-124 102l-124 -102h-87l157 208h108z" />
    <glyph glyph-name="Ydieresis" unicode="&#x178;" horiz-adv-x="832" 
d="M609 607q14 23 19.5 37t5.5 27q0 23 -18 32t-60 11v66h266v-66q-24 -4 -38.5 -12t-27.5 -29l-242 -390v-141q0 -22 5 -36.5t16.5 -23t30.5 -12t47 -4.5v-66h-388v66q28 1 47 4.5t30.5 12t16.5 23t5 36.5v141l-248 390q-14 21 -28 29t-38 12v66h376v-66q-47 -2 -62 -10
t-15 -34t24 -63l140 -222zM245 926q0 39 27 66.5t65 27.5q39 0 66.5 -27.5t27.5 -66.5q0 -38 -27.5 -65t-66.5 -27q-19 0 -35.5 7.5t-29 20t-20 29t-7.5 35.5zM473 926q0 39 27 66.5t65 27.5q39 0 66.5 -27.5t27.5 -66.5q0 -38 -27.5 -65t-66.5 -27q-19 0 -35.5 7.5t-29 20
t-20 29t-7.5 35.5z" />
    <glyph glyph-name="Zacute" unicode="&#x179;" horiz-adv-x="755" 
d="M455 75q31 0 52.5 7.5t41.5 27.5t42.5 55.5t55.5 91.5h84l-41 -257h-660v48l431 657h-165q-34 0 -56 -9t-38 -27t-30 -45.5t-32 -64.5h-77l3 221h633v-49l-432 -656h188zM632 1030l-201 -208h-85l94 208h192z" />
    <glyph glyph-name="zacute" unicode="&#x17a;" horiz-adv-x="615" 
d="M37 41l296 437h-100q-19 0 -33.5 -6t-27.5 -21t-26.5 -40t-31.5 -63h-66l14 228h62l12 -30h415v-45l-290 -433h106q24 0 42 5.5t33 20.5t29.5 40.5t33.5 65.5h67l-22 -200h-513v41zM552 800l-201 -208h-85l94 208h192z" />
    <glyph glyph-name="Zdotaccent" unicode="&#x17b;" horiz-adv-x="755" 
d="M455 75q31 0 52.5 7.5t41.5 27.5t42.5 55.5t55.5 91.5h84l-41 -257h-660v48l431 657h-165q-34 0 -56 -9t-38 -27t-30 -45.5t-32 -64.5h-77l3 221h633v-49l-432 -656h188zM281 935q0 44 28.5 73t79.5 29q52 0 80.5 -29t28.5 -73q0 -43 -28.5 -72t-80.5 -29q-51 0 -79.5 29
t-28.5 72z" />
    <glyph glyph-name="zdotaccent" unicode="&#x17c;" horiz-adv-x="615" 
d="M37 41l296 437h-100q-19 0 -33.5 -6t-27.5 -21t-26.5 -40t-31.5 -63h-66l14 228h62l12 -30h415v-45l-290 -433h106q24 0 42 5.5t33 20.5t29.5 40.5t33.5 65.5h67l-22 -200h-513v41zM211 701q0 44 28.5 73t79.5 29q52 0 80.5 -29t28.5 -73q0 -43 -28.5 -72t-80.5 -29
q-51 0 -79.5 29t-28.5 72z" />
    <glyph glyph-name="Zcaron" unicode="&#x17d;" horiz-adv-x="755" 
d="M455 75q31 0 52.5 7.5t41.5 27.5t42.5 55.5t55.5 91.5h84l-41 -257h-660v48l431 657h-165q-34 0 -56 -9t-38 -27t-30 -45.5t-32 -64.5h-77l3 221h633v-49l-432 -656h188zM179 1030h87l124 -102l124 102h87l-157 -208h-108z" />
    <glyph glyph-name="zcaron" unicode="&#x17e;" horiz-adv-x="615" 
d="M37 41l296 437h-100q-19 0 -33.5 -6t-27.5 -21t-26.5 -40t-31.5 -63h-66l14 228h62l12 -30h415v-45l-290 -433h106q24 0 42 5.5t33 20.5t29.5 40.5t33.5 65.5h67l-22 -200h-513v41zM109 800h87l124 -102l124 102h87l-157 -208h-108z" />
    <glyph glyph-name="florin" unicode="&#x192;" horiz-adv-x="619" 
d="M117 -216l42 572h-107l6 70h107l10 107q11 124 84 190.5t194 66.5q88 0 126 -29.5t38 -75.5q0 -23 -10 -43.5t-30 -31.5h-114q2 12 3 27t1 29q0 62 -46 62q-31 0 -41 -28t-14 -85l-14 -189h124l-6 -70h-124l-43 -572h-186z" />
    <glyph glyph-name="Scommaaccent" unicode="&#x218;" horiz-adv-x="682" 
d="M320 -10q-81 0 -151 20.5t-112 51.5l-12 187h100q25 -94 71 -140t127 -46q55 0 91 26t36 79q0 46 -25 73t-92 46l-98 28q-46 13 -83.5 32t-64 46t-40.5 64.5t-14 87.5q0 57 21 102.5t58.5 77t89.5 48.5t113 17q87 0 152 -18t107 -48l2 -170h-86q-12 36 -27 65.5
t-36.5 51.5t-52.5 34t-74 12q-53 0 -80.5 -27t-27.5 -69q0 -51 28.5 -77t92.5 -44l86 -24q45 -13 85 -30.5t69.5 -45t46.5 -67.5t17 -97q0 -63 -25.5 -109.5t-68.5 -76.5t-100.5 -45t-122.5 -15zM305 -160q-27 6 -41 20.5t-14 40.5t19.5 44.5t56.5 18.5q42 0 67 -26t25 -69
q0 -25 -8 -46t-26 -37t-47 -25.5t-71 -10.5v44q44 4 63.5 15t19.5 31h-44z" />
    <glyph glyph-name="scommaaccent" unicode="&#x219;" horiz-adv-x="534" 
d="M263 -10q-69 0 -121.5 15.5t-87.5 38.5l-6 129h83q11 -59 44.5 -88.5t93.5 -29.5q40 0 66.5 15.5t26.5 47.5q0 31 -20.5 43t-57.5 20l-76 15q-70 14 -113.5 57t-43.5 125q0 88 59 133t159 45q54 0 101.5 -10.5t82.5 -33.5v-113h-74q-27 92 -121 92q-32 0 -51.5 -14.5
t-19.5 -41.5q0 -26 15.5 -37.5t46.5 -18.5l75 -16q78 -16 124 -59t46 -127q0 -46 -17 -81t-48 -58.5t-73 -35.5t-93 -12zM232 -160q-27 6 -41 20.5t-14 40.5t19.5 44.5t56.5 18.5q42 0 67 -26t25 -69q0 -25 -8 -46t-26 -37t-47 -25.5t-71 -10.5v44q44 4 63.5 15t19.5 31h-44
z" />
    <glyph glyph-name="dotlessj" unicode="&#x237;" horiz-adv-x="330" 
d="M23 472v34l205 54h39l-5 -98v-371q0 -41 -4.5 -72t-13.5 -55t-21.5 -43t-27.5 -37q-36 -42 -75 -73.5t-80 -53.5l-40 36l43 71q25 41 32 85.5t7 103.5v365z" />
    <glyph glyph-name="circumflex" unicode="&#x2c6;" horiz-adv-x="600" 
d="M511 592h-87l-124 102l-124 -102h-87l157 208h108z" />
    <glyph glyph-name="caron" unicode="&#x2c7;" horiz-adv-x="600" 
d="M89 800h87l124 -102l124 102h87l-157 -208h-108z" />
    <glyph glyph-name="breve" unicode="&#x2d8;" horiz-adv-x="600" 
d="M300 599q-97 0 -137.5 53.5t-40.5 147.5h58q4 -29 15.5 -48t27.5 -30t36 -15t41 -4t41 4t36 15t27.5 30t15.5 48h58q0 -94 -40.5 -147.5t-137.5 -53.5z" />
    <glyph glyph-name="dotaccent" unicode="&#x2d9;" horiz-adv-x="600" 
d="M191 701q0 44 28.5 73t79.5 29q52 0 80.5 -29t28.5 -73q0 -43 -28.5 -72t-80.5 -29q-51 0 -79.5 29t-28.5 72z" />
    <glyph glyph-name="ring" unicode="&#x2da;" horiz-adv-x="600" 
d="M178 702q0 48 33.5 81t87.5 33q55 0 88.5 -33t33.5 -81t-33.5 -81t-88.5 -33q-54 0 -87.5 33t-33.5 81zM351 702q0 23 -13 38.5t-39 15.5t-39 -15.5t-13 -38.5t13 -38.5t39 -15.5t39 15.5t13 38.5z" />
    <glyph glyph-name="ogonek" unicode="&#x2db;" horiz-adv-x="600" 
d="M403 0q-65 -28 -88 -60.5t-23 -58.5q0 -27 13 -42.5t42 -15.5q21 0 35.5 7t31.5 18l12 -43q-19 -22 -53.5 -38.5t-73.5 -16.5q-57 0 -91.5 28.5t-34.5 83.5q0 58 47.5 106t159.5 74z" />
    <glyph glyph-name="tilde" unicode="&#x2dc;" horiz-adv-x="600" 
d="M362 611q-22 0 -42.5 9t-39.5 19.5t-36 19.5t-32 9q-22 0 -36.5 -13.5t-29.5 -41.5l-58 10q29 89 63.5 125.5t85.5 36.5q22 0 42.5 -9t39.5 -19.5t36 -19.5t32 -9q22 0 36.5 13.5t29.5 41.5l58 -10q-29 -88 -63.5 -125t-85.5 -37z" />
    <glyph glyph-name="hungarumlaut" unicode="&#x2dd;" horiz-adv-x="600" 
d="M309 800l-131 -208h-78l67 208h142zM499 800l-131 -208h-78l67 208h142z" />
    <glyph glyph-name="uni0300" unicode="&#x300;" horiz-adv-x="600" 
d="M354 800l84 -208h-85l-201 208h202z" />
    <glyph glyph-name="uni0301" unicode="&#x301;" horiz-adv-x="600" 
d="M448 800l-201 -208h-85l94 208h192z" />
    <glyph glyph-name="uni0302" unicode="&#x302;" horiz-adv-x="600" 
d="M511 592h-87l-124 102l-124 -102h-87l157 208h108z" />
    <glyph glyph-name="uni0303" unicode="&#x303;" horiz-adv-x="600" 
d="M362 611q-22 0 -42.5 9t-39.5 19.5t-36 19.5t-32 9q-22 0 -36.5 -13.5t-29.5 -41.5l-58 10q29 89 63.5 125.5t85.5 36.5q22 0 42.5 -9t39.5 -19.5t36 -19.5t32 -9q22 0 36.5 13.5t29.5 41.5l58 -10q-29 -88 -63.5 -125t-85.5 -37z" />
    <glyph glyph-name="uni0304" unicode="&#x304;" horiz-adv-x="600" 
d="M149 716h302v-90h-302v90z" />
    <glyph glyph-name="uni0306" unicode="&#x306;" horiz-adv-x="600" 
d="M300 599q-97 0 -137.5 53.5t-40.5 147.5h58q4 -29 15.5 -48t27.5 -30t36 -15t41 -4t41 4t36 15t27.5 30t15.5 48h58q0 -94 -40.5 -147.5t-137.5 -53.5z" />
    <glyph glyph-name="uni0307" unicode="&#x307;" horiz-adv-x="600" 
d="M191 701q0 44 28.5 73t79.5 29q52 0 80.5 -29t28.5 -73q0 -43 -28.5 -72t-80.5 -29q-51 0 -79.5 29t-28.5 72z" />
    <glyph glyph-name="uni0308" unicode="&#x308;" horiz-adv-x="600" 
d="M93 702q0 39 27 66.5t65 27.5q39 0 66.5 -27.5t27.5 -66.5q0 -38 -27.5 -65t-66.5 -27q-19 0 -35.5 7.5t-29 20t-20 29t-7.5 35.5zM321 702q0 39 27 66.5t65 27.5q39 0 66.5 -27.5t27.5 -66.5q0 -38 -27.5 -65t-66.5 -27q-19 0 -35.5 7.5t-29 20t-20 29t-7.5 35.5z" />
    <glyph glyph-name="uni030A" unicode="&#x30a;" horiz-adv-x="600" 
d="M178 702q0 48 33.5 81t87.5 33q55 0 88.5 -33t33.5 -81t-33.5 -81t-88.5 -33q-54 0 -87.5 33t-33.5 81zM351 702q0 23 -13 38.5t-39 15.5t-39 -15.5t-13 -38.5t13 -38.5t39 -15.5t39 15.5t13 38.5z" />
    <glyph glyph-name="uni030B" unicode="&#x30b;" horiz-adv-x="600" 
d="M309 800l-131 -208h-78l67 208h142zM499 800l-131 -208h-78l67 208h142z" />
    <glyph glyph-name="uni030C" unicode="&#x30c;" horiz-adv-x="600" 
d="M89 800h87l124 -102l124 102h87l-157 -208h-108z" />
    <glyph glyph-name="uni030F" unicode="&#x30f;" horiz-adv-x="600" 
d="M432 800l67 -208h-78l-131 208h142zM242 800l67 -208h-78l-131 208h142z" />
    <glyph glyph-name="uni0311" unicode="&#x311;" horiz-adv-x="600" 
d="M300 800q97 0 137.5 -53t40.5 -148h-58q-4 29 -15.5 48t-27.5 30t-36 15t-41 4t-41 -4t-36 -15t-27.5 -30t-15.5 -48h-58q0 95 40.5 148t137.5 53z" />
    <glyph glyph-name="uni0312" unicode="&#x312;" horiz-adv-x="600" 
d="M329 725q27 -6 41 -20.5t14 -40.5t-19.5 -44.5t-56.5 -18.5q-42 0 -67 26t-25 69q0 25 8 46t26 37t47 25.5t71 10.5v-44q-44 -4 -63.5 -15t-19.5 -31h44z" />
    <glyph glyph-name="Wgrave" unicode="&#x1e80;" horiz-adv-x="1182" 
d="M985 612q6 18 9.5 31t3.5 23q0 26 -15.5 36t-67.5 12v66h257v-66q-24 -4 -40.5 -10.5t-25.5 -30.5l-254 -678h-81l-166 444l-171 -444h-81l-277 678q-10 23 -26.5 30t-39.5 11v66h371v-66q-52 -2 -67.5 -12t-15.5 -36q0 -10 3.5 -22t11.5 -32l134 -355l113 299l-45 117
q-10 24 -26.5 30.5t-39.5 10.5v66h359v-66q-52 -2 -67.5 -12t-15.5 -36q0 -10 3.5 -22.5t13.5 -40.5l119 -341zM571 1030l84 -208h-85l-201 208h202z" />
    <glyph glyph-name="wgrave" unicode="&#x1e81;" horiz-adv-x="961" 
d="M800 422q5 13 5 27q0 18 -13.5 24.5t-53.5 11.5v61h218v-61q-28 -10 -39 -16.5t-19 -23.5l-199 -450h-57l-153 322l-146 -322h-57l-223 450q-8 17 -19 23.5t-39 16.5v61h320v-61q-33 -3 -46 -10.5t-13 -25.5q0 -6 1 -11.5t6 -15.5l92 -210l84 192l-19 41q-8 17 -20 25.5
t-35 14.5v61h307v-61q-36 -4 -47.5 -11t-11.5 -25q0 -6 1 -11.5t6 -15.5l86 -203zM460 800l84 -208h-85l-201 208h202z" />
    <glyph glyph-name="Wacute" unicode="&#x1e82;" horiz-adv-x="1182" 
d="M985 612q6 18 9.5 31t3.5 23q0 26 -15.5 36t-67.5 12v66h257v-66q-24 -4 -40.5 -10.5t-25.5 -30.5l-254 -678h-81l-166 444l-171 -444h-81l-277 678q-10 23 -26.5 30t-39.5 11v66h371v-66q-52 -2 -67.5 -12t-15.5 -36q0 -10 3.5 -22t11.5 -32l134 -355l113 299l-45 117
q-10 24 -26.5 30.5t-39.5 10.5v66h359v-66q-52 -2 -67.5 -12t-15.5 -36q0 -10 3.5 -22.5t13.5 -40.5l119 -341zM875 1030l-201 -208h-85l94 208h192z" />
    <glyph glyph-name="wacute" unicode="&#x1e83;" horiz-adv-x="961" 
d="M800 422q5 13 5 27q0 18 -13.5 24.5t-53.5 11.5v61h218v-61q-28 -10 -39 -16.5t-19 -23.5l-199 -450h-57l-153 322l-146 -322h-57l-223 450q-8 17 -19 23.5t-39 16.5v61h320v-61q-33 -3 -46 -10.5t-13 -25.5q0 -6 1 -11.5t6 -15.5l92 -210l84 192l-19 41q-8 17 -20 25.5
t-35 14.5v61h307v-61q-36 -4 -47.5 -11t-11.5 -25q0 -6 1 -11.5t6 -15.5l86 -203zM750 800l-201 -208h-85l94 208h192z" />
    <glyph glyph-name="Wdieresis" unicode="&#x1e84;" horiz-adv-x="1182" 
d="M985 612q6 18 9.5 31t3.5 23q0 26 -15.5 36t-67.5 12v66h257v-66q-24 -4 -40.5 -10.5t-25.5 -30.5l-254 -678h-81l-166 444l-171 -444h-81l-277 678q-10 23 -26.5 30t-39.5 11v66h371v-66q-52 -2 -67.5 -12t-15.5 -36q0 -10 3.5 -22t11.5 -32l134 -355l113 299l-45 117
q-10 24 -26.5 30.5t-39.5 10.5v66h359v-66q-52 -2 -67.5 -12t-15.5 -36q0 -10 3.5 -22.5t13.5 -40.5l119 -341zM416 926q0 39 27 66.5t65 27.5q39 0 66.5 -27.5t27.5 -66.5q0 -38 -27.5 -65t-66.5 -27q-19 0 -35.5 7.5t-29 20t-20 29t-7.5 35.5zM644 926q0 39 27 66.5
t65 27.5q39 0 66.5 -27.5t27.5 -66.5q0 -38 -27.5 -65t-66.5 -27q-19 0 -35.5 7.5t-29 20t-20 29t-7.5 35.5z" />
    <glyph glyph-name="wdieresis" unicode="&#x1e85;" horiz-adv-x="961" 
d="M800 422q5 13 5 27q0 18 -13.5 24.5t-53.5 11.5v61h218v-61q-28 -10 -39 -16.5t-19 -23.5l-199 -450h-57l-153 322l-146 -322h-57l-223 450q-8 17 -19 23.5t-39 16.5v61h320v-61q-33 -3 -46 -10.5t-13 -25.5q0 -6 1 -11.5t6 -15.5l92 -210l84 192l-19 41q-8 17 -20 25.5
t-35 14.5v61h307v-61q-36 -4 -47.5 -11t-11.5 -25q0 -6 1 -11.5t6 -15.5l86 -203zM301 702q0 39 27 66.5t65 27.5q39 0 66.5 -27.5t27.5 -66.5q0 -38 -27.5 -65t-66.5 -27q-19 0 -35.5 7.5t-29 20t-20 29t-7.5 35.5zM529 702q0 39 27 66.5t65 27.5q39 0 66.5 -27.5
t27.5 -66.5q0 -38 -27.5 -65t-66.5 -27q-19 0 -35.5 7.5t-29 20t-20 29t-7.5 35.5z" />
    <glyph glyph-name="Eszett" unicode="&#x1e9e;" horiz-adv-x="1017" 
d="M699 -10q-38 0 -74.5 6t-68.5 16t-58.5 22t-44.5 25l-12 190h90q26 -97 69 -141.5t105 -44.5q32 0 53.5 8.5t35.5 22.5t20 31.5t6 35.5q0 50 -29.5 75t-86.5 36l-85 17q-52 11 -91.5 32t-65.5 61v49l162 247q-36 6 -81 6q-63 0 -107.5 -15t-72.5 -42t-40.5 -65t-12.5 -83
v-336q0 -22 4 -36t14 -22.5t28 -12t46 -4.5v-68h-377v68q28 1 46 4.5t28 12t14 22.5t4 36v354q0 141 105.5 217t315.5 76q103 0 177.5 -22.5t116.5 -60.5v-51l-138 -206q5 -2 10.5 -3t11.5 -2l38 -7q43 -7 84.5 -19.5t74.5 -37t53.5 -64.5t20.5 -103q0 -59 -21 -101.5
t-59.5 -69.5t-91.5 -40t-116 -13z" />
    <glyph glyph-name="enspace" unicode="&#x2002;" horiz-adv-x="500" 
 />
    <glyph glyph-name="emspace" unicode="&#x2003;" horiz-adv-x="1000" 
 />
    <glyph glyph-name="threeperemspace" unicode="&#x2004;" horiz-adv-x="333" 
 />
    <glyph glyph-name="fourperemspace" unicode="&#x2005;" horiz-adv-x="250" 
 />
    <glyph glyph-name="sixperemspace" unicode="&#x2006;" horiz-adv-x="167" 
 />
    <glyph glyph-name="figurespace" unicode="&#x2007;" 
 />
    <glyph glyph-name="punctuationspace" unicode="&#x2008;" horiz-adv-x="280" 
 />
    <glyph glyph-name="thinspace" unicode="&#x2009;" horiz-adv-x="200" 
 />
    <glyph glyph-name="hairspace" unicode="&#x200a;" horiz-adv-x="100" 
 />
    <glyph glyph-name="zerowidthspace" unicode="&#x200b;" horiz-adv-x="0" 
 />
    <glyph glyph-name="figuredash" unicode="&#x2012;" 
d="M650 277h-600v96h600v-96z" />
    <glyph glyph-name="endash" unicode="&#x2013;" horiz-adv-x="500" 
d="M50 277v96h400v-96h-400z" />
    <glyph glyph-name="emdash" unicode="&#x2014;" horiz-adv-x="1000" 
d="M950 277h-900v96h900v-96z" />
    <glyph glyph-name="uni2015" unicode="&#x2015;" horiz-adv-x="1400" 
d="M1350 277h-1300v96h1300v-96z" />
    <glyph glyph-name="doublebar" unicode="&#x2016;" horiz-adv-x="460" 
d="M190 -120h-90v950h90v-950zM360 -120h-90v950h90v-950z" />
    <glyph glyph-name="quoteleft" unicode="&#x2018;" horiz-adv-x="400" 
d="M241 676q71 -17 71 -97q0 -42 -26 -70.5t-73 -28.5q-56 0 -87.5 35.5t-31.5 102.5q0 105 58 161.5t179 61.5v-64q-29 -4 -54 -10.5t-44 -18t-30 -29t-13 -43.5h51z" />
    <glyph glyph-name="quoteright" unicode="&#x2019;" horiz-adv-x="400" 
d="M179 646q-71 17 -71 97q0 42 26 70.5t73 28.5q56 0 87.5 -35.5t31.5 -102.5q0 -105 -58 -161.5t-179 -61.5v64q29 5 54.5 11.5t44 17.5t30 28.5t12.5 43.5h-51z" />
    <glyph glyph-name="quotesinglbase" unicode="&#x201a;" horiz-adv-x="400" 
d="M159 -1q-71 17 -71 97q0 42 26 70.5t73 28.5q56 0 87.5 -35.5t31.5 -102.5q0 -105 -58 -161.5t-179 -61.5v64q29 4 54.5 10.5t44 18t30 29t12.5 43.5h-51z" />
    <glyph glyph-name="reversequoteleft" unicode="&#x201b;" horiz-adv-x="400" 
d="M170 646q2 -26 13 -43.5t30 -28.5t44 -17.5t54 -11.5v-64q-121 5 -179 61.5t-58 161.5q0 67 31.5 102.5t87.5 35.5q47 0 73 -28.5t26 -70.5q0 -80 -71 -97h-51z" />
    <glyph glyph-name="quotedblleft" unicode="&#x201c;" horiz-adv-x="667" 
d="M241 676q71 -17 71 -97q0 -42 -26 -70.5t-73 -28.5q-56 0 -87.5 35.5t-31.5 102.5q0 105 58 161.5t179 61.5v-64q-29 -4 -54 -10.5t-44 -18t-30 -29t-13 -43.5h51zM508 676q71 -17 71 -97q0 -42 -26 -70.5t-73 -28.5q-56 0 -87.5 35.5t-31.5 102.5q0 105 58 161.5
t179 61.5v-64q-29 -4 -54 -10.5t-44 -18t-30 -29t-13 -43.5h51z" />
    <glyph glyph-name="quotedblright" unicode="&#x201d;" horiz-adv-x="667" 
d="M446 646q-71 17 -71 97q0 42 26 70.5t73 28.5q56 0 87.5 -35.5t31.5 -102.5q0 -105 -58 -161.5t-179 -61.5v64q29 5 54.5 11.5t44 17.5t30 28.5t12.5 43.5h-51zM179 646q-71 17 -71 97q0 42 26 70.5t73 28.5q56 0 87.5 -35.5t31.5 -102.5q0 -105 -58 -161.5t-179 -61.5
v64q29 5 54.5 11.5t44 17.5t30 28.5t12.5 43.5h-51z" />
    <glyph glyph-name="quotedblbase" unicode="&#x201e;" horiz-adv-x="667" 
d="M426 0q-71 17 -71 97q0 42 26 70.5t73 28.5q56 0 87.5 -35.5t31.5 -102.5q0 -105 -58 -161.5t-179 -61.5v64q29 4 54.5 10.5t44 18t30 29t12.5 43.5h-51zM159 0q-71 17 -71 97q0 42 26 70.5t73 28.5q56 0 87.5 -35.5t31.5 -102.5q0 -105 -58 -161.5t-179 -61.5v64
q29 4 54.5 10.5t44 18t30 29t12.5 43.5h-51z" />
    <glyph glyph-name="reversequotedblleft" unicode="&#x201f;" horiz-adv-x="667" 
d="M170 646q2 -26 13 -43.5t30 -28.5t44 -17.5t54 -11.5v-64q-121 5 -179 61.5t-58 161.5q0 67 31.5 102.5t87.5 35.5q47 0 73 -28.5t26 -70.5q0 -80 -71 -97h-51zM437 646q2 -26 13 -43.5t30 -28.5t44 -17.5t54 -11.5v-64q-121 5 -179 61.5t-58 161.5q0 67 31.5 102.5
t87.5 35.5q47 0 73 -28.5t26 -70.5q0 -80 -71 -97h-51z" />
    <glyph glyph-name="dagger" unicode="&#x2020;" horiz-adv-x="729" 
d="M426 780l10 -38l-43 -248l248 43l38 -10v-123l-38 -10l-248 43l43 -228l-54 -459h-35l-54 459l43 228l-248 -43l-38 10v123l38 10l248 -43l-43 248l10 38h123z" />
    <glyph glyph-name="daggerdbl" unicode="&#x2021;" horiz-adv-x="729" 
d="M336 437l-248 -43l-38 10v123l38 10l248 -43l-43 248l10 38h123l10 -38l-43 -248l248 43l38 -10v-123l-38 -10l-248 43l43 -174l-43 -161l248 43l38 -10v-123l-38 -10l-248 43l43 -248l-10 -38h-123l-10 38l43 248l-248 -43l-38 10v123l38 10l248 -43l-43 161z" />
    <glyph glyph-name="bullet" unicode="&#x2022;" horiz-adv-x="451" 
d="M70 347q0 32 12.5 60.5t33.5 49.5t49 33.5t60 12.5t60.5 -12.5t49.5 -33.5t33.5 -49.5t12.5 -60.5t-12.5 -60t-33.5 -49t-49.5 -33.5t-60.5 -12.5t-60 12.5t-49 33.5t-33.5 49t-12.5 60z" />
    <glyph glyph-name="ellipsis" unicode="&#x2026;" horiz-adv-x="1000" 
d="M70 96q0 23 8.5 42.5t23 34t33.5 23t41 8.5q23 0 42.5 -8.5t34 -23t23 -34t8.5 -42.5q0 -22 -8.5 -41t-23 -33.5t-34 -23t-42.5 -8.5q-22 0 -41 8.5t-33.5 23t-23 33.5t-8.5 41zM394 96q0 23 8.5 42.5t23 34t33.5 23t41 8.5q23 0 42.5 -8.5t34 -23t23 -34t8.5 -42.5
q0 -22 -8.5 -41t-23 -33.5t-34 -23t-42.5 -8.5q-22 0 -41 8.5t-33.5 23t-23 33.5t-8.5 41zM716 96q0 23 8.5 42.5t23 34t33.5 23t41 8.5q23 0 42.5 -8.5t34 -23t23 -34t8.5 -42.5q0 -22 -8.5 -41t-23 -33.5t-34 -23t-42.5 -8.5q-22 0 -41 8.5t-33.5 23t-23 33.5t-8.5 41z
" />
    <glyph glyph-name="perthousand" unicode="&#x2030;" horiz-adv-x="1482" 
d="M50 583q0 52 16.5 90.5t44.5 64.5t65 39t78 13t78 -13t65 -39t44.5 -64.5t16.5 -90.5t-16.5 -90.5t-44.5 -64.5t-65 -39t-78 -13t-78 13t-65 39t-44.5 64.5t-16.5 90.5zM324 583q0 71 -17.5 113t-52.5 42t-52.5 -42t-17.5 -113t17.5 -113t52.5 -42t52.5 42t17.5 113z
M301 0h-89l517 780h89zM980 197q0 -52 -16.5 -90.5t-44.5 -64.5t-65 -39t-78 -13t-78 13t-65 39t-44.5 64.5t-16.5 90.5t16.5 90.5t44.5 64.5t65 39t78 13t78 -13t65 -39t44.5 -64.5t16.5 -90.5zM706 197q0 -71 17.5 -113t52.5 -42t52.5 42t17.5 113t-17.5 113t-52.5 42
t-52.5 -42t-17.5 -113zM1432 197q0 -52 -16.5 -90.5t-44.5 -64.5t-65 -39t-78 -13t-78 13t-65 39t-44.5 64.5t-16.5 90.5t16.5 90.5t44.5 64.5t65 39t78 13t78 -13t65 -39t44.5 -64.5t16.5 -90.5zM1158 197q0 -71 17.5 -113t52.5 -42t52.5 42t17.5 113t-17.5 113t-52.5 42
t-52.5 -42t-17.5 -113z" />
    <glyph glyph-name="minute" unicode="&#x2032;" horiz-adv-x="226" 
d="M196 780l-46 -250h-80v250h126z" />
    <glyph glyph-name="second" unicode="&#x2033;" horiz-adv-x="396" 
d="M196 780l-46 -250h-80v250h126zM366 780l-46 -250h-80v250h126z" />
    <glyph glyph-name="tripleprime" unicode="&#x2034;" horiz-adv-x="732" 
d="M126 480l-46 300h164l-46 -300h-72zM330 480l-46 300h164l-46 -300h-72zM534 480l-46 300h164l-46 -300h-72z" />
    <glyph glyph-name="guilsinglleft" unicode="&#x2039;" horiz-adv-x="331" 
d="M35 279l179 190h82l-115 -195l115 -195h-82l-179 190v10z" />
    <glyph glyph-name="guilsinglright" unicode="&#x203a;" horiz-adv-x="331" 
d="M296 269l-179 -190h-82l115 195l-115 195h82l179 -190v-10z" />
    <glyph glyph-name="interrobang" unicode="&#x203d;" horiz-adv-x="580" 
d="M560 594q0 -73 -41.5 -123t-116.5 -87q-45 -22 -65.5 -43t-20.5 -61v-25h-67q-20 11 -38.5 39t-18.5 66q0 30 12.5 54.5t47.5 48.5l-21 142v46h126v-46l-13 -89q36 22 51 45t15 65q0 47 -30 71t-84 24q-51 0 -80 -25t-29 -74v-58h-116q-24 12 -33 31t-9 41q0 32 20.5 60
t56.5 49t84 33t103 12q128 0 197.5 -50.5t69.5 -145.5zM179 96q0 23 8.5 42.5t23 34t33.5 23t41 8.5q23 0 42.5 -8.5t34 -23t23 -34t8.5 -42.5q0 -22 -8.5 -41t-23 -33.5t-34 -23t-42.5 -8.5q-22 0 -41 8.5t-33.5 23t-23 33.5t-8.5 41z" />
    <glyph glyph-name="fraction" unicode="&#x2044;" horiz-adv-x="283" 
d="M359 780h82l-517 -780h-82z" />
    <glyph glyph-name="uni2070" unicode="&#x2070;" horiz-adv-x="498" 
d="M185 538q0 -102 13 -148t51 -46t51 46t13 148t-13 148t-51 46t-51 -46t-13 -148zM473 538q0 -61 -17 -107.5t-47 -78t-71 -47t-89 -15.5t-89 15.5t-71 47t-47 78t-17 107.5q0 62 17 108t47 77.5t71 47t89 15.5t89 -15.5t71 -47t47 -77.5t17 -108z" />
    <glyph glyph-name="uni2074" unicode="&#x2074;" horiz-adv-x="490" 
d="M237 469v206l-152 -206h152zM237 296v116h-227v47l238 321h131v-311h93v-57h-93v-116h-142z" />
    <glyph glyph-name="uni2075" unicode="&#x2075;" horiz-adv-x="425" 
d="M213 338q29 0 42.5 16.5t13.5 39.5t-10.5 41.5t-36 32.5t-68 21.5t-106.5 7.5l50 283h162q33 0 47.5 4.5t28.5 21.5h36l-23 -146h-230l-8 -47q62 0 113.5 -9t88.5 -28.5t58 -51.5t21 -77q0 -39 -15 -68.5t-41 -49t-61.5 -29.5t-77.5 -10q-88 0 -133.5 29t-45.5 74
q0 20 10.5 34t23.5 20h92v-18q0 -48 17 -69.5t52 -21.5z" />
    <glyph glyph-name="uni2076" unicode="&#x2076;" horiz-adv-x="469" 
d="M367 762q-78 -27 -124 -74.5t-64 -109.5q20 16 46 27t65 11q69 0 114 -39t45 -112q0 -47 -19 -80t-49 -54t-66 -31t-71 -10q-99 0 -159 51t-60 155q0 51 20.5 99.5t60 88.5t97 68t131.5 39zM213 546q-23 0 -38 -6q-4 -20 -4 -46q0 -30 4 -57.5t13 -48.5t24.5 -33
t37.5 -12q30 0 47.5 23.5t17.5 68.5q0 48 -25.5 79.5t-76.5 31.5z" />
    <glyph glyph-name="uni2077" unicode="&#x2077;" horiz-adv-x="445" 
d="M129 651q-24 0 -39.5 -15.5t-27.5 -50.5h-49l34 195h388v-35l-212 -449h-106l202 355h-190z" />
    <glyph glyph-name="uni2078" unicode="&#x2078;" horiz-adv-x="469" 
d="M418 676q0 -42 -27 -65t-74 -31l14 -3q55 -17 81.5 -49.5t26.5 -83.5q0 -37 -15.5 -66t-42.5 -48.5t-64 -29.5t-81 -10q-96 0 -151 29.5t-55 87.5q0 42 29.5 67.5t74.5 33.5l-12 4q-35 14 -54.5 43.5t-19.5 73.5q0 77 52 117t135 40q85 0 134 -29t49 -81zM163 493
q-8 -11 -12.5 -28t-4.5 -37q0 -42 24.5 -63.5t65.5 -21.5q37 0 58 13t21 39q0 22 -14.5 37t-54.5 30zM279 595q11 12 20 31t9 42q0 30 -17.5 47.5t-55.5 17.5q-33 0 -50.5 -15t-17.5 -40q0 -22 12.5 -36t38.5 -24z" />
    <glyph glyph-name="uni2079" unicode="&#x2079;" horiz-adv-x="469" 
d="M102 314q78 27 124 74.5t64 109.5q-20 -16 -46 -27t-65 -11q-69 0 -114 39t-45 112q0 47 19 80t49 54t66.5 31t70.5 10q99 0 159 -51t60 -155q0 -51 -20.5 -99.5t-60 -88.5t-97 -68t-131.5 -39zM256 530q23 0 38 6q4 20 4 46q0 30 -4 57.5t-13 48.5t-24 33t-38 12
q-30 0 -47.5 -23.5t-17.5 -68.5q0 -48 25.5 -79.5t76.5 -31.5z" />
    <glyph glyph-name="uni207A" unicode="&#x207a;" horiz-adv-x="438" 
d="M184 487h-134v69h134v134h70v-134h134v-69h-134v-136h-70v136z" />
    <glyph glyph-name="uni207B" unicode="&#x207b;" horiz-adv-x="438" 
d="M50 487v69h338v-69h-338z" />
    <glyph glyph-name="uni207C" unicode="&#x207c;" horiz-adv-x="438" 
d="M50 428v69h338v-69h-338zM50 546v68h338v-68h-338z" />
    <glyph glyph-name="uni207D" unicode="&#x207d;" horiz-adv-x="262" 
d="M40 528q0 94 37.5 166t107.5 133l57 -39q-26 -26 -48.5 -52.5t-39.5 -57t-27 -67t-10 -83.5q0 -46 10 -83t27 -67.5t39.5 -57t48.5 -52.5l-57 -39q-70 61 -107.5 133t-37.5 166z" />
    <glyph glyph-name="uni207E" unicode="&#x207e;" horiz-adv-x="262" 
d="M222 528q0 -94 -37.5 -166t-107.5 -133l-57 39q26 26 48.5 52.5t39.5 57t27 67.5t10 83q0 47 -10 83.5t-27 67t-39.5 57t-48.5 52.5l57 39q70 -61 107.5 -133t37.5 -166z" />
    <glyph glyph-name="n.superior" unicode="&#x207f;" horiz-adv-x="517" 
d="M315 613q0 21 -7.5 32.5t-31.5 11.5q-20 0 -36 -3.5t-29 -8.5v-204q0 -26 8 -31.5t33 -8.5v-49h-227v49q23 3 32 8.5t9 31.5v201l-39 41v27l159 39h28l-3 -72q23 25 56 46.5t78 21.5q53 0 84.5 -28t31.5 -87v-189q0 -26 8 -31.5t33 -8.5v-49h-228v49q24 3 32.5 8.5
t8.5 31.5v172z" />
    <glyph glyph-name="uni2080" unicode="&#x2080;" horiz-adv-x="498" 
d="M185 242q0 -102 13 -148t51 -46t51 46t13 148t-13 148t-51 46t-51 -46t-13 -148zM473 242q0 -61 -17 -107.5t-47 -78t-71 -47t-89 -15.5t-89 15.5t-71 47t-47 78t-17 107.5q0 62 17 108t47 77.5t71 47t89 15.5t89 -15.5t71 -47t47 -77.5t17 -108z" />
    <glyph glyph-name="uni2081" unicode="&#x2081;" horiz-adv-x="402" 
d="M290 490v-393q0 -32 25.5 -39t76.5 -10v-48h-352v48q29 2 48.5 3.5t30.5 6.5t15.5 14t4.5 25v246h-99v46l47 8q32 6 55 14t40 19.5t31 26t29 33.5h48z" />
    <glyph glyph-name="uni2082" unicode="&#x2082;" horiz-adv-x="446" 
d="M273 111q16 0 27.5 2t21 9t20 21t24.5 38h41l-14 -181h-388v44l134 120q49 44 66 77.5t18 70.5q0 35 -21 54.5t-56 19.5q-33 0 -54 -13t-39 -28l-31 30q30 50 76.5 82.5t123.5 32.5q74 0 117.5 -33.5t43.5 -98.5q0 -36 -16.5 -66t-45.5 -59t-68 -58t-84 -64h104z" />
    <glyph glyph-name="uni2083" unicode="&#x2083;" horiz-adv-x="427" 
d="M255 268q65 -4 101.5 -36t36.5 -89q0 -37 -16.5 -65t-44.5 -47t-65 -28t-79 -9q-90 0 -134 30.5t-44 75.5q0 20 10.5 32.5t23.5 18.5h91v-24q0 -43 16 -65t42 -22q58 0 58 78q0 44 -24 72t-73 28h-11l-13 30q30 13 49 24.5t29.5 22.5t14 21.5t3.5 21.5q0 23 -16 37.5
t-45 14.5q-37 0 -57 -14.5t-37 -33.5l-35 25q23 51 71.5 87t121.5 36q64 0 104.5 -26.5t40.5 -83.5q0 -22 -9.5 -41t-26 -33.5t-38 -24.5t-45.5 -13z" />
    <glyph glyph-name="uni2084" unicode="&#x2084;" horiz-adv-x="490" 
d="M237 173v206l-152 -206h152zM237 0v116h-227v47l238 321h131v-311h93v-57h-93v-116h-142z" />
    <glyph glyph-name="uni2085" unicode="&#x2085;" horiz-adv-x="425" 
d="M213 42q29 0 42.5 16.5t13.5 39.5t-10.5 41.5t-36 32.5t-68 21.5t-106.5 7.5l50 283h162q33 0 47.5 4.5t28.5 21.5h36l-23 -146h-230l-8 -47q62 0 113.5 -9t88.5 -28.5t58 -51.5t21 -77q0 -39 -15 -68.5t-41 -49t-61.5 -29.5t-77.5 -10q-88 0 -133.5 29t-45.5 74
q0 20 10.5 34t23.5 20h92v-18q0 -48 17 -69.5t52 -21.5z" />
    <glyph glyph-name="uni2086" unicode="&#x2086;" horiz-adv-x="469" 
d="M367 466q-78 -27 -124 -74.5t-64 -109.5q20 16 46 27t65 11q69 0 114 -39t45 -112q0 -47 -19 -80t-49 -54t-66 -31t-71 -10q-99 0 -159 51t-60 155q0 51 20.5 99.5t60 88.5t97 68t131.5 39zM213 250q-23 0 -38 -6q-4 -20 -4 -46q0 -30 4 -57.5t13 -48.5t24.5 -33
t37.5 -12q30 0 47.5 23.5t17.5 68.5q0 48 -25.5 79.5t-76.5 31.5z" />
    <glyph glyph-name="uni2087" unicode="&#x2087;" horiz-adv-x="445" 
d="M129 355q-24 0 -39.5 -15.5t-27.5 -50.5h-49l34 195h388v-35l-212 -449h-106l202 355h-190z" />
    <glyph glyph-name="uni2088" unicode="&#x2088;" horiz-adv-x="469" 
d="M418 380q0 -42 -27 -65t-74 -31l14 -3q55 -17 81.5 -49.5t26.5 -83.5q0 -37 -15.5 -66t-42.5 -48.5t-64 -29.5t-81 -10q-96 0 -151 29.5t-55 87.5q0 42 29.5 67.5t74.5 33.5l-12 4q-35 14 -54.5 43.5t-19.5 73.5q0 77 52 117t135 40q85 0 134 -29t49 -81zM163 197
q-8 -11 -12.5 -28t-4.5 -37q0 -42 24.5 -63.5t65.5 -21.5q37 0 58 13t21 39q0 22 -14.5 37t-54.5 30zM279 299q11 12 20 31t9 42q0 30 -17.5 47.5t-55.5 17.5q-33 0 -50.5 -15t-17.5 -40q0 -22 12.5 -36t38.5 -24z" />
    <glyph glyph-name="uni2089" unicode="&#x2089;" horiz-adv-x="469" 
d="M102 18q78 27 124 74.5t64 109.5q-20 -16 -46 -27t-65 -11q-69 0 -114 39t-45 112q0 47 19 80t49 54t66.5 31t70.5 10q99 0 159 -51t60 -155q0 -51 -20.5 -99.5t-60 -88.5t-97 -68t-131.5 -39zM256 234q23 0 38 6q4 20 4 46q0 30 -4 57.5t-13 48.5t-24 33t-38 12
q-30 0 -47.5 -23.5t-17.5 -68.5q0 -48 25.5 -79.5t76.5 -31.5z" />
    <glyph glyph-name="uni208A" unicode="&#x208a;" horiz-adv-x="438" 
d="M184 191h-134v69h134v134h70v-134h134v-69h-134v-136h-70v136z" />
    <glyph glyph-name="uni208B" unicode="&#x208b;" horiz-adv-x="438" 
d="M50 191v69h338v-69h-338z" />
    <glyph glyph-name="uni208C" unicode="&#x208c;" horiz-adv-x="438" 
d="M50 132v69h338v-69h-338zM50 250v68h338v-68h-338z" />
    <glyph glyph-name="uni208D" unicode="&#x208d;" horiz-adv-x="262" 
d="M40 232q0 94 37.5 166t107.5 133l57 -39q-26 -26 -48.5 -52.5t-39.5 -57t-27 -67t-10 -83.5q0 -46 10 -83t27 -67.5t39.5 -57t48.5 -52.5l-57 -39q-70 61 -107.5 133t-37.5 166z" />
    <glyph glyph-name="uni208E" unicode="&#x208e;" horiz-adv-x="262" 
d="M222 232q0 -94 -37.5 -166t-107.5 -133l-57 39q26 26 48.5 52.5t39.5 57t27 67.5t10 83q0 47 -10 83.5t-27 67t-39.5 57t-48.5 52.5l57 39q70 -61 107.5 -133t37.5 -166z" />
    <glyph glyph-name="Euro" unicode="&#x20ac;" horiz-adv-x="782" 
d="M30 478h103q14 73 46 130.5t78.5 98t105.5 62t126 21.5q75 0 131.5 -19t95.5 -54l3 -178h-88q-20 86 -54.5 130t-104.5 44q-36 0 -61 -18.5t-42 -51t-26.5 -75t-13.5 -90.5h239l-10 -61h-231v-8v-33t2 -32h219l-10 -61h-204q6 -43 17.5 -81.5t29.5 -67t44.5 -45.5
t62.5 -17q60 0 103.5 43.5t69.5 143.5h86l-15 -208q-46 -30 -114 -45.5t-139 -15.5q-72 0 -131 21.5t-103 60.5t-72.5 93t-40.5 118h-102v61h95q-1 8 -1 15.5v15.5v21t1 21h-95v61z" />
    <glyph glyph-name="afii61289" unicode="&#x2113;" horiz-adv-x="359" 
d="M28 259q9 6 18.5 13.5t23.5 18.5v217q0 134 34 203t111 69q33 0 55 -12.5t36 -34.5t20 -50.5t6 -61.5q0 -55 -15.5 -108t-40 -99.5t-54 -85.5t-56.5 -66v-108q0 -43 13 -58.5t48 -16.5q23 0 39.5 4.5t25.5 9.5l13 -92q-11 -5 -34.5 -8.5t-43.5 -3.5q-71 0 -114 29t-43 93
v78q-17 -13 -24 -18t-18 -12v100zM166 391q16 20 30.5 47t26 58.5t18.5 66.5t7 71q0 26 -6.5 43t-25.5 17q-23 0 -36.5 -37t-13.5 -123v-143z" />
    <glyph glyph-name="numero" unicode="&#x2116;" horiz-adv-x="1564" 
d="M266 649q-25 31 -42.5 47t-49.5 18v66h279l283 -426v276q0 43 8.5 77.5t29 59t54 38t83.5 13.5q74 0 106.5 -29t32.5 -71q0 -26 -12 -47t-33 -33h-84v43q0 31 -9 46.5t-33 15.5q-29 0 -37 -27.5t-8 -78.5v-637h-82l-388 556v-378q0 -43 -8.5 -77.5t-29 -59t-54 -38
t-83.5 -13.5q-74 0 -106.5 29t-32.5 71q0 26 12 47t33 33h84v-43q0 -31 9 -46.5t33 -15.5q29 0 37 27.5t8 78.5v478zM1022 84h404v-84h-404v84zM1232 235q43 0 57.5 39.5t14.5 107.5q0 94 -22.5 144.5t-70.5 50.5q-43 0 -57.5 -40t-14.5 -107q0 -94 22.5 -144.5t70.5 -50.5z
M1213 175q-53 0 -96 17t-74 47t-47.5 70.5t-16.5 88.5q0 55 19 99.5t52.5 75.5t79.5 47.5t100 16.5q53 0 96 -17t74 -47t47.5 -70.5t16.5 -88.5q0 -55 -19 -99.5t-52.5 -75.5t-79.5 -47.5t-100 -16.5z" />
    <glyph glyph-name="published" unicode="&#x2117;" horiz-adv-x="890" 
d="M45 390q0 83 31.5 156t85.5 127t127 85.5t156 31.5t156 -31.5t127 -85.5t85.5 -127t31.5 -156t-31.5 -156t-85.5 -127t-127 -85.5t-156 -31.5t-156 31.5t-127 85.5t-85.5 127t-31.5 156zM75 390q0 -76 29 -143.5t79.5 -118t118 -79.5t143.5 -29q77 0 144 29t117.5 79.5
t79.5 118t29 143.5q0 77 -29 144t-79.5 117.5t-117.5 79.5t-144 29q-76 0 -143.5 -29t-118 -79.5t-79.5 -117.5t-29 -144zM418 339v-90q0 -27 14 -35.5t57 -10.5v-44h-248v44q34 2 42.5 10.5t8.5 35.5v291q0 27 -8.5 35t-42.5 10v44h259q49 0 84 -12t57.5 -32t33.5 -45.5
t11 -52.5q0 -67 -45 -107.5t-140 -40.5h-83zM418 388h43q51 0 74 24.5t23 74.5q0 41 -23.5 67t-73.5 26h-43v-192z" />
    <glyph glyph-name="servicemark" unicode="&#x2120;" horiz-adv-x="970" 
d="M222 435q-42 0 -74 9.5t-54 23.5l-3 78h46q15 -71 88 -71q26 0 42 10.5t16 31.5q0 19 -11 29t-38 15l-46 9q-42 8 -68.5 33t-26.5 72q0 54 35.5 81t96.5 27q33 0 62 -6.5t50 -19.5v-69h-44q-16 55 -74 55q-21 0 -34 -10t-13 -26q0 -33 41 -41l46 -9q47 -9 75 -32t28 -74
q0 -57 -39 -86.5t-101 -29.5zM736 682l-92 -243h-46l-95 243l-21 -143q-2 -13 -3 -23t-1 -13q0 -18 10.5 -23.5t36.5 -7.5v-33h-136v33q21 2 30 7.5t12 22.5l31 208q0 19 -8.5 26.5t-32.5 8.5v35h150q1 -8 2.5 -17t5.5 -19l70 -175l64 175q4 10 5.5 19t2.5 17h148v-35
q-25 -1 -33.5 -8.5t-8.5 -26.5l31 -208q2 -17 11.5 -22.5t30.5 -7.5v-33h-184v33q26 2 36.5 7.5t10.5 23.5q0 3 -1 13t-3 23z" />
    <glyph glyph-name="trademark" unicode="&#x2122;" horiz-adv-x="1005" 
d="M399 780l7 -115h-35q-18 40 -31.5 59t-44.5 19h-20v-237q0 -20 9.5 -26t34.5 -8v-33h-181v33q24 2 33.5 8t9.5 26v237h-19q-31 0 -45 -19t-32 -59h-35l7 115h342zM748 744q4 10 5.5 19t2.5 17h148v-35q-25 -1 -33.5 -8.5t-8.5 -26.5l31 -208q2 -17 11.5 -22.5t30.5 -7.5
v-33h-184v33q26 2 36.5 7.5t10.5 23.5q0 3 -1 13t-3 23l-23 143l-92 -243h-46l-95 243l-21 -143q-2 -13 -3 -23t-1 -13q0 -18 10.5 -23.5t36.5 -7.5v-33h-136v33q21 2 30 7.5t12 22.5l31 208q0 19 -8.5 26.5t-32.5 8.5v35h150q1 -8 2.5 -17t5.5 -19l70 -175z" />
    <glyph glyph-name="estimated" unicode="&#x212e;" horiz-adv-x="795" 
d="M152 349q3 -59 16 -110.5t41.5 -90t74.5 -61t114 -22.5q123 0 193.5 48.5t89.5 149.5h92q-10 -72 -41.5 -123.5t-80 -85.5t-112.5 -50t-141 -16q-86 0 -158 28t-123.5 80.5t-80 126.5t-28.5 165q0 92 28.5 165.5t80 125.5t123.5 80t158 28t158 -28t123.5 -80t80 -125.5
t28.5 -165.5v-39h-636zM398 711q-68 0 -114 -22.5t-74.5 -61t-41.5 -90.5t-16 -111h491q-3 59 -16 111t-41.5 90.5t-74 61t-113.5 22.5z" />
    <glyph glyph-name="uni2153" unicode="&#x2153;" horiz-adv-x="1052" 
d="M290 786v-393q0 -32 25.5 -39t76.5 -10v-48h-352v48q29 2 48.5 3.5t30.5 6.5t15.5 14t4.5 25v246h-99v46l47 8q32 6 55 14t40 19.5t31 26t29 33.5h48zM761 780h82l-517 -780h-82zM880 268q65 -4 101.5 -36t36.5 -89q0 -37 -16.5 -65t-44.5 -47t-65 -28t-79 -9
q-90 0 -134 30.5t-44 75.5q0 20 10.5 32.5t23.5 18.5h91v-24q0 -43 16 -65t42 -22q58 0 58 78q0 44 -24 72t-73 28h-11l-13 30q30 13 49 24.5t29.5 22.5t14 21.5t3.5 21.5q0 23 -16 37.5t-45 14.5q-37 0 -57 -14.5t-37 -33.5l-35 25q23 51 71.5 87t121.5 36
q64 0 104.5 -26.5t40.5 -83.5q0 -22 -9.5 -41t-26 -33.5t-38 -24.5t-45.5 -13z" />
    <glyph glyph-name="uni2154" unicode="&#x2154;" horiz-adv-x="1076" 
d="M273 407q16 0 27.5 2t21 9t20 21t24.5 38h41l-14 -181h-388v44l134 120q49 44 66 77.5t18 70.5q0 35 -21 54.5t-56 19.5q-33 0 -54 -13t-39 -28l-31 30q30 50 76.5 82.5t123.5 32.5q74 0 117.5 -33.5t43.5 -98.5q0 -36 -16.5 -66t-45.5 -59t-68 -58t-84 -64h104zM785 780
h82l-517 -780h-82zM904 268q65 -4 101.5 -36t36.5 -89q0 -37 -16.5 -65t-44.5 -47t-65 -28t-79 -9q-90 0 -134 30.5t-44 75.5q0 20 10.5 32.5t23.5 18.5h91v-24q0 -43 16 -65t42 -22q58 0 58 78q0 44 -24 72t-73 28h-11l-13 30q30 13 49 24.5t29.5 22.5t14 21.5t3.5 21.5
q0 23 -16 37.5t-45 14.5q-37 0 -57 -14.5t-37 -33.5l-35 25q23 51 71.5 87t121.5 36q64 0 104.5 -26.5t40.5 -83.5q0 -22 -9.5 -41t-26 -33.5t-38 -24.5t-45.5 -13z" />
    <glyph glyph-name="uni2155" unicode="&#x2155;" horiz-adv-x="1040" 
d="M290 786v-393q0 -32 25.5 -39t76.5 -10v-48h-352v48q29 2 48.5 3.5t30.5 6.5t15.5 14t4.5 25v246h-99v46l47 8q32 6 55 14t40 19.5t31 26t29 33.5h48zM761 780h82l-517 -780h-82zM828 42q29 0 42.5 16.5t13.5 39.5t-10.5 41.5t-36 32.5t-68 21.5t-106.5 7.5l50 283h162
q33 0 47.5 4.5t28.5 21.5h36l-23 -146h-230l-8 -47q62 0 113.5 -9t88.5 -28.5t58 -51.5t21 -77q0 -39 -15 -68.5t-41 -49t-61.5 -29.5t-77.5 -10q-88 0 -133.5 29t-45.5 74q0 20 10.5 34t23.5 20h92v-18q0 -48 17 -69.5t52 -21.5z" />
    <glyph glyph-name="uni2156" unicode="&#x2156;" horiz-adv-x="1064" 
d="M273 407q16 0 27.5 2t21 9t20 21t24.5 38h41l-14 -181h-388v44l134 120q49 44 66 77.5t18 70.5q0 35 -21 54.5t-56 19.5q-33 0 -54 -13t-39 -28l-31 30q30 50 76.5 82.5t123.5 32.5q74 0 117.5 -33.5t43.5 -98.5q0 -36 -16.5 -66t-45.5 -59t-68 -58t-84 -64h104zM785 780
h82l-517 -780h-82zM852 42q29 0 42.5 16.5t13.5 39.5t-10.5 41.5t-36 32.5t-68 21.5t-106.5 7.5l50 283h162q33 0 47.5 4.5t28.5 21.5h36l-23 -146h-230l-8 -47q62 0 113.5 -9t88.5 -28.5t58 -51.5t21 -77q0 -39 -15 -68.5t-41 -49t-61.5 -29.5t-77.5 -10q-88 0 -133.5 29
t-45.5 74q0 20 10.5 34t23.5 20h92v-18q0 -48 17 -69.5t52 -21.5z" />
    <glyph glyph-name="uni2157" unicode="&#x2157;" horiz-adv-x="995" 
d="M255 564q65 -4 101.5 -36t36.5 -89q0 -37 -16.5 -65t-44.5 -47t-65 -28t-79 -9q-90 0 -134 30.5t-44 75.5q0 20 10.5 32.5t23.5 18.5h91v-24q0 -43 16 -65t42 -22q58 0 58 78q0 44 -24 72t-73 28h-11l-13 30q30 13 49 24.5t29.5 22.5t14 21.5t3.5 21.5q0 23 -16 37.5
t-45 14.5q-37 0 -57 -14.5t-37 -33.5l-35 25q23 51 71.5 87t121.5 36q64 0 104.5 -26.5t40.5 -83.5q0 -22 -9.5 -41t-26 -33.5t-38 -24.5t-45.5 -13zM716 780h82l-517 -780h-82zM783 42q29 0 42.5 16.5t13.5 39.5t-10.5 41.5t-36 32.5t-68 21.5t-106.5 7.5l50 283h162
q33 0 47.5 4.5t28.5 21.5h36l-23 -146h-230l-8 -47q62 0 113.5 -9t88.5 -28.5t58 -51.5t21 -77q0 -39 -15 -68.5t-41 -49t-61.5 -29.5t-77.5 -10q-88 0 -133.5 29t-45.5 74q0 20 10.5 34t23.5 20h92v-18q0 -48 17 -69.5t52 -21.5z" />
    <glyph glyph-name="uni2158" unicode="&#x2158;" horiz-adv-x="1078" 
d="M237 469v206l-152 -206h152zM237 296v116h-227v47l238 321h131v-311h93v-57h-93v-116h-142zM799 780h82l-517 -780h-82zM866 42q29 0 42.5 16.5t13.5 39.5t-10.5 41.5t-36 32.5t-68 21.5t-106.5 7.5l50 283h162q33 0 47.5 4.5t28.5 21.5h36l-23 -146h-230l-8 -47
q62 0 113.5 -9t88.5 -28.5t58 -51.5t21 -77q0 -39 -15 -68.5t-41 -49t-61.5 -29.5t-77.5 -10q-88 0 -133.5 29t-45.5 74q0 20 10.5 34t23.5 20h92v-18q0 -48 17 -69.5t52 -21.5z" />
    <glyph glyph-name="uni2159" unicode="&#x2159;" horiz-adv-x="1054" 
d="M290 786v-393q0 -32 25.5 -39t76.5 -10v-48h-352v48q29 2 48.5 3.5t30.5 6.5t15.5 14t4.5 25v246h-99v46l47 8q32 6 55 14t40 19.5t31 26t29 33.5h48zM761 780h82l-517 -780h-82zM952 466q-78 -27 -124 -74.5t-64 -109.5q20 16 46 27t65 11q69 0 114 -39t45 -112
q0 -47 -19 -80t-49 -54t-66 -31t-71 -10q-99 0 -159 51t-60 155q0 51 20.5 99.5t60 88.5t97 68t131.5 39zM798 250q-23 0 -38 -6q-4 -20 -4 -46q0 -30 4 -57.5t13 -48.5t24.5 -33t37.5 -12q30 0 47.5 23.5t17.5 68.5q0 48 -25.5 79.5t-76.5 31.5z" />
    <glyph glyph-name="uni215A" unicode="&#x215a;" horiz-adv-x="1027" 
d="M213 338q29 0 42.5 16.5t13.5 39.5t-10.5 41.5t-36 32.5t-68 21.5t-106.5 7.5l50 283h162q33 0 47.5 4.5t28.5 21.5h36l-23 -146h-230l-8 -47q62 0 113.5 -9t88.5 -28.5t58 -51.5t21 -77q0 -39 -15 -68.5t-41 -49t-61.5 -29.5t-77.5 -10q-88 0 -133.5 29t-45.5 74
q0 20 10.5 34t23.5 20h92v-18q0 -48 17 -69.5t52 -21.5zM734 780h82l-517 -780h-82zM925 466q-78 -27 -124 -74.5t-64 -109.5q20 16 46 27t65 11q69 0 114 -39t45 -112q0 -47 -19 -80t-49 -54t-66 -31t-71 -10q-99 0 -159 51t-60 155q0 51 20.5 99.5t60 88.5t97 68t131.5 39
zM771 250q-23 0 -38 -6q-4 -20 -4 -46q0 -30 4 -57.5t13 -48.5t24.5 -33t37.5 -12q30 0 47.5 23.5t17.5 68.5q0 48 -25.5 79.5t-76.5 31.5z" />
    <glyph glyph-name="uni215B" unicode="&#x215b;" horiz-adv-x="1084" 
d="M290 786v-393q0 -32 25.5 -39t76.5 -10v-48h-352v48q29 2 48.5 3.5t30.5 6.5t15.5 14t4.5 25v246h-99v46l47 8q32 6 55 14t40 19.5t31 26t29 33.5h48zM761 780h82l-517 -780h-82zM1033 380q0 -42 -27 -65t-74 -31l14 -3q55 -17 81.5 -49.5t26.5 -83.5q0 -37 -15.5 -66
t-42.5 -48.5t-64 -29.5t-81 -10q-96 0 -151 29.5t-55 87.5q0 42 29.5 67.5t74.5 33.5l-12 4q-35 14 -54.5 43.5t-19.5 73.5q0 77 52 117t135 40q85 0 134 -29t49 -81zM778 197q-8 -11 -12.5 -28t-4.5 -37q0 -42 24.5 -63.5t65.5 -21.5q37 0 58 13t21 39q0 22 -14.5 37
t-54.5 30zM894 299q11 12 20 31t9 42q0 30 -17.5 47.5t-55.5 17.5q-33 0 -50.5 -15t-17.5 -40q0 -22 12.5 -36t38.5 -24z" />
    <glyph glyph-name="uni215C" unicode="&#x215c;" horiz-adv-x="1039" 
d="M255 564q65 -4 101.5 -36t36.5 -89q0 -37 -16.5 -65t-44.5 -47t-65 -28t-79 -9q-90 0 -134 30.5t-44 75.5q0 20 10.5 32.5t23.5 18.5h91v-24q0 -43 16 -65t42 -22q58 0 58 78q0 44 -24 72t-73 28h-11l-13 30q30 13 49 24.5t29.5 22.5t14 21.5t3.5 21.5q0 23 -16 37.5
t-45 14.5q-37 0 -57 -14.5t-37 -33.5l-35 25q23 51 71.5 87t121.5 36q64 0 104.5 -26.5t40.5 -83.5q0 -22 -9.5 -41t-26 -33.5t-38 -24.5t-45.5 -13zM716 780h82l-517 -780h-82zM988 380q0 -42 -27 -65t-74 -31l14 -3q55 -17 81.5 -49.5t26.5 -83.5q0 -37 -15.5 -66
t-42.5 -48.5t-64 -29.5t-81 -10q-96 0 -151 29.5t-55 87.5q0 42 29.5 67.5t74.5 33.5l-12 4q-35 14 -54.5 43.5t-19.5 73.5q0 77 52 117t135 40q85 0 134 -29t49 -81zM733 197q-8 -11 -12.5 -28t-4.5 -37q0 -42 24.5 -63.5t65.5 -21.5q37 0 58 13t21 39q0 22 -14.5 37
t-54.5 30zM849 299q11 12 20 31t9 42q0 30 -17.5 47.5t-55.5 17.5q-33 0 -50.5 -15t-17.5 -40q0 -22 12.5 -36t38.5 -24z" />
    <glyph glyph-name="uni215D" unicode="&#x215d;" horiz-adv-x="1057" 
d="M213 338q29 0 42.5 16.5t13.5 39.5t-10.5 41.5t-36 32.5t-68 21.5t-106.5 7.5l50 283h162q33 0 47.5 4.5t28.5 21.5h36l-23 -146h-230l-8 -47q62 0 113.5 -9t88.5 -28.5t58 -51.5t21 -77q0 -39 -15 -68.5t-41 -49t-61.5 -29.5t-77.5 -10q-88 0 -133.5 29t-45.5 74
q0 20 10.5 34t23.5 20h92v-18q0 -48 17 -69.5t52 -21.5zM734 780h82l-517 -780h-82zM1006 380q0 -42 -27 -65t-74 -31l14 -3q55 -17 81.5 -49.5t26.5 -83.5q0 -37 -15.5 -66t-42.5 -48.5t-64 -29.5t-81 -10q-96 0 -151 29.5t-55 87.5q0 42 29.5 67.5t74.5 33.5l-12 4
q-35 14 -54.5 43.5t-19.5 73.5q0 77 52 117t135 40q85 0 134 -29t49 -81zM751 197q-8 -11 -12.5 -28t-4.5 -37q0 -42 24.5 -63.5t65.5 -21.5q37 0 58 13t21 39q0 22 -14.5 37t-54.5 30zM867 299q11 12 20 31t9 42q0 30 -17.5 47.5t-55.5 17.5q-33 0 -50.5 -15t-17.5 -40
q0 -22 12.5 -36t38.5 -24z" />
    <glyph glyph-name="uni215E" unicode="&#x215e;" horiz-adv-x="984" 
d="M129 651q-24 0 -39.5 -15.5t-27.5 -50.5h-49l34 195h388v-35l-212 -449h-106l202 355h-190zM661 780h82l-517 -780h-82zM933 380q0 -42 -27 -65t-74 -31l14 -3q55 -17 81.5 -49.5t26.5 -83.5q0 -37 -15.5 -66t-42.5 -48.5t-64 -29.5t-81 -10q-96 0 -151 29.5t-55 87.5
q0 42 29.5 67.5t74.5 33.5l-12 4q-35 14 -54.5 43.5t-19.5 73.5q0 77 52 117t135 40q85 0 134 -29t49 -81zM678 197q-8 -11 -12.5 -28t-4.5 -37q0 -42 24.5 -63.5t65.5 -21.5q37 0 58 13t21 39q0 22 -14.5 37t-54.5 30zM794 299q11 12 20 31t9 42q0 30 -17.5 47.5
t-55.5 17.5q-33 0 -50.5 -15t-17.5 -40q0 -22 12.5 -36t38.5 -24z" />
    <glyph glyph-name="uni215F" unicode="&#x215f;" horiz-adv-x="685" 
d="M290 786v-393q0 -32 25.5 -39t76.5 -10v-48h-352v48q29 2 48.5 3.5t30.5 6.5t15.5 14t4.5 25v246h-99v46l47 8q32 6 55 14t40 19.5t31 26t29 33.5h48zM761 780h82l-517 -780h-82z" />
    <glyph glyph-name="arrowleft" unicode="&#x2190;" horiz-adv-x="860" 
d="M41 384v12l411 283v-52l-188 -216h567v-42h-567l188 -216v-52z" />
    <glyph glyph-name="arrowup" unicode="&#x2191;" horiz-adv-x="860" 
d="M424 790h12l283 -411h-52l-216 188v-567h-42v567l-216 -188h-52z" />
    <glyph glyph-name="arrowright" unicode="&#x2192;" horiz-adv-x="860" 
d="M420 101v52l188 216h-567v42h567l-188 216v52l411 -283v-12z" />
    <glyph glyph-name="arrowdown" unicode="&#x2193;" horiz-adv-x="860" 
d="M141 401h52l216 -188v567h42v-567l216 188h52l-283 -411h-12z" />
    <glyph glyph-name="uni2196" unicode="&#x2196;" horiz-adv-x="860" 
d="M28 782l9 8l490 -90l-37 -37l-285 -20l401 -401l-30 -30l-401 401l-20 -285l-36 -37z" />
    <glyph glyph-name="uni2197" unicode="&#x2197;" horiz-adv-x="860" 
d="M823 790l9 -9l-91 -491l-37 37l-19 286l-401 -401l-30 29l401 401l-286 20l-37 37z" />
    <glyph glyph-name="uni2198" unicode="&#x2198;" horiz-adv-x="860" 
d="M832 -2l-9 -8l-491 90l37 37l286 20l-401 401l30 30l401 -401l19 285l37 37z" />
    <glyph glyph-name="uni2199" unicode="&#x2199;" horiz-adv-x="860" 
d="M37 -10l-8 9l90 490l37 -37l20 -285l401 401l29 -30l-401 -401l286 -20l37 -36z" />
    <glyph glyph-name="partialdiff" unicode="&#x2202;" horiz-adv-x="649" 
d="M613 368q0 -99 -22.5 -170.5t-62 -117.5t-93.5 -68t-117 -22q-67 0 -120.5 22t-91 60t-57 90t-19.5 113q0 63 22 115t60 88.5t88.5 57t107.5 20.5q36 0 67.5 -12t46.5 -33q-15 96 -71 141t-133 45q-37 0 -70 -9.5t-66 -26.5l-18 52q38 32 94 54.5t134 22.5q87 0 148 -32
t99.5 -88.5t56 -134t17.5 -167.5zM337 60q26 0 43.5 13.5t27.5 37.5t14 58t4 75q0 114 -27.5 178t-86.5 64q-26 0 -43.5 -13.5t-27.5 -37.5t-14 -58t-4 -75q0 -114 27.5 -178t86.5 -64z" />
    <glyph glyph-name="Delta" unicode="&#x2206;" horiz-adv-x="860" 
d="M55 37l353 743h44l353 -743v-37h-750v37zM373 507l-202 -430h397z" />
    <glyph glyph-name="product" unicode="&#x220f;" horiz-adv-x="945" 
d="M325 714v-572q0 -22 4 -36.5t14 -23t28 -12t46 -4.5v-66h-377v66q28 1 46 4.5t28 12t14 23t4 36.5v496q0 23 -4 37t-14 22.5t-28 12t-46 4.5v66h865v-66q-28 -1 -46 -4.5t-28 -12t-14 -22.5t-4 -37v-496q0 -22 4 -36.5t14 -23t28 -12t46 -4.5v-66h-377v66q28 1 46 4.5
t28 12t14 23t4 36.5v572h-295z" />
    <glyph glyph-name="summation" unicode="&#x2211;" horiz-adv-x="663" 
d="M365 157q31 0 54 1.5t43 10.5t39.5 29t42.5 57h79l-45 -255h-548v90l252 272l-239 318v100h553l3 -208h-80q-14 35 -27.5 60t-31.5 41t-42 24t-58 8h-89l179 -248v-41l-256 -259h171z" />
    <glyph glyph-name="minus" unicode="&#x2212;" 
d="M80 253v94h540v-94h-540z" />
    <glyph glyph-name="radical" unicode="&#x221a;" horiz-adv-x="775" 
d="M681 764h85l-425 -764h-90l-109 456h-106v50l277 50l74 -327z" />
    <glyph glyph-name="infinity" unicode="&#x221e;" horiz-adv-x="924" 
d="M123 298q0 -53 30 -80t79 -27q48 0 86.5 25t72.5 74l-92 64q-29 20 -48.5 30t-42.5 10q-38 0 -61.5 -24t-23.5 -72zM801 345q0 53 -30 80t-79 27q-48 0 -86.5 -25t-72.5 -74l92 -64q29 -20 48.5 -30t42.5 -10q38 0 61.5 24t23.5 72zM442 252q-45 -63 -93 -93t-117 -30
q-37 0 -71.5 10t-61.5 32t-43 57.5t-16 85.5t16.5 87.5t43.5 62.5t61.5 37.5t70.5 12.5q48 0 85 -18.5t85 -50.5l80 -54q45 63 93 93t117 30q37 0 71.5 -10t61.5 -32t43 -57.5t16 -85.5t-16.5 -87.5t-43.5 -62.5t-61.5 -37.5t-70.5 -12.5q-48 0 -85 18.5t-85 50.5z" />
    <glyph glyph-name="integral" unicode="&#x222b;" horiz-adv-x="687" 
d="M253 553q11 115 78 176t190 61q87 0 121.5 -29.5t34.5 -75.5q0 -23 -10.5 -43t-31.5 -32h-110q12 27 12 60q0 28 -7.5 43t-30.5 15q-32 0 -42.5 -38.5t-18.5 -116.5l-53 -547q-11 -113 -72 -175t-181 -62q-88 0 -129.5 29.5t-41.5 75.5q0 23 10.5 43t31.5 32h110
q-12 -27 -12 -60q0 -28 7.5 -43t30.5 -15q32 0 42.5 38.5t18.5 116.5z" />
    <glyph glyph-name="approxequal" unicode="&#x2248;" 
d="M486 397q24 0 43.5 8.5t34 19t22.5 19.5t8 10l44 -78q-16 -20 -39 -35q-21 -15 -50 -25.5t-69 -10.5q-44 0 -76.5 11t-62 23.5t-59.5 23.5t-68 11q-24 0 -43.5 -8.5t-33.5 -19t-22.5 -19.5t-8.5 -10l-44 78q16 20 39 36q21 14 50 24.5t69 10.5q44 0 76.5 -11t62 -23.5
t59.5 -23.5t68 -11zM486 228q24 0 43.5 8.5t34 19t22.5 19.5t8 10l44 -78q-16 -20 -39 -35q-21 -15 -50 -25.5t-69 -10.5q-44 0 -76.5 11t-62 23.5t-59.5 23.5t-68 11q-24 0 -43.5 -8.5t-33.5 -19t-22.5 -19.5t-8.5 -10l-44 78q16 20 39 36q21 14 50 24.5t69 10.5
q44 0 76.5 -11t62 -23.5t59.5 -23.5t68 -11z" />
    <glyph glyph-name="notequal" unicode="&#x2260;" 
d="M214 158h-134v94h193l60 96h-253v94h312l64 102h94l-64 -102h134v-94h-193l-60 -96h243v-94h-302l-64 -102h-94z" />
    <glyph glyph-name="equivalence" unicode="&#x2261;" 
d="M80 120v93h540v-93h-540zM80 567v93h540v-93h-540zM80 343v93h540v-93h-540z" />
    <glyph glyph-name="lessequal" unicode="&#x2264;" 
d="M80 180v80l540 -166v-82zM299 350l321 -89v-101l-540 157v103l540 167v-101l-321 -96l-86 -20z" />
    <glyph glyph-name="greaterequal" unicode="&#x2265;" 
d="M80 12v82l540 166v-80zM487 369l-86 21l-321 96v101l540 -167v-103l-540 -157v101l321 89z" />
    <glyph glyph-name="squaremultiply" unicode="&#x22a0;" horiz-adv-x="976" 
d="M98 780h780v-780h-780v780zM165 717v-654h646v654h-646zM441 390l-225 225l47 47l225 -225l224 225l48 -47l-225 -225l225 -225l-48 -47l-224 225l-225 -225l-47 47z" />
    <glyph glyph-name="house" unicode="&#x2302;" horiz-adv-x="850" 
d="M70 0v450l355 340l355 -340v-450h-710z" />
    <glyph glyph-name="blacksquare" unicode="&#x25a0;" horiz-adv-x="976" 
d="M878 0h-780v780h780v-780z" />
    <glyph glyph-name="blacksquare" unicode="&#xe740;" horiz-adv-x="976" 
d="M878 0h-780v780h780v-780z" />
    <glyph glyph-name="whitesquare" unicode="&#x25a1;" horiz-adv-x="976" 
d="M98 780h780v-780h-780v780zM165 717v-654h646v654h-646z" />
    <glyph glyph-name="blacksmallsquare" unicode="&#x25aa;" horiz-adv-x="726" 
d="M628 0h-530v530h530v-530z" />
    <glyph glyph-name="whitesmallsquare" unicode="&#x25ab;" horiz-adv-x="726" 
d="M98 530h530v-530h-530v530zM165 467v-404h396v404h-396z" />
    <glyph glyph-name="triagup" unicode="&#x25b2;" horiz-adv-x="800" 
d="M10 0l390 676l390 -676h-780z" />
    <glyph glyph-name="triagrt" unicode="&#x25ba;" horiz-adv-x="800" 
d="M34 780l676 -390l-676 -390v780z" />
    <glyph glyph-name="triagdn" unicode="&#x25bc;" horiz-adv-x="800" 
d="M790 780l-390 -676l-390 676h780z" />
    <glyph glyph-name="triaglf" unicode="&#x25c4;" horiz-adv-x="800" 
d="M710 0l-676 390l676 390v-780z" />
    <glyph glyph-name="lozenge" unicode="&#x25ca;" horiz-adv-x="900" 
d="M82 390l368 400l368 -400l-368 -400zM450 112l253 278l-253 278l-253 -278z" />
    <glyph glyph-name="whitecircle" unicode="&#x25cb;" horiz-adv-x="976" 
d="M88 390q0 83 31.5 156t85.5 127t127 85.5t156 31.5t156 -31.5t127 -85.5t85.5 -127t31.5 -156t-31.5 -156t-85.5 -127t-127 -85.5t-156 -31.5t-156 31.5t-127 85.5t-85.5 127t-31.5 156zM815 390q0 69 -25.5 129.5t-69.5 106t-104 71.5t-128 26q-69 0 -128.5 -26
t-103.5 -71.5t-69.5 -106t-25.5 -129.5t25.5 -129.5t70 -106t104 -71.5t127.5 -26q69 0 128.5 26t103.5 71.5t69.5 106t25.5 129.5z" />
    <glyph glyph-name="whitecircle" unicode="&#x25ef;" horiz-adv-x="976" 
d="M88 390q0 83 31.5 156t85.5 127t127 85.5t156 31.5t156 -31.5t127 -85.5t85.5 -127t31.5 -156t-31.5 -156t-85.5 -127t-127 -85.5t-156 -31.5t-156 31.5t-127 85.5t-85.5 127t-31.5 156zM815 390q0 69 -25.5 129.5t-69.5 106t-104 71.5t-128 26q-69 0 -128.5 -26
t-103.5 -71.5t-69.5 -106t-25.5 -129.5t25.5 -129.5t70 -106t104 -71.5t127.5 -26q69 0 128.5 26t103.5 71.5t69.5 106t25.5 129.5z" />
    <glyph glyph-name="bullseye" unicode="&#x25ce;" horiz-adv-x="960" 
d="M80 390q0 83 31.5 156t85.5 127t127 85.5t156 31.5t156 -31.5t127 -85.5t85.5 -127t31.5 -156t-31.5 -156t-85.5 -127t-127 -85.5t-156 -31.5t-156 31.5t-127 85.5t-85.5 127t-31.5 156zM330 390q0 31 12 58.5t32 47.5t47.5 32t58.5 12t58.5 -12t47.5 -32t32 -47.5
t12 -58.5t-12 -58.5t-32 -47.5t-47.5 -32t-58.5 -12t-58.5 12t-47.5 32t-32 47.5t-12 58.5zM157 339q0 -57 21.5 -106.5t58 -86t86 -58t106.5 -21.5t106.5 21.5t86.5 58t58.5 86t21.5 106.5t-21.5 106.5t-58.5 86.5t-86.5 58.5t-106.5 21.5t-106.5 -21.5t-86 -58.5
t-58 -86.5t-21.5 -106.5z" />
    <glyph glyph-name="blackcircle" unicode="&#x25cf;" horiz-adv-x="976" 
d="M88 390q0 83 31.5 156t85.5 127t127 85.5t156 31.5t156 -31.5t127 -85.5t85.5 -127t31.5 -156t-31.5 -156t-85.5 -127t-127 -85.5t-156 -31.5t-156 31.5t-127 85.5t-85.5 127t-31.5 156z" />
    <glyph glyph-name="uni25E2" unicode="&#x25e2;" horiz-adv-x="800" 
d="M578 754l202 -754l-754 202z" />
    <glyph glyph-name="uni25E3" unicode="&#x25e3;" horiz-adv-x="800" 
d="M774 202l-754 -202l202 754z" />
    <glyph glyph-name="uni25E4" unicode="&#x25e4;" horiz-adv-x="800" 
d="M222 26l-202 754l754 -202z" />
    <glyph glyph-name="uni25E5" unicode="&#x25e5;" horiz-adv-x="800" 
d="M26 578l754 202l-202 -754z" />
    <glyph glyph-name="uni2605" unicode="&#x2605;" horiz-adv-x="880" 
d="M180 -10l99 307l-260 189h322l99 306l99 -306h322l-260 -189l99 -307l-260 190z" />
    <glyph glyph-name="ballotboxwithx" unicode="&#x2612;" horiz-adv-x="710" 
d="M90 530h530v-530h-530v530zM160 464v-398h390v398h-390zM310 265l-130 129l46 46l129 -130l129 130l46 -46l-130 -129l130 -129l-46 -46l-129 130l-129 -130l-46 46z" />
    <glyph glyph-name="uni263C" unicode="&#x263c;" horiz-adv-x="960" 
d="M711 360l155 -73l-171 15l132 -112l-162 59l98 -141l-141 98l58 -162l-111 130l15 -170l-74 155l-30 -169l-30 169l-74 -155l15 170l-111 -130l58 162l-141 -98l98 141l-162 -59l132 112l-171 -15l155 73l-169 30l169 30l-155 73l171 -15l-132 112l162 -59l-98 141
l141 -98l-58 162l111 -130l-15 170l74 -155l30 169l30 -169l74 155l-15 -170l111 130l-58 -162l141 98l-98 -141l162 59l-132 -112l171 15l-155 -73l169 -30z" />
    <glyph glyph-name="uni263E" unicode="&#x263e;" horiz-adv-x="960" 
d="M624 728q-67 0 -126 -26.5t-103 -72.5t-69.5 -107.5t-25.5 -131.5t25.5 -131.5t69.5 -107.5t103 -72.5t126 -26.5q50 0 96 15q-51 -37 -112.5 -57t-127.5 -20q-83 0 -156 31.5t-127 85.5t-85.5 127t-31.5 156t31.5 156t85.5 127t127 85.5t156 31.5q66 0 127.5 -20.5
t112.5 -56.5q-23 7 -47 11t-49 4z" />
    <glyph glyph-name="spade" unicode="&#x2660;" horiz-adv-x="900" 
d="M451 790q12 -19 35 -47.5t54 -60.5t67.5 -64t76.5 -58q33 -21 62.5 -44.5t52 -51t36 -59.5t13.5 -71q0 -37 -13.5 -68.5t-37.5 -55t-56 -37t-69 -13.5t-68 13.5t-56 36t-44 51.5t-32 60l-3 -1q4 -51 10.5 -93t16 -80t23 -73.5t32.5 -73.5h-202q19 38 32.5 73.5t23 73.5
t16 80t10.5 93l-3 1q-13 -31 -32 -60t-44 -51.5t-56 -36t-68 -13.5t-69 13.5t-56 37t-37.5 55t-13.5 68.5q0 39 13.5 71t36 59.5t52 51t62.5 44.5q40 26 76.5 58t67.5 64t54 60.5t35 47.5h2z" />
    <glyph glyph-name="club" unicode="&#x2663;" horiz-adv-x="900" 
d="M349 0q19 38 32.5 73.5t23 73.5t16 80t10.5 93l-3 1q-13 -31 -32 -60t-44 -51.5t-56 -36t-68 -13.5t-69 13.5t-56 37t-37.5 55t-13.5 68.5q0 39 12.5 72t35.5 57t55 37.5t71 13.5q26 0 46.5 -7t37.5 -16l2 2q-17 25 -27.5 54.5t-10.5 62.5q0 37 13.5 70t37 57.5
t55.5 38.5t70 14t70 -14t55.5 -38.5t37 -57.5t13.5 -70q0 -33 -10.5 -62.5t-27.5 -54.5l2 -2q17 9 37.5 16t46.5 7q39 0 71 -13.5t55 -37.5t35.5 -57t12.5 -72q0 -37 -13.5 -68.5t-37.5 -55t-56 -37t-69 -13.5t-68 13.5t-56 36t-44 51.5t-32 60l-3 -1q4 -51 10.5 -93t16 -80
t23 -73.5t32.5 -73.5h-202z" />
    <glyph glyph-name="heart" unicode="&#x2665;" horiz-adv-x="900" 
d="M449 -10q-12 19 -35 50t-54 70t-67.5 83.5t-76.5 89.5q-26 29 -55 65t-53 75.5t-40 80.5t-16 80q0 44 13.5 82t38 65.5t60 43t79.5 15.5q47 0 80.5 -13t57.5 -34.5t40 -50t27 -59.5h4q11 31 27 59.5t40 50t58 34.5t80 13q44 0 79.5 -15.5t60.5 -43t38 -65.5t13 -82
q0 -39 -16 -80t-40 -80.5t-53 -75.5t-55 -65q-40 -45 -76.5 -89.5t-67.5 -83.5t-54 -70t-35 -50h-2z" />
    <glyph glyph-name="diamond" unicode="&#x2666;" horiz-adv-x="900" 
d="M817 390q-53 -42 -104.5 -89.5t-98.5 -99t-88.5 -105t-74.5 -106.5h-2q-33 53 -74.5 106.5t-88.5 105t-98.5 99t-104.5 89.5q53 42 104.5 89.5t98.5 99t88.5 105t74.5 106.5h2q33 -53 74.5 -106.5t88.5 -105t98.5 -99t104.5 -89.5z" />
    <glyph glyph-name="musicflatsign" unicode="&#x266d;" horiz-adv-x="467" 
d="M440 351q0 -71 -33.5 -134t-88.5 -114.5t-125 -89t-143 -58.5v866h65v-363q11 19 28 34.5t37 27t41.5 17.5t42.5 6q93 0 134.5 -48t41.5 -144zM115 58q33 14 75.5 37.5t80.5 59t64 82t26 106.5q0 25 -5 47.5t-17 39t-31.5 26.5t-47.5 10q-30 0 -55.5 -11.5t-44.5 -30.5
t-31 -42.5t-14 -46.5v-277z" />
    <glyph glyph-name="musicsharpsign" unicode="&#x266f;" horiz-adv-x="451" 
d="M349 681l90 72v-115l-90 -72v-154l90 72v-115l-90 -72v-297h-65v244l-116 -92v-252h-65v199l-90 -72v115l90 72v154l-90 -72v115l90 72v297h65v-245l116 93v252h65v-199zM168 266l116 93v154l-116 -92v-155z" />
    <glyph glyph-name="uni267B" unicode="&#x267b;" horiz-adv-x="960" 
d="M864 264l-96 -167q-8 -12 -15 -22t-17 -17.5t-23 -12t-33 -4.5h-57v-49l-113 136l113 135v-49h145q22 0 39.5 8t30.5 18q14 11 25 26zM184 122l-96 168q-6 12 -11.5 23.5t-7 23.5t1.5 25.5t13 30.5l28 49l-42 24l174 31l59 -166l-41 24q-20 -34 -35 -61
q-15 -25 -25.5 -43.5t-11.5 -20.5q-11 -19 -13 -38.5t0 -34.5q2 -18 9 -35h-2zM404 780h193q29 -1 51 -7t41 -40l28 -49l43 24l-61 -166l-173 31l41 24l-72 125q-11 20 -26.5 31t-30.5 17q-16 7 -34 9v1zM267 717q4 7 13 15.5t21 15.5q22 13 47.5 14.5t49 -4.5t42 -18.5
t26.5 -26.5l-116 -201l-150 86zM311 41q-8 0 -20.5 3t-23.5 10q-23 13 -37 34.5t-20.5 45t-5 45t9.5 35.5h232v-173h-135zM875 410q4 -7 7 -18.5t3 -25.5q0 -26 -11.5 -49t-28.5 -40t-36.5 -27t-35.5 -10l-116 201l149 86z" />
    <glyph glyph-name="uni267C" unicode="&#x267c;" horiz-adv-x="960" 
d="M880 389q0 -83 -31.5 -155.5t-85.5 -126.5t-126.5 -85.5t-155.5 -31.5t-156 31.5t-127.5 85.5t-86 126.5t-31.5 155.5t31.5 156t86 127.5t127.5 86t156 31.5t155.5 -31.5t126.5 -86t85.5 -127.5t31.5 -156zM261 553l116 -67l90 156q-6 11 -20.5 20.5t-32.5 14t-38 3.5
t-37 -11q-9 -5 -16 -12t-10 -12zM415 693q14 -2 27 -7q12 -5 23.5 -13.5t20.5 -23.5l56 -97l-32 -19l134 -24l47 129l-33 -19l-22 38q-15 26 -32 31.5t-39 5.5h-150v-1zM448 121v134h-180q-6 -11 -7 -28t3.5 -35t15.5 -34.5t29 -26.5q9 -5 18.5 -7.5t15.5 -2.5h105zM250 184
q-5 13 -7 27q-2 13 -0.5 27.5t10.5 29.5l56 97l32 -19l-46 129l-135 -24l33 -19l-22 -38q-16 -26 -11.5 -43.5t14.5 -36.5l75 -130h1zM731 498l-116 -67l90 -156q12 0 27.5 7.5t29 21t22 31.5t8.5 38q0 11 -2.5 20t-5.5 14zM775 295q-9 -11 -20 -20q-10 -8 -23.5 -14
t-30.5 -6h-112v38l-88 -105l88 -105v38h44q31 0 44 12.5t24 30.5l75 130z" />
    <glyph glyph-name="uni267D" unicode="&#x267d;" horiz-adv-x="960" 
d="M880 389q0 -83 -31.5 -155.5t-85.5 -126.5t-126.5 -85.5t-155.5 -31.5t-156 31.5t-127.5 85.5t-86 126.5t-31.5 155.5t31.5 156t86 127.5t127.5 86t156 31.5t155.5 -31.5t126.5 -86t85.5 -127.5t31.5 -156zM860 389q0 79 -29.5 148.5t-81 121t-120.5 81.5t-148 30
t-148.5 -30t-121 -81.5t-81.5 -121t-30 -148.5t30 -148t81.5 -120.5t121 -81t148.5 -29.5t148 29.5t120.5 81t81 120.5t29.5 148zM313 645q3 5 10 12t16 12q17 10 37 11t38 -3.5t32.5 -14t20.5 -20.5l-90 -156l-116 67zM415 694h150q22 0 39 -5.5t32 -31.5l22 -38l33 19
l-47 -129l-134 24l32 19l-56 97q-9 15 -21 23.5t-23 13.5q-13 5 -27 7v1zM343 121q-6 0 -15.5 2.5t-18.5 7.5q-18 10 -29 26.5t-15.5 34.5t-3.5 35t7 28h180v-134h-105zM249 184l-75 130q-10 19 -14.5 36.5t11.5 43.5l22 38l-33 19l135 24l46 -129l-32 19l-56 -97
q-9 -15 -10.5 -30t0.5 -27q2 -14 7 -27h-1zM784 407q3 -5 5.5 -14t2.5 -20q0 -20 -8.5 -38t-22 -31.5t-29 -21t-27.5 -7.5l-90 156l116 67zM776 294l-75 -130q-11 -18 -24 -30.5t-44 -12.5h-44v-38l-88 105l88 105v-38h112q17 0 31 6t23 14q11 9 20 20z" />
    <glyph glyph-name="mediumwhitecircle" unicode="&#x26aa;" horiz-adv-x="710" 
d="M80 265q0 57 21.5 107t59 87.5t87.5 59t107 21.5t107 -21.5t87.5 -59t59 -87.5t21.5 -107t-21.5 -107t-59 -87.5t-87.5 -59t-107 -21.5t-107 21.5t-87.5 59t-59 87.5t-21.5 107zM561 265q0 43 -16 81t-44 66t-65.5 44.5t-80.5 16.5t-80.5 -16.5t-65.5 -44.5t-44 -66
t-16 -81t16 -81t44 -66t65.5 -44.5t80.5 -16.5t80.5 16.5t65.5 44.5t44 66t16 81z" />
    <glyph glyph-name="mediumblackcircle" unicode="&#x26ab;" horiz-adv-x="710" 
d="M80 265q0 57 21.5 107t59 87.5t87.5 59t107 21.5t107 -21.5t87.5 -59t59 -87.5t21.5 -107t-21.5 -107t-59 -87.5t-87.5 -59t-107 -21.5t-107 21.5t-87.5 59t-59 87.5t-21.5 107z" />
    <glyph glyph-name="anglebracketleft" unicode="&#x3008;" horiz-adv-x="403" 
d="M70 350l179 480h94l-175 -480l175 -480h-94z" />
    <glyph glyph-name="anglebracketright" unicode="&#x3009;" horiz-adv-x="403" 
d="M154 -130h-94l175 480l-175 480h94l179 -480z" />
    <glyph glyph-name="aogonek.school" unicode="&#xe150;" horiz-adv-x="706" 
d="M344 486q-61 0 -94 -51t-33 -136q0 -92 35.5 -142t95.5 -50q25 0 44.5 5.5t38.5 20.5v259q0 44 -21 69t-66 25zM676 23q-38 -17 -60.5 -36.5t-34 -38.5t-14.5 -36.5t-3 -30.5q0 -27 13 -42.5t42 -15.5q21 0 35.5 7t31.5 18l12 -43q-19 -22 -53.5 -38.5t-73.5 -16.5
q-57 0 -91.5 28.5t-34.5 83.5q0 41 22 76.5t73 63.5l-75 -12h-39l5 97q-26 -44 -69 -70.5t-103 -26.5q-54 0 -96.5 18t-72 51.5t-45 81t-15.5 107.5q0 71 22.5 128t62 97t92 61.5t112.5 21.5q51 0 95.5 -13.5t84.5 -48.5l49 62h68l-5 -120v-297q0 -26 8.5 -39.5t32.5 -13.5
h24v-63z" />
    <glyph glyph-name="a.school" unicode="&#xe151;" horiz-adv-x="706" 
d="M344 486q-61 0 -94 -51t-33 -136q0 -92 35.5 -142t95.5 -50q25 0 44.5 5.5t38.5 20.5v259q0 44 -21 69t-66 25zM431 87q-26 -44 -69 -70.5t-103 -26.5q-54 0 -96.5 18t-72 51.5t-45 81t-15.5 107.5q0 71 22.5 128t62 97t92 61.5t112.5 21.5q51 0 95.5 -13.5t84.5 -48.5
l49 62h68l-5 -120v-297q0 -26 8.5 -39.5t32.5 -13.5h24v-63l-211 -33h-39z" />
    <glyph glyph-name="agrave.school" unicode="&#xe152;" horiz-adv-x="706" 
d="M344 486q-61 0 -94 -51t-33 -136q0 -92 35.5 -142t95.5 -50q25 0 44.5 5.5t38.5 20.5v259q0 44 -21 69t-66 25zM431 87q-26 -44 -69 -70.5t-103 -26.5q-54 0 -96.5 18t-72 51.5t-45 81t-15.5 107.5q0 71 22.5 128t62 97t92 61.5t112.5 21.5q51 0 95.5 -13.5t84.5 -48.5
l49 62h68l-5 -120v-297q0 -26 8.5 -39.5t32.5 -13.5h24v-63l-211 -33h-39zM292 800l84 -208h-85l-201 208h202z" />
    <glyph glyph-name="aacute.school" unicode="&#xe153;" horiz-adv-x="706" 
d="M344 486q-61 0 -94 -51t-33 -136q0 -92 35.5 -142t95.5 -50q25 0 44.5 5.5t38.5 20.5v259q0 44 -21 69t-66 25zM431 87q-26 -44 -69 -70.5t-103 -26.5q-54 0 -96.5 18t-72 51.5t-45 81t-15.5 107.5q0 71 22.5 128t62 97t92 61.5t112.5 21.5q51 0 95.5 -13.5t84.5 -48.5
l49 62h68l-5 -120v-297q0 -26 8.5 -39.5t32.5 -13.5h24v-63l-211 -33h-39zM562 800l-201 -208h-85l94 208h192z" />
    <glyph glyph-name="acircumflex.school" unicode="&#xe154;" horiz-adv-x="706" 
d="M344 486q-61 0 -94 -51t-33 -136q0 -92 35.5 -142t95.5 -50q25 0 44.5 5.5t38.5 20.5v259q0 44 -21 69t-66 25zM431 87q-26 -44 -69 -70.5t-103 -26.5q-54 0 -96.5 18t-72 51.5t-45 81t-15.5 107.5q0 71 22.5 128t62 97t92 61.5t112.5 21.5q51 0 95.5 -13.5t84.5 -48.5
l49 62h68l-5 -120v-297q0 -26 8.5 -39.5t32.5 -13.5h24v-63l-211 -33h-39zM541 592h-87l-124 102l-124 -102h-87l157 208h108z" />
    <glyph glyph-name="adieresis.school" unicode="&#xe155;" horiz-adv-x="706" 
d="M344 486q-61 0 -94 -51t-33 -136q0 -92 35.5 -142t95.5 -50q25 0 44.5 5.5t38.5 20.5v259q0 44 -21 69t-66 25zM431 87q-26 -44 -69 -70.5t-103 -26.5q-54 0 -96.5 18t-72 51.5t-45 81t-15.5 107.5q0 71 22.5 128t62 97t92 61.5t112.5 21.5q51 0 95.5 -13.5t84.5 -48.5
l49 62h68l-5 -120v-297q0 -26 8.5 -39.5t32.5 -13.5h24v-63l-211 -33h-39zM123 702q0 39 27 66.5t65 27.5q39 0 66.5 -27.5t27.5 -66.5q0 -38 -27.5 -65t-66.5 -27q-19 0 -35.5 7.5t-29 20t-20 29t-7.5 35.5zM351 702q0 39 27 66.5t65 27.5q39 0 66.5 -27.5t27.5 -66.5
q0 -38 -27.5 -65t-66.5 -27q-19 0 -35.5 7.5t-29 20t-20 29t-7.5 35.5z" />
    <glyph glyph-name="atilde.school" unicode="&#xe156;" horiz-adv-x="706" 
d="M344 486q-61 0 -94 -51t-33 -136q0 -92 35.5 -142t95.5 -50q25 0 44.5 5.5t38.5 20.5v259q0 44 -21 69t-66 25zM431 87q-26 -44 -69 -70.5t-103 -26.5q-54 0 -96.5 18t-72 51.5t-45 81t-15.5 107.5q0 71 22.5 128t62 97t92 61.5t112.5 21.5q51 0 95.5 -13.5t84.5 -48.5
l49 62h68l-5 -120v-297q0 -26 8.5 -39.5t32.5 -13.5h24v-63l-211 -33h-39zM393 611q-22 0 -42.5 9t-39.5 19.5t-36 19.5t-32 9q-22 0 -36.5 -13.5t-29.5 -41.5l-58 10q29 89 63.5 125.5t85.5 36.5q22 0 42.5 -9t39.5 -19.5t36 -19.5t32 -9q22 0 36.5 13.5t29.5 41.5l58 -10
q-29 -88 -63.5 -125t-85.5 -37z" />
    <glyph glyph-name="aring.school" unicode="&#xe157;" horiz-adv-x="706" 
d="M344 486q-61 0 -94 -51t-33 -136q0 -92 35.5 -142t95.5 -50q25 0 44.5 5.5t38.5 20.5v259q0 44 -21 69t-66 25zM431 87q-26 -44 -69 -70.5t-103 -26.5q-54 0 -96.5 18t-72 51.5t-45 81t-15.5 107.5q0 71 22.5 128t62 97t92 61.5t112.5 21.5q51 0 95.5 -13.5t84.5 -48.5
l49 62h68l-5 -120v-297q0 -26 8.5 -39.5t32.5 -13.5h24v-63l-211 -33h-39zM209 702q0 48 33.5 81t87.5 33q55 0 88.5 -33t33.5 -81t-33.5 -81t-88.5 -33q-54 0 -87.5 33t-33.5 81zM382 702q0 23 -13 38.5t-39 15.5t-39 -15.5t-13 -38.5t13 -38.5t39 -15.5t39 15.5t13 38.5z
" />
    <glyph glyph-name="amacron.school" unicode="&#xe159;" horiz-adv-x="706" 
d="M344 486q-61 0 -94 -51t-33 -136q0 -92 35.5 -142t95.5 -50q25 0 44.5 5.5t38.5 20.5v259q0 44 -21 69t-66 25zM431 87q-26 -44 -69 -70.5t-103 -26.5q-54 0 -96.5 18t-72 51.5t-45 81t-15.5 107.5q0 71 22.5 128t62 97t92 61.5t112.5 21.5q51 0 95.5 -13.5t84.5 -48.5
l49 62h68l-5 -120v-297q0 -26 8.5 -39.5t32.5 -13.5h24v-63l-211 -33h-39zM179 716h302v-90h-302v90z" />
    <glyph glyph-name="abreve.school" unicode="&#xe15a;" horiz-adv-x="706" 
d="M344 486q-61 0 -94 -51t-33 -136q0 -92 35.5 -142t95.5 -50q25 0 44.5 5.5t38.5 20.5v259q0 44 -21 69t-66 25zM431 87q-26 -44 -69 -70.5t-103 -26.5q-54 0 -96.5 18t-72 51.5t-45 81t-15.5 107.5q0 71 22.5 128t62 97t92 61.5t112.5 21.5q51 0 95.5 -13.5t84.5 -48.5
l49 62h68l-5 -120v-297q0 -26 8.5 -39.5t32.5 -13.5h24v-63l-211 -33h-39zM330 599q-97 0 -137.5 53.5t-40.5 147.5h58q4 -29 15.5 -48t27.5 -30t36 -15t41 -4t41 4t36 15t27.5 30t15.5 48h58q0 -94 -40.5 -147.5t-137.5 -53.5z" />
    <glyph glyph-name="ytilde.school" unicode="&#xe160;" horiz-adv-x="673" 
d="M279 -250q-45 0 -83.5 7.5t-67.5 23t-45.5 39.5t-16.5 57q0 51 50 76h127v-24q0 -29 2.5 -50.5t10.5 -36t23 -22t40 -7.5q62 0 85.5 47t23.5 127v116q-13 -18 -31.5 -35.5t-42 -31.5t-52.5 -22.5t-64 -8.5q-69 0 -113 40.5t-44 128.5v222q0 23 -8.5 37.5t-34.5 20.5
l-16 4v56l205 42h39l-5 -100v-255q0 -42 18.5 -61.5t49.5 -19.5t54 8.5t45 19.5v248q0 23 -8.5 37.5t-34.5 20.5l-16 4v56l205 42h39l-5 -100v-428q0 -72 -23.5 -124t-67 -86.5t-104 -51t-134.5 -16.5zM402 611q-22 0 -42.5 9t-39.5 19.5t-36 19.5t-32 9q-22 0 -36.5 -13.5
t-29.5 -41.5l-58 10q29 89 63.5 125.5t85.5 36.5q22 0 42.5 -9t39.5 -19.5t36 -19.5t32 -9q22 0 36.5 13.5t29.5 41.5l58 -10q-29 -88 -63.5 -125t-85.5 -37z" />
    <glyph glyph-name="g.school" unicode="&#xe161;" horiz-adv-x="676" 
d="M431 105q-26 -44 -69 -70.5t-103 -26.5q-108 0 -168.5 63t-60.5 183q0 71 22.5 127t62 95t92 59.5t112.5 20.5q55 0 101.5 -16.5t78.5 -45.5l49 62h68l-5 -120v-408q0 -72 -23.5 -124t-67 -86.5t-104 -51t-134.5 -16.5q-45 0 -83.5 7.5t-67.5 23t-45.5 39.5t-16.5 57
q0 51 50 76h127v-24q0 -29 2.5 -50.5t10.5 -36t23 -22t40 -7.5q62 0 85.5 47t23.5 127v118zM344 486q-61 0 -94 -48t-33 -133q0 -92 35.5 -136t95.5 -44q25 0 44.5 5.5t38.5 20.5v241q0 44 -21 69t-66 25z" />
    <glyph glyph-name="gcircumflex.school" unicode="&#xe163;" horiz-adv-x="676" 
d="M431 105q-26 -44 -69 -70.5t-103 -26.5q-108 0 -168.5 63t-60.5 183q0 71 22.5 127t62 95t92 59.5t112.5 20.5q55 0 101.5 -16.5t78.5 -45.5l49 62h68l-5 -120v-408q0 -72 -23.5 -124t-67 -86.5t-104 -51t-134.5 -16.5q-45 0 -83.5 7.5t-67.5 23t-45.5 39.5t-16.5 57
q0 51 50 76h127v-24q0 -29 2.5 -50.5t10.5 -36t23 -22t40 -7.5q62 0 85.5 47t23.5 127v118zM344 486q-61 0 -94 -48t-33 -133q0 -92 35.5 -136t95.5 -44q25 0 44.5 5.5t38.5 20.5v241q0 44 -21 69t-66 25zM537 592h-87l-124 102l-124 -102h-87l157 208h108z" />
    <glyph glyph-name="gbreve.school" unicode="&#xe166;" horiz-adv-x="676" 
d="M431 105q-26 -44 -69 -70.5t-103 -26.5q-108 0 -168.5 63t-60.5 183q0 71 22.5 127t62 95t92 59.5t112.5 20.5q55 0 101.5 -16.5t78.5 -45.5l49 62h68l-5 -120v-408q0 -72 -23.5 -124t-67 -86.5t-104 -51t-134.5 -16.5q-45 0 -83.5 7.5t-67.5 23t-45.5 39.5t-16.5 57
q0 51 50 76h127v-24q0 -29 2.5 -50.5t10.5 -36t23 -22t40 -7.5q62 0 85.5 47t23.5 127v118zM344 486q-61 0 -94 -48t-33 -133q0 -92 35.5 -136t95.5 -44q25 0 44.5 5.5t38.5 20.5v241q0 44 -21 69t-66 25zM326 599q-97 0 -137.5 53.5t-40.5 147.5h58q4 -29 15.5 -48
t27.5 -30t36 -15t41 -4t41 4t36 15t27.5 30t15.5 48h58q0 -94 -40.5 -147.5t-137.5 -53.5z" />
    <glyph glyph-name="gdotaccent.school" unicode="&#xe167;" horiz-adv-x="676" 
d="M431 105q-26 -44 -69 -70.5t-103 -26.5q-108 0 -168.5 63t-60.5 183q0 71 22.5 127t62 95t92 59.5t112.5 20.5q55 0 101.5 -16.5t78.5 -45.5l49 62h68l-5 -120v-408q0 -72 -23.5 -124t-67 -86.5t-104 -51t-134.5 -16.5q-45 0 -83.5 7.5t-67.5 23t-45.5 39.5t-16.5 57
q0 51 50 76h127v-24q0 -29 2.5 -50.5t10.5 -36t23 -22t40 -7.5q62 0 85.5 47t23.5 127v118zM344 486q-61 0 -94 -48t-33 -133q0 -92 35.5 -136t95.5 -44q25 0 44.5 5.5t38.5 20.5v241q0 44 -21 69t-66 25zM217 701q0 44 28.5 73t79.5 29q52 0 80.5 -29t28.5 -73
q0 -43 -28.5 -72t-80.5 -29q-51 0 -79.5 29t-28.5 72z" />
    <glyph glyph-name="gcommaaccent.school" unicode="&#xe168;" horiz-adv-x="676" 
d="M342 725q27 -6 41 -20.5t14 -40.5t-19.5 -44.5t-56.5 -18.5q-42 0 -67 26t-25 69q0 25 8 46t26 37t47 25.5t71 10.5v-44q-44 -4 -63.5 -15t-19.5 -31h44zM431 105q-26 -44 -69 -70.5t-103 -26.5q-108 0 -168.5 63t-60.5 183q0 71 22.5 127t62 95t92 59.5t112.5 20.5
q55 0 101.5 -16.5t78.5 -45.5l49 62h68l-5 -120v-408q0 -72 -23.5 -124t-67 -86.5t-104 -51t-134.5 -16.5q-45 0 -83.5 7.5t-67.5 23t-45.5 39.5t-16.5 57q0 51 50 76h127v-24q0 -29 2.5 -50.5t10.5 -36t23 -22t40 -7.5q62 0 85.5 47t23.5 127v118zM344 486q-61 0 -94 -48
t-33 -133q0 -92 35.5 -136t95.5 -44q25 0 44.5 5.5t38.5 20.5v241q0 44 -21 69t-66 25z" />
    <glyph glyph-name="y.school" unicode="&#xe16b;" horiz-adv-x="673" 
d="M279 -250q-45 0 -83.5 7.5t-67.5 23t-45.5 39.5t-16.5 57q0 51 50 76h127v-24q0 -29 2.5 -50.5t10.5 -36t23 -22t40 -7.5q62 0 85.5 47t23.5 127v116q-13 -18 -31.5 -35.5t-42 -31.5t-52.5 -22.5t-64 -8.5q-69 0 -113 40.5t-44 128.5v222q0 23 -8.5 37.5t-34.5 20.5
l-16 4v56l205 42h39l-5 -100v-255q0 -42 18.5 -61.5t49.5 -19.5t54 8.5t45 19.5v248q0 23 -8.5 37.5t-34.5 20.5l-16 4v56l205 42h39l-5 -100v-428q0 -72 -23.5 -124t-67 -86.5t-104 -51t-134.5 -16.5z" />
    <glyph glyph-name="ygrave.school" unicode="&#xe16c;" horiz-adv-x="673" 
d="M279 -250q-45 0 -83.5 7.5t-67.5 23t-45.5 39.5t-16.5 57q0 51 50 76h127v-24q0 -29 2.5 -50.5t10.5 -36t23 -22t40 -7.5q62 0 85.5 47t23.5 127v116q-13 -18 -31.5 -35.5t-42 -31.5t-52.5 -22.5t-64 -8.5q-69 0 -113 40.5t-44 128.5v222q0 23 -8.5 37.5t-34.5 20.5
l-16 4v56l205 42h39l-5 -100v-255q0 -42 18.5 -61.5t49.5 -19.5t54 8.5t45 19.5v248q0 23 -8.5 37.5t-34.5 20.5l-16 4v56l205 42h39l-5 -100v-428q0 -72 -23.5 -124t-67 -86.5t-104 -51t-134.5 -16.5zM301 800l84 -208h-85l-201 208h202z" />
    <glyph glyph-name="yacute.school" unicode="&#xe16d;" horiz-adv-x="673" 
d="M279 -250q-45 0 -83.5 7.5t-67.5 23t-45.5 39.5t-16.5 57q0 51 50 76h127v-24q0 -29 2.5 -50.5t10.5 -36t23 -22t40 -7.5q62 0 85.5 47t23.5 127v116q-13 -18 -31.5 -35.5t-42 -31.5t-52.5 -22.5t-64 -8.5q-69 0 -113 40.5t-44 128.5v222q0 23 -8.5 37.5t-34.5 20.5
l-16 4v56l205 42h39l-5 -100v-255q0 -42 18.5 -61.5t49.5 -19.5t54 8.5t45 19.5v248q0 23 -8.5 37.5t-34.5 20.5l-16 4v56l205 42h39l-5 -100v-428q0 -72 -23.5 -124t-67 -86.5t-104 -51t-134.5 -16.5zM571 800l-201 -208h-85l94 208h192z" />
    <glyph glyph-name="ycircumflex.school" unicode="&#xe16e;" horiz-adv-x="673" 
d="M279 -250q-45 0 -83.5 7.5t-67.5 23t-45.5 39.5t-16.5 57q0 51 50 76h127v-24q0 -29 2.5 -50.5t10.5 -36t23 -22t40 -7.5q62 0 85.5 47t23.5 127v116q-13 -18 -31.5 -35.5t-42 -31.5t-52.5 -22.5t-64 -8.5q-69 0 -113 40.5t-44 128.5v222q0 23 -8.5 37.5t-34.5 20.5
l-16 4v56l205 42h39l-5 -100v-255q0 -42 18.5 -61.5t49.5 -19.5t54 8.5t45 19.5v248q0 23 -8.5 37.5t-34.5 20.5l-16 4v56l205 42h39l-5 -100v-428q0 -72 -23.5 -124t-67 -86.5t-104 -51t-134.5 -16.5zM550 592h-87l-124 102l-124 -102h-87l157 208h108z" />
    <glyph glyph-name="ydieresis.school" unicode="&#xe16f;" horiz-adv-x="673" 
d="M279 -250q-45 0 -83.5 7.5t-67.5 23t-45.5 39.5t-16.5 57q0 51 50 76h127v-24q0 -29 2.5 -50.5t10.5 -36t23 -22t40 -7.5q62 0 85.5 47t23.5 127v116q-13 -18 -31.5 -35.5t-42 -31.5t-52.5 -22.5t-64 -8.5q-69 0 -113 40.5t-44 128.5v222q0 23 -8.5 37.5t-34.5 20.5
l-16 4v56l205 42h39l-5 -100v-255q0 -42 18.5 -61.5t49.5 -19.5t54 8.5t45 19.5v248q0 23 -8.5 37.5t-34.5 20.5l-16 4v56l205 42h39l-5 -100v-428q0 -72 -23.5 -124t-67 -86.5t-104 -51t-134.5 -16.5zM132 702q0 39 27 66.5t65 27.5q39 0 66.5 -27.5t27.5 -66.5
q0 -38 -27.5 -65t-66.5 -27q-19 0 -35.5 7.5t-29 20t-20 29t-7.5 35.5zM360 702q0 39 27 66.5t65 27.5q39 0 66.5 -27.5t27.5 -66.5q0 -38 -27.5 -65t-66.5 -27q-19 0 -35.5 7.5t-29 20t-20 29t-7.5 35.5z" />
    <glyph glyph-name="ymacron.school" unicode="&#xe171;" horiz-adv-x="673" 
d="M279 -250q-45 0 -83.5 7.5t-67.5 23t-45.5 39.5t-16.5 57q0 51 50 76h127v-24q0 -29 2.5 -50.5t10.5 -36t23 -22t40 -7.5q62 0 85.5 47t23.5 127v116q-13 -18 -31.5 -35.5t-42 -31.5t-52.5 -22.5t-64 -8.5q-69 0 -113 40.5t-44 128.5v222q0 23 -8.5 37.5t-34.5 20.5
l-16 4v56l205 42h39l-5 -100v-255q0 -42 18.5 -61.5t49.5 -19.5t54 8.5t45 19.5v248q0 23 -8.5 37.5t-34.5 20.5l-16 4v56l205 42h39l-5 -100v-428q0 -72 -23.5 -124t-67 -86.5t-104 -51t-134.5 -16.5zM188 716h302v-90h-302v90z" />
    </font>
</defs>
</svg>
