<?xml version="1.0" encoding="UTF-8"?>
<svg width="16px" height="19px" viewBox="0 0 16 19" version="1.1" xmlns="http://www.w3.org/2000/svg" xmlns:xlink="http://www.w3.org/1999/xlink">
    <!-- Generator: Sketch 64 (93537) - https://sketch.com -->
    <title>icon-download</title>
    <desc>Created with Sketch.</desc>
    <g id="web" stroke="none" stroke-width="1" fill="none" fill-rule="evenodd">
        <g id="omega3-ready1" transform="translate(-703.000000, -2103.000000)" fill="#85853E" fill-rule="nonzero">
            <g id="Group-2" transform="translate(623.000000, 2084.000000)">
                <g id="icon-download" transform="translate(80.000000, 19.000000)">
                    <path d="M13.0834,8.49806667 L12.2486667,7.54806667 C12.0181333,7.28586667 11.6191333,7.26053333 11.3556667,7.4898 L8.86666667,9.671 L8.86666667,0.633333333 C8.86666667,0.283733333 8.58293333,5.44231327e-13 8.23333333,5.44231327e-13 L6.96666667,5.44231327e-13 C6.61706667,5.44231327e-13 6.33333333,0.283733333 6.33333333,0.633333333 L6.33333333,9.671 L3.84433333,7.4898 C3.58213333,7.26053333 3.18313333,7.28586667 2.95133333,7.54806667 L2.1166,8.4968 C1.8848,8.76026667 1.9114,9.1618 2.17486667,9.39233333 L7.18326667,13.7762667 C7.42266667,13.9852667 7.7786,13.9852667 8.018,13.7762667 L13.0251333,9.39233333 C13.2886,9.1618 13.3152,8.76026667 13.0834,8.49806667 Z" id="Path"></path>
                    <path d="M14.5666667,16.4666667 L0.633333333,16.4666667 C0.283733333,16.4666667 -7.31266899e-14,16.7504 -7.31266899e-14,17.1 L-7.31266899e-14,18.3666667 C-7.31266899e-14,18.7162667 0.283733333,19 0.633333333,19 L14.5666667,19 C14.9162667,19 15.2,18.7162667 15.2,18.3666667 L15.2,17.1 C15.2,16.7504 14.9162667,16.4666667 14.5666667,16.4666667 Z" id="Path"></path>
                </g>
            </g>
        </g>
    </g>
</svg>