<svg xmlns="http://www.w3.org/2000/svg" viewBox="0 0 137.31 39.35"><defs><style>.cls-1{fill:none;stroke:#01272e;stroke-miterlimit:10;stroke-width:1.68px;}.cls-2{fill:#01272e;}</style></defs><title>Asset 1</title><g id="Layer_2" data-name="Layer 2"><g id="Side_Panel" data-name="Side Panel"><rect class="cls-1" x="53.48" y="4.5" width="30.35" height="30.35" rx="6.35" transform="translate(131.11 -14.96) rotate(135)"/><path class="cls-2" d="M62.23,21.78a2,2,0,0,1-1.65.88,1.92,1.92,0,0,1-2-1.94,1.9,1.9,0,0,1,1.94-1.95,2,2,0,0,1,1.59.81l-.56.47a1.26,1.26,0,0,0-1-.56,1.23,1.23,0,0,0,0,2.45,1.32,1.32,0,0,0,1.08-.58Z"/><path class="cls-2" d="M67.54,21.63a2.83,2.83,0,0,1-2.15,1A2.86,2.86,0,0,1,65.31,17a2.76,2.76,0,0,1,2,.86l-.53.52a2.07,2.07,0,0,0-1.5-.62,2.1,2.1,0,0,0,.08,4.19,2,2,0,0,0,1.36-.51V20H65.16v-.75h2.38Z"/><path class="cls-2" d="M71.54,21.39H71l-1.62-2.54v3.73h-.79V17h.55l2.14,3.38L73.4,17H74v5.55h-.79V18.85Z"/><path class="cls-2" d="M76,20.12v2.46h-.8V17h2.1a1.68,1.68,0,0,1,1.16.37A1.54,1.54,0,0,1,79,18.58a1.57,1.57,0,0,1-.54,1.18,1.68,1.68,0,0,1-1.16.36Zm1.26-.75a.92.92,0,0,0,.73-.25A.79.79,0,0,0,78,18a.92.92,0,0,0-.73-.24H76v1.58Z"/><rect class="cls-1" x="4.5" y="4.5" width="30.35" height="30.35" rx="6.35" transform="translate(47.5 19.67) rotate(135)"/><path class="cls-2" d="M9.77,22.58H9.22L7,17h.82l1.63,4.18L11.12,17H12Z"/><path class="cls-2" d="M15.16,19.21V20H13.33v1.86h2.46v.76H12.54V17h3.17v.75H13.33v1.43Z"/><path class="cls-2" d="M21.06,21.62a2.84,2.84,0,0,1-5-1.82,2.81,2.81,0,0,1,4.83-2l-.53.52a2.12,2.12,0,0,0-1.5-.63,2.1,2.1,0,0,0,.07,4.2,1.92,1.92,0,0,0,1.36-.51V20H18.68v-.75h2.38Z"/><path class="cls-2" d="M25,21.15H22.7l-.58,1.43h-.83L23.59,17h.56l2.29,5.55h-.82Zm-2-.75h1.71l-.85-2.06Z"/><path class="cls-2" d="M27.79,18.5v4.08H27V17h.55l3.33,4.07V17h.79v5.55h-.55Z"/><rect class="cls-1" x="102.46" y="4.5" width="30.35" height="30.35" rx="6.35" transform="translate(214.72 -49.59) rotate(135)"/><path class="cls-2" d="M113.77,17.59a2.84,2.84,0,0,1-2.16,1,2.85,2.85,0,1,1,2-4.85l-.53.53a2.1,2.1,0,0,0-1.5-.63,2,2,0,0,0-2,2.1,2,2,0,0,0,2.08,2.1,1.88,1.88,0,0,0,1.36-.52V15.93h-1.58v-.75h2.38Z"/><path class="cls-2" d="M117.77,17.35h-.56l-1.62-2.54v3.73h-.79V13h.55l2.14,3.38L119.63,13h.55v5.54h-.79V14.81Z"/><path class="cls-2" d="M123.75,12.92a2.76,2.76,0,0,1,2.77,2.85,2.78,2.78,0,1,1-5.55,0A2.77,2.77,0,0,1,123.75,12.92Zm0,5a2,2,0,0,0,2-2.1,2,2,0,1,0-4,0A2,2,0,0,0,123.75,17.87Z"/><path class="cls-2" d="M112.42,22.5v.75H110.6v2.62h-.79V20.32H113v.76H110.6V22.5Z"/><path class="cls-2" d="M114.44,23.25v2.62h-.79V20.32h1.94a1.55,1.55,0,0,1,1.07.33,1.46,1.46,0,0,1,0,2.28,1.26,1.26,0,0,1-.64.29l2,2.65h-1l-2-2.62Zm1.11-.75a.87.87,0,0,0,.66-.2.72.72,0,0,0,0-1,.87.87,0,0,0-.66-.2h-1.11V22.5Z"/><path class="cls-2" d="M121.13,22.5v.75h-1.82v1.87h2.46v.75h-3.25V20.32h3.17v.76h-2.38V22.5Z"/><path class="cls-2" d="M125.21,22.5v.75h-1.82v1.87h2.45v.75H122.6V20.32h3.17v.76h-2.38V22.5Z"/></g></g></svg>